<?xml version="1.0" encoding="utf-8"?>
<!-- Generator: Adobe Illustrator 21.1.0, SVG Export Plug-In . SVG Version: 6.00 Build 0)  -->
<svg version="1.1" xmlns="http://www.w3.org/2000/svg" xmlns:xlink="http://www.w3.org/1999/xlink" x="0px" y="0px"
	 viewBox="0 0 1920 606.1" style="enable-background:new 0 0 1920 606.1;" xml:space="preserve">
<style type="text/css">
	.st0{opacity:0.31;}
	.st1{fill:#9BB7D3;}
	.st2{fill:#EBA76C;}
	.st3{fill:#BACDDD;}
	.st4{fill:#E8F1F9;}
	.st5{fill:#E17D27;}
	.st6{fill:#256A9A;}
	.st7{fill:#304657;}
	.st8{fill:#19648E;}
	.st9{fill:#5885C7;}
	.st10{fill:#D29026;}
	.st11{fill:#4F4E4E;}
	.st12{fill:none;}
</style>
<g id="BACKGROUND">
</g>
<g id="OBJECTS">
	<g class="st0">
		<g>
			<path class="st1" d="M745.5,178.8h-11.8v11.8h-10.3v-11.8h-11.8v-10.3h11.8v-11.8h10.3v11.8h11.8V178.8z"/>
		</g>
		<g>
			<path class="st1" d="M947.5,184.4h-11.8v11.8h-10.3v-11.8h-11.8v-10.3h11.8v-11.8h10.3v11.8h11.8V184.4z"/>
		</g>
		<g>
			<path class="st1" d="M1157.9,131.7h-11.8v11.8h-10.3v-11.8h-11.8v-10.3h11.8v-11.8h10.3v11.8h11.8V131.7z"/>
		</g>
		<g>
			<path class="st1" d="M745.5,371.1h-11.8v11.8h-10.3v-11.8h-11.8v-10.3h11.8v-11.8h10.3v11.8h11.8V371.1z"/>
		</g>
		<g>
			<path class="st1" d="M1190.5,350.3c0-2.6-1.7-4.3-5.4-4.3c-4,0-6.5,2.7-7.9,6.2l-10.1-5.8c3.2-7.6,10.4-11.8,18.5-11.8
				c8.4,0,16.8,5.1,16.8,14.7c0,11-11.8,14.3-11.8,19.4h-11.8C1178.7,360.1,1190.5,356.8,1190.5,350.3z M1177.6,381.1
				c0-3.8,3.2-7,7-7c3.8,0,7,3.2,7,7c0,3.8-3.2,7-7,7C1180.8,388.1,1177.6,385,1177.6,381.1z"/>
		</g>
		<g>
			<path class="st1" d="M796.6,108.1c0-2.6-1.7-4.3-5.4-4.3c-4,0-6.5,2.7-7.9,6.2l-10.1-5.8c3.2-7.6,10.4-11.8,18.5-11.8
				c8.4,0,16.8,5.1,16.8,14.7c0,11-11.8,14.3-11.8,19.4h-11.8C784.8,117.9,796.6,114.6,796.6,108.1z M783.7,138.9c0-3.8,3.2-7,7-7
				c3.8,0,7,3.2,7,7c0,3.8-3.2,7-7,7C786.9,145.9,783.7,142.7,783.7,138.9z"/>
		</g>
		<g>
			<path class="st1" d="M1213.6,90.5c0-2.6-1.7-4.3-5.4-4.3c-4,0-6.5,2.7-7.9,6.2l-10.1-5.8c3.2-7.6,10.4-11.8,18.5-11.8
				c8.4,0,16.8,5.1,16.8,14.7c0,11-11.8,14.3-11.8,19.4h-11.8C1201.8,100.3,1213.6,97,1213.6,90.5z M1200.7,121.3c0-3.8,3.2-7,7-7
				c3.8,0,7,3.2,7,7c0,3.8-3.2,7-7,7C1203.9,128.3,1200.7,125.1,1200.7,121.3z"/>
		</g>
		<g>
			<path class="st1" d="M1225.4,180.9l-1,5.9h7.8l-1.2,8.1h-7.9l-1.8,11h-8.4l1.8-11h-6.8l-1.8,11h-8.4l1.8-11h-7.8l1.3-8.1h7.8
				l1-5.9h-7.9l1.3-8.1h7.9l1.8-11h8.4l-1.8,11h6.8l1.8-11h8.4l-1.8,11h7.7l-1.3,8.1H1225.4z M1217,180.9h-6.8l-1,5.9h6.8
				L1217,180.9z"/>
		</g>
		<g>
			<path class="st1" d="M1012.1,150.4l-1,5.9h7.8l-1.2,8.1h-7.9l-1.8,11h-8.4l1.8-11h-6.8l-1.8,11h-8.4l1.8-11h-7.8l1.3-8.1h7.8
				l1-5.9h-7.9l1.3-8.1h7.9l1.8-11h8.4l-1.8,11h6.8l1.8-11h8.4l-1.8,11h7.7l-1.3,8.1H1012.1z M1003.7,150.4h-6.8l-1,5.9h6.8
				L1003.7,150.4z"/>
		</g>
		<g>
			<path class="st1" d="M715,435.2l-1,5.9h7.8l-1.2,8.1h-7.9l-1.8,11h-8.4l1.8-11h-6.8l-1.8,11h-8.4l1.8-11h-7.8l1.3-8.1h7.8l1-5.9
				h-7.9l1.3-8.1h7.9l1.8-11h8.4l-1.8,11h6.8l1.8-11h8.4l-1.8,11h7.7l-1.3,8.1H715z M706.6,435.2h-6.8l-1,5.9h6.8L706.6,435.2z"/>
		</g>
		<g>
			<path class="st1" d="M1241.1,435.2l-1,5.9h7.8l-1.2,8.1h-7.9l-1.8,11h-8.4l1.8-11h-6.8l-1.8,11h-8.4l1.8-11h-7.8l1.3-8.1h7.8
				l1-5.9h-7.9l1.3-8.1h7.9l1.8-11h8.4l-1.8,11h6.8l1.8-11h8.4l-1.8,11h7.7l-1.3,8.1H1241.1z M1232.7,435.2h-6.8l-1,5.9h6.8
				L1232.7,435.2z"/>
		</g>
	</g>
	<path class="st2" d="M1096.3,388.7c-0.8,1.2-3.2,1.1-4.4,0.9c-1.5-0.3-2.8-1.3-4-2.2c-3.7-2.8-7.3-5.6-10.6-8.9
		c-1.7-1.6-3.7-2.9-5.1-4.8c-0.3-0.4-0.2-2-0.2-2.5c0-0.8,0.9-0.7,1.6-0.7c3.8,0.2,7.2,2.4,10.3,4.4c1.2,0.8,2.2,1.7,3.4,2.5
		c1.8,1.2,3.7,2.4,5.3,3.9c1.3,1.1,2.5,2.7,3.3,4.1c0.4,0.7,1,1.7,0.8,2.7C1096.5,388.7,1096.2,389.1,1096.3,388.7z"/>
	<path class="st2" d="M1073.1,375.3c-0.9-0.7-1.1-1.9-1.3-2.9c-0.8-3.3-1-6.8-1.3-10.3c-0.3-2.8,0.1-5.7-0.4-8.6
		c-0.5-2.7-1.7-5.2-2-8c-0.1-1.5-0.1-3.9,0.7-5.5c0.3-0.6,1.2-0.8,1.7-0.2c0.2,0.3,0.4,0.5,0.6,0.8c0.3,0.6,0.3,1.7,0.5,2.4
		c0.4,1.4,1.1,2.8,1.3,4.2c0.2-0.6,0.1-1.7,0.1-2.7c0-0.3,0.4-0.4,0.5-0.1c0.4,1.3,0.8,2.9,0.9,4c0.2,1.3-0.6,3.1-0.4,4.5
		c0.2,2.4,1.2,4.2,1.8,6.5c1,3.9,2.8,8,2.4,12.1c-0.1,1,0.2,2.8-0.7,3.5C1076.8,375.6,1074,376,1073.1,375.3z"/>
	<path class="st1" d="M1100.8,382.8c-0.8-0.7-2.2-0.7-3.3-1c-1.4-0.5-2.9-1.1-4.1-1.9c-0.7-0.4-1.3-0.9-2-1.2
		c-0.7-0.3-1.5-0.5-2.1-1c-0.6-0.4-1-1-1.6-0.5c-0.6,0.4-1,1-1.6,1.5c-1,0.8-2,1.8-2.6,3c-0.4,0.9-0.5,1.8-0.8,2.6
		c0.8,0.5,1.4,1.2,2.1,1.6c1,0.6,2,1.2,2.9,2c0.7,0.6,1.3,1.4,1.8,2.2c0.9,1.3,0.8,2.4,0.7,3.9c-0.1,2.5-0.8,4.9-0.8,7.4
		c0.4-0.3,0.8-0.7,1.2-1c0.7-0.5,1.5-0.7,2.1-1.3c1.2-1.2,1.3-3.2,1.7-4.7c0.6-2.6,1.5-5.2,3.4-7.2c0.8-0.9,1.5-1.7,2.1-2.8
		c0.3-0.5,0.7-1.2,1-1.7C1100.7,382.9,1100.5,383.1,1100.8,382.8z"/>
	<g>
		<path class="st2" d="M799.8,337.2c0-0.3,0.1-0.7,0.1-1c0.4-2.7,0.7-5.4,1.7-7.9c0.4-1.1,1-2.2,1.4-3.4c0.4-1.2,0.5-2.5,0-3.6
			c-0.8,1.1-1.3,2.3-1.5,3.7c0-2.9,0.1-5.8,0.5-8.6c-0.2-0.1-0.5,0-0.7,0.1c-1.2,0.6-2.2,1.4-3.1,2.3c-0.4,0.5-0.8,1-1,1.5
			c-0.2,0.6-0.2,1.3-0.2,2c0.1,1.8,0.9,4,0.3,5.7c-0.3,0.8-0.2,1.3-1,2.7c-1.1,2.1-2.2,4.2-3.2,6.3c-1.2,2.4-4,8-2.8,10.8
			c0.7,1.6,1.7,2.3,3.4,2.1c1.7-0.2,2.6-1.7,3.3-3.3C798.3,344.3,799.5,339.7,799.8,337.2z"/>
		<path class="st2" d="M792.1,377.2c0.4-0.8,0.7-1.6,0.9-2.5c2.1-8.4,3.7-17,3.2-25.7c-0.1-0.9-0.1-1.9-0.6-2.8
			c-0.4-0.9-1.3-1.7-2.3-1.8c-1-0.2-2,0.3-2.6,1c-0.6,0.7-0.9,1.6-1.2,2.5c-2.5,7.5-4.1,15.4-4.2,23.4c0,1.9,0.1,3.9,1.2,5.5
			c0.6,0.9,1.8,1.9,3,2C790.7,378.9,791.6,378,792.1,377.2z"/>
		<path class="st1" d="M793.8,376c0.5-1,0.9-2,1.2-3.1c0.3-0.8,0.5-1.7,0.8-2.5c0.2-0.8,0.5-1.5,0.6-2.3c0.2-0.8,0.3-1.5,0.3-2.3
			c0.2-1.3,0.3-2.7,0.5-4c-4.5-1.7-9.6-1.9-14.3-0.4c-0.1,2.1-0.1,4.2,0.1,6.4c0.2,2.1,0.5,4.2,1.3,6c0.9,1.9,2.5,3.7,4.3,4.7
			C790.6,379.5,792.9,377.7,793.8,376z"/>
	</g>
	<g>
		<path class="st3" d="M637.2,509.7c-14.6,0-42.1-2.9-71-6.1c-36.4-3.9-77.7-8.3-93.5-6.6l-1-9.4c16.8-1.8,56.9,2.5,95.5,6.6
			c30.1,3.2,58.5,6.3,71.9,6C712,498.6,775.4,479,776,478.8l2.8,9.1c-0.6,0.2-65.2,20.2-139.6,21.8
			C638.7,509.7,638,509.7,637.2,509.7z"/>
	</g>
	<g>
		<g>
			<path class="st1" d="M274.4,313.4c-44.7,0-95.5-19.6-144.9-38.7c-47.1-18.2-91.6-35.3-128.1-35.3v-19c40.1,0,86.2,17.8,135,36.6
				c53.7,20.7,109.2,42.1,153,36.5c39.4-5.1,81.4-23.9,122.1-42.2c45.7-20.5,88.8-39.8,123.9-37.1c30.9,2.3,57.3,13.1,83,23.4
				c28.6,11.6,55.6,22.5,88.3,22.5v19c-36.3,0-66.3-12.1-95.4-23.9c-25.4-10.3-49.4-20-77.3-22.1c-30.3-2.3-71.3,16.1-114.7,35.5
				c-41.9,18.8-85.2,38.2-127.4,43.7C286.1,313.1,280.3,313.4,274.4,313.4z"/>
		</g>
		<path class="st4" d="M836.8,272.1l4.5-82.5c0,0-23.5,0-37.7,0c-22.6,0-32.8,41-55.3,53c-18.7,10-35.1,10.2-44.6,10.2
			c-9.5,0-10.2,17.5-10.2,17.5s0.7,17.5,10.2,17.5c9.5,0,25.9,0.2,44.6,10.2c22.5,12,32.7,53,55.3,53c14.3,0,37.7,0,37.7,0
			l-4.8-78.7L836.8,272.1z"/>
		<path class="st1" d="M885.2,270.2c0-28.2-4-53.7-10.4-71.4v-25.5h-21.7c-17.7,0-32.1,43.4-32.1,96.9c0,53.5,14.4,96.9,32.1,96.9
			h21.7v-25.5C881.2,323.9,885.2,298.5,885.2,270.2z"/>
		<ellipse class="st4" cx="873.3" cy="270.2" rx="32.1" ry="96.9"/>
		<g>
			<ellipse class="st1" cx="873.3" cy="234.3" rx="4.2" ry="12.6"/>
			<rect x="873.3" y="221.7" class="st1" width="68.6" height="25.1"/>
			<circle class="st1" cx="944.1" cy="234.3" r="12.6"/>
		</g>
		<g>
			<ellipse class="st1" cx="873.3" cy="306.2" rx="4.2" ry="12.6"/>
			<rect x="873.3" y="293.6" class="st1" width="68.6" height="25.1"/>
			<circle class="st1" cx="944.1" cy="306.2" r="12.6"/>
		</g>
	</g>
	<g>
		<path class="st3" d="M1287.8,509.7c-0.1,0-0.2,0-0.3,0c-13.6,0-35.9-3-59.5-6.1c-29.6-3.9-63.1-8.3-79.2-6.6l-1-9.4
			c17.3-1.9,49.9,2.5,81.5,6.6c23.3,3.1,45.3,6,58.3,6c0.1,0,0.2,0,0.3,0c66.5,0,169.6-30.5,170.6-30.8l2.7,9.1
			C1456.8,479.8,1355.6,509.7,1287.8,509.7z"/>
	</g>
	<g>
		<g>
			<path class="st1" d="M1388.8,316.1c-30.8,0-61.4-9.5-91-18.6c-29.1-9-59.2-18.3-88.7-18.3v-19c32.4,0,63.9,9.7,94.3,19.1
				c32.9,10.2,63.9,19.8,94.8,17.4c22.9-1.7,53.9-11,86.7-20.9c56-16.8,119.4-35.8,174.3-28.7c16.7,2.2,33.1,5.3,49,8.3
				c64.9,12.4,126.3,24.1,200.2-33.1l11.6,15c-80.7,62.4-149.2,49.3-215.4,36.7c-15.6-3-31.7-6-47.9-8.1
				c-50.9-6.6-112.3,11.8-166.4,28c-33.8,10.1-65.8,19.7-90.7,21.6C1396,315.9,1392.4,316.1,1388.8,316.1z"/>
		</g>
		<path class="st4" d="M1211.9,252.8c-9.5,0-25.9-0.2-44.6-10.2c-22.5-12-32.7-53-55.3-53c-14.3,0-37.7,0-37.7,0l5.1,78.5l-0.6,0
			l-4.5,82.7c0,0,23.5,0,37.7,0c22.6,0,32.8-41,55.3-53c18.7-10,35.1-10.2,44.6-10.2c9.5,0,10.2-17.5,10.2-17.5
			S1221.4,252.8,1211.9,252.8z"/>
		<path class="st1" d="M1030.3,270.2c0-28.2,4-53.7,10.4-71.4v-25.5h21.7c17.7,0,32.1,43.4,32.1,96.9c0,53.5-14.4,96.9-32.1,96.9
			h-21.7v-25.5C1034.3,323.9,1030.3,298.5,1030.3,270.2z"/>
		<ellipse class="st4" cx="1042.2" cy="270.2" rx="32.1" ry="96.9"/>
		<g>
			<ellipse class="st1" cx="1042.2" cy="234.3" rx="4.2" ry="12.6"/>
		</g>
		<g>
			<ellipse class="st1" cx="1042.2" cy="306.2" rx="4.2" ry="12.6"/>
		</g>
	</g>
	<g>
		<ellipse class="st3" cx="811.3" cy="483.8" rx="55.3" ry="6.7"/>
		<path class="st2" d="M840.1,345.5c0.3-0.2,0.5-0.4,0.7-0.7c2-1.9,4.1-3.6,5.6-5.9c0.7-1,1.3-2.1,2.1-3c0.8-0.9,1.8-1.8,3-2
			c-0.4,1.3-1.2,2.4-2.2,3.3c2.4-1.6,4.7-3.3,6.9-5.2c0.2,0.1,0.3,0.4,0.4,0.7c0.2,1.3,0.1,2.6-0.2,3.8c-0.1,0.6-0.4,1.2-0.7,1.7
			c-0.4,0.5-0.9,0.9-1.5,1.3c-1.6,0.9-3.8,1.4-4.9,2.9c-0.5,0.7-1,0.9-1.7,2.3c-1.1,2.1-2.3,4.1-3.5,6.2c-1.3,2.3-4.4,7.8-7.5,8.3
			c-1.7,0.3-2.9-0.1-3.6-1.7c-0.8-1.6,0-3.1,0.9-4.6C835.1,350.7,838.2,347.1,840.1,345.5z"/>
		<path class="st2" d="M837.9,358.2c0,0.1-0.1,0.3-0.2,0.4c-0.4,0.8-1.1,1.5-1.8,2.1c-4.1,3.6-8.6,6.8-13.4,9.4
			c-2.2,1.2-4.4,2.3-6.7,3.3c-1.7,0.7-3.6,1.4-5.6,1c-1.1-0.2-2.5-1-3-2.1c-0.5-1,0-2.2,0.6-3c0.5-0.7,1.3-1.2,2-1.8
			c7-5.1,14.3-9.8,22.6-12.6c0.9-0.3,1.8-0.6,2.8-0.5c1,0.1,2,0.5,2.5,1.4C838.2,356.5,838.2,357.4,837.9,358.2z"/>
		<path class="st2" d="M808.3,358.4c-0.4,1-1.1,2-2.1,2.2c-0.3,0.1-1.2,0-2.2-0.1c-0.2,0-0.5-0.1-0.7-0.1c-1-0.2-1.9-0.4-2.1-0.6
			c-0.6-0.4-1.8-2.3-1.9-2.6c0-0.1-0.1-0.1-0.1-0.2c-0.1-0.2-0.2-0.4-0.3-0.6c-0.3-0.6-0.8-1.3-0.8-1.8c0-3.3,1.4-4.1,2.6-5.7
			c1.2-1.6,3-2.7,4.9-3.4c1-0.4,2.3-0.6,3.3-0.3c1,0.3,0.8,1,0.9,1.8C810,350.9,809.9,354.8,808.3,358.4z"/>
		<path class="st2" d="M805.4,365.8c-2.4,2.6-6.2,3.7-9.6,2.9c-1-0.2-1.9-0.6-2.9-0.7c1.4-0.9,2.1-2.5,2.4-4.1
			c0.4-1.8,0.3-3.7-0.2-5.4c-0.1-0.4-0.9-1.9-0.5-2.2c0.3-0.2,2.1,0.5,2.6,0.5c0.6,0,1.1-0.2,1.6-0.4c0.1,0,0.2-0.1,0.3-0.1l0,0
			c0.6-0.3,1.2-0.6,1.8-0.8c0.1,0,0.3-0.1,0.4,0c0.1,0,0.2,0.1,0.3,0.2c0.8,0.7,1.6,1.4,2.3,2.1c-0.3,0.8-0.5,1.6-0.6,2.4
			c0,0.1,0,0.1,0,0.2c-0.1,0.8-0.2,1.5-0.2,2.3c0,0.2,0,0.4,0,0.7c0,0.3,0.1,0.6,0.2,0.8C803.6,365,804.5,365.7,805.4,365.8z"/>
		<path class="st5" d="M803.2,360.4c-0.1,0.8-0.2,1.5-0.2,2.3c0,0.2,0,0.4,0,0.7c-0.2-0.1-0.4-0.4-0.6-0.5c-0.4-0.3-0.7-0.6-1-1
			c-1-1.1-1.5-2.4-2-3.7c-0.1-0.3-0.3-0.7-0.4-1.1c0-0.2-0.1-0.4,0-0.7c0,0,0,0,0,0l0,0c0.9,0.9,1.5,1.9,2.5,2.8
			c0.5,0.4,1.1,0.8,1.7,1.1c0.1,0,0.1,0.1,0.2,0.1c0.2,0.1,0.3,0.1,0.5,0.2C803.7,360.4,803.5,360.4,803.2,360.4z"/>
		<path class="st6" d="M800.7,359.4c0.6-0.5,1.2-1.1,1.7-1.8c1.2-1.6,1.5-3.7,2.5-5.4c0.6-1.1,1.5-2.1,2.6-2.8
			c0.9-0.6,1.9-1,2.7-1.7c1.2-1.1,1.8-2.7,1.8-4.4c0-1.6-0.5-3.2-1.2-4.7c-0.6,0.7-1.6,0.9-2.5,1c-2.5,0.3-5.1,0.1-7.6,0.3
			c-2.5,0.2-5.2,1-6.8,3c-1.7,2-2,4.9-2.1,7.6c0,1.4,0,2.7,0.3,4.1c0.4,1.7,1.1,3.4,2.2,4.7C796.2,361.8,798.7,361.1,800.7,359.4z"
			/>
		<path class="st2" d="M805.5,351.7c-0.2-0.3-0.5-0.6-0.8-0.8c-0.3-0.2-0.8-0.1-1.1,0.1c-0.2,0.2-0.3,0.5-0.3,0.8
			c0,0.3,0.1,0.6,0.3,0.9c0.4,1,0.8,1.9,1.5,2.7c0.1,0.1,0.3,0.3,0.5,0.2c0.1,0,0.2-0.1,0.2-0.2c0-0.2,0.3-0.7,0.4-0.9
			c0.1-0.4,0.1-0.7,0.1-1.1c0,0,0,0.1,0,0.1C805.9,353,805.8,352.2,805.5,351.7z"/>
		<path class="st7" d="M790.8,481.6c-0.1,0.7-0.2,1.5,0,2.1c0.4,1.4,2.1,2.1,3.5,2c1.4-0.1,2.7-0.9,4-1.6c2-1.2,4.1-2.5,5.8-4.1
			c0.7-0.6,1.3-1.3,1.6-2.1c0.4-0.8,0.4-1.8,0-2.6c-0.7-1.2-2.3-1.5-3.7-1.2c-1.3,0.3-2.5,1.2-3.8,1.8c-1.7,0.8-2.7,1.4-4.5,2.1
			C791.7,478.7,791.1,479.5,790.8,481.6z"/>
		<path class="st6" d="M788.5,414.6c-0.4,4.5,0.4,9,1.1,13.4c0.7,4.7,1.2,9.4,1.6,14.1c0.1,1.5,0.2,2.9,0.1,4.4
			c-0.2,2.3-1.1,4.6-1.6,6.9c-0.8,3.9-0.4,8,0,11.9c0.3,2.6,0.5,5.3,0.8,7.9c0.2,2.5,0.5,5,1.3,7.4c2.2,0.8,3.5-0.1,4.3-0.9
			c0.4-6.9,1.5-13.8,3.3-20.5c0.6-2.1,1.2-4.2,1.6-6.3c0.4-2.4,0.5-4.9,0.6-7.3c0.6-9.3,2.7-18.6,1.9-27.9
			c-0.3-3.6-1.1-7.1-1.8-10.7c-0.1-0.3-0.1-0.7-0.4-0.9c-0.3-0.3-0.6-0.3-1-0.4c-1.9-0.3-3.8-0.6-5.7-0.9c-1.2-0.2-2.7-0.7-3.6,0.2
			c-0.9,1-1.1,3.1-1.4,4.4C789,411.2,788.7,412.9,788.5,414.6z"/>
		<path class="st7" d="M809.9,485.4c-0.1,0.8-0.3,1.5,0,2.3c0.4,1.5,2.1,2.3,3.7,2.3c1.6-0.1,3-0.8,4.4-1.5c2.2-1.1,4.3-2.3,6.4-3.6
			c1.2-0.8,2.4-1.7,3-2.9c0.6-1.3,0.4-3.1-0.9-3.8c-1.3-0.8-3,0-4.4,0.6c-1.6,0.6-3.2,0.9-4.8,1.2c-1.7,0.3-4.5,0.3-5.9,1.1
			C810,481.7,810.1,484,809.9,485.4z"/>
		<path class="st6" d="M799.7,423c0.9,1.4,2.1,2.7,3,4.1c1.2,2,1.9,4.2,2.7,6.4c2,6,3.9,12.2,4,18.5c0.1,4.4-0.8,8.9-0.9,13.3
			c-0.1,3,0.2,5.9,0.4,8.9c0.3,3,0.5,6,0.8,9.1c2.5,0.2,5-0.3,7.2-1.5c-0.4-7.5,0.4-15,1.7-22.4c0.6-3.6,1.4-7.1,1.7-10.7
			c0.6-6.6-0.2-13.3-1-19.9c-1-8.2-2.1-16.4-4.9-24.2c0.2,0.5-13.7,1.9-14.9,2c-4.4,0.4-3.2,5.8-2.6,9
			C797.2,418.3,798.2,420.8,799.7,423z"/>
		<path class="st8" d="M796.5,441.8c0.4,1.5,1,3,1.2,4.5c0.2,1.8,0.1,3.6-0.1,5.4c-0.2,2-0.4,4.1-0.5,6.1
			c-0.5,5.3-0.8,10.6-1.7,15.8c-0.3,2.1,0.4,3.8,0.6,6.1c2.1-6.6,3-12.9,4.3-19.7c1.4-7.7,1.8-15.6,2.3-23.4
			c0.1-2.3,0.2-4.5,0.4-6.8c0.1-1.1,0.1-2.4-0.5-3.4c-0.6-1-1.6-1.6-2.6-2.2c-2.5-1.6-4.1-3.8-6.3-5.6c-0.8,1-0.1,3.8,0,5
			c0.2,2,0.4,4.1,0.6,6.1C794.6,433.9,795.3,437.9,796.5,441.8z"/>
		<path class="st1" d="M815,391c0.2-1.4,0.4-2.8,0.4-4.2c0-2.5-0.8-5-1.5-7.4c-1-3.3-2-6.5-3-9.8c-0.4-1.2-0.7-2.4-1.3-3.5
			c-1.6,0.3-3.2,0.2-4.8-0.3l0.2,0.2c-2.1,1.8-5,2.7-7.7,2.6c0,0,0,0,0,0c-0.3-0.1-0.8-0.1-1.2-0.3c-0.3-0.1-0.7-0.3-1-0.5
			c-0.5-0.3-1-1-0.8-1.6c-0.9,0.7-1.5,0.9-2.6,0.9c-0.8,0-1.7,0.1-2.3,0.6c-1.1,0.9-1.6,2.3-1.9,3.7c0,0.1,0,0.1-0.1,0.2
			c-0.3,1.2-0.2,2.4-0.1,3.7c0.2,2.6,0.5,5.1,1.2,7.6c0.4,1.6,0.9,3.1,1.2,4.7c1.2,6.4-1.5,13.1-0.2,19.5c0.8-0.1,1.4,0.5,2,1
			c2.1,1.6,4.8,2.2,7.5,2.3c2.7,0.1,5.3-0.3,7.9-0.4c3-0.1,6.4,0.2,8.7-1.8C814.9,402.5,814.4,396.7,815,391z"/>
		<path class="st1" d="M809.2,368.3c-0.8-0.5-2,0-2.5,0.8c-0.5,0.8-0.6,1.8-0.6,2.8c-0.1,5.8,1.6,11.5,2.1,17.2
			c0.1,1.2,0.1,2.5-0.2,3.7c-0.3,1.1-0.9,2.2-1.3,3.3c-0.7,2.2-0.6,4.6-0.2,6.9c0.4,2.3,1.1,4.6,1.2,6.9c2.9-0.2,5.7-0.7,8.4-1.7
			c0.2-0.1,0.3-0.1,0.4-0.3c0.1-0.2,0.1-0.4,0-0.5c-1.1-5.4-1-11.1-0.7-16.6c0.1-1.4,0.2-2.8,0.1-4.2c-0.1-1.3-0.4-2.6-0.7-3.8
			c-0.7-3.1-1.5-6.3-3.5-8.6c-0.8-0.9-1.7-1.6-2.3-2.5C808.8,370.5,808.5,369.2,809.2,368.3c0.2,0.3,0.4,0.7,0.7,1.1"/>
		<path class="st1" d="M805.7,368.9c0.6-0.9,1.5-1.7,2.3-2.4c0.6-0.6,1.3-1.2,1.9-1.8c0.6-0.5,1.2-1.1,1.8-1.6
			c0.6-0.5,1.3-0.9,1.9-1.3c1.1-0.7,2.2-1.5,3.4-2.2c3.5,3.3,5.9,7.8,6.7,12.6c-1.8,1.1-3.8,2-5.7,2.8c-1.9,0.8-3.9,1.4-6,1.5
			c-2,0.1-4.4-0.6-6.1-1.8C803.9,373.3,804.6,370.5,805.7,368.9z"/>
		<path class="st9" d="M803.4,363.4C803.5,363.5,803.5,363.5,803.4,363.4C803.4,363.4,803.4,363.4,803.4,363.4z"/>
	</g>
	<g>
		<ellipse class="st3" cx="1105.7" cy="492.3" rx="55.3" ry="6.7"/>
		<path class="st10" d="M1091.5,381.9c0.6,0.3,1.3,0.3,1.9,0.3c1.3,0,2.5-0.1,3.7-0.4c2-0.5,3.7-1.7,5.4-2.8c0.5-0.3,1-0.7,1.6-1
			c0.3-0.2,0.7-0.2,0.9-0.5c-0.5-0.2-1-0.1-1.5-0.3c-1.4-0.6-2.3-2.1-2.7-3.5c-0.2-0.5-0.3-1.1-0.5-1.7c-0.1-0.4-0.2-0.8-0.3-1.2
			c0-0.2-0.1-0.4-0.1-0.6c-0.1-0.7,0-1.5,0.2-2.1c0.1-0.1,0.1-0.2,0.2-0.3c-0.3,0-0.5-0.3-0.8-0.3c-0.4,0-0.8,0.5-1.1,0.7
			c-0.7,0.6-1.4,1.3-2.4,1.5c-1.3,0.3-2.7,0.7-4,0.5c0.5,0.6,0.7,1.6,0.8,2.4c0,0.1,0,0.2,0,0.3c0.1,0.8,0.3,1.6,0.3,2.4
			c0,0,0,0,0,0.1c0,0.8-0.2,1.6-0.4,2.4C1092.5,379.2,1092.1,380.6,1091.5,381.9z"/>
		<path class="st2" d="M1088.9,360.3c-0.2,1-0.7,1.7-0.7,2.7c-0.1,1.4-0.1,2.9,0.3,4.3c0.8,2.7,2.7,5.5,4.8,7.3
			c3.2,2.8,6.3-2.5,7.1-5.2c0.7-2.3,1.2-5.4-0.1-7.6c-1-1.7-2.6-3.5-4.6-4c-1.4-0.3-3.3-0.2-4.6,0.6
			C1090.4,358.9,1089.6,360.4,1088.9,360.3z"/>
		<path class="st6" d="M1099.3,364.1c-2.1-2.7-5.2-1.7-6.4-1.9c-2.3-0.3-3.9-2.2-4.1-4.5c-0.1-1.2-0.3-2.7,0.1-3.8
			c1,0.2,1.7,0.8,2.8,0.5c1.2-0.2,2.1-0.7,3.4-0.8c2.3-0.1,4.9,0.4,6.5,2.2c2.1,2.4,3,5.6,3,8.7c0,0.9-2.5,8.8-4.2,7.7
			c-0.6-0.4-0.3-3.8-0.4-4.6C1099.9,366.8,1099.6,364.6,1099.3,364.1z"/>
		<path class="st6" d="M1090.1,357.4c-2.1-0.2-3.4,2.7-3.5,4.6c-0.2,1.8,0.5,3.7,1.1,5.4c0.3,0.9,0.7,1.8,1.2,2.6
			c0.2,0.3,1,1.8,1.4,1.8c0.7-0.1-0.4-2.2-0.5-2.5c-0.5-1.2-0.8-2.3-0.9-3.6c-0.2-1.8-0.2-3.6,0.6-5.3
			C1090.1,359.2,1090.6,358.7,1090.1,357.4z"/>
		<path class="st2" d="M1099.3,365.4c0.2-0.6,0.2-1.2,0.8-1.6c0.4-0.3,0.8-0.5,1.2,0c0.8,0.9-0.3,2.2-0.7,3
			c-0.2,0.4-0.6,0.8-0.8,1.2c-0.1-0.5-0.1-1-0.2-1.5C1099.5,366.2,1099.5,365.4,1099.3,365.4z"/>
		<path class="st7" d="M1110.7,482c0.5,1-0.1,3,0.1,4.2c0.2,1.2,1,2.2,1.8,3.2c1.1,1.5,4.1,4.2,3.2,6.2c-1.2,2.6-4.3,1.5-6,0.2
			c-1.7-1.3-2.2-3.5-3.5-5.1c-1.1-1.3-1.1-2.4-0.8-4c0.3-1.5,0.3-3.1,0.4-4.7c1-0.1,2.2,0.2,3.2,0.2
			C1109.5,482.3,1110.9,482.4,1110.7,482z"/>
		<path class="st7" d="M1096.5,481.8c0.1,1.5-0.3,3.1-0.1,4.5c0.2,1.3,1.4,2.7,1.1,4.1c-0.3,1.4-2.1,1.4-3.3,1.8
			c-1.2,0.4-2,1.2-2.8,2.2c-1.6,2-5.4,2.6-7.4,0.6c-0.9-0.9-1.1-2.6-0.1-3.5c1-0.9,2.5-0.8,3.7-1.5c3.1-1.8,4.6-4.5,4.4-8.2
			c1.5,0.1,2.9,0.4,4.4,0.2C1096.4,482.2,1096.3,482.3,1096.5,481.8z"/>
		<path class="st6" d="M1107.8,411.3c1.3,0.6,2,3.9,2.5,5.2c0.8,2,1.4,4.3,1.7,6.4c0.9,6.1,0,12.1-0.7,18.2
			c-0.3,2.4-0.7,4.8-0.9,7.2c-0.2,2.5,0.5,5.7,1.4,8c1,2.5,1.6,7,1.2,9.7c-0.4,2.8-0.1,3-0.4,5.8c-0.3,2.6-0.5,5.2-0.7,7.8
			c0,1-0.2,1.9-0.1,2.9c0.1,1.1-0.2,2-0.2,3c0,0.2-0.2,0.3-0.3,0.3c-2.2-0.1-4.9,0-6.9-0.6c-0.1,0-0.1-0.1-0.1-0.2
			c-0.5-4.6-1.4-9.1-2.3-13.6c-1.4-7-2.7-14-4.1-21c-1.3-6.5-2.6-13.2-3.4-19.8c-0.4-3.1-0.6-6.3-0.6-9.4c0-1.5,0-3,0.1-4.6
			c0-0.7-0.2-2,0.4-2.4c0.6-0.5,3.1-0.2,4-0.3c1.5-0.1,3-0.3,4.5-0.7c1.8-0.5,3.8-1.1,5.5-1.7
			C1107.9,411.6,1107.4,411.7,1107.8,411.3z"/>
		<path class="st11" d="M1099,414.1c0.1,0,0.1,0,0.2,0C1099.1,414,1099.1,414,1099,414.1z"/>
		<path class="st6" d="M1083.3,434c0,6.8,1.3,13.6,2.8,20.2c1.5,6.8,2.7,13.5,3.6,20.4c0.4,2.6,0.5,5.3,1,7.8
			c0.1,0.5,0.2,1.6,0.4,1.9c0.5,0.7,1.5,0.4,2.4,0.4c0.8,0,1.9,0.2,2.6,0.1c1.1-0.1,1.2-0.7,1.4-1.8c0.6-4.2,0.7-7.5,0.9-10.9
			c0.2-2.7,0.5-5.1,0.2-7.7c0-0.2,0-0.3-0.1-0.5c-0.5-4.3-1.1-8.6-1.7-12.9c-0.2-1.8-0.2-3.5-0.1-5.3c0.1-2.2,0.5-4.3,0.6-6.5
			c0.6-8.1-0.3-16.2,1.3-24.1c0.1-0.3,0.1-0.8,0.3-1c-4.3,0-10.5,2.6-14.3-0.4c0.1,3.4-0.9,6.7-1.1,10
			C1083.4,427.2,1083.3,430.5,1083.3,434z"/>
		<path class="st1" d="M1083.9,414c0.1-3.4,0.4-6.9,0.4-10.3c0-3.3,0.1-6.6,0.2-9.9c0.1-1.4,0.3-2.9,0.1-4.4
			c-0.2-1.5-0.4-2.9-0.4-4.4c0-1.4-0.1-4.2,1.3-4.9c1.1-0.5,2.3-1,3.3-1.5c1.2-0.6,2.8-1.7,4.1-1.8c0,0.2,0,0.6,0.1,0.7
			c0,0,0,0,0,0.1c0.1,1.6,1.6,2.2,3,2.4c1.9,0.3,3.6-0.2,5-1.6c0.6-0.6,1.1-1.4,1.3-2.1c0.8,0.4,1.7,0.5,2.5,0.6
			c0.5,0.2,0.9,0.4,1.4,0.5c0.8,0.3,1.7,0.6,2.6,0.9c0.7,0.6,1.5,1,2.4,1.1c0.6,0.3,1.1,0.7,1.7,1c0.1,0.3,0.2,0.7,0.3,1
			c0.4,2.2,0.7,4.3-0.6,6.2c-0.6,0.8-3.4,5.5-3.5,5.9c-0.2,0.8,0,1.9,0,2.7v0.4c0,1.1,0,2.2,0,3.2c0,3.9,0.7,7.7,1.3,11.6
			c0.2,1.4,0.5,2.8,0.8,4.2c0.1,0.2,0.1,0.5,0.2,0.7c0.2,0.9,0.6,2.1,0.5,3c-0.4,0-1,0.2-1.5,0.3c-1.9,0.4-3.7,1.3-5.6,1.6
			c-3.1,0.4-6.4,0.6-9.5,0.6c-3.5,0-7.8,0.9-10.8-1.3c-0.7-0.5-0.5-1.2-0.5-2.1C1084.1,416.9,1083.9,415.5,1083.9,414z"/>
		<path class="st2" d="M1106.3,385.5c1.1,1,3.5,0.2,4.6-0.4c1.4-0.7,2.5-2.1,3.4-3.3c2.9-3.9,5.9-7.7,8.4-11.9c1.3-2.1,3-4,3.9-6.2
			c0.2-0.5-0.3-2.1-0.4-2.6c-0.2-0.8-1.1-0.5-1.8-0.2c-3.7,1.3-6.5,4.5-9.1,7.4c-1,1.1-1.8,2.4-2.8,3.5c-1.5,1.7-3,3.5-4.3,5.4
			c-1,1.5-1.8,3.4-2.3,5.1c-0.2,0.8-0.6,2-0.2,2.9C1106.1,385.6,1106.5,385.8,1106.3,385.5z"/>
		<path class="st2" d="M1125.7,364.5c0.9-0.6,1.1-1.8,1.4-2.8c0.8-3.3,1.1-6.8,1.5-10.3c0.3-2.8,0-5.7,0.6-8.6
			c0.5-2.7,1.8-5.2,2.1-7.9c0.2-1.5,0.2-3.9-0.6-5.5c-0.3-0.6-1.2-0.8-1.7-0.3c-0.2,0.3-0.5,0.5-0.6,0.8c-0.3,0.6-0.4,1.7-0.6,2.4
			c-0.4,1.4-1.1,2.8-1.4,4.1c-0.2-0.6-0.1-1.7,0-2.7c0-0.3-0.4-0.4-0.5-0.1c-0.5,1.3-0.9,2.9-1,4c-0.2,1.3,0.5,3.1,0.4,4.5
			c-0.3,2.4-1.3,4.1-1.9,6.5c-1.1,3.9-3,8-2.6,12.1c0.1,1-0.2,2.8,0.7,3.5C1122,364.8,1124.8,365.2,1125.7,364.5z"/>
		<path class="st11" d="M1082.9,395.7c0,0-0.1-0.1-0.1-0.1C1082.7,395.7,1082.8,395.7,1082.9,395.7z"/>
		<path class="st8" d="M1092.8,435.1c0.3,3.5,0.8,7,2,10.4c0.9,2.5,1.4,5.3,1.5,8c0.1,1.2-0.1,2.3-0.2,3.5c0,1.4,0.2,2.7,0.4,4
			c0.2,1.2,0.6,2.4,1.1,3.6c0.3,0.8,0.5,1.7,1,2.4c0-0.8,0-1.6,0-2.4c0-0.2,0-0.3-0.1-0.5c-0.5-4.3-1.1-8.6-1.7-12.9
			c-0.2-1.8-0.2-3.5-0.1-5.3c-0.3-1.4-0.6-3-0.7-4.4c-0.2-1.5-0.5-3-0.5-4.5c-0.1-1.4,0-3.5-0.6-4.8c-0.5-1.1-1.8-1.5-2.7-2.2
			C1092.3,431.5,1092.6,433.3,1092.8,435.1z"/>
		<path class="st1" d="M1120,373.9c-0.5-0.6-1.1-1.2-1.6-1.7c-0.6-0.6-1.2-1.2-1.8-1.7c-0.4-0.3-0.7-0.6-1.1-0.8
			c-0.5-0.3-1.3-0.4-1.6-0.8c-0.3,0.2-1.1,1-1.6,1.5c-0.9,0.7-1.7,1.3-2.5,2.1c-0.9,0.9-1.9,1.8-2.9,2.5c-1.3,1-2.7,1.8-4.3,2.1
			c-0.2,0.5-0.5,1-0.7,1.4c-0.3,0.5-0.6,0.9-0.9,1.3c0,0,0,0.1,0,0.1c0,0.8-0.1,1.5-0.2,2.3c-0.1,0.8-0.4,1.5-0.1,2.3
			c0.7,1.7,2,3,3.3,4.3c1.5,1.5,2.7,3.2,3.8,4.9c0.2,0.2,0.3,0.5,0.5,0.8c0.1-0.7,0.2-1.3,0.5-1.9c0.8-1.7,2.2-3.5,3.7-4.7
			c0.1-0.1,0.3-0.2,0.4-0.2c0.6-0.9,1.1-1.8,1.7-2.6c1-1.5,1.5-3.2,2.4-4.8c0.5-1,1.3-1.9,1.8-2.9c0.4-0.7,0.8-1.5,1.2-2.2
			C1120.3,374.5,1120.5,374.5,1120,373.9z"/>
	</g>
	<rect x="613" y="-65.6" class="st12" width="693.5" height="693.5"/>
</g>
</svg>
