<?xml version="1.0" encoding="utf-8"?>
<!-- Generator: Adobe Illustrator 21.1.0, SVG Export Plug-In . SVG Version: 6.00 Build 0)  -->
<svg version="1.1" id="Capa_1" xmlns="http://www.w3.org/2000/svg" xmlns:xlink="http://www.w3.org/1999/xlink" x="0px" y="0px"
	 viewBox="0 0 994 472" style="enable-background:new 0 0 994 472;" xml:space="preserve">
<style type="text/css">
	.st0{fill:#E8F1F9;}
	.st1{fill:#E8B089;}
	.st2{fill:#FFFFFF;}
	.st3{fill:#2E3B61;}
	.st4{fill:#2D4151;}
	.st5{fill:#203C4F;}
	.st6{fill:#F9C095;}
	.st7{fill:#EFB38B;}
	.st8{fill:#0053A1;}
	.st9{fill:#9BB7D3;}
	.st10{fill:#256A9A;}
</style>
<g id="BACKGROUND">
</g>
<g>
	<path class="st0" d="M677.6,434.8H291.7c-26-142.8,81.9-76.7,57.9-206c-31.5-170,134-211.8,218-187.1
		C567.6,41.8,873.6,120.9,677.6,434.8z"/>
	<g>
		<g>
			<path class="st1" d="M499.7,207.3c0.2-0.1,0.5-0.2,0.7-0.3c1.2-0.4,3.8-3.7,3.8-3.7l4.8,5.1l-3.3,3.5c-1.9,4.4-1.9,4.5-7.6,5.3
				c-4.9,0.7-4.1,3.9-7.5,4.7c-3.4,0.9-2.9-4-2.9-4c1.3-7.6,2.8-8.6,6-9.3c-1.1-0.4-1.8-1-1.6-1.7c0.2-0.6,1.9,0.1,5.2-0.4
				C497.8,206.6,498.8,206.9,499.7,207.3z"/>
			<path class="st2" d="M503.4,210.1c-1.8-3.6-2.7-7.9-2.7-7.9s32.2-21.1,35-23.5c2.8-2.4,32.1-45.3,32.1-45.3l34.3,2.7
				c0,0-45.7,52.7-53,58.6c-12,9.6-42,20.1-42,20.1S504.8,213,503.4,210.1z"/>
			<g>
				<path class="st3" d="M527.1,434.2h35.2c1.7-2.1,1.1-9.7,0.8-12.2c-0.1-0.5-0.1-0.8-0.1-0.8s-12-9.6-13.7-2.3
					c-0.1,0.2-0.1,0.5-0.2,0.7c-2.1,6.9-11.4,10-16.8,10.9C528.9,431.1,527.6,432.9,527.1,434.2z"/>
				<path class="st3" d="M573.7,434.2H609c1.7-2.1,1.1-9.7,0.8-12.2c-0.1-0.5-0.1-0.8-0.1-0.8s-12-9.6-13.7-2.3
					c-0.1,0.2-0.1,0.5-0.2,0.7c-2.1,6.9-11.4,10-16.8,10.9C575.5,431.1,574.2,432.9,573.7,434.2z"/>
				<path class="st4" d="M541.8,238.4c0,0,0,21.5-0.1,49.4c-0.1,37.3,2.5,82.9,2.8,91.5c0.6,15,3,39.1,3,39.1s5.7,5.7,17.1,3.3
					c0,0,10.2-34.3,13.1-70.6c0-0.6,0.1-1.2,0.1-1.8c2.7-37,6.9-114.8,6.9-114.8L541.8,238.4z"/>
				<path class="st5" d="M541.8,238.4c0,0,0,20.6-0.1,49.4l33,88.2c0-0.6,3.1-26.1,3.2-26.7c2.7-37,6.9-114.8,6.9-114.8L541.8,238.4
					z"/>
				<path class="st4" d="M559.1,231c0,0,4.4,59.1,10.7,108.6c8,43.1,22.1,82.9,22.1,82.9s17.2,1.6,19-1.4c0,0,3.4-53.6-4.4-81.8
					c-3.5-12.7,2.2-47.1,3.5-65.4c1.6-23.7-3.5-45-3.5-45L559.1,231z"/>
			</g>
			<path class="st6" d="M560.2,120c12.9,4.1,35.1-6.9,35.1-6.9s-11.9-8.9-11.2-27.4l-9.9,8l-6.8,5.4c0,0,0,3.2,0.8,8.8
				c0.2,1.5,0.4,3.1,0.7,4.9C563.4,116,560.2,120,560.2,120z"/>
			<path class="st7" d="M567.4,99.2c0,0,0,3.2,0.8,8.8c7.5-1.3,16-13.4,16-13.4c-3.8-1.1-7.1-1.3-10-0.9L567.4,99.2z"/>
			<path class="st6" d="M563.4,98.9c0,0,21.2,3.5,23.2-9.7c2-13.3,6.1-21.7-7.4-24.6c-13.5-2.8-16.9,1.8-18.6,6.1
				C558.9,75,558,97.6,563.4,98.9z"/>
			<path class="st2" d="M541.1,239.5c0.4,0.3,0.8,0.5,1.4,0.5c4.8-0.1,20.1,2.6,32,1.4c10-1,18.9-3.9,28.5-8.2
				c1.3-0.6,4.2-2.1,4.1-3.5c0-1.6-0.2-3.8-0.4-6.6c-0.7-9.9-1.9-26.8-0.7-46.4c0.2-3.6,0.3-7.3,0.3-10.8
				c0.1-26.5-5.2-49.8-15.7-57.7c-0.9-0.6-6.4,2.1-11.5,4.6c-4.7,2.3-9.4,2.6-13.8,1.7l-4.4,3.9c-5.4,5-11.3,11.9-13.9,22.2
				c-2.2,8.8-3.5,24.7-4.2,41.2c-0.3,7.5-0.6,15-0.6,22.2v0.3c-0.1,0.7-0.1,1.5-0.1,2.2C541.7,224.7,540.7,239.2,541.1,239.5z"/>
			<path class="st8" d="M586.7,87.9c0,0-2.2-0.4-1.8-3.4c0.4-3,0.3-6.9-2.1-6.2c-2.4,0.7-2.6,2.7-3.6,1.5c-1-1.1-1-6-8.3-6.3
				c-7.3-0.3-10.2,2.2-13.6,0.7c-3.4-1.5-3.6-6.6-3.6-6.6s1,1.8,2.4,2.4c0,0-5.6-7.7,0.9-13c6.5-5.3,13.2-1.8,17-1.6
				c8.3,0.5,13.7,1,16.4,6.5C593.1,67.4,592,82.6,586.7,87.9z"/>
			<path class="st3" d="M395.3,251.4l-5.2-0.7c0,0,0,0,0,0h0l0,0c0,0,0,0,0,0c-0.4-0.1-0.7-0.2-1.1-0.2l-9.4-1.3l0.6-4.4
				c0.1-1-0.1-2-0.7-2.8c-0.6-0.8-1.5-1.3-2.5-1.5l-2.5-0.4l-9.9-1.4l-1.8-0.3c-2-0.3-3.9,1.1-4.2,3.2L358,246l-16.3-2.3
				c-6.2-0.9-12,3.5-12.8,9.6l-3,20.7c-0.9,6.2,3.5,12,9.6,12.8l47.2,6.7c0.8,0.1,1.7,0.1,2.5,0.1l3.9,0.5
				c6.2,0.9,11.9-3.4,12.8-9.6l2.9-20.5C405.7,258,401.4,252.2,395.3,251.4z M361,241.9c0.1-0.6,0.6-1.1,1.2-1.2c0.1,0,0.3,0,0.4,0
				l2.1,0.3l7.8,1.1l4.2,0.6c0.8,0.1,1.3,0.8,1.2,1.6l-0.6,4.4l-16.9-2.4L361,241.9z"/>
			<g>
				<path class="st2" d="M606.6,223c-0.7-9.9-1.9-26.8-0.7-46.4c0.2-3.6,0.3-7.3,0.3-10.8c-4.4-10.7-8-18.4-8-18.4h-11.1
					C587.1,147.4,579,203,606.6,223z"/>
				<path class="st6" d="M630.1,230.4c0-0.3,0-0.5,0-0.8c-0.1-1.3-2.6-4.6-2.6-4.6l6.2-3.2l2.5,4.1c3.7,3,3.8,3,3.1,8.7
					c-0.6,4.9,2.6,5,2.6,8.5c-0.1,3.5-4.6,1.8-4.6,1.8c-7-3.3-7.6-5-7.4-8.3c-0.7,0.9-1.4,1.5-2,1.1c-0.6-0.4,0.6-1.8,1-5.1
					C628.9,231.9,629.5,231.1,630.1,230.4z"/>
				<path class="st2" d="M633.8,227.5c-4,0.8-8.3,0.5-8.3,0.5s-11.9-36.6-13.4-40c-1.5-3.3-35.2-42.9-35.2-42.9l14-35.1
					c0,0,36.4,60.9,40.1,69.4c6.1,14.1,8.2,45.8,8.2,45.8S636.9,226.9,633.8,227.5z"/>
			</g>
			<g>
				<path class="st6" d="M374,233c0-0.3-0.1-0.5-0.1-0.8c-0.1-1.3,1.8-5,1.8-5l-6.7-2.2l-1.8,4.4c-3.2,3.5-3.3,4.3-3.7,9.2
					c-0.4,4.9,0.5,4.2,1.9,4.8c1.7,0.7,3.4,1.1,4.6,1.3c1.4,0.3,2.9,0.2,4.2-0.3c1.8-0.7,2-1.6,1.8-2.9c-0.1-0.7,0.5-1.3,1.2-1.3
					c0.1,0,0.3,0,0.4-0.1c0.5-0.4-0.9-2.2-1.9-5.4C375.4,234.4,374.7,233.7,374,233z"/>
				<path class="st9" d="M369.9,230.8c4.1,0.1,8.3-0.9,8.3-0.9s5.6-38.1,6.5-41.6c0.9-3.6,27.6-48.2,27.6-48.2l-24.2-19.1
					c0,0-21.3,52.9-23.5,61.9c-3.7,15-0.5,46.6-0.5,46.6S366.7,230.7,369.9,230.8z"/>
				<g>
					<path class="st3" d="M361.2,434.2h-15.4c-1.9-1.1-3.7-3.5-4.2-7.1c-0.8-5-6.3-7.7-7.5-11.7c-1.2-4.1,5-9.8,5-9.8l1-1.3l1.1-1.4
						l10.2,2.4c0,0,0.3,2.4,0.4,5.5c0.1,2.2,0.2,4.8,0,7.1c-0.3,5.4,1.5,11.2,6.3,12.3C361.7,431,361.5,433.1,361.2,434.2z"/>
					<path class="st3" d="M450.6,434.2h-35.2c-1.7-2.1-1.1-9.7-0.8-12.2c0.1-0.5,0.1-0.8,0.1-0.8s12-9.6,13.7-2.3
						c0.1,0.2,0.1,0.5,0.2,0.7c2.1,6.9,11.4,10,16.8,10.9C448.8,431.1,450.1,432.9,450.6,434.2z"/>
					<path class="st4" d="M443.8,237.6c0,0-1.8,22.8-4,50.2c-2.9,37.2-6.4,82.9-6.8,91.5c-0.6,15-3,39.1-3,39.1s-5.7,5.7-17.1,3.3
						c0,0-10.2-34.3-13.1-70.6c0-0.6-0.1-1.2-0.1-1.8c-2.7-37-6.9-114.8-6.9-114.8L443.8,237.6z"/>
					<path class="st5" d="M443.8,237.6c0,0-1.8,22.8-4,50.2l-40,63.3c0-0.6-0.1-1.2-0.1-1.8c-2.7-37-6.9-114.8-6.9-114.8
						L443.8,237.6z"/>
					<path class="st4" d="M435.5,240.3c0,0-32.9,82.5-54.6,121.3c-21.6,38.8-28.4,49.6-28.4,49.6s-12.4-5-13.5-8.3
						c0,0,8.3-74.9,22.8-93.1c8.2-10.3,17.8-41.3,18.3-52.1c0.5-10.8,2.9-32.2,2.9-32.2L435.5,240.3z"/>
				</g>
				<path class="st6" d="M427.3,120c-12.9,4.1-35.1-6.9-35.1-6.9s11.9-8.9,11.2-27.4l9.9,8l6.8,5.4c0,0,0,3.2-0.8,8.8
					c-0.2,1.5-0.4,3.1-0.7,4.9C424.1,116,427.3,120,427.3,120z"/>
				<path class="st7" d="M420.1,99.2c0,0,0,3.2-0.8,8.8c-7.5-1.3-16-13.4-16-13.4c3.8-1.1,7.1-1.3,10-0.9L420.1,99.2z"/>
				<path class="st6" d="M424.1,98.9c0,0-21.2,3.5-23.2-9.7c-2-13.3-6.1-21.7,7.4-24.6c13.5-2.8,16.9,1.8,18.6,6.1
					C428.6,75,429.5,97.6,424.1,98.9z"/>
				<path class="st9" d="M445.3,239.5c-0.4,0.3-0.8,0.5-1.4,0.5c-4.8-0.1-18.9,2.6-30.8,1.4c-10-1-18.9-3.9-28.5-8.2
					c-1.3-0.6-4.2-2.1-4.1-3.5c0-1.6,0.2-3.8,0.4-6.6c0.7-9.9,1.9-26.8,0.7-46.4c-0.2-3.6-0.3-7.3-0.3-10.8
					c-0.1-26.5,5.2-49.8,15.7-57.7c0.9-0.6,6.4,2.1,11.5,4.6c4.7,2.3,9.4,2.6,13.8,1.7l4.4,3.9c5.4,5,11.3,11.9,13.9,22.2
					c2.2,8.8,3.5,24.7,4.2,41.2c0.3,7.5,0.6,15,0.6,22.2v0.3c0.1,0.7,0.1,1.5,0.1,2.2C445.8,224.7,445.6,239.2,445.3,239.5z"/>
				<path class="st6" d="M487.8,207.3c-0.2-0.1-0.5-0.2-0.7-0.3c-1.2-0.4-3.8-3.7-3.8-3.7l-4.8,5.1l3.3,3.5c1.9,4.4,1.9,4.5,7.6,5.3
					c4.9,0.7,4.1,3.9,7.5,4.7c3.4,0.9,2.9-4,2.9-4c-1.3-7.6-2.8-8.6-6-9.3c1.1-0.4,1.8-1,1.6-1.7c-0.2-0.6-1.9,0.1-5.2-0.4
					C489.7,206.6,488.7,206.9,487.8,207.3z"/>
				<path class="st9" d="M484.1,210.1c1.8-3.6,2.7-7.9,2.7-7.9s-32.2-21.1-35-23.5c-2.8-2.4-32.1-45.3-32.1-45.3l-34.3,2.7
					c0,0,45.7,52.7,53,58.6c12,9.6,42,20.1,42,20.1S482.7,213,484.1,210.1z"/>
				<path class="st3" d="M400.8,87.9c0,0,2.2-0.4,1.8-3.4c-0.4-3-0.3-6.9,2.1-6.2c2.4,0.7,2.6,2.7,3.6,1.5c1-1.1,1-6,8.3-6.3
					c7.3-0.3,10.2,2.2,13.6,0.7c3.4-1.5,3.6-6.6,3.6-6.6s-1,1.8-2.4,2.4c0,0,5.6-7.7-0.9-13c-6.5-5.3-13.2-1.8-17-1.6
					c-8.3,0.5-13.7,1-16.4,6.5C394.3,67.4,395.5,82.6,400.8,87.9z"/>
				<path class="st9" d="M445.5,199.4c0,0-28-9.3-37.9-20.7c-10-11.6-28.1-32.7-28.1-32.7l0.2-0.7c1.4-5.8,3.4-11.4,5.9-16.8l0,0
					c0,0,2.4,14.5,10,24.6c7.5,10,7.5,10,7.5,10S415.4,184.4,445.5,199.4z"/>
			</g>
		</g>
	</g>
</g>
<path class="st10" d="M66,434.2l28.3-0.4l28.3-0.4l56.5-0.7l113-0.9c37.7-0.3,75.3-0.4,113-0.5l113-0.3l113,0.3l56.5,0.2l28.3,0.2
	l28.3,0.3c37.7,0.4,75.4,0.9,113,1.6c18.8,0.4,37.7,0.9,56.5,1.5c9.4,0.3,18.8,0.6,28.2,1.1c4.7,0.2,9.4,0.5,14.1,0.8
	c2.3,0.2,4.7,0.4,7,0.6c1.2,0.1,2.3,0.3,3.5,0.4c0.6,0.1,1.2,0.2,1.7,0.3c0.6,0.1,1.2,0.2,1.7,0.5c-0.5-0.3-1.1-0.4-1.7-0.5
	c-0.6-0.1-1.2-0.2-1.7-0.3c-1.2-0.1-2.3-0.3-3.5-0.3c-2.3-0.2-4.7-0.3-7-0.4c-4.7-0.2-9.4-0.4-14.1-0.5c-9.4-0.3-18.8-0.5-28.2-0.6
	c-18.8-0.3-37.7-0.5-56.5-0.6c-37.7-0.3-75.3-0.4-113-0.4l-113-0.1l-113,0.1l-226-0.1l-113-0.2L66,434.2z"/>
<path class="st5" d="M566.9,114.6c0,0-3.3,6.8-0.7,10.9c2.5,4.1,5.5-10.9,5.5-10.9H566.9z"/>
<path class="st5" d="M554.7,217.5c0,0,1.2-19.5,4.4-41.6c0.6-4,1.4-11.3,2-15.3c2.9-18.5,9.5-33.4,6.6-34.9
	c-2.9-1.5-10.2,12.8-12.5,29.1c-3.8,26.3-7.1,62.4-7.1,62.4l2.4,3L554.7,217.5z"/>
<path class="st5" d="M566.2,125.5"/>
</svg>
