<?xml version="1.0" encoding="utf-8"?>
<!-- Generator: Adobe Illustrator 21.1.0, SVG Export Plug-In . SVG Version: 6.00 Build 0)  -->
<svg version="1.1" id="Capa_1" xmlns="http://www.w3.org/2000/svg" xmlns:xlink="http://www.w3.org/1999/xlink" x="0px" y="0px"
	 viewBox="0 0 204.9 64.8" style="enable-background:new 0 0 204.9 64.8;" xml:space="preserve">
<style type="text/css">
	.st0{fill:#1B71AA;}
	.st1{fill:#0A4B98;}
	.st2{fill:#1058A0;}
	.st3{fill:#1363A5;}
	.st4{fill:#154677;}
	.st5{fill:url(#SVGID_1_);}
	.st6{fill:url(#SVGID_2_);}
	.st7{fill:url(#SVGID_3_);}
	.st8{fill:url(#SVGID_4_);}
</style>
<g>
	<g>
		<polygon class="st0" points="40.6,54.8 33,62.4 10.4,39.8 18,32.1 32.8,47 		"/>
		<polygon class="st1" points="33,17.1 17.8,32.3 10.4,39.7 10.4,39.7 2.8,32.1 25.4,9.5 		"/>
		<polygon class="st2" points="55.6,24.5 55.6,24.5 48,32.1 48,32.1 25.4,9.5 33,1.9 		"/>
		<polygon class="st3" points="63.2,32.1 40.6,54.8 33,47.1 48,32.1 48,32.1 55.6,24.5 55.6,24.5 		"/>
		<polygon class="st4" points="33,62.2 10.4,39.7 10.4,39.7 2.8,32.1 17.8,32.3 17.8,32.3 18.2,32.3 32.7,32.5 32.8,47 		"/>
	</g>
</g>
<g>
	<g>
		<linearGradient id="SVGID_1_" gradientUnits="userSpaceOnUse" x1="80.2105" y1="32.6409" x2="215.0216" y2="32.6409">
			<stop  offset="0" style="stop-color:#0A4B98"/>
			<stop  offset="1" style="stop-color:#4D86C2"/>
		</linearGradient>
		<path class="st5" d="M89.3,17.9l6.6,20.5l6.5-20.5h9.3v29.4h-7.1v-6.9l0.7-14.1l-7.1,20.9h-4.7l-7.1-21l0.7,14.1v6.9H80V17.9H89.3
			z"/>
		<linearGradient id="SVGID_2_" gradientUnits="userSpaceOnUse" x1="80.2105" y1="32.6409" x2="215.0216" y2="32.6409">
			<stop  offset="0" style="stop-color:#0A4B98"/>
			<stop  offset="1" style="stop-color:#4D86C2"/>
		</linearGradient>
		<path class="st6" d="M133.4,41.9h-9.7l-1.7,5.5h-7.6l10.8-29.4h6.7l10.9,29.4h-7.6L133.4,41.9z M125.3,36.4h6.3l-3.2-10.2
			L125.3,36.4z"/>
		<linearGradient id="SVGID_3_" gradientUnits="userSpaceOnUse" x1="80.2105" y1="32.6409" x2="215.0216" y2="32.6409">
			<stop  offset="0" style="stop-color:#0A4B98"/>
			<stop  offset="1" style="stop-color:#4D86C2"/>
		</linearGradient>
		<path class="st7" d="M155.8,36.9h-3.8v10.4h-7.1V17.9h11.6c3.5,0,6.2,0.8,8.2,2.3c2,1.5,2.9,3.7,2.9,6.6c0,2-0.4,3.7-1.2,5.1
			c-0.8,1.3-2.1,2.4-3.9,3.3l6.1,11.9v0.3H161L155.8,36.9z M151.9,31.5h4.5c1.3,0,2.4-0.4,3-1.1c0.7-0.7,1-1.7,1-3
			c0-1.3-0.3-2.3-1-3c-0.7-0.7-1.7-1.1-3-1.1h-4.5V31.5z"/>
		<linearGradient id="SVGID_4_" gradientUnits="userSpaceOnUse" x1="80.2105" y1="32.6414" x2="215.0216" y2="32.6414">
			<stop  offset="0" style="stop-color:#0A4B98"/>
			<stop  offset="1" style="stop-color:#4D86C2"/>
		</linearGradient>
		<path class="st8" d="M187,39.5c0-1-0.4-1.8-1.1-2.4c-0.7-0.6-2-1.2-3.9-1.8c-1.8-0.6-3.4-1.2-4.5-1.8c-3.8-1.9-5.7-4.4-5.7-7.7
			c0-1.6,0.5-3.1,1.4-4.3c0.9-1.2,2.3-2.2,4-2.9c1.7-0.7,3.7-1,5.9-1c2.1,0,4,0.4,5.7,1.1c1.7,0.8,3,1.8,3.9,3.2
			c0.9,1.4,1.4,3,1.4,4.8H187c0-1.2-0.4-2.1-1.1-2.8c-0.7-0.7-1.7-1-3-1c-1.3,0-2.3,0.3-3,0.8c-0.7,0.6-1.1,1.3-1.1,2.1
			c0,0.8,0.4,1.4,1.2,2.1c0.8,0.6,2.2,1.2,4.3,1.9c2,0.7,3.7,1.4,5,2.1c3.2,1.8,4.8,4.4,4.8,7.6c0,2.6-1,4.6-2.9,6.1
			c-1.9,1.5-4.6,2.2-8,2.2c-2.4,0-4.5-0.4-6.5-1.3c-1.9-0.9-3.4-2-4.4-3.5c-1-1.5-1.5-3.2-1.5-5.1h7.1c0,1.6,0.4,2.7,1.2,3.5
			c0.8,0.7,2.1,1.1,4,1.1c1.2,0,2.1-0.3,2.8-0.8C186.7,41.2,187,40.4,187,39.5z"/>
	</g>
</g>
</svg>
