<?xml version="1.0" encoding="utf-8"?>
<!-- Generator: Adobe Illustrator 21.1.0, SVG Export Plug-In . SVG Version: 6.00 Build 0)  -->
<svg version="1.1" id="Capa_1" xmlns="http://www.w3.org/2000/svg" xmlns:xlink="http://www.w3.org/1999/xlink" x="0px" y="0px"
	 viewBox="0 0 242.5 43" style="enable-background:new 0 0 242.5 43;" xml:space="preserve">
<style type="text/css">
	.st0{clip-path:url(#SVGID_2_);fill:url(#SVGID_3_);}
	.st1{fill:#0053A1;}
</style>
<g>
	<g>
		<g>
			<g>
				<g>
					<defs>
						<path id="SVGID_1_" d="M4.8,9c-6.4,6.4-6.4,16.8,0,23.2s16.8,6.4,23.2,0S34.4,15.4,28,9c-3.2-3.2-7.4-4.8-11.6-4.8
							S8,5.8,4.8,9"/>
					</defs>
					<clipPath id="SVGID_2_">
						<use xlink:href="#SVGID_1_"  style="overflow:visible;"/>
					</clipPath>
					
						<linearGradient id="SVGID_3_" gradientUnits="userSpaceOnUse" x1="594.9694" y1="537.8235" x2="595.9694" y2="537.8235" gradientTransform="matrix(-23.9539 23.9539 23.9539 23.9539 1397.5233 -27125.666)">
						<stop  offset="0" style="stop-color:#FFFFFF"/>
						<stop  offset="0.2966" style="stop-color:#FDFDFD"/>
						<stop  offset="0.4598" style="stop-color:#F5F5F5"/>
						<stop  offset="0.5906" style="stop-color:#E7E7E7"/>
						<stop  offset="0.7042" style="stop-color:#D3D4D4"/>
						<stop  offset="0.8066" style="stop-color:#BABBBC"/>
						<stop  offset="0.9011" style="stop-color:#9B9C9D"/>
						<stop  offset="0.9878" style="stop-color:#77787A"/>
						<stop  offset="1" style="stop-color:#717274"/>
					</linearGradient>
					<polygon class="st0" points="51.6,21.4 16.4,56.5 -18.7,21.4 16.4,-13.8 					"/>
				</g>
			</g>
		</g>
	</g>
</g>
<path d="M4.3,10.1c0,0,0.1,2.4,0.6,2.9c0,0,0.8,1.7-0.1,3.8c0,0,0.2,1.5-1.2,1.8c0,0-1.2,1.3-0.9,2c0,0,0.2,0.7-0.6,0.6
	c0,0,0.3,3.3-1.5,3.2C0.5,24.5-1.5,15.3,4.3,10.1"/>
<path d="M4.8,19.5c0,0,1.2-1.7,0.9,0.5c0,0-0.6,1.2-0.5,1.7c0,0-1,0.6-1,1.7c0,0-0.8,0.7-0.9-0.5c0,0,0.2-1.7,0.6-1.7
	C3.9,21.3,4.7,21.3,4.8,19.5"/>
<path d="M2.7,29.2c0,0,1.2-0.7,1.7,0.5c0,0,0.6,1.4,1.6,1.7c0,0,1.7,0,0.4,2C6.3,33.4,3.4,30.9,2.7,29.2"/>
<path d="M10.9,5.3c0,0-1.6,3.1-0.7,4.5c0,0,1.5,1.5,2.9-0.5c0,0,0.9,0.2,0.8,2c0,0,0,2.4,0.8,2.3c0,0,1.2,0.1,0.9-1.4
	c0,0,1.2,3.6,2.7,4c0,0,2.8,0.5,0.5,1.8c0,0-4,3.3-0.5,6.8c0,0,0.9,0.8,0.3,2c0,0,0.3,6.1-0.8,7.3c0,0,0.3,1.3,1-0.3
	c0,0,1.9-1.4,1.7-2.7c0,0,1.4,0.2,1.6-0.8s-0.3-0.1-0.3-0.1s1.9-2.8,2.7-2.6c0.1,0-0.1,0.1-0.1,0.1s2.8-1.9,1.5-4.8
	c0,0-3.8-5.7-5.2-4.5c0,0-0.1-2-0.5-2.7c0,0-2-0.6-0.6-1.6c0,0,1-0.6,1.5,0.8c0,0,1-0.1-0.2-2.2c0,0,0.8,0.2,2-1.1
	c0,0,2.9,0.7,2.4-2.4c0,0-0.1-2.5-1.5-2.1c0,0,0.7,1.9-1.6,1.9c-0.7,0,0,0,0,0s-2.4-0.9-0.8-2.9c0,0,0.8-0.6-1.6-1.5
	C18.9,4.2,19,4.3,19,4.3S16.3,3.6,10.9,5.3"/>
<path class="st1" d="M22,20.6C22,29.7,29.4,37,38.4,37c9.1,0,16.4-7.4,16.4-16.4c0-9.1-7.4-16.4-16.4-16.4C29.4,4.1,22,11.5,22,20.6
	 M23.7,20.6c0-8.1,6.6-14.8,14.8-14.8c8.1,0,14.8,6.6,14.8,14.8c0,8.1-6.6,14.8-14.8,14.8C30.3,35.3,23.7,28.7,23.7,20.6"/>
<path class="st1" d="M24.1,20.6c0,7.9,6.4,14.3,14.3,14.3s14.3-6.4,14.3-14.3S46.3,6.3,38.4,6.3C30.6,6.2,24.1,12.7,24.1,20.6
	 M24.7,20.6c0-7.6,6.2-13.8,13.8-13.8S52.3,13,52.3,20.6s-6.2,13.8-13.8,13.8C30.9,34.3,24.7,28.1,24.7,20.6"/>
<path class="st1" d="M37.3,32.2L29,16.4c0,0-1.8-3.4,2-3.4h13.9c0,0,4.2-0.6,2.1,3.2l-2,4.1c0,0-0.1,0.5-1,0.6h-3.1l-0.1,6.5l-3,4.8
	V19.4c0,0-0.3-1.6,1.7-1.5h3.4l0.7-1.9L32,15.9l0.8,1.9l4,0.1c0,0,1.6,0.1,0.2,1.6L34.9,21l2.5,4.7L37.3,32.2z"/>
<path class="st1" d="M168.9,24.2l0.1,2.9h-0.3c-0.1-0.7-0.4-1.3-0.9-1.7c-0.5-0.5-1-0.7-1.6-0.7c-0.4,0-0.8,0.1-1.1,0.4
	c-0.3,0.2-0.4,0.5-0.4,0.8c0,0.2,0,0.4,0.1,0.5c0.1,0.2,0.3,0.4,0.6,0.6c0.2,0.1,0.7,0.4,1.4,0.8c1,0.5,1.7,1,2,1.5
	c0.4,0.5,0.5,1,0.5,1.6c0,0.7-0.3,1.4-0.9,1.8c-0.6,0.5-1.3,0.8-2.1,0.8c-0.3,0-0.5,0-0.8-0.1s-0.6-0.2-0.9-0.3
	c-0.2-0.1-0.4-0.1-0.5-0.1s-0.2,0-0.4,0.1c-0.1,0.1-0.2,0.2-0.3,0.4h-0.1v-3.3h0.2c0.2,0.9,0.6,1.6,1.1,2.1c0.5,0.5,1.1,0.7,1.7,0.7
	c0.5,0,0.9-0.1,1.2-0.4c0.3-0.3,0.4-0.6,0.4-0.9c0-0.2-0.1-0.4-0.2-0.6c-0.1-0.2-0.3-0.4-0.5-0.6s-0.6-0.4-1.2-0.7
	c-0.8-0.4-1.4-0.7-1.7-1c-0.4-0.3-0.6-0.6-0.8-0.9s-0.3-0.7-0.3-1.1c0-0.7,0.3-1.3,0.8-1.7s1.2-0.8,1.9-0.8c0.3,0,0.6,0,0.8,0.1
	s0.5,0.1,0.8,0.3c0.3,0.1,0.5,0.2,0.6,0.2s0.2,0,0.3-0.1s0.1-0.2,0.2-0.5L168.9,24.2L168.9,24.2z"/>
<path class="st1" d="M172.8,24.9v3.5h0.2c0.6,0,1-0.2,1.2-0.5c0.3-0.4,0.4-0.9,0.5-1.6h0.3v4.6h-0.3c-0.1-0.5-0.2-0.9-0.3-1.3
	c-0.2-0.3-0.4-0.5-0.6-0.7c-0.2-0.1-0.5-0.2-1-0.2v2.4c0,0.5,0,0.8,0.1,0.9c0,0.1,0.1,0.2,0.2,0.3c0.1,0.1,0.3,0.1,0.6,0.1h0.5
	c0.8,0,1.5-0.2,1.9-0.6c0.5-0.4,0.9-1,1.1-1.7h0.2l-0.4,2.7h-7.5l0,0h0.3c0.3,0,0.5,0,0.6-0.1s0.2-0.2,0.3-0.3
	c0-0.1,0.1-0.4,0.1-0.8V26c0-0.4,0-0.7,0-0.7c0-0.2-0.1-0.3-0.2-0.4c-0.2-0.1-0.4-0.2-0.7-0.2h-0.3v-0.2h7.3V27h-0.3
	c-0.1-0.6-0.3-1.1-0.5-1.4s-0.6-0.5-1-0.6c-0.2-0.1-0.7-0.1-1.4-0.1H172.8L172.8,24.9z"/>
<path class="st1" d="M186.3,24.2v3h-0.2c-0.3-0.9-0.7-1.5-1.3-1.9s-1.2-0.7-1.8-0.7c-0.7,0-1.2,0.2-1.6,0.6
	c-0.4,0.4-0.8,0.9-0.9,1.6c-0.2,0.7-0.3,1.4-0.3,2c0,0.9,0.1,1.6,0.3,2.2s0.5,1.1,1,1.4s1,0.5,1.6,0.5c0.2,0,0.4,0,0.7-0.1
	c0.2,0,0.5-0.1,0.7-0.2v-1.8c0-0.4,0-0.6-0.1-0.7c0-0.1-0.1-0.2-0.3-0.3s-0.3-0.1-0.6-0.1h-0.2v-0.2h4.2v0.2c-0.3,0-0.6,0.1-0.7,0.1
	c-0.1,0.1-0.2,0.2-0.3,0.3c0,0.1-0.1,0.3-0.1,0.6v1.8c-0.6,0.3-1.2,0.4-1.7,0.6c-0.6,0.1-1.3,0.2-1.8,0.2c-0.8,0-1.6-0.1-2-0.3
	c-0.6-0.2-1.1-0.5-1.5-0.9c-0.4-0.4-0.8-0.8-1-1.3c-0.3-0.6-0.5-1.3-0.5-1.9c0-1.3,0.5-2.4,1.4-3.3s2-1.4,3.5-1.4
	c0.4,0,0.8,0,1.2,0.1c0.2,0,0.5,0.1,0.9,0.3c0.4,0.2,0.7,0.2,0.8,0.2s0.2,0,0.3-0.1S186.2,24.4,186.3,24.2
	C186,24.2,186.3,24.2,186.3,24.2z"/>
<path class="st1" d="M187,24.4h4.5v0.2h-0.2c-0.3,0-0.6,0-0.7,0.1c-0.1,0.1-0.2,0.2-0.3,0.3s-0.1,0.4-0.1,1v4.3
	c0,0.8,0.1,1.3,0.2,1.6c0.1,0.3,0.3,0.5,0.6,0.6c0.3,0.2,0.6,0.3,1,0.3c0.5,0,0.9-0.1,1.2-0.3s0.6-0.5,0.8-0.9s0.3-1,0.3-1.9v-3.5
	c0-0.4,0-0.7-0.1-0.9c-0.1-0.2-0.2-0.3-0.3-0.4c-0.2-0.1-0.5-0.2-0.8-0.2v-0.2h3v0.2h-0.2c-0.2,0-0.5,0.1-0.6,0.2
	c-0.2,0.1-0.3,0.3-0.4,0.5c-0.1,0.1-0.1,0.4-0.1,0.8v3.3c0,1.1-0.1,1.7-0.2,2.2c-0.1,0.5-0.5,0.9-1,1.3c-0.5,0.4-1.3,0.6-2.1,0.6
	s-1.4-0.1-1.7-0.3c-0.6-0.3-1-0.6-1.2-1.1c-0.2-0.4-0.4-1-0.4-1.7v-4.3c0-0.5,0-0.8-0.1-1c-0.1-0.1-0.2-0.2-0.3-0.3
	c-0.1-0.1-0.4-0.1-0.8-0.1L187,24.4L187,24.4z"/>
<path class="st1" d="M198.9,29.2v2.4c0,0.5,0,0.8,0.1,0.9s0.2,0.2,0.3,0.3s0.4,0.1,0.8,0.1v0.2h-4.5v-0.2c0.4,0,0.7,0,0.8-0.1
	s0.3-0.2,0.3-0.3c0.1-0.1,0.1-0.4,0.1-0.9V26c0-0.5,0-0.8-0.1-0.9s-0.2-0.2-0.3-0.3c-0.2-0.1-0.4-0.1-0.8-0.1v-0.2h4
	c1.1,0,1.8,0.1,2.3,0.2s0.9,0.4,1.2,0.8s0.5,0.9,0.5,1.4c0,0.7-0.2,1.2-0.7,1.6c-0.3,0.3-0.7,0.5-1.3,0.6l2,2.9
	c0.3,0.4,0.5,0.6,0.6,0.7c0.2,0.1,0.4,0.2,0.6,0.2V33h-2.7l-2.8-4h-0.4L198.9,29.2L198.9,29.2z M198.9,24.9v3.8h0.4
	c0.6,0,1.1-0.1,1.4-0.2c0.3-0.1,0.5-0.3,0.7-0.6s0.3-0.7,0.3-1.1c0-0.7-0.2-1.2-0.5-1.5s-0.8-0.5-1.5-0.5
	C199.7,24.9,198.9,24.9,198.9,24.9z"/>
<path class="st1" d="M209.2,24.3c1.4-0.1,2.5,0.4,3.4,1.2c0.9,0.9,1.3,1.9,1.3,3.2c0,1.1-0.3,2-1,2.9c-0.9,1.1-2,1.6-3.6,1.6
	s-2.8-0.5-3.6-1.6c-0.7-0.9-1-1.8-1-3c0-1.3,0.5-2.3,1.4-3.2C206.8,24.6,207.9,24.2,209.2,24.3 M209.2,24.7c-0.8,0-1.4,0.4-1.8,1.3
	c-0.3,0.7-0.5,1.6-0.5,2.8c0,1.5,0.3,2.6,0.8,3.3c0.4,0.5,0.9,0.8,1.6,0.8c0.5,0,0.8-0.1,1.1-0.3c0.4-0.3,0.7-0.7,0.9-1.3
	s0.3-1.4,0.3-2.3c0-1.2-0.1-2-0.3-2.6s-0.5-1-0.8-1.2C210.1,24.8,209.7,24.7,209.2,24.7"/>
<path class="st1" d="M219.7,24.2l0.1,2.9h-0.3c-0.1-0.7-0.4-1.3-0.9-1.7c-0.5-0.5-1-0.7-1.6-0.7c-0.4,0-0.8,0.1-1.1,0.4
	c-0.3,0.2-0.4,0.5-0.4,0.8c0,0.2,0,0.4,0.1,0.5c0.1,0.2,0.3,0.4,0.6,0.6c0.2,0.1,0.7,0.4,1.4,0.8c1,0.5,1.7,1,2,1.5
	c0.4,0.5,0.5,1,0.5,1.6c0,0.7-0.3,1.4-0.9,1.8c-0.6,0.5-1.3,0.8-2.1,0.8c-0.3,0-0.5,0-0.8-0.1s-0.6-0.2-0.9-0.3
	c-0.2-0.1-0.4-0.1-0.5-0.1s-0.2,0-0.4,0.1c-0.1,0.1-0.2,0.2-0.3,0.4H214v-3.3h0.2c0.2,0.9,0.6,1.6,1.1,2.1c0.6,0.5,1.1,0.7,1.7,0.7
	c0.5,0,0.9-0.1,1.2-0.4c0.3-0.3,0.4-0.6,0.4-0.9c0-0.2-0.1-0.4-0.2-0.6c-0.1-0.2-0.3-0.4-0.5-0.6s-0.6-0.4-1.2-0.7
	c-0.8-0.4-1.4-0.7-1.7-1c-0.4-0.3-0.6-0.6-0.8-0.9s-0.3-0.7-0.3-1.1c0-0.7,0.3-1.3,0.8-1.7c0.5-0.5,1.2-0.8,1.9-0.8
	c0.3,0,0.6,0,0.8,0.1s0.5,0.1,0.8,0.3c0.3,0.1,0.5,0.2,0.6,0.2s0.2,0,0.3-0.1s0.1-0.2,0.2-0.5L219.7,24.2L219.7,24.2z"/>
<path class="st1" d="M228.8,24.2l0.1,2.9h-0.3c-0.1-0.7-0.4-1.3-0.9-1.7c-0.5-0.5-1-0.7-1.6-0.7c-0.4,0-0.8,0.1-1.1,0.4
	c-0.3,0.2-0.4,0.5-0.4,0.8c0,0.2,0,0.4,0.1,0.5c0.1,0.2,0.3,0.4,0.6,0.6c0.2,0.1,0.7,0.4,1.4,0.8c1,0.5,1.7,1,2,1.5
	c0.4,0.5,0.5,1,0.5,1.6c0,0.7-0.3,1.4-0.9,1.8c-0.6,0.5-1.3,0.8-2.1,0.8c-0.3,0-0.5,0-0.8-0.1c-0.2-0.1-0.6-0.2-0.9-0.3
	c-0.2-0.1-0.4-0.1-0.5-0.1s-0.2,0-0.4,0.1c-0.1,0.1-0.2,0.2-0.3,0.4l0,0v-3.3h0.2c0.2,0.9,0.6,1.6,1.1,2.1c0.6,0.5,1.1,0.7,1.7,0.7
	c0.5,0,0.9-0.1,1.2-0.4c0.3-0.3,0.4-0.6,0.4-0.9c0-0.2-0.1-0.4-0.2-0.6c-0.1-0.2-0.3-0.4-0.5-0.6s-0.6-0.4-1.2-0.7
	c-0.8-0.4-1.4-0.7-1.7-1c-0.4-0.3-0.6-0.6-0.8-0.9s-0.3-0.7-0.3-1.1c0-0.7,0.3-1.3,0.8-1.7s1.2-0.8,1.9-0.8c0.3,0,0.6,0,0.8,0.1
	s0.5,0.1,0.8,0.3c0.3,0.1,0.5,0.2,0.6,0.2s0.2,0,0.3-0.1s0.1-0.2,0.2-0.5L228.8,24.2L228.8,24.2z"/>
<path class="st1" d="M230.5,31.5c0.2,0,0.4,0.1,0.6,0.3c0.2,0.2,0.3,0.4,0.3,0.6c0,0.2-0.1,0.4-0.3,0.6c-0.2,0.2-0.4,0.3-0.6,0.3
	c-0.2,0-0.4-0.1-0.6-0.3c-0.2-0.2-0.3-0.4-0.3-0.6s0.1-0.4,0.3-0.6C230.1,31.6,230.3,31.5,230.5,31.5"/>
<path class="st1" d="M236.7,30.6h-3.1l-0.4,0.9c-0.1,0.3-0.2,0.5-0.2,0.7c0,0.3,0.1,0.4,0.3,0.6c0.1,0.1,0.4,0.1,0.9,0.2v0.2h-2.9
	v-0.3c0.3,0,0.6-0.2,0.8-0.4s0.5-0.7,0.8-1.3l3.1-6.9h0.1l3.1,7.1c0.3,0.7,0.6,1.1,0.8,1.3c0.2,0.1,0.4,0.2,0.6,0.2v0.2h-4.3v-0.2
	h0.2c0.3,0,0.6,0,0.7-0.1c0.1-0.1,0.1-0.2,0.1-0.3s0-0.2,0-0.2s-0.1-0.2-0.2-0.5L236.7,30.6z M236.4,30.1l-1.3-3l-1.4,3H236.4z"/>
<path class="st1" d="M241.2,31.5c0.2,0,0.4,0.1,0.6,0.3c0.2,0.2,0.3,0.4,0.3,0.6c0,0.2-0.1,0.4-0.3,0.6c-0.2,0.2-0.4,0.3-0.6,0.3
	s-0.4-0.1-0.6-0.3c-0.2-0.2-0.3-0.4-0.3-0.6s0.1-0.4,0.3-0.6C240.8,31.6,240.9,31.5,241.2,31.5"/>
<path class="st1" d="M65,7.9v4.4h0.3c0.5,0,0.9-0.1,1.2-0.2c0.3-0.1,0.6-0.4,0.8-0.7c0.2-0.3,0.4-0.8,0.4-1.4H68v5.4h-0.3
	c-0.1-1.1-0.4-1.6-0.8-2c-0.6-0.2-1.1-0.4-1.6-0.4H65v3.3c0,0.6,0,0.9,0.1,1.1c0.1,0.1,0.2,0.3,0.4,0.4c0.2,0.1,0.4,0.2,0.7,0.2h0.4
	v0.3H61V18h0.3c0.3,0,0.6-0.1,0.8-0.2c0.1-0.1,0.3-0.2,0.3-0.4c0.1-0.1,0.1-0.5,0.1-1V9.3c0-0.6,0-0.9-0.1-1.1
	c-0.1-0.1-0.2-0.3-0.4-0.4s-0.5-0.2-0.8-0.2h-0.4V7.4h9v3.1h-0.3c-0.1-0.7-0.3-1.3-0.6-1.6c-0.3-0.4-0.8-0.6-1.4-0.8
	C67.2,8,66.6,8,65.8,8C65.8,7.9,65,7.9,65,7.9z"/>
<path class="st1" d="M73.6,7.9v4.4h0.2c0.7,0,1.2-0.2,1.5-0.7c0.3-0.4,0.5-1.1,0.6-1.8h0.3v5.6h-0.3c-0.1-0.6-0.2-1.1-0.4-1.6
	c-0.2-0.4-0.5-0.7-0.7-0.8c-0.3-0.1-0.7-0.2-1.2-0.2v3c0,0.6,0,1,0.1,1.1s0.1,0.2,0.3,0.3c0.1,0.1,0.4,0.1,0.7,0.1h0.7
	c1,0,1.8-0.2,2.4-0.7s1.1-1.2,1.3-2.1h0.2l-0.6,3.6h-9.3v-0.3h0.4c0.3,0,0.6-0.1,0.8-0.2c0.1-0.1,0.3-0.2,0.3-0.4
	c0.1-0.1,0.1-0.5,0.1-1v-7c0-0.5,0-0.8,0-0.9c-0.1-0.2-0.2-0.3-0.3-0.4c-0.2-0.2-0.5-0.3-0.9-0.3h-0.4V7.4h9v3.2h-0.3
	c-0.2-0.8-0.4-1.4-0.7-1.6c-0.3-0.3-0.7-0.6-1.2-0.8C76,8,75.4,8,74.7,8L73.6,7.9L73.6,7.9z"/>
<path class="st1" d="M78.9,18.1v-0.3h0.4c0.3,0,0.6,0,0.7-0.2c0.2-0.1,0.3-0.2,0.4-0.4c0-0.1,0.1-0.5,0.1-1v-7c0-0.6,0-0.9-0.1-1.1
	C80.3,8,80.2,7.8,80,7.7c-0.1,0-0.4-0.1-0.7-0.1h-0.4V7.4h4.9c1.3,0,2.3,0.2,3.1,0.5c1,0.4,1.6,1.1,2.1,1.9c0.5,0.9,0.8,1.8,0.8,2.9
	c0,0.8-0.1,1.5-0.4,2.1c-0.3,0.7-0.6,1.2-1,1.6s-0.9,0.8-1.4,1c-0.5,0.3-1.2,0.5-1.8,0.6c-0.2,0-0.8,0-1.5,0L78.9,18.1L78.9,18.1z
	 M83.1,7.9v8.4c0,0.5,0,0.7,0.1,0.8c0,0.1,0.1,0.2,0.2,0.2c0.1,0.1,0.4,0.1,0.6,0.1c0.9,0,1.6-0.3,2-0.9c0.7-0.8,1-2,1-3.8
	c0-1.4-0.2-2.5-0.7-3.3c-0.4-0.7-0.8-1.1-1.4-1.4C84.6,8,84,7.9,83.1,7.9"/>
<path class="st1" d="M93.7,7.9v4.4h0.2c0.7,0,1.2-0.2,1.5-0.7c0.3-0.4,0.5-1.1,0.6-1.8h0.3v5.6H96c-0.1-0.6-0.2-1.1-0.4-1.6
	c-0.2-0.5-0.5-0.7-0.7-0.8c-0.3-0.1-0.7-0.2-1.2-0.2v3c0,0.6,0,1,0.1,1.1s0.1,0.2,0.3,0.3c0.1,0.1,0.4,0.1,0.7,0.1h0.7
	c1,0,1.8-0.2,2.4-0.7s1.1-1.2,1.3-2.1h0.3L99,17.9h-9.3v-0.3h0.4c0.3,0,0.6-0.1,0.8-0.2c0.1-0.1,0.3-0.2,0.3-0.4
	c0.1-0.1,0.1-0.5,0.1-1V9c0-0.5,0-0.8,0-0.9c-0.1-0.2-0.2-0.3-0.3-0.4c-0.2-0.2-0.5-0.2-0.8-0.2h-0.4V7.4h9v3.2h-0.3
	c-0.2-0.8-0.4-1.4-0.7-1.6c-0.3-0.3-0.7-0.6-1.2-0.8C96.3,8,95.7,8,94.9,8L93.7,7.9L93.7,7.9z"/>
<path class="st1" d="M103.2,13.2v3c0,0.6,0,1,0.1,1.1c0.1,0.2,0.2,0.3,0.4,0.4c0.2,0.1,0.5,0.1,1,0.1V18h-5.5v-0.3
	c0.5,0,0.9,0,1-0.1c0.2-0.1,0.3-0.2,0.4-0.4c0.1-0.2,0.1-0.5,0.1-1.1v-7c0-0.6,0-1-0.1-1.1c-0.1-0.2-0.2-0.3-0.4-0.4
	c-0.2-0.1-0.5-0.1-1-0.1V7.4h4.9c1.3,0,2.2,0.1,2.8,0.3c0.6,0.2,1.1,0.5,1.5,1s0.6,1.1,0.6,1.7c0,0.8-0.3,1.5-0.9,1.9
	c-0.4,0.3-0.9,0.6-1.6,0.8l2.6,3.6c0.3,0.5,0.6,0.8,0.7,0.9c0.2,0.2,0.5,0.3,0.8,0.3v0.3h-3.4l-3.5-4.9L103.2,13.2L103.2,13.2z
	 M103.2,7.9v4.7h0.5c0.8,0,1.3-0.1,1.6-0.2c0.4-0.1,0.7-0.4,0.9-0.8s0.3-0.8,0.3-1.4c0-0.8-0.2-1.5-0.6-1.8c-0.4-0.4-1-0.6-1.8-0.6
	L103.2,7.9L103.2,7.9z"/>
<path class="st1" d="M116.1,15h-3.8l-0.5,1.1c-0.2,0.4-0.2,0.7-0.2,0.9c0,0.3,0.1,0.5,0.4,0.7c0.1,0.1,0.5,0.2,1.1,0.2v0.3h-3.6
	v-0.3c0.4-0.1,0.7-0.2,1-0.5s0.6-0.8,0.9-1.6l3.9-8.5h0.2l3.8,8.7c0.4,0.9,0.7,1.4,0.9,1.6s0.4,0.3,0.8,0.3v0.3h-5.2v-0.3h0.2
	c0.4,0,0.7-0.1,0.9-0.2c0.1-0.1,0.2-0.2,0.2-0.4c0-0.1,0-0.2,0-0.3c0,0-0.1-0.3-0.2-0.6L116.1,15z M115.8,14.4l-1.6-3.7l-1.6,3.7
	H115.8z"/>
<path class="st1" d="M130.6,7.2v3.7h-0.3c-0.2-1-0.7-1.7-1.3-2.2c-0.7-0.5-1.4-0.8-2.1-0.8s-1.3,0.2-1.8,0.6c-0.6,0.4-1,0.9-1.3,1.6
	c-0.3,0.8-0.5,1.6-0.5,2.6s0.1,1.8,0.4,2.6c0.2,0.8,0.6,1.4,1.2,1.7c0.5,0.4,1.2,0.6,2,0.6c0.7,0,1.3-0.2,1.8-0.5
	c0.6-0.3,1.2-0.8,1.7-1.6v1c-0.6,0.6-1.3,1.1-1.8,1.4c-0.6,0.3-1.6,0.5-2.4,0.5c-1.2,0-2.1-0.2-3-0.7s-1.6-1.2-2-1.9
	c-0.5-0.9-0.7-1.7-0.7-2.7c0-1.1,0.3-2,0.8-2.9c0.6-0.9,1.3-1.6,2.1-2.1c0.9-0.5,1.8-0.8,2.9-0.8c0.8,0,1.6,0.2,2.4,0.5
	c0.5,0.2,0.8,0.3,1,0.3s0.3-0.1,0.5-0.2C130.4,7.6,130.5,7.4,130.6,7.2L130.6,7.2z"/>
<path class="st1" d="M136.3,17.8v0.3h-5.6v-0.3h0.4c0.3,0,0.6-0.1,0.8-0.2c0.1-0.1,0.3-0.2,0.3-0.4c0.1-0.1,0.1-0.5,0.1-1v-7
	c0-0.6,0-0.9-0.1-1.1c-0.1-0.1-0.2-0.3-0.4-0.4s-0.4-0.2-0.7-0.2h-0.4V7.4h5.6v0.3h-0.4c-0.3,0-0.6,0.1-0.8,0.2
	c-0.1,0.1-0.3,0.2-0.3,0.4c-0.1,0.1-0.1,0.5-0.1,1v7.1c0,0.6,0,0.9,0.1,1.1c0.1,0.1,0.2,0.3,0.4,0.4s0.4,0.2,0.7,0.2L136.3,17.8
	L136.3,17.8z"/>
<path class="st1" d="M141.7,7.3c1.7-0.1,3.1,0.4,4.2,1.5s1.6,2.4,1.6,4c0,1.4-0.4,2.5-1.2,3.6c-1.1,1.4-2.5,2-4.5,2
	c-1.9,0-3.4-0.7-4.5-1.9c-0.9-1.1-1.3-2.2-1.3-3.7c0-1.6,0.6-2.9,1.6-4C138.8,7.6,140.1,7.2,141.7,7.3 M141.8,7.7
	c-1,0-1.7,0.5-2.2,1.6c-0.4,0.8-0.6,2-0.6,3.6c0,1.8,0.3,3.2,1,4.1c0.5,0.6,1.1,0.9,1.8,0.9c0.6,0,1-0.1,1.4-0.4
	c0.5-0.3,0.9-0.9,1.1-1.6c0.3-0.8,0.4-1.7,0.4-2.9c0-1.5-0.1-2.5-0.4-3.2c-0.3-0.7-0.6-1.2-1-1.5C142.8,7.8,142.3,7.7,141.8,7.7"/>
<path class="st1" d="M150.8,7.4l5.3,6.7V9.4c0-0.7-0.1-1.1-0.3-1.3c-0.3-0.3-0.7-0.5-1.3-0.5V7.4h3.6v0.3c-0.5,0.1-0.8,0.1-0.9,0.2
	c-0.2,0.1-0.3,0.3-0.4,0.5c-0.1,0.2-0.1,0.6-0.1,1.1v8.9h-0.3l-7.1-9v6.8c0,0.6,0.1,1.1,0.4,1.3c0.3,0.2,0.6,0.3,1,0.3h0.3V18h-3.8
	v-0.3c0.6,0,1-0.1,1.3-0.4c0.2-0.2,0.4-0.7,0.4-1.2V8.6l-0.2-0.3c-0.2-0.3-0.4-0.5-0.6-0.6c-0.4,0-0.7-0.1-1-0.1V7.4H150.8z"/>
<path class="st1" d="M167.4,13.3v3c0,0.6,0,1,0.1,1.1c0.1,0.2,0.2,0.3,0.4,0.4s0.5,0.1,1,0.1v0.3h-5.4v-0.3c0.5,0,0.9,0,1-0.1
	c0.2-0.1,0.3-0.2,0.4-0.4c0.1-0.2,0.1-0.5,0.1-1.1v-7c0-0.6,0-1-0.1-1.1c-0.1-0.2-0.2-0.3-0.4-0.4s-0.5-0.1-1-0.1V7.4h4.7
	c1.6,0,2.6,0.3,3.3,0.8c0.7,0.6,1,1.3,1,2s-0.2,1.3-0.7,1.7c-0.4,0.5-1.1,0.9-1.7,1C169.5,13.2,168.6,13.3,167.4,13.3 M167.4,7.9
	v4.7c0.2,0,0.3,0,0.4,0c0.7,0,1.2-0.2,1.5-0.6c0.4-0.4,0.5-1,0.5-1.7c0-0.8-0.2-1.4-0.5-1.7c-0.4-0.4-0.9-0.6-1.6-0.6
	C167.7,7.9,167.4,7.9,167.4,7.9z"/>
<path class="st1" d="M177.2,15h-3.8l-0.5,1.1c-0.2,0.4-0.2,0.7-0.2,0.9c0,0.3,0.1,0.5,0.4,0.7c0.1,0.1,0.5,0.2,1.1,0.2v0.3h-3.6
	v-0.3c0.4-0.1,0.7-0.2,1-0.5s0.6-0.8,0.9-1.6l3.9-8.5h0.2l3.9,8.8c0.4,0.9,0.7,1.4,0.9,1.6s0.4,0.3,0.8,0.3v0.3H177V18h0.2
	c0.4,0,0.7-0.1,0.9-0.2c0.1-0.1,0.2-0.2,0.2-0.4c0-0.1,0-0.2,0-0.3c0,0-0.1-0.3-0.2-0.6L177.2,15z M176.9,14.4l-1.6-3.7l-1.6,3.7
	H176.9z"/>
<path class="st1" d="M190,7.4v2.9h-0.3c-0.2-0.7-0.4-1.2-0.6-1.5c-0.2-0.3-0.5-0.5-0.9-0.7c-0.1-0.1-0.5-0.1-1-0.1h-0.8v8.2
	c0,0.6,0,0.9,0.1,1.1c0.1,0.1,0.2,0.3,0.4,0.4s0.4,0.2,0.7,0.2h0.4v0.3h-5.6v-0.3h0.4c0.3,0,0.6-0.1,0.8-0.2
	c0.1-0.1,0.3-0.2,0.3-0.4c0.1-0.1,0.1-0.5,0.1-1V7.9h-0.8c-0.7,0-1.3,0.2-1.6,0.5c-0.5,0.4-0.8,1.1-0.9,1.8h-0.3V7.4H190z"/>
<path class="st1" d="M193.7,13.2v3c0,0.6,0,1,0.1,1.1c0.1,0.2,0.2,0.3,0.4,0.4s0.5,0.1,1,0.1V18h-5.5v-0.3c0.5,0,0.9,0,1-0.1
	c0.2-0.1,0.3-0.2,0.4-0.4c0.1-0.2,0.1-0.5,0.1-1.1v-7c0-0.6,0-1-0.1-1.1c-0.1-0.2-0.2-0.3-0.4-0.4s-0.5-0.1-1-0.1V7.4h4.9
	c1.3,0,2.2,0.1,2.8,0.3c0.6,0.2,1.1,0.5,1.5,1s0.6,1.1,0.6,1.7c0,0.8-0.3,1.5-0.9,1.9c-0.4,0.3-0.9,0.6-1.6,0.8l2.6,3.6
	c0.3,0.5,0.6,0.8,0.7,0.9c0.2,0.2,0.5,0.3,0.8,0.3v0.3h-3.4l-3.5-4.9L193.7,13.2L193.7,13.2z M193.7,7.9v4.7h0.5
	c0.8,0,1.3-0.1,1.6-0.2c0.4-0.1,0.7-0.4,0.9-0.8c0.2-0.4,0.3-0.8,0.3-1.4c0-0.8-0.2-1.5-0.6-1.8c-0.4-0.4-1-0.6-1.8-0.6L193.7,7.9
	L193.7,7.9z"/>
<path class="st1" d="M206.1,7.3c1.7-0.1,3.1,0.4,4.2,1.5c1.1,1.1,1.6,2.4,1.6,4c0,1.4-0.4,2.5-1.2,3.6c-1.1,1.4-2.5,2-4.5,2
	s-3.4-0.7-4.5-1.9c-0.9-1.1-1.3-2.2-1.3-3.7c0-1.6,0.6-2.9,1.6-4C203.2,7.6,204.6,7.2,206.1,7.3 M206.2,7.7c-1,0-1.7,0.5-2.2,1.6
	c-0.4,0.8-0.6,2-0.6,3.6c0,1.8,0.3,3.2,1,4.1c0.5,0.6,1.1,0.9,1.8,0.9c0.6,0,1-0.1,1.4-0.4c0.5-0.3,0.9-0.9,1.1-1.6
	c0.3-0.8,0.4-1.7,0.4-2.9c0-1.5-0.1-2.5-0.4-3.2c-0.3-0.7-0.6-1.2-1-1.5C207.2,7.8,206.7,7.7,206.2,7.7"/>
<path class="st1" d="M215.2,7.4l5.3,6.7V9.4c0-0.7-0.1-1.1-0.3-1.3c-0.3-0.3-0.7-0.5-1.3-0.5V7.4h3.6v0.3c-0.5,0.1-0.8,0.1-0.9,0.2
	c-0.2,0.1-0.3,0.3-0.4,0.5c0.1,0.1,0.1,0.5,0.1,1v8.9H221l-7.3-8.9v6.8c0,0.6,0.1,1.1,0.4,1.3c0.3,0.2,0.6,0.3,1,0.3h0.3V18h-3.8
	v-0.3c0.6,0,1-0.1,1.3-0.4c0.2-0.2,0.4-0.7,0.4-1.2V8.6l-0.2-0.3c-0.2-0.3-0.4-0.5-0.6-0.6c-0.2-0.1-0.4-0.1-0.8-0.2V7.4H215.2z"/>
<path class="st1" d="M228.5,15h-3.8l-0.5,1.1c-0.2,0.4-0.2,0.7-0.2,0.9c0,0.3,0.1,0.5,0.4,0.7c0.1,0.1,0.5,0.2,1.1,0.2v0.3h-3.6
	v-0.3c0.4-0.1,0.7-0.2,1-0.5s0.6-0.8,0.9-1.6l3.9-8.5h0.2l3.9,8.8c0.4,0.9,0.7,1.4,0.9,1.6s0.4,0.3,0.8,0.3v0.3h-5.2V18h0.2
	c0.4,0,0.7-0.1,0.9-0.2c0.1-0.1,0.2-0.2,0.2-0.4c0-0.1,0-0.2,0-0.3c0,0-0.1-0.3-0.2-0.6L228.5,15z M228.2,14.4l-1.6-3.7l-1.6,3.7
	H228.2z"/>
<path class="st1" d="M242.1,18.1h-9.5v-0.3h0.4c0.3,0,0.6-0.1,0.8-0.2c0.1-0.1,0.3-0.2,0.3-0.4c0.1-0.1,0.1-0.5,0.1-1v-7
	c0-0.6,0-0.9-0.1-1.1c-0.1-0.1-0.2-0.3-0.4-0.4c-0.2-0.1-0.4-0.2-0.7-0.2h-0.4V7.4h5.7v0.3h-0.5c-0.3,0-0.6,0.1-0.8,0.2
	c-0.1,0.1-0.3,0.2-0.3,0.4c-0.1,0.1-0.1,0.5-0.1,1v6.9c0,0.6,0,0.9,0.1,1.1c0.1,0.2,0.2,0.3,0.4,0.3c0.1,0,0.5,0.1,1,0.1h0.9
	c0.6,0,1.1-0.1,1.5-0.3c0.4-0.2,0.7-0.5,1-1c0.3-0.4,0.6-1.1,0.8-1.9h0.2L242.1,18.1z"/>
</svg>
