<?xml version="1.0" encoding="utf-8"?>
<!-- Generator: Adobe Illustrator 21.1.0, SVG Export Plug-In . SVG Version: 6.00 Build 0)  -->
<svg version="1.1" id="Capa_1" xmlns="http://www.w3.org/2000/svg" xmlns:xlink="http://www.w3.org/1999/xlink" x="0px" y="0px"
	 viewBox="0 0 55.3 33.9" style="enable-background:new 0 0 55.3 33.9;" xml:space="preserve">
<style type="text/css">
	.st0{clip-path:url(#SVGID_2_);fill:url(#SVGID_3_);}
	.st1{fill:#0053A1;}
</style>
<g>
	<g>
		<g>
			<g>
				<g>
					<defs>
						<path id="SVGID_1_" d="M4.8,5.5c-6.4,6.4-6.4,16.8,0,23.2s16.8,6.4,23.2,0s6.4-16.8,0-23.2c-3.2-3.2-7.4-4.8-11.6-4.8
							S8,2.3,4.8,5.5"/>
					</defs>
					<clipPath id="SVGID_2_">
						<use xlink:href="#SVGID_1_"  style="overflow:visible;"/>
					</clipPath>
					
						<linearGradient id="SVGID_3_" gradientUnits="userSpaceOnUse" x1="594.9694" y1="534.3235" x2="595.9694" y2="534.3235" gradientTransform="matrix(-23.9539 23.9539 23.9539 23.9539 1481.3619 -27045.3281)">
						<stop  offset="0" style="stop-color:#FFFFFF"/>
						<stop  offset="0.2966" style="stop-color:#FDFDFD"/>
						<stop  offset="0.4598" style="stop-color:#F5F5F5"/>
						<stop  offset="0.5906" style="stop-color:#E7E7E7"/>
						<stop  offset="0.7042" style="stop-color:#D3D4D4"/>
						<stop  offset="0.8066" style="stop-color:#BABBBC"/>
						<stop  offset="0.9011" style="stop-color:#9B9C9D"/>
						<stop  offset="0.9878" style="stop-color:#77787A"/>
						<stop  offset="1" style="stop-color:#717274"/>
					</linearGradient>
					<polygon class="st0" points="51.6,17.9 16.4,53 -18.7,17.9 16.4,-17.3 					"/>
				</g>
			</g>
		</g>
	</g>
</g>
<path d="M4.3,6.6c0,0,0.1,2.4,0.6,2.9c0,0,0.8,1.7-0.1,3.8c0,0,0.2,1.5-1.2,1.8c0,0-1.2,1.3-0.9,2c0,0,0.2,0.7-0.6,0.6
	c0,0,0.3,3.3-1.5,3.2C0.5,21-1.5,11.8,4.3,6.6"/>
<path d="M4.8,16c0,0,1.2-1.7,0.9,0.5c0,0-0.6,1.2-0.5,1.7c0,0-1,0.6-1,1.7c0,0-0.8,0.7-0.9-0.5c0,0,0.2-1.7,0.6-1.7
	C3.9,17.8,4.7,17.8,4.8,16"/>
<path d="M2.7,25.7c0,0,1.2-0.7,1.7,0.5c0,0,0.6,1.4,1.6,1.7c0,0,1.7,0,0.4,2C6.3,29.9,3.4,27.4,2.7,25.7"/>
<path d="M10.9,1.8c0,0-1.6,3.1-0.7,4.5c0,0,1.5,1.5,2.9-0.5c0,0,0.9,0.2,0.8,2c0,0,0,2.4,0.8,2.3c0,0,1.2,0.1,0.9-1.4
	c0,0,1.2,3.6,2.7,4c0,0,2.8,0.5,0.5,1.8c0,0-4,3.3-0.5,6.8c0,0,0.9,0.8,0.3,2c0,0,0.3,6.1-0.8,7.3c0,0,0.3,1.3,1-0.3
	c0,0,1.9-1.4,1.7-2.7c0,0,1.4,0.2,1.6-0.8s-0.3-0.1-0.3-0.1s1.9-2.8,2.7-2.6c0.1,0-0.1,0.1-0.1,0.1s2.8-1.9,1.5-4.8
	c0,0-3.8-5.7-5.2-4.5c0,0-0.1-2-0.5-2.7c0,0-2-0.6-0.6-1.6c0,0,1-0.6,1.5,0.8c0,0,1-0.1-0.2-2.2c0,0,0.8,0.2,2-1.1
	c0,0,2.9,0.7,2.4-2.4c0,0-0.1-2.5-1.5-2.1c0,0,0.7,1.9-1.6,1.9c-0.7,0,0,0,0,0s-2.4-0.9-0.8-2.9c0,0,0.8-0.6-1.6-1.5
	C18.9,0.7,19,0.8,19,0.8S16.3,0.1,10.9,1.8"/>
<path class="st1" d="M22,17.1c0,9.1,7.4,16.4,16.4,16.4c9.1,0,16.4-7.4,16.4-16.4c0-9.1-7.4-16.4-16.4-16.4C29.4,0.6,22,8,22,17.1
	 M23.7,17.1c0-8.1,6.6-14.8,14.8-14.8c8.1,0,14.8,6.6,14.8,14.8c0,8.1-6.6,14.8-14.8,14.8C30.3,31.8,23.7,25.2,23.7,17.1"/>
<path class="st1" d="M24.1,17.1c0,7.9,6.4,14.3,14.3,14.3S52.7,25,52.7,17.1S46.3,2.8,38.4,2.8C30.6,2.7,24.1,9.2,24.1,17.1
	 M24.7,17.1c0-7.6,6.2-13.8,13.8-13.8s13.8,6.2,13.8,13.8s-6.2,13.8-13.8,13.8C30.9,30.8,24.7,24.6,24.7,17.1"/>
<path class="st1" d="M37.3,28.7L29,12.9c0,0-1.8-3.4,2-3.4h13.9c0,0,4.2-0.6,2.1,3.2l-2,4.1c0,0-0.1,0.5-1,0.6h-3.1l-0.1,6.5l-3,4.8
	V15.9c0,0-0.3-1.6,1.7-1.5h3.4l0.7-1.9L32,12.4l0.8,1.9l4,0.1c0,0,1.6,0.1,0.2,1.6l-2.1,1.5l2.5,4.7L37.3,28.7z"/>
</svg>
