<?xml version="1.0" encoding="utf-8"?>
<!-- Generator: Adobe Illustrator 21.1.0, SVG Export Plug-In . SVG Version: 6.00 Build 0)  -->
<svg version="1.1" id="Capa_1" xmlns="http://www.w3.org/2000/svg" xmlns:xlink="http://www.w3.org/1999/xlink" x="0px" y="0px"
	 viewBox="0 0 182 152" style="enable-background:new 0 0 182 152;" xml:space="preserve">
<style type="text/css">
	.st0{fill:#FFFFFF;}
	.st1{fill:#E8F1F9;}
	.st2{fill:#9BB7D3;}
	.st3{fill:#0053A4;}
	.st4{fill:none;stroke:#0053A4;stroke-width:2;stroke-miterlimit:10;}
</style>
<g id="XMLID_108_">
	<g>
		<g id="XMLID_1_">
			<g>
				<path class="st0" d="M92.9,73.1c0.2,1.7,0.1,3.3,0.1,4.5c-0.1,0-0.1-0.1-0.1-0.1c-0.4,0.4-12.4,12.8-13.3,14
					c-0.3,0.5-0.6,0.7-0.9,0.8c0,0-1.5-3.6-1.5-4.5c0,0,0-0.1,0.1-0.2c1.4-2.1,15.2-16.2,15.2-16.2c0.1,0.1,0.1,0.2,0.1,0.3
					c-0.2,0.3-0.3,0.6,0,1.1C92.7,72.8,92.8,73,92.9,73.1z"/>
				<path class="st0" d="M154.8,35.1c1.2,0,0.4,2,0.4,2s-16.9,10.4-18.8,11.2c-0.2,0.1-0.4,0.1-0.5,0.1l0,0
					c-0.3-0.1-0.5-0.2-0.7-0.2c-0.4-0.4-0.4-1.1-0.4-1.5c0-0.3,0-0.4,0-0.4S153.6,35.1,154.8,35.1z"/>
				<path class="st0" d="M152.4,64.4c0.5,0.9,1.2,1.9,1.2,2.4c0,0.4-0.7,0.4-0.7,0.4s-7.4,4.7-16.1,10.1
					C126.4,83.7,114.3,91,111.1,92c-0.4,0.1-0.8-0.1-0.9-0.2c-1.6-1.1-16.1-13.4-17.3-14.4c0.1-1.1,0.1-2.8-0.1-4.5
					c3.4,4.3,18.6,16,18.6,16s39.3-23.8,40.1-25l0.2-0.2l0,0C152.2,64.2,152.4,64.3,152.4,64.4z"/>
				<path class="st1" d="M154.8,35.1c-1.2,0-20.1,11.2-20.1,11.2s0,0.2,0,0.4c-1.5-0.3-41.4-18.1-41.4-18.1l0,0
					c0-0.5,14.2-8.9,17.4-10c0.1-0.1,0.4-0.3,0.6-0.3c0.2,0,0.4,0.2,0.6,0.3C119.4,19.8,154.8,35.1,154.8,35.1z"/>
				<path class="st1" d="M136.8,49.1c0,0,11,11,14.7,14.4c0.1,0.1,0.3,0.3,0.4,0.4l-0.2,0.2c-0.8,1.2-40.1,25-40.1,25
					s-15.2-11.7-18.6-16c-0.1-0.5-0.1-0.9-0.2-1.4c2.2-2.9,41.3-22.9,42.1-23.3c0.1-0.1,0.3-0.1,0.4-0.1c0.2,0.2,0.4,0.3,0.7,0.2
					l0,0C136.4,48.8,136.8,49.1,136.8,49.1z"/>
				<path class="st1" d="M92.9,78.5c0,0,0.9,50.3,0.6,51.1c-0.1,0-0.6-0.3-0.8-0.4c-3.3-2-40.6-25.2-41.4-26.7
					c-0.8-1.6,0.4-25.2,0.4-25.2l10.9,6.2l15.4,8.8c0,0,0.3,0.2,0.6,0c0.3-0.1,0.6-0.3,0.9-0.8c0.8-1.2,12.9-13.6,13.3-14
					c0,0,0,0,0.1,0.1C93,78.2,92.9,78.5,92.9,78.5z"/>
				<path class="st1" d="M136.8,77.3l0.1,0.2l-0.1,24.3c0,0,0,1.2-2.8,2.4c-2.7,1.2-37.1,23.3-39.7,25c-0.1,0.1-0.7,0.4-0.8,0.4
					c0.4-0.8-0.6-51.1-0.6-51.1s0-0.4,0.1-1c1.2,1,15.7,13.2,17.3,14.4c0.1,0.1,0.6,0.3,0.9,0.2C114.3,91,126.5,83.7,136.8,77.3z"/>
				<path class="st0" d="M32.5,59.4c0.4,1,44.8,28.1,44.8,28.1c-0.1,0.1-0.1,0.2-0.1,0.2c0,0.8,1.5,4.5,1.5,4.5
					c-0.4,0.2-0.6,0-0.6,0l-15.4-8.8l0.1-0.1C61.9,82.7,34.1,66.4,33,65.6c0,0-1.1-0.3-1.5-0.7c-0.2-0.3,0.3-0.7,0.3-0.9
					C31.7,63.7,32,61.1,32.5,59.4z"/>
				<path class="st1" d="M75.4,26.2c2.4,0.2,16.1,1.7,17.4,2.4c0,0-40,16.8-40.9,17.1h-0.2c-0.1-0.1-0.2-0.1-0.4-0.2
					c-1.2-0.4-22.8-0.4-24.5-0.4V45c4.9-2,44.7-18.6,47.4-18.3C74.4,26.6,75.2,26.2,75.4,26.2z"/>
				<path class="st0" d="M51.4,45.5c0.2,0.1,0.3,0.1,0.4,0.2c0.6,0.5-0.4,1-0.4,1c-0.2,0.1-0.6,0.3-1.2,0.6l0,0
					c-0.4,0-21.7,0.9-22.9,0.9c-1.2,0-0.4-3.2-0.4-3.2s0,0,0.1,0C28.6,45.1,50.3,45.1,51.4,45.5z"/>
				<path class="st2" d="M134.7,46.7c0,0.5,0,1.2,0.4,1.5c-0.1,0-0.3,0-0.4,0.1c-0.8,0.4-39.9,20.4-42.1,23.3c0-0.1-0.1-0.2-0.1-0.3
					c-0.1-0.2-0.3-0.3-0.5-0.5c-2.4-2.4-39.4-24.6-40.6-24.1c0,0,0.9-0.6,0.4-1h0.2c0.9-0.3,40.9-17.1,40.9-17.1h0.4l0,0
					C93.3,28.6,133.2,46.4,134.7,46.7z"/>
				<path class="st1" d="M77.3,87.5c0,0-44.4-27.1-44.8-28.1c0.1-0.4,0.3-0.7,0.5-1c0.6-1,13.2-8.7,17.3-11l0,0
					c0.6-0.4,1.1-0.6,1.2-0.6c1.2-0.4,38.2,21.7,40.6,24.1c0.2,0.2,0.3,0.3,0.5,0.5C92.5,71.4,78.7,85.5,77.3,87.5z"/>
			</g>
			<g>
				<g>
					<path class="st3" d="M111.4,90.2l-0.5-0.4c-0.6-0.5-15.3-11.8-18.8-16.1L92,73.5c0-0.1,0-0.1-0.1-0.1l-0.2-0.2
						c-0.5-0.7-0.4-1.5,0-2.1c2.5-3.2,40-22.4,42.4-23.6c0.4-0.3,0.7-0.3,0.8-0.3c0.4,0,0.6,0.1,0.9,0.2l0.2,0.1l-0.6,1.8l-0.2-0.1
						c-0.1-0.1-0.2-0.1-0.3-0.1l0,0c-2,0.9-39.6,20.4-41.8,23c0.1,0.1,0.2,0.2,0.3,0.5c3.1,3.7,15.3,13.3,17.9,15.3
						c15.3-9.3,38-23.2,39.3-24.4l0.4,0.4l1.1,0.6c-0.7,1.2-25.6,16.3-40.4,25.2L111.4,90.2z"/>
				</g>
				<g>
					<path class="st3" d="M93.5,130.5c-0.3,0-0.5-0.1-1.2-0.5c-0.5-0.3-40.8-25.2-41.8-27.1c-0.8-1.6-0.1-18.5,0.3-25.7l0.1-1.5
						l12.2,7l15.3,8.7l0,0c0.1,0,0.2-0.1,0.5-0.5c0.9-1.3,13.3-14,13.4-14.2l0.6-0.6l0.7,0.7c1.1,0.9,15.5,13.1,17.2,14.3
						c0.1,0,0.1,0,0.2,0c1.6-0.6,7.4-3.5,25.3-14.6c8.6-5.4,16.1-10.1,16.1-10.1h0.1c-0.1-0.2-0.2-0.4-0.3-0.5
						c-0.2-0.3-0.4-0.6-0.6-0.9l0,0c-0.2-0.1-0.3-0.2-0.5-0.4c-0.1-0.1-0.3-0.2-0.5-0.5c-3.7-3.5-14.5-14.2-14.6-14.3
						c0,0-0.3-0.3-0.6-0.5l0.8-1.7c0.6,0.4,1.1,0.7,1.2,0.8c0.1,0.1,11,10.9,14.7,14.4l0.2,0.2c0.1,0.1,0.2,0.2,0.3,0.2
						c0.1,0.1,0.2,0.1,0.3,0.2c0.2,0.1,0.5,0.3,0.6,0.6c0.2,0.3,0.4,0.6,0.6,0.9c0.5,0.7,0.7,1.4,0.7,1.9c0,0.7-0.6,1.2-1.4,1.3
						c-1.2,0.7-7.8,4.9-15.3,9.6l-0.1,24c0,0.5-0.3,1.9-3.3,3.2c-2.3,1-30.1,18.7-39.6,24.9l0,0C94.5,130.2,93.8,130.5,93.5,130.5z
						 M93.3,128.6L93.3,128.6L93.3,128.6z M52.1,102c2.2,2.2,34.8,22.5,41,26.4c0,0,0.2,0.1,0.4,0.2c0.1,0,0.2-0.1,0.2-0.1l0.1-0.1
						c0.4-0.3,36.9-23.8,39.8-25.1c1.9-0.8,2.2-1.5,2.2-1.7l0.1-22.7c-14,8.6-22,13.2-24.6,14c-0.6,0.2-1.4,0-1.8-0.4
						c-1.6-1.2-13.7-11.4-16.7-13.9C90.4,81.2,81,91,80.3,91.9c-0.4,0.6-0.8,1-1.3,1.2c-0.6,0.3-1.2,0.1-1.5-0.1l-25-14.3
						C52,89.2,51.7,100.4,52.1,102z M135.9,101.8L135.9,101.8L135.9,101.8z M135.9,101.7L135.9,101.7L135.9,101.7z M78.5,91.4
						L78.5,91.4L78.5,91.4z"/>
				</g>
				<g>
					<path class="st3" d="M94.2,129.9l-1.7-0.7l0.8,0.4l-0.9-0.2c0.3-1.6-0.2-31.3-0.6-50.9v-0.1v-0.1l0,0c0,0,0.1-0.3,0.1-0.8
						c0-0.3,0-0.6,0-0.8c0-1,0-2.2-0.1-3.5V73c0-0.4-0.1-0.7-0.2-1.2l-0.3-0.3c-2.2-2.2-35.9-22.4-39.8-23.8c0,0-0.1,0-0.1,0.1
						c-0.2,0.1-0.5,0.2-0.7,0.4l-0.9-1.6c0.4-0.2,0.6-0.4,0.8-0.5c0.1,0,0.2-0.1,0.2-0.1l0.1-0.1l0.2-0.1c0.5-0.2,1.3-0.4,20.6,11.1
						c7.1,4.2,19.4,11.7,21,13.3l0.5,0.5c0.3,0.3,0.4,0.6,0.4,0.8c0.1,0.5,0.2,0.9,0.2,1.5c0.2,1.3,0.1,2.6,0.1,3.7
						c0,0.3,0,0.6,0,0.8c0,0.6-0.1,0.9-0.1,1.1C94.6,128.9,94.3,129.7,94.2,129.9z M91.8,72L91.8,72L91.8,72z"/>
				</g>
				<g>
					<path class="st3" d="M62.2,84.2c-0.2-0.1-1.5-0.9-3.5-2C46.6,75,34.1,67.7,32.5,66.6c-0.5-0.1-1.4-0.5-1.9-1
						c-0.5-0.8-0.1-1.5,0.1-1.8l0,0c0.1-0.7,0.4-3.1,0.7-4.6c0.2-0.6,0.5-1,0.6-1.3c0.9-1.4,15.7-10.3,17.5-11.3l0.9,1.6
						c-4.4,2.5-16.1,9.7-17,10.8c-0.1,0.2-0.3,0.5-0.3,0.7c-0.5,1.6-0.7,4.1-0.7,4.5c0,0.2-0.1,0.4-0.2,0.6c0.2,0.1,0.5,0.2,0.6,0.2
						h0.2l0.2,0.1c0.9,0.6,19.3,11.5,26.2,15.6c2,1.2,3.3,1.9,3.5,2.1L62.2,84.2z M30.7,64L30.7,64L30.7,64z"/>
				</g>
				<path class="st4" d="M78.7,92.3c0,0-1.5-3.6-1.5-4.5c0,0,0-0.1,0.1-0.2c1.4-2.1,15.2-16.2,15.2-16.2"/>
				<g>
					<path class="st3" d="M76.8,88.4C32.1,61.1,31.7,60.2,31.6,59.7l1.8-0.6c-0.1-0.2-0.2-0.3-0.2-0.3c1.4,1.4,27.4,17.4,44.5,27.9
						L76.8,88.4z"/>
				</g>
				<g>
					<path class="st3" d="M27.3,49.2c-0.5,0-0.8-0.2-1.1-0.6c-0.7-0.9-0.4-3-0.1-3.8l0.2-0.7H27c8.7,0,23.6,0.1,24.8,0.4l0.2,0.1H52
						c0.1,0,0.3,0.1,0.6,0.3c0.3,0.3,0.5,0.6,0.5,1.1c-0.1,0.7-0.7,1.3-1,1.4l-0.6-1c-0.1,0-0.1,0-0.2-0.1C50,46.1,38.7,46,27.6,46
						c-0.1,0.6-0.1,1.1-0.1,1.4c1.8-0.1,10.3-0.4,16.1-0.6c4.6-0.2,6.4-0.3,6.6-0.3v1.9c-0.2,0-3.2,0.1-6.5,0.3
						C37.1,48.9,28.1,49.2,27.3,49.2z M51.2,46.3C51.2,46.3,51.2,46.3,51.2,46.3C51.3,46.3,51.3,46.3,51.2,46.3L51.2,46.3L51.2,46.3
						z M51.1,46L51.1,46L51.1,46L51.1,46z"/>
				</g>
				<g>
					<path class="st3" d="M52.2,46.7L51.7,45c0.9-0.4,25.8-10.8,38.1-16c-4.2-0.6-12.1-1.6-14.5-1.8l0,0c-0.1,0-0.4,0.2-0.6,0.3
						l-0.3,0.2h-0.3l0,0c-0.7,0-6.3,1.3-46.1,17.9l-0.7,0.3C27.1,46,27,46.1,27,46.1l-0.9-1.8c0,0,0.3-0.1,0.6-0.3l0.7-0.3
						c39.3-16.3,45.4-17.9,46.8-18c0.8-0.5,1.3-0.4,1.5-0.4c1.6,0.1,16.1,1.6,17.7,2.5l1.8,0.9l-1.8,0.7
						C89.2,31.3,53.2,46.4,52.2,46.7z M75.4,27.2L75.4,27.2L75.4,27.2z"/>
				</g>
				<g>
					<path class="st3" d="M135.9,49.4c-0.6,0-0.9-0.2-1.1-0.3l-0.1-0.1l-0.1-0.1c-0.6-0.6-0.6-1.7-0.6-2.1v-0.9l0.5-0.3
						c8.7-5.2,19.3-11.4,20.5-11.4c0.6,0,1,0.2,1.3,0.6c0.6,0.9,0.1,2.2-0.1,2.7l-0.2,0.3l-0.3,0.2c-0.6,0.5-17,10.4-18.9,11.3
						C136.4,49.4,136,49.4,135.9,49.4z M135.8,47.6L135.8,47.6h0.2c1.5-0.6,13.5-8,18.5-10.9c0-0.1,0.1-0.3,0.1-0.4
						c-2.4,1.1-12.3,6.9-18.8,10.8C135.7,47.3,135.7,47.5,135.8,47.6z M154.8,36L154.8,36v-0.9V36z M154.9,36L154.9,36z"/>
				</g>
				<g>
					<path class="st3" d="M134.4,47.6c-1.4-0.3-34.9-15.2-41.6-18.2l-0.6-0.3v-0.6c0-0.6,0-0.9,8-5.6c3.6-2.1,8.1-4.5,9.8-5.3
						c0.3-0.2,0.6-0.4,1-0.4c0.4,0,0.6,0.2,0.7,0.3l0,0c7.6,1.2,41.8,16,43.2,16.6l-0.7,1.7c-0.4-0.2-35.3-15.2-42.8-16.4
						c-0.3,0-0.5-0.1-0.6-0.2l-0.2,0.1c-2.6,1-12.4,6.8-15.9,8.9c15.8,7.1,38.4,17.1,39.8,17.4L134.4,47.6z"/>
				</g>
			</g>
		</g>
	</g>
</g>
</svg>
