<?xml version="1.0" encoding="utf-8"?>
<!-- Generator: Adobe Illustrator 21.1.0, SVG Export Plug-In . SVG Version: 6.00 Build 0)  -->
<svg version="1.1" id="Capa_1" xmlns="http://www.w3.org/2000/svg" xmlns:xlink="http://www.w3.org/1999/xlink" x="0px" y="0px"
	 viewBox="0 0 182 152" style="enable-background:new 0 0 182 152;" xml:space="preserve">
<style type="text/css">
	.st0{fill:#E8F1F9;}
	.st1{fill:#0053A1;}
	.st2{fill:#FFFFFF;}
	.st3{fill:#9BB7D3;}
</style>
<g>
	<g>
		<path class="st0" d="M133.3,44.6H48.7c-0.5,0-0.8-0.4-0.8-0.8v-9.4c0-0.5,0.4-0.8,0.8-0.8h84.6c0.5,0,0.8,0.4,0.8,0.8v9.4
			C134.1,44.3,133.7,44.6,133.3,44.6z"/>
		<path class="st1" d="M133.3,45.6H48.7c-1,0-1.8-0.8-1.8-1.8v-9.4c0-1,0.8-1.8,1.8-1.8h84.6c1,0,1.8,0.8,1.8,1.8v9.4
			C135.1,44.8,134.3,45.6,133.3,45.6z M48.9,43.6h84.2v-9.1H48.9V43.6z"/>
	</g>
	<g>
		<path class="st2" d="M129.1,125.3H52c-0.5,0-0.8-0.4-0.8-0.8V45.5c0-0.5,0.4-0.8,0.8-0.8h77.1c0.5,0,0.8,0.4,0.8,0.8v78.9
			C130,124.9,129.6,125.3,129.1,125.3z"/>
		<path class="st1" d="M129.1,126.3H52c-1,0-1.8-0.8-1.8-1.8V45.5c0-1,0.8-1.8,1.8-1.8h77.1c1,0,1.8,0.8,1.8,1.8v78.9
			C131,125.4,130.1,126.3,129.1,126.3z M52.2,124.3H129V45.6H52.2V124.3z"/>
	</g>
</g>
<g>
	<path class="st3" d="M76.3,96.5c-0.1,0-0.2,0-0.2-0.1c-0.2-0.1-0.3-0.4-0.2-0.7l12.9-22.7c0.1-0.2,0.4-0.3,0.7-0.2
		c0.2,0.1,0.3,0.4,0.2,0.7L76.8,96.3C76.7,96.5,76.5,96.5,76.3,96.5z"/>
</g>
<g>
	<path class="st3" d="M80.2,103.4c-0.1,0-0.2,0-0.2-0.1c-0.2-0.1-0.3-0.4-0.2-0.7l19.3-34.1c0.1-0.2,0.4-0.3,0.7-0.2
		c0.2,0.1,0.3,0.4,0.2,0.7l-19.3,34.1C80.5,103.3,80.3,103.4,80.2,103.4z"/>
</g>
<g>
	<path class="st3" d="M88.1,103.5c-0.1,0-0.2,0-0.2-0.1c-0.2-0.1-0.3-0.4-0.2-0.7l14.3-25.1c0.1-0.2,0.4-0.3,0.7-0.2
		c0.2,0.1,0.3,0.4,0.2,0.7l-14.3,25.1C88.4,103.4,88.3,103.5,88.1,103.5z"/>
</g>
</svg>
