<?xml version="1.0" encoding="utf-8"?>
<!-- Generator: Adobe Illustrator 21.1.0, SVG Export Plug-In . SVG Version: 6.00 Build 0)  -->
<svg version="1.1" id="Capa_1" xmlns="http://www.w3.org/2000/svg" xmlns:xlink="http://www.w3.org/1999/xlink" x="0px" y="0px"
	 viewBox="0 0 182 152" style="enable-background:new 0 0 182 152;" xml:space="preserve">
<style type="text/css">
	.st0{fill:#E8F1F9;}
	.st1{fill:#0053A1;}
</style>
<g>
	<path class="st0" d="M103.8,79.5l-9.9,19.8c-1.2,2.4-4.7,2.3-5.8-0.1L76.8,74.1l-6,14.3H52.1l36.4,37.2c1.4,1.5,3.7,1.5,5.1,0
		l36.4-37.2h-21.7L103.8,79.5L103.8,79.5z M134.4,45.7l-0.5-0.5c-10.3-10.5-27.1-10.5-37.3,0L91,50.9l-5.6-5.7
		c-10.3-10.5-27.1-10.5-37.3,0l-0.5,0.5c-9.7,9.9-10.1,25.7-1.5,36.3h20.4l7.2-17.2c1.1-2.6,4.7-2.6,5.9-0.1l11.6,25.8l9.8-19.5
		c1.2-2.4,4.5-2.4,5.7,0l5.5,11h23.7C144.5,71.4,144.1,55.6,134.4,45.7L134.4,45.7z"/>
	<path class="st1" d="M91,128.1c-1.4,0-2.7-0.5-3.6-1.5L48.5,86.8h21.3l6.9-16.5l12.8,28.3c0.3,0.6,0.8,1,1.5,1
		c0.7,0,1.2-0.3,1.5-0.9l11.2-22.5l5.3,10.7h24.4l-38.9,39.7C93.7,127.5,92.4,128.1,91,128.1z M55.6,89.8l33.9,34.6
		c0.8,0.8,2.2,0.8,3,0l33.9-34.6h-19.1l-3.5-7L95.2,100c-0.8,1.6-2.4,2.6-4.3,2.6c-1.8,0-3.4-1.1-4.2-2.8l-9.9-22l-5,12H55.6z
		 M91.1,94L78.2,65.3c-0.4-0.9-1.3-1-1.6-1c-0.3,0-1.1,0.1-1.5,1l-7.5,18.1H45.5L45,82.9c-9.2-11.2-8.5-28,1.5-38.3l0.5-0.5
		c5.2-5.4,12.2-8.3,19.7-8.3s14.5,3,19.7,8.3l4.5,4.6l4.5-4.6c5.3-5.4,12.3-8.3,19.7-8.3c0,0,0,0,0,0c7.5,0,14.5,3,19.7,8.3l0.5,0.5
		c10,10.3,10.7,27.1,1.5,38.3l-0.5,0.5h-25.3l-5.9-11.8c-0.3-0.6-0.9-0.9-1.5-0.9h0c-0.7,0-1.2,0.3-1.5,0.9L91.1,94z M76.7,61.3
		c1.9,0,3.5,1.1,4.3,2.8L91.3,87l8.3-16.7c0.8-1.6,2.4-2.6,4.2-2.6c0,0,0,0,0,0c1.8,0,3.4,1,4.2,2.6l5.1,10.2h22
		c7.8-10,7-24.7-1.8-33.7l-0.5-0.5c-4.7-4.8-10.9-7.4-17.6-7.4c0,0,0,0,0,0c-6.7,0-12.9,2.6-17.6,7.4L91,53l-6.6-6.8
		c-4.7-4.8-10.9-7.4-17.6-7.4s-12.9,2.6-17.6,7.4l-0.5,0.5c-8.8,9-9.6,23.7-1.8,33.7h18.7l6.8-16.2C73.1,62.5,74.7,61.4,76.7,61.3
		C76.6,61.3,76.7,61.3,76.7,61.3z"/>
</g>
</svg>
