<?xml version="1.0" encoding="utf-8"?>
<!-- Generator: Adobe Illustrator 21.1.0, SVG Export Plug-In . SVG Version: 6.00 Build 0)  -->
<svg version="1.1" id="Capa_1" xmlns="http://www.w3.org/2000/svg" xmlns:xlink="http://www.w3.org/1999/xlink" x="0px" y="0px"
	 viewBox="0 0 182 152" style="enable-background:new 0 0 182 152;" xml:space="preserve">
<style type="text/css">
	.st0{fill:#E8F1F9;}
	.st1{fill:#0053A1;}
	.st2{fill:#9BB7D3;}
</style>
<g>
	<g>
		<polygon class="st0" points="58.7,46.3 74.9,18.4 107.1,18.4 123.3,46.3 107.1,131.6 74.9,131.6 		"/>
		<path class="st1" d="M108.3,132.9H73.7L57.3,46l16.8-29.1h33.8L124.7,46L108.3,132.9z M76,130.2H106l15.8-83.7l-15.6-26.9H75.6
			L60.1,46.6L76,130.2z"/>
	</g>
	<g>
		<g>
			<polygon class="st2" points="86.3,42 95.7,42 95.7,50.4 104.6,50.4 104.6,59.9 95.7,59.9 95.7,77.4 86.3,77.4 86.3,59.9 
				77.4,59.9 77.4,50.4 86.3,50.4 			"/>
		</g>
	</g>
</g>
</svg>
