<?xml version="1.0" encoding="utf-8"?>
<!-- Generator: Adobe Illustrator 21.1.0, SVG Export Plug-In . SVG Version: 6.00 Build 0)  -->
<svg version="1.1" id="Capa_1" xmlns="http://www.w3.org/2000/svg" xmlns:xlink="http://www.w3.org/1999/xlink" x="0px" y="0px"
	 viewBox="0 0 182 152" style="enable-background:new 0 0 182 152;" xml:space="preserve">
<style type="text/css">
	.st0{fill:#E8F1F9;}
	.st1{fill:#0053A1;}
	.st2{fill:#9BB7D3;}
</style>
<g>
	<g>
		<path class="st0" d="M152.2,72.2l-11.9-11.9c-2.4-2.4-5.7-3.8-9.2-3.8h-7.6V37c0-3.6-2.9-6.5-6.5-6.5H32.5c-3.6,0-6.5,2.9-6.5,6.5
			v68.3c0,9,7.3,16.3,16.3,16.3c5.3,0,10-2.6,13-6.6c3,4,7.7,6.6,13,6.6c9,0,16.3-7.3,16.3-16.3c0-1.1-0.1-2.2-0.3-3.3h33.2
			c-0.2,1.1-0.3,2.1-0.3,3.3c0,9,7.3,16.3,16.3,16.3s16.3-7.3,16.3-16.3c0-1.1-0.1-2.2-0.3-3.3h3.6c1.8,0,3.3-1.5,3.3-3.3V81.4
			C156,77.9,154.6,74.6,152.2,72.2z M42.3,111.8c-3.6,0-6.5-2.9-6.5-6.5s2.9-6.5,6.5-6.5s6.5,2.9,6.5,6.5S45.8,111.8,42.3,111.8z
			 M68.3,111.8c-3.6,0-6.5-2.9-6.5-6.5s2.9-6.5,6.5-6.5s6.5,2.9,6.5,6.5S71.8,111.8,68.3,111.8z M123.5,66.3h7.6
			c0.9,0,1.7,0.3,2.3,1l8.8,8.8h-18.7V66.3z M133.3,111.8c-3.6,0-6.5-2.9-6.5-6.5s2.9-6.5,6.5-6.5s6.5,2.9,6.5,6.5
			S136.8,111.8,133.3,111.8z"/>
		<path class="st1" d="M133.3,123c-9.8,0-17.8-8-17.8-17.8c0-0.6,0-1.2,0.1-1.8H85.9c0.1,0.6,0.1,1.2,0.1,1.8
			c0,9.8-8,17.8-17.8,17.8c-5,0-9.6-2.1-13-5.7c-3.4,3.7-8,5.7-13,5.7c-9.8,0-17.8-8-17.8-17.8V37c0-4.4,3.6-8,8-8H117
			c4.4,0,8,3.6,8,8v18h6.1c3.9,0,7.5,1.5,10.3,4.2l11.9,11.9c2.7,2.7,4.2,6.4,4.2,10.2v17.4c0,2.6-2.1,4.8-4.8,4.8h-1.8
			c0.1,0.6,0.1,1.2,0.1,1.8C151,115,143,123,133.3,123z M82.4,100.5h36.8l-0.4,1.8c-0.2,0.9-0.3,1.9-0.3,2.9
			c0,8.1,6.6,14.8,14.8,14.8s14.8-6.6,14.8-14.8c0-1-0.1-1.9-0.3-3l-0.3-1.8h5.4c1,0,1.8-0.8,1.8-1.8V81.4c0-3.1-1.2-6-3.4-8.1
			l-11.9-11.9c-2.2-2.2-5.1-3.4-8.1-3.4H122V37c0-2.8-2.2-5-5-5H32.5c-2.8,0-5,2.2-5,5v68.3c0,8.1,6.6,14.8,14.8,14.8
			c4.7,0,9-2.2,11.8-6l1.2-1.6l1.2,1.6c2.8,3.8,7.1,6,11.8,6c8.1,0,14.8-6.6,14.8-14.8c0-1-0.1-1.9-0.3-3L82.4,100.5z M133.3,113.3
			c-4.4,0-8-3.6-8-8s3.6-8,8-8s8,3.6,8,8S137.7,113.3,133.3,113.3z M133.3,100.3c-2.8,0-5,2.2-5,5s2.2,5,5,5s5-2.2,5-5
			S136,100.3,133.3,100.3z M68.3,113.3c-4.4,0-8-3.6-8-8s3.6-8,8-8s8,3.6,8,8S72.7,113.3,68.3,113.3z M68.3,100.3c-2.8,0-5,2.2-5,5
			s2.2,5,5,5s5-2.2,5-5S71,100.3,68.3,100.3z M42.3,113.3c-4.4,0-8-3.6-8-8s3.6-8,8-8s8,3.6,8,8S46.7,113.3,42.3,113.3z M42.3,100.3
			c-2.8,0-5,2.2-5,5s2.2,5,5,5s5-2.2,5-5S45,100.3,42.3,100.3z M145.8,77.5H122V64.8h9.1c1.3,0,2.5,0.5,3.4,1.4L145.8,77.5z
			 M125,74.5h13.6l-6.2-6.2c-0.3-0.3-0.8-0.5-1.2-0.5H125V74.5z"/>
	</g>
	<g>
		<path class="st2" d="M109.5,92h-71c-3.3,0-6-2.7-6-6V44c0-3.3,2.7-6,6-6h71c3.3,0,6,2.7,6,6v42C115.5,89.3,112.8,92,109.5,92z"/>
	</g>
</g>
</svg>
