<?xml version="1.0" encoding="utf-8"?>
<!-- Generator: Adobe Illustrator 21.1.0, SVG Export Plug-In . SVG Version: 6.00 Build 0)  -->
<svg version="1.1" id="Capa_1" xmlns="http://www.w3.org/2000/svg" xmlns:xlink="http://www.w3.org/1999/xlink" x="0px" y="0px"
	 viewBox="0 0 182 152" style="enable-background:new 0 0 182 152;" xml:space="preserve">
<style type="text/css">
	.st0{fill:#FFFFFF;}
	.st1{fill:#0A4B98;}
	.st2{fill:#9BB7D3;}
</style>
<g>
	<g>
		<g>
			<path class="st0" d="M119.6,137c0,0-4.1,8.4-6,9.6c-1.8,1.2-2.4-8.1-0.9-12.7c1.5-4.6,4.5-3.8,4.5-3.8L119.6,137z"/>
			<path class="st1" d="M113.4,147c-0.1,0-0.3,0-0.5-0.1c-1.5-1.1-1.8-9.1-0.4-13.1c1.6-4.9,4.9-3.9,4.9-3.9h0.1l2.4,7.2v0.1
				c-0.1,0.4-4.2,8.5-6,9.7C113.6,147,113.5,147,113.4,147z M116.7,130.3c-0.8,0-2.6,0.4-3.7,3.5c-1.4,4.1-0.8,11.6,0.1,12.3h0.1
				c1.4-0.9,4.5-6.9,5.7-9.3l-2.2-6.5C116.9,130.3,116.7,130.3,116.7,130.3z"/>
		</g>
		<g>
			<path class="st0" d="M65.3,112.2c-6,3.5-2.3,11.2,5.1,15.7c4.1,2.4-0.1,10.7-0.1,10.7H70c0,0-18-5.7-22.7-21.9
				c-4.9-16.2,24.8-21.8,24.8-21.8l10.8-0.1l8.8,3.5l8.7-3.5c0,0,24.6-0.4,34.4,19.4c5.1,13.1-14.2,24.9-14.2,24.9l-3.1-9.1
				c0,0,12.5-14.9-5.4-15.8c1.2,16.1,1.8,20.8,1.5,29.1h-5.3l0,0H74.4l0,0h-3.9c0-5.7,0.3-11.5,0.4-16.8c0.4-10.3,0.7-13,0.7-13
				S69,110,65.3,112.2z"/>
			<path class="st1" d="M113.6,143.5H69.9v-0.4c0-1.4,0-2.7,0-4.2h-0.1c-0.1,0-18.1-6-23-22.2c-0.9-3.4-0.7-6.5,1.1-9.5
				c5.7-9.2,23.1-12.7,24-12.9l11-0.1l8.7,3.5l8.7-3.5c0.3,0,25-0.1,34.6,19.6c5.1,13.3-14.2,25.2-14.3,25.3l-0.4,0.3l-3.2-9.7
				l0.1-0.1c0-0.1,5.7-6.9,3.7-11.4c-0.9-2.3-3.9-3.7-8.5-3.9c0.3,2.8,0.4,5.4,0.5,7.7c0.7,9.9,1.1,14.3,0.9,21L113.6,143.5z
				 M108.4,142.8h4.6c0.1-6.4-0.3-11-0.9-20.6c-0.1-2.3-0.4-5-0.5-8.1v-0.4h0.4c5.1,0.3,8.4,1.8,9.6,4.3c2,4.5-2.8,10.8-3.7,11.9
				l2.8,8.5c2.6-1.8,18.3-12.5,13.8-24.2C125.3,95.4,102,95,100.5,95l0,0l-8.7,3.5L83,95l-11,0.1c-0.1,0-17.9,3.5-23.4,12.5
				c-1.6,2.7-2,5.7-1.1,8.9c4.6,15.3,21.1,21.2,22.5,21.7c0-3.1,0.1-6.5,0.3-10.2c-5-3-8.3-7.3-8.3-11c0-2.2,1.1-3.9,3.1-5.1l0,0
				c3.8-2.3,6.4,1.2,6.5,1.4l0.1,0.1v0.1c0,0-0.3,2.8-0.7,13c0,0.4,0,0.9,0,1.4c3.5,2.6,0.3,9.9-0.3,10.8c0,1.5,0,2.8,0,4.2h37.5
				V142.8z M71,128.6c-0.1,2.8-0.1,5.5-0.3,8.1C71.7,134.5,72.8,130.5,71,128.6z M67.7,111.8c-0.7,0-1.4,0.1-2.2,0.7l0,0
				c-1.9,1.1-2.8,2.7-2.8,4.6c0,3.4,3.1,7.4,7.6,10.3c0-0.3,0-0.7,0-0.9c0.4-8.9,0.5-12.2,0.7-12.9
				C70.7,113.1,69.5,111.8,67.7,111.8z"/>
		</g>
		<g>
			<path class="st0" d="M66.7,135.1c0,0,4.1,8.4,6,9.6c1.8,1.2,2.4-8.1,0.9-12.7c-1.5-4.6-4.5-3.8-4.5-3.8L66.7,135.1z"/>
			<path class="st1" d="M72.9,145.1c-0.1,0-0.4,0-0.5-0.1c-1.9-1.2-5.8-9.5-6-9.7v-0.1l2.4-7.2H69c0,0,3.2-0.8,4.9,3.9
				c1.4,4.1,1.1,12-0.4,13.1C73.3,145.1,73.2,145.1,72.9,145.1z M67.1,135.1c1.2,2.4,4.3,8.4,5.7,9.3c0.1,0.1,0.1,0,0.1,0
				c1.1-0.8,1.5-8.3,0.1-12.3c-1.2-3.7-3.2-3.7-3.9-3.5L67.1,135.1z"/>
		</g>
		<g>
			<path class="st0" d="M80.6,93.1c0,5.8,4.5,10.6,10.3,10.6l0,0c5.8,0,10.3-4.7,10.3-10.6v-5.8c0-5.8-4.5-10.6-10.3-10.6l0,0
				c-5.8,0-10.3,4.7-10.3,10.6V93.1z"/>
			<path class="st1" d="M90.9,103.9c-6,0-10.7-4.7-10.7-10.8v-5.8c0-6.1,4.7-10.8,10.7-10.8s10.7,4.7,10.7,10.8v5.8
				C101.6,99.1,96.8,103.9,90.9,103.9z M90.9,77.1c-5.5,0-10,4.5-10,10.2v5.8c0,5.7,4.3,10.2,10,10.2s10-4.5,10-10.2v-5.8
				C100.9,81.6,96.4,77.1,90.9,77.1z"/>
		</g>
		<g>
			<path class="st0" d="M132.4,52.8C132,75.4,110.5,93.4,90.8,93C71,92.6,50.2,73.9,50.6,51.3s19.1-40.6,41.7-40.2
				C114.8,11.5,132.8,30.2,132.4,52.8z"/>
			<path class="st1" d="M91.3,93.2c-0.1,0-0.4,0-0.5,0c-9.7-0.1-20-4.7-27.9-12.6C54.5,72.4,50,62,50.3,51.3
				c0.4-22.5,18.8-40.6,41.3-40.6c0.3,0,0.5,0,0.8,0c22.7,0.4,41,19.2,40.6,42.1l0,0c-0.1,10.7-5,21-13.7,29
				C111.1,89.1,100.9,93.2,91.3,93.2z M91.4,11.4c-22.1,0-40.2,17.7-40.6,39.9c-0.1,10.6,4.2,20.8,12.5,29
				C71.1,88,81,92.4,90.8,92.7c0.1,0,0.4,0,0.5,0c18.7,0,40.3-17.2,40.7-39.9c0.4-22.3-17.5-40.9-39.9-41.3
				C92,11.4,91.7,11.4,91.4,11.4z"/>
		</g>
		<g>
			<g>
				
					<ellipse transform="matrix(1.782888e-02 -0.9998 0.9998 1.782888e-02 18.3881 132.3598)" class="st2" cx="76.6" cy="56.8" rx="2.8" ry="2.8"/>
			</g>
			<g>
				
					<ellipse transform="matrix(1.805273e-02 -0.9998 0.9998 1.805273e-02 46.943 162.6129)" class="st2" cx="106.3" cy="57.4" rx="2.8" ry="2.8"/>
			</g>
		</g>
		<g>
			<path class="st2" d="M90.9,79.8c-0.1,0-0.3,0-0.3,0C85.1,79.7,79.9,77,77,72.4l0.5-0.4c2.8,4.5,7.7,7,13.1,7.2
				c5.4,0.1,10.4-2.4,13.4-6.8l0.5,0.4C101.4,77.1,96.3,79.8,90.9,79.8z"/>
		</g>
		<g>
			<path class="st0" d="M90.8,6.6c18.8,0,45.9,11.5,41,49.7l-1.1,0.7c0,0-2.3-18.9-15-23.5s-14.3,3.5-24.9,3.5
				c-10.7,0-12.3-8.1-24.9-3.5C53.1,37.9,50.7,57,50.7,57l-1.1-0.7C44.9,18,71.9,6.6,90.8,6.6z"/>
			<path class="st1" d="M130.4,57.5l-0.1-0.5c0-0.1-2.4-18.8-14.8-23.3c-7.4-2.7-11-0.9-14.8,0.8c-2.7,1.4-5.7,2.7-10,2.7
				c-4.5,0-7.3-1.4-10-2.7C77,32.7,73.3,31,66,33.7C53.5,38.2,51.1,56.8,51.1,57L51,57.5l-1.6-1.2v-0.1c-2-15.3,0.9-27.6,8.8-36.4
				c7.4-8.5,19.6-13.5,32.6-13.5s25.2,5,32.6,13.5c7.8,8.9,10.7,21.1,8.8,36.4v0.1L130.4,57.5z M50,56l0.4,0.3
				C51,53.1,54.1,37.2,65.6,33c7.7-2.7,11.4-0.9,15.3,0.8c2.7,1.2,5.4,2.6,9.7,2.6s7-1.4,9.7-2.6c3.9-1.9,7.7-3.7,15.3-0.8
				c11.5,4.2,14.6,20,15.2,23.3l0.4-0.3c1.9-15-0.9-27.1-8.7-35.7C115.3,11.9,103.2,7,90.5,7S66,11.9,58.7,20.3
				C51.1,29,48.1,41,50,56z"/>
		</g>
	</g>
	<g>
		<g>
			<path class="st1" d="M103.1,95.1c0.1,0.4-0.3,3.9-0.5,5c-0.1,0.7-0.3,1.4-0.4,2c-0.1,0.8-0.3,1.6-0.4,2.4c0,0.4-0.1,0.8-0.1,1.2
				v0.7v0.5v0.3l0.1,0.3c0.1,0.1,0.3,0.3,0.5,0.3l0,0h0.5l0,0c0.1,0,0.4-0.1,0.4-0.1s0.1-0.1,0.1-0.3s0-0.1,0-0.3v-0.4v-0.5
				c0-0.4,0.1-0.8,0.1-1.2c0.1-0.8,0.3-1.6,0.4-2.3c0.1-0.7,0.4-1.4,0.4-2c0.3-1.1,0.4-2.7,0.1-5.4L103.1,95.1z"/>
		</g>
		<g>
			<path class="st1" d="M103.9,112.3c0.9,0.1,1.9,0.7,2.8,1.4c0.9,0.8,1.8,1.9,2.3,3.1c0.8,1.9,1.2,4.2,1.1,7c0,1.1-0.1,2.3-0.3,3.5
				c-0.1,0.5-0.1,1.2-0.3,1.8c-0.1,0.7-0.3,1.2-0.4,1.8c-0.4,1.4-1.1,2.4-1.9,3.2c-1.1,0.9-2.4,1.5-3.8,1.2l-0.7-0.1l0.3-1.5
				l0.5,0.1c0.4,0,0.8,0,1.4-0.1c0.4-0.1,0.8-0.4,1.2-0.7c0.7-0.5,1.1-1.5,1.5-2.6c0.3-0.9,0.4-2,0.7-3.2c0.1-1.1,0.3-2.3,0.3-3.2
				c0-2.6-0.4-4.6-1.1-6.4c-0.4-0.9-1.1-1.8-1.8-2.4c-0.7-0.5-1.5-0.9-2.4-1.2l-0.8-0.3l0.3-1.4h0.5
				C103.3,112.3,103.6,112.3,103.9,112.3z"/>
		</g>
		<g>
			<path class="st1" d="M99.4,111.5c0.3,0,0.4,0.1,0.7,0.1l0.5,0.1l-0.3,1.4h-0.5c-1.1,0-2,0-3,0.3s-1.8,0.8-2.6,1.6
				c-1.4,1.2-2.4,3.1-3.4,5.5c-0.4,0.9-0.7,2-1.1,3.1c-0.3,1.2-0.5,2.2-0.5,3.2c-0.1,1.2,0,2.2,0.4,3c0.1,0.4,0.5,0.8,0.8,1.1
				c0.4,0.3,0.8,0.5,1.2,0.5l0.5,0.1l-0.3,1.6l-0.7-0.1c-1.4-0.3-2.4-1.2-3.1-2.6c-0.5-1.1-0.7-2.3-0.5-3.8c0-0.5,0.1-1.1,0.3-1.8
				c0.1-0.5,0.3-1.1,0.4-1.8c0.3-1.2,0.7-2.3,1.1-3.4c0.9-2.7,2.2-4.6,3.7-6.2c0.9-0.9,2-1.6,3.2-2
				C97.3,111.4,98.3,111.4,99.4,111.5z"/>
		</g>
		<g>
			<path class="st1" d="M104.4,135.2c-0.1,0.5-0.4,1.1-0.7,0.9l-1.9-0.8c-0.1,0-0.3-0.4-0.1-0.8v-0.4c0.1-0.4,0.3-0.7,0.4-0.7
				l1.9-0.1c0.3,0,0.4,0.5,0.3,1.2L104.4,135.2z"/>
		</g>
		<g>
			<path class="st1" d="M90.4,132.5c-0.1,0.5,0,1.1,0.3,1.2l2-0.1c0.1,0,0.4-0.3,0.5-0.7v-0.4c0.1-0.4,0-0.7-0.3-0.8l-1.9-0.8
				c-0.3,0-0.7,0.4-0.8,0.9L90.4,132.5z"/>
		</g>
		<g>
			<path class="st1" d="M101.7,106.8c0.5,0,1.1,0,1.6,0.3c0.4,0.1,1.4,4.9,1.4,6c0,0.8-0.9,1.4-1.8,1.2l-3.5-0.7
				c-0.8-0.1-1.5-0.9-1.2-1.8C98.7,110.8,101.3,106.8,101.7,106.8z"/>
		</g>
	</g>
	<g>
		<g>
			<path class="st1" d="M74.4,95.1c-0.9,2.2,1.4,10.7,1.3,13.1c0,0.6,0,1.1,0.1,1.5c0.1-0.2,0.4-0.2,0.6-0.3c0.4-0.1,0.7,0,1,0
				c0-0.6-0.1-0.9,0-1.5c0-0.4-2.3-12.4-1.2-13.1"/>
		</g>
		<g>
			<path class="st1" d="M78.1,114.6c1.8-0.5,2.8-2.5,2.2-4.2c-0.4-1.3-1.6-2.2-2.9-2.4c-0.4,0-0.9,0-1.4,0.1c-0.1,0-0.1,0-0.3,0.1
				c-1.7,0.6-2.6,2.4-1.9,4.2C74.3,114,76.2,115.1,78.1,114.6z M75.2,111.8c-0.2-0.8,0.1-1.7,0.7-2.1c0.1-0.2,0.4-0.2,0.6-0.3
				c0.4-0.1,0.7,0,1,0c0.6,0.1,1.3,0.6,1.5,1.3c0.3,1-0.3,2-1.3,2.5C76.6,113.4,75.5,112.9,75.2,111.8z"/>
		</g>
	</g>
</g>
</svg>
