<?xml version="1.0" encoding="utf-8"?>
<!-- Generator: Adobe Illustrator 21.1.0, SVG Export Plug-In . SVG Version: 6.00 Build 0)  -->
<svg version="1.1" id="Capa_1" xmlns="http://www.w3.org/2000/svg" xmlns:xlink="http://www.w3.org/1999/xlink" x="0px" y="0px"
	 viewBox="0 0 182 152" style="enable-background:new 0 0 182 152;" xml:space="preserve">
<style type="text/css">
	.st0{fill:#FFFFFF;}
	.st1{fill:#0053A1;}
	.st2{fill:#9BB7D3;}
	.st3{fill:#E8F1F9;}
	.st4{fill:#0A4B98;}
</style>
<g>
	<g>
		<path class="st0" d="M126.8,45.1l-8.5-8.5c-1.9-1.9-4.4-2.9-7.1-2.9H70.4c-2.7,0-5.2,1.1-7.1,2.9l-8.5,8.5H33.6V91H45
			c3.2,0,5.7-2.5,5.7-5.7h1.6L67.6,99c5.5,4.5,13.2,4.6,19,0.7c2.2,1.9,4.7,2.9,7.4,2.9c3.3,0,6.3-1.3,8.8-4.3c4,1.6,8.7,0.5,11.5-3
			l4.7-5.8c1-1.2,1.6-2.7,2-4.1h10.4c0,3.1,2.6,5.7,5.7,5.7h11.5V45.1H126.8z"/>
		<path class="st1" d="M93.9,103.1c-2.7,0-5.2-0.9-7.4-2.7c-6,3.9-13.7,3.6-19.3-0.9l-15-13.6h-0.9c-0.3,3.2-3,5.7-6.3,5.7H33v-47
			h21.5l8.4-8.4c2-2,4.7-3.1,7.5-3.1h40.7c2.8,0,5.5,1.1,7.5,3.1l8.4,8.4h22v47h-12c-3.3,0-6-2.5-6.3-5.7h-9.4c-0.4,1.5-1,2.8-2,3.9
			l-4.7,5.8c-2.9,3.5-7.5,4.8-11.7,3.3C100.5,101.7,97.4,103.1,93.9,103.1z M86.6,99l0.3,0.3c2.1,1.8,4.4,2.7,7,2.7
			c3.3,0,6.1-1.4,8.3-4.1l0.3-0.3l0.4,0.2c3.9,1.5,8.2,0.4,10.9-2.8l4.7-5.8c0.9-1.1,1.5-2.4,1.8-3.9l0.1-0.4h11.4l0,0.6
			c0,2.8,2.3,5.1,5.2,5.1h10.9V45.6h-21.4l-8.7-8.7c-1.8-1.8-4.2-2.8-6.7-2.8H70.4c-2.5,0-4.9,1-6.7,2.8L55,45.6H34.1v44.8H45
			c2.8,0,5.2-2.3,5.2-5.1l0-0.6h2.4L68,98.6c5.3,4.3,12.6,4.5,18.3,0.6L86.6,99z"/>
	</g>
	<g>
		<path class="st2" d="M111.8,84.8l-4.7,5.8c-0.5,0.6-1.4,0.7-2,0.2l-4.3-3.5l-5.4,6.6c-1.1,1.3-2.7,0.9-3.2,0.4l-6.6-5.7L82.8,92
			c-2.5,3.1-7,3.5-9.9,1.2L55.4,77.4h-5v-23h7.5L69,43.4c0.4-0.1,0.7-0.3,1-0.4h10.2l-6.9,6.4c-5.3,4.8-5.6,13-0.8,18.2
			c2.7,2.9,11,7.4,18.2,0.8l1.5-1.3l19.4,15.8C112.2,83.2,112.3,84.1,111.8,84.8L111.8,84.8z"/>
	</g>
	<g>
		<path class="st2" d="M130.8,77.4h-12.4c-0.4-0.5-0.9-1-1.4-1.4l-18.4-15l2.2-2c1.2-1.1,1.3-2.9,0.2-4.1l-2-2.1
			c-1.1-1.2-2.9-1.2-4.1-0.2l-9.9,9.1c-1.7,1.6-4.6,1.7-6.2,0c-1.7-1.8-1.5-4.5,0.2-6.1l11.8-10.8c1.3-1.2,3.1-1.9,4.8-1.9l15,0
			c0.4,0,0.7,0.1,1,0.4l11.1,11.1h8V77.4z"/>
	</g>
	<g>
		<path class="st3" d="M129.3,119.8c-2.7-2-9.1-7.1-12.2-12.7c-2.9-5.1-2.9-15.8-2.6-21.8c0.4,0,0.8,0,1.1,0c0,0,0,0,0,0
			c0.8,0,1.8,0,2.8-0.1c4.8-0.3,8.5-2.7,10.5-4c0.1-0.1,0.2-0.2,0.4-0.2c0.1,0.1,0.2,0.2,0.4,0.2c2,1.3,5.7,3.7,10.5,4
			c1,0.1,2,0.1,2.8,0.1c0.3,0,0.7,0,1.1,0c0.3,6,0.3,16.8-2.6,21.8C138.4,112.7,132,117.7,129.3,119.8z"/>
		<path class="st4" d="M129.3,120.8l-0.5-0.4c-2.7-2-9.2-7.1-12.5-13c-3.3-5.9-2.9-18.6-2.7-22.3l0-0.8l0.8,0c0.4,0,0.7,0,1.1,0
			c0,0,0,0,0,0c0.8,0,1.7,0,2.8-0.1c4.5-0.3,8.2-2.6,10.1-3.9l0.8-0.5l0.8,0.5c1.9,1.3,5.5,3.6,10.1,3.9c1,0.1,2,0.1,2.8,0.1
			c0.3,0,0.7,0,1.1,0l0.8,0l0,0.8c0.2,3.7,0.7,16.4-2.7,22.3c-3.3,5.9-9.8,11-12.5,13L129.3,120.8z M115.3,86
			c-0.4,7.3,0.1,16.4,2.5,20.6c2.9,5.2,8.7,10,11.5,12.1c2.8-2.1,8.6-6.8,11.5-12.1c2.4-4.2,2.8-13.2,2.5-20.6c-0.1,0-0.2,0-0.4,0
			c-0.8,0-1.8,0-2.8-0.1c-4.9-0.3-8.7-2.7-10.8-4.1c-2.1,1.4-5.9,3.8-10.8,4.1C117.3,86,116.3,86.1,115.3,86z"/>
	</g>
</g>
</svg>
