<?xml version="1.0" encoding="utf-8"?>
<!-- Generator: Adobe Illustrator 21.1.0, SVG Export Plug-In . SVG Version: 6.00 Build 0)  -->
<svg version="1.1" id="Capa_1" xmlns="http://www.w3.org/2000/svg" xmlns:xlink="http://www.w3.org/1999/xlink" x="0px" y="0px"
	 viewBox="0 0 182 152" style="enable-background:new 0 0 182 152;" xml:space="preserve">
<style type="text/css">
	.st0{fill:#9BB7D3;}
	.st1{fill:#0A4B98;}
	.st2{fill:#FFFFFF;}
	.st3{fill:#E5EEF6;}
	.st4{fill:#E8F1F9;}
	.st5{fill:none;}
</style>
<g>
	<g>
		<path class="st0" d="M127.7,106.2h-4.1v-3.8h2v-3.2h-15.9v3.2h2v3.8h-4.1c-2.6,0-4.6,2.1-4.6,4.6v29.5c0,2.6,2.1,4.6,4.6,4.6h2
			v2.3h3.2v-2.3h9.8v2.3h3.2v-2.3h2c2.6,0,4.6-2.1,4.6-4.6V111C132.3,108.4,130.3,106.2,127.7,106.2L127.7,106.2z M114.7,137.6h-0.8
			v-23.8h0.8V137.6z M117.9,137.6h-0.8v-23.8h0.8V137.6z M120.3,106.2h-5.5v-3.8h5.5V106.2z M121.3,137.6h-0.8v-23.8h0.8V137.6z"/>
		<path class="st1" d="M126,147.6h-3.8v-2.3h-9.3v2.3H109v-2.3h-1.7c-2.8,0-4.9-2.1-4.9-4.9V111c0-2.8,2.1-4.9,4.9-4.9h3.8v-3.4
			h-1.8v-3.8h16.5v3.8h-2v3.4h3.8c2.8,0,4.9,2.1,4.9,4.9v29.5c0,2.8-2.1,4.9-4.9,4.9H126V147.6z M122.8,147.2h2.8v-2.3h2.3
			c2.4,0,4.3-2,4.3-4.3V111c0-2.4-2-4.3-4.3-4.3h-4.4v-4.4h2v-2.8h-15.4v2.8h2v4.4h-4.4c-2.4,0-4.3,2-4.3,4.3v29.5
			c0,2.4,2,4.3,4.3,4.3h2.3v2.3h2.8v-2.3h10.4v2.4H122.8z M121.6,137.9h-1.4v-24.5h1.4V137.9z M120.8,137.2h0.2V114h-0.2V137.2z
			 M118.2,137.9h-1.4v-24.5h1.4V137.9z M117.4,137.2h0.2V114h-0.2V137.2z M115,137.9h-1.4v-24.5h1.4V137.9z M114.1,137.2h0.2V114
			h-0.2V137.2z M120.6,106.5h-6.1v-4.4h6.1V106.5z M115.1,105.9h4.9v-3.4h-4.9V105.9z"/>
	</g>
	<g>
		<g>
			<g>
				<path class="st2" d="M117.1,96.6c0,0,1.1,5.3,0.8,6.9c-0.2,0.3-1.8,1.4-2.8,1.2c-0.6,0,1.1-1.5,0.8-1.8
					c-1.7-1.2-2.9-2.8-3.7-4.6c-1.4-3.2,0.6-4.1,0.6-4.1L117.1,96.6z"/>
				<path class="st1" d="M115.1,105L115.1,105c-0.3,0-0.5-0.2-0.5-0.2c-0.2-0.3,0.2-0.6,0.5-1.1c0.2-0.2,0.3-0.6,0.5-0.8
					c-1.7-1.4-2.9-2.9-3.7-4.7c-1.5-3.4,0.6-4.4,0.6-4.4h0.2l4.7,2.6v0.2c0,0.2,1.1,5.5,0.8,7C118,104.1,116.2,105,115.1,105z
					 M112.7,94.5c-0.3,0.3-1.4,1.2-0.3,3.7c0.8,1.8,2,3.2,3.7,4.6c0.5,0.3,0,0.9-0.3,1.4c-0.2,0.2-0.2,0.3-0.3,0.5
					c0.9-0.2,2.1-0.8,2.3-1.1c0.3-1.2-0.6-5.8-0.8-6.6L112.7,94.5z"/>
			</g>
			<g>
				<path class="st3" d="M67.2,101c0.5-1.1,0.8-2.3,0.6-3.5c0-0.9-0.2-1.7-0.2-2.6c0.3-6.3-0.2-12.5,0.5-18.8h26.6
					c0.2,1.4,0.3,3.1,0.5,4.4c-0.6,7.2-0.2,14.5,0.8,21.7H67c0-0.3,0.2-0.5,0.2-0.8C67.2,101.3,67.2,101.2,67.2,101z"/>
				<path class="st1" d="M96,102.4H66.7v-0.3c0-0.3,0.2-0.5,0.2-0.6c0-0.2,0-0.2,0-0.3v-0.3c0.5-1.1,0.8-2.3,0.6-3.5
					c0-0.9-0.2-1.7-0.2-2.6c0.2-2.6,0.2-5.2,0.2-7.8c0-3.7,0-7.3,0.3-11v-0.2h26.9V76c0.2,1.4,0.3,2.9,0.5,4.4
					c-0.5,6.6-0.3,13.6,0.8,21.7L96,102.4z M67.3,102.1h28.3C94.7,94,94.4,87,95,80.6c-0.2-1.5-0.3-2.9-0.3-4.3H68.4
					c-0.3,3.5-0.3,7.2-0.3,10.7c0,2.6,0,5.2-0.2,7.8c0,0.9,0.2,1.7,0.2,2.6c0,1.2-0.2,2.4-0.6,3.7v0.2c0,0.2,0,0.2,0,0.3
					C67.3,101.8,67.3,101.9,67.3,102.1z"/>
			</g>
			<g>
				<path class="st2" d="M62.9,79.5c-4.3,2.6-1.7,7.9,3.7,11.2c2.9,1.7-0.2,7.6-0.2,7.6h-0.3c0,0-12.8-4.1-16.2-15.6
					c-3.2-11.5,17.7-15.4,17.7-15.4l7.6-0.2l6.3,2.4l6.1-2.4c0,0,17.6-0.3,24.5,13.8c7.5,13.3,5,15.1,5,15.1l-5-1.2
					c0,0-3.4-13.3-16-14.1c0.8,11.5,1.2,14.8,1.1,20.6h-3.7l0,0H69.3l0,0h-2.8c0-4,0.2-8.1,0.3-11.9c0.3-7.3,0.5-9.2,0.5-9.2
					S65.5,78.1,62.9,79.5z"/>
				<path class="st1" d="M97.3,101.8h-31v-0.3c0-0.9,0-2,0-2.9l0,0c-0.2,0-13-4.3-16.4-15.7c-0.8-2.4-0.5-4.7,0.8-6.7
					c4-6.6,16.5-9,17-9.2l0,0l7.8-0.2l6.1,2.4l6.1-2.4l0,0c0.2,0,17.7-0.2,24.6,13.9c7.5,13.1,5.2,15.3,4.9,15.6l-0.2,0.2l-5.3-1.2
					v-0.2c0-0.2-3.4-13-15.6-13.8c0.2,2,0.3,3.8,0.5,5.3c0.5,7,0.8,10.2,0.6,15L97.3,101.8z M93.6,101.2h3.2
					c0.2-4.6-0.2-7.8-0.6-14.7c-0.2-1.7-0.3-3.5-0.5-5.8v-0.3H96c12.1,0.6,15.9,12.5,16.4,14.1l4.6,1.2c0.3-0.5,1.2-3.4-5.2-14.7
					c-6.6-13.4-23.1-13.6-24.1-13.6L81.5,70l-6.3-2.6l-7.6,0.2C67,67.7,54.8,70.2,51,76.4c-1.2,2-1.4,4-0.8,6.3
					C53.4,93.4,64.7,97.5,66.1,98c0-2.3,0.2-4.6,0.2-7.2c-3.5-2.1-5.8-5.2-5.8-7.8c0-1.5,0.8-2.9,2.3-3.7l0,0
					c2.8-1.7,4.6,0.9,4.6,0.9v0.2v0.2c0,0-0.2,2-0.5,9.2c0,0.3,0,0.6,0,0.9c2.4,1.8,0.2,7-0.2,7.8c0,0.9,0,2,0,2.9h26.9V101.2z
					 M67,91.4c0,1.8-0.2,3.7-0.2,5.5C67.5,95.2,68.1,92.6,67,91.4z M64.6,79.3c-0.5,0-0.9,0.2-1.5,0.5l0,0c-1.4,0.8-2,1.8-2,3.2
					c0,2.3,2.1,5.2,5.3,7.2c0-0.2,0-0.5,0-0.6c0.3-6.3,0.5-8.6,0.5-9.2C66.7,80.2,65.8,79.3,64.6,79.3z"/>
			</g>
			<g>
				<path class="st2" d="M63.9,95.8c0,0,2.9,6,4.1,6.9c1.2,0.9,1.7-5.8,0.6-9c-1.1-3.2-3.2-2.6-3.2-2.6L63.9,95.8z"/>
				<path class="st1" d="M68.4,103c-0.2,0-0.3,0-0.5-0.2c-1.2-0.9-4-6.4-4.3-7v-0.2l1.7-5.2h0.2c0,0,2.4-0.6,3.5,2.9
					c0.9,2.9,0.8,8.6-0.3,9.5C68.5,103,68.5,103,68.4,103z M64.2,95.8c0.9,1.7,3.1,6,4,6.6c0,0,0,0,0.2,0c0.8-0.6,1.1-5.8,0.2-8.7
					c-0.8-2.4-2.3-2.6-2.8-2.4L64.2,95.8z"/>
			</g>
			<g>
				<path class="st2" d="M73.7,65.9c0,4.1,3.2,7.5,7.3,7.5l0,0c4.1,0,7.3-3.4,7.3-7.5v-4.1c0-4.1-3.2-7.5-7.3-7.5l0,0
					c-4.1,0-7.3,3.4-7.3,7.5V65.9z"/>
				<path class="st1" d="M81.1,73.7c-4.3,0-7.5-3.4-7.5-7.6v-4.1c0-4.3,3.4-7.6,7.5-7.6s7.5,3.4,7.5,7.6V66
					C88.5,70.3,85.3,73.7,81.1,73.7z M81.1,54.6c-4,0-7.2,3.2-7.2,7.3V66c0,4.1,3.2,7.3,7.2,7.3s7.2-3.2,7.2-7.3v-4.1
					C88.2,57.8,85,54.6,81.1,54.6z"/>
			</g>
			<g>
				<path class="st2" d="M110.7,37.3c-0.3,16-15.6,28.9-29.6,28.6C67,65.6,52.2,52.3,52.5,36.2c0.3-16,13.6-28.9,29.6-28.6
					C98.2,8,110.9,21.3,110.7,37.3z"/>
				<path class="st1" d="M81.4,66.2c-0.2,0-0.3,0-0.5,0c-7-0.2-14.2-3.4-19.9-9c-6-5.8-9.2-13.3-9-20.9c0.3-16,13.4-28.9,29.3-28.9
					c0.2,0,0.3,0,0.6,0c16.2,0.3,29.2,13.8,28.9,30l0,0c-0.2,7.6-3.7,15-9.8,20.6C95.4,63.1,88.2,66.2,81.4,66.2z M81.5,8
					C65.9,8,52.9,20.5,52.6,36.2c-0.2,7.5,3.1,14.8,8.9,20.5c5.5,5.5,12.7,8.7,19.4,8.9c0.2,0,0.3,0,0.5,0
					c13.3,0,28.7-12.2,28.9-28.3C110.6,21.4,97.9,8.3,82,8C81.8,8,81.7,8,81.5,8z"/>
			</g>
			<g>
				<g>
					
						<ellipse transform="matrix(1.782888e-02 -0.9998 0.9998 1.782888e-02 29.4051 110.4503)" class="st2" cx="70.9" cy="40.3" rx="2" ry="2"/>
					<path class="st1" d="M70.8,42.5L70.8,42.5c-0.6,0-1.2-0.3-1.7-0.8c-0.5-0.5-0.6-1.1-0.6-1.7c0-1.2,1.1-2.3,2.3-2.3l0,0
						c1.2,0,2.3,1.1,2.3,2.4C73.3,41.4,72.2,42.5,70.8,42.5z M70.8,38.4c-0.9,0-1.7,0.8-1.7,1.7l0,0c0,0.5,0.2,0.9,0.5,1.2
						c0.3,0.3,0.8,0.5,1.2,0.6l0,0c0.9,0,1.7-0.8,1.7-1.7C72.7,39.3,71.9,38.4,70.8,38.4C71,38.4,71,38.4,70.8,38.4z"/>
				</g>
				<g>
					
						<ellipse transform="matrix(1.805273e-02 -0.9998 0.9998 1.805273e-02 49.7992 131.7234)" class="st2" cx="92" cy="40.5" rx="2" ry="2"/>
					<path class="st1" d="M92.1,43C92.1,43,91.9,43,92.1,43c-1.4,0-2.3-1.1-2.3-2.4l0,0c0-1.2,1.1-2.3,2.3-2.3l0,0
						c1.2,0,2.3,1.1,2.3,2.4C94.4,41.9,93.3,43,92.1,43z M90.2,40.5c0,0.9,0.8,1.8,1.7,1.8l0,0c0.9,0,1.7-0.8,1.7-1.7
						s-0.8-1.8-1.7-1.8l0,0C91,38.8,90.2,39.6,90.2,40.5L90.2,40.5z"/>
				</g>
			</g>
			<g>
				<path class="st1" d="M81.1,56.6h-0.2c-4,0-7.6-2.1-9.8-5.3l0.5-0.3c2,3.1,5.5,5,9.3,5s7.3-1.7,9.5-4.7l0.5,0.3
					C88.5,54.7,85,56.6,81.1,56.6z"/>
			</g>
			<g>
				<path class="st4" d="M81.1,4.4c13.4,0,32.7,8.1,29.2,35.3l-0.8,0.5c0,0-1.7-13.4-10.7-16.8c-9-3.2-10.1,2.4-17.7,2.4
					s-8.7-5.8-17.7-2.4c-9,3.2-10.7,16.8-10.7,16.8l-0.8-0.5C48.4,12.5,67.6,4.4,81.1,4.4z"/>
				<path class="st1" d="M109.2,40.8v-0.5c0-0.2-1.7-13.3-10.5-16.5c-5.2-1.8-7.6-0.8-10.5,0.6c-2,0.9-4,1.8-7.2,1.8
					c-3.2,0-5.2-0.9-7.2-1.8c-2.8-1.4-5.2-2.4-10.5-0.6c-8.6,3.1-10.2,16.4-10.4,16.5v0.5l-1.2-0.9v-0.2c-1.4-10.9,0.8-19.7,6.3-26
					c5.3-6.1,14.1-9.6,23.2-9.6s17.9,3.7,23.2,9.6c5.5,6.3,7.6,15,6.3,26v0.2L109.2,40.8z M52,39.6l0.3,0.2
					c0.5-2.4,2.6-13.6,10.9-16.5c5.5-2,8.1-0.8,11,0.6c1.8,0.9,3.8,1.8,6.9,1.8s5-0.9,6.9-1.8c2.8-1.4,5.5-2.6,11-0.6
					c8.1,2.9,10.4,14.1,10.9,16.5l0.3-0.2c1.4-10.7-0.8-19.3-6.1-25.4c-5.2-6-13.8-9.5-22.8-9.5s-17.6,3.5-22.8,9.5
					C52.8,20.3,50.8,28.9,52,39.6z"/>
			</g>
			<g>
				<g>
					<path class="st2" d="M80.9,102.1L80.9,102.1h0.3h0.3l0,0l15.4-0.3l-0.6,3.1c-0.3,1.1-4.6,30.9-4.6,30.9h-7.5c0,0-0.2-17-2.8-18
						c-2.6,1.1-3.4,17.4-3.4,17.4h-7.8c0,0-3.8-32.2-4.1-33.3L80.9,102.1z"/>
					<path class="st1" d="M91.9,136H84v-0.3c0-6.3-0.8-16.5-2.4-17.6c-1.7,1.1-2.8,10.7-3.1,17.1v0.3h-8.3v-0.3
						c-1.1-9-3.8-32.4-4.1-33.3l-0.2-0.5l14.8,0.3l0,0h0.6h0.5l0,0l15.6-0.3l-0.8,3.4c-0.3,0.9-3.4,22.6-4.6,30.9L91.9,136z
						 M84.6,135.4h6.9c0.5-3.1,4.1-29.6,4.4-30.7l0.6-2.6l-15.4,0.3l0,0h-0.2l-14.2-0.3c0.6,3.7,3.7,29.6,4.1,32.7H78
						c0.2-2.6,0.9-16.4,3.5-17.4h0.2h0.2C84.3,118.6,84.6,132.8,84.6,135.4z"/>
				</g>
				<g>
					<g>
						<line class="st5" x1="87" y1="135.7" x2="87" y2="143.7"/>
						<rect x="86.7" y="135.7" class="st1" width="0.6" height="7.8"/>
					</g>
					<g>
						<path class="st2" d="M84.1,145.2c0-0.3,0.2-9.9,0.2-9.9h9l-1.5,6.7c0,0,0.2,0.2,0.2,0.3c5.8,2.4,6.6,3.8,5.5,4.7h-13
							C84.3,146.6,84,146,84.1,145.2z"/>
						<path class="st1" d="M97.6,147.3H84.4l-0.2-0.2c-0.5-0.6-0.6-1.2-0.5-2c0-0.3,0.2-7.2,0.2-9.9V135h9.8l-1.5,7l0,0l0,0
							c4,1.7,5.8,2.9,6,4C98.3,146.4,98,146.9,97.6,147.3L97.6,147.3z M84.7,146.7h12.7c0.3-0.3,0.3-0.5,0.3-0.6
							c-0.2-0.6-1.2-1.7-5.7-3.7c-0.2,0-0.2-0.2-0.2-0.3l0,0h-0.2l1.4-6.6h-8.4c0,1.8-0.2,9.3-0.2,9.6l0,0
							C84.3,145.8,84.4,146.3,84.7,146.7z M91.6,142.3L91.6,142.3L91.6,142.3z"/>
					</g>
					<g>
						<path class="st2" d="M93.7,136.2c0-0.8-0.6-1.5-1.5-1.5h-7.8c-0.8,0-1.5,0.6-1.5,1.5l0,0c0,0.8,0.6,1.5,1.5,1.5h7.8
							C93.1,137.7,93.7,137.1,93.7,136.2L93.7,136.2z"/>
						<path class="st1" d="M92.4,138h-7.8c-0.9,0-1.8-0.8-1.8-1.8c0-0.9,0.8-1.8,1.8-1.8h7.8c0.9,0,1.8,0.8,1.8,1.8
							C94,137.2,93.3,138,92.4,138z M84.6,135.1c-0.6,0-1.2,0.5-1.2,1.2c0,0.6,0.5,1.2,1.2,1.2h7.8c0.6,0,1.2-0.5,1.2-1.2
							c0-0.6-0.5-1.2-1.2-1.2H84.6z"/>
					</g>
				</g>
				<g>
					<g>
						<line class="st5" x1="75.3" y1="135.7" x2="75.3" y2="143.7"/>
						<rect x="74.9" y="135.7" class="st1" width="0.6" height="7.8"/>
					</g>
					<g>
						<path class="st2" d="M78.6,145.2c0-0.3-0.2-9.9-0.2-9.9h-9L71,142c0,0-0.2,0.2-0.2,0.3c-5.8,2.4-6.6,3.8-5.5,4.7h13
							C78.5,146.6,78.6,146,78.6,145.2z"/>
						<path class="st1" d="M78.3,147.3H65h-0.2c-0.5-0.3-0.6-0.8-0.6-1.2c0.2-1.1,2-2.3,6-4l0,0l0,0l-1.5-7h9.8v0.3
							c0,2.6,0.2,9.6,0.2,9.9C78.9,146,78.8,146.6,78.3,147.3L78.3,147.3z M65.3,146.7H78c0.3-0.5,0.3-0.9,0.3-1.5l0,0
							c0-0.3-0.2-7.8-0.2-9.6h-8.4l1.4,6.6H71l0,0c0,0.2-0.2,0.2-0.2,0.3c-4.6,1.8-5.7,3.1-5.8,3.7C65,146.3,65,146.4,65.3,146.7z
							 M71,142.3L71,142.3L71,142.3z"/>
					</g>
					<g>
						<path class="st2" d="M79.1,136.2c0,0.8-0.6,1.5-1.5,1.5h-7.8c-0.8,0-1.5-0.6-1.5-1.5l0,0c0-0.8,0.6-1.5,1.5-1.5h7.8
							C78.5,134.8,79.1,135.4,79.1,136.2L79.1,136.2z"/>
						<path class="st1" d="M77.7,138h-7.8c-0.9,0-1.8-0.8-1.8-1.8c0-0.9,0.8-1.8,1.8-1.8h7.8c0.9,0,1.8,0.8,1.8,1.8
							C79.4,137.2,78.6,138,77.7,138z M69.8,135.1c-0.6,0-1.2,0.5-1.2,1.2c0,0.6,0.5,1.2,1.2,1.2h7.8c0.6,0,1.2-0.5,1.2-1.2
							c0-0.6-0.5-1.2-1.2-1.2H69.8z"/>
					</g>
				</g>
			</g>
		</g>
	</g>
</g>
</svg>
