<?xml version="1.0" encoding="utf-8"?>
<!-- Generator: Adobe Illustrator 21.1.0, SVG Export Plug-In . SVG Version: 6.00 Build 0)  -->
<svg version="1.1" id="Capa_1" xmlns="http://www.w3.org/2000/svg" xmlns:xlink="http://www.w3.org/1999/xlink" x="0px" y="0px"
	 viewBox="0 0 182 152" style="enable-background:new 0 0 182 152;" xml:space="preserve">
<style type="text/css">
	.st0{fill:#E8F1F9;}
	.st1{fill:#0053A1;}
	.st2{fill:#FFFFFF;}
	.st3{opacity:0.4;}
	.st4{fill:#9BB7D3;}
</style>
<g>
	<g>
		<rect x="112.3" y="25.9" class="st0" width="19.5" height="34.2"/>
		<path class="st1" d="M132.5,60.7h-20.8V25.2h20.8V60.7z M112.9,59.5h18.3v-33h-18.3V59.5z"/>
	</g>
	<g>
		<path class="st0" d="M61.7,79.6c0-0.6,6-14.1,11.7-22.3s12.9-11.8,12.9-11.8s50.7,5.5,51.5,6.2c0.8,0.6,3.7,39.4,3.7,39.4
			L61.7,79.6z"/>
		<path class="st1" d="M142.2,91.7L61.1,80.1v-0.5c0-1,6.2-14.7,11.8-22.7c5.7-8.2,12.9-11.9,13.2-12l0.1-0.1h0.1
			c33.9,3.7,51.2,5.8,51.9,6.3c0.3,0.3,0.9,0.9,3.9,39.8L142.2,91.7z M62.6,79l78.2,11.2c-1.1-14.5-2.9-35.6-3.5-38.2
			c-3-0.8-31.7-3.9-50.8-6c-1.1,0.6-7.5,4.3-12.6,11.5C68.7,65,63.6,76.3,62.6,79z"/>
	</g>
	<g>
		<path class="st0" d="M23.4,81.4c0.3,0.6,4.8,13.8,10.3,23.5c5.7,10,17,13.2,29.2,13.9c12,0.6,90.3,0,90.3,0l5.5-33.3L23.4,81.4z"
			/>
		<path class="st1" d="M91.6,119.7c-13.4,0-24.7-0.1-28.8-0.3c-15-0.9-24.6-5.5-29.7-14.2c-5.7-9.9-10.3-23.5-10.4-23.6l-0.3-0.9
			l136.8,4.1l-5.7,34.6h-0.5C152.6,119.4,118.1,119.7,91.6,119.7z M24.3,82c1.1,3.2,5.2,14.1,10,22.6s13.9,12.8,28.7,13.6
			c11.4,0.6,82.8,0,89.6,0l5.3-32.1L24.3,82z"/>
	</g>
	<g>
		<path class="st0" d="M161.1,86.6L20.6,82.1c-1.8,0-3.3-1.5-3.2-3.4l0,0c0-1.8,1.5-3.3,3.4-3.2L161.4,80c1.8,0,3.3,1.5,3.2,3.4l0,0
			C164.5,85.2,162.9,86.6,161.1,86.6z"/>
		<path class="st1" d="M161.2,87.2h-0.1L20.6,82.8c-2.2-0.1-3.9-1.9-3.8-4.1c0.1-2.2,1.9-3.9,4.1-3.8l140.5,4.4
			c2.2,0.1,3.9,1.9,3.8,4.1c0,1-0.5,2-1.3,2.8C163.1,86.8,162.3,87.2,161.2,87.2z M20.8,76.2c-0.6,0-1.3,0.3-1.8,0.8
			s-0.8,1.1-0.9,1.9c0,1.5,1.1,2.7,2.5,2.8l140.5,4.4c0.8,0,1.4-0.3,1.9-0.8s0.8-1.1,0.9-1.9c0-1.5-1.1-2.7-2.5-2.8L20.8,76.2
			C20.9,76.2,20.8,76.2,20.8,76.2z"/>
	</g>
	<g>
		<path class="st2" d="M88.5,48.7c-0.6-0.1-1.3,0-1.8,0.4c-1.5,1.1-4.8,3.9-7.1,7.6c-1.8,2.9-3.8,6.8-5.2,9.4
			c-0.8,1.4,0.3,3.2,1.9,3.3l28,2.3c1.1,0.1,2.2-0.6,2.4-1.8l3.2-15.2c0.3-1.3-0.6-2.5-1.9-2.8L88.5,48.7z"/>
		<path class="st1" d="M104.4,72.4c-0.1,0-0.1,0-0.3,0l-28-2.3c-1-0.1-1.9-0.6-2.3-1.5s-0.5-1.9,0-2.8c1.4-2.7,3.4-6.6,5.2-9.5
			c2.3-3.7,5.5-6.5,7.2-7.7c0.6-0.5,1.5-0.6,2.3-0.5l19.5,3.3c0.8,0.1,1.5,0.6,1.9,1.3c0.4,0.6,0.6,1.5,0.5,2.3l-3.2,15.2
			C107.1,71.4,105.8,72.4,104.4,72.4z M88.1,49.2c-0.4,0-0.8,0.1-1,0.4c-1.4,1-4.7,3.7-7,7.4c-1.8,2.9-3.8,6.7-5.2,9.4
			c-0.3,0.5-0.3,1,0,1.5c0.3,0.5,0.8,0.8,1.3,0.9l28,2.3c0.9,0.1,1.6-0.5,1.8-1.3l3.2-15.2c0.1-0.5,0-0.9-0.3-1.3
			c-0.3-0.4-0.6-0.6-1.1-0.8l-19.5-3.3C88.2,49.2,88.1,49.2,88.1,49.2z"/>
	</g>
	<g class="st3">
		<path class="st2" d="M82.4,62.9c-0.6,0.1-1.1,0.5-1.4,1c-0.4,0.5-0.4,1.1-0.3,1.8c0.3,0.5,0.8,0.9,1.4,1c0.6,0.1,1.3-0.1,1.6-0.5
			c0.5-0.5,0.9-1.4,0.6-2c-0.3-0.8-1.1-1.1-1.8-0.9L82.4,62.9z"/>
	</g>
	<g>
		<path class="st4" d="M63.7,103.8l-1.1-3.8c-0.1-0.3-0.3-0.5-0.5-0.5c-0.3-0.1-0.5-0.1-0.8,0L58,101c-0.5,0.3-0.6,0.8-0.4,1.1
			c0.3,0.5,0.8,0.6,1.1,0.4l0.6-0.3c-0.5,1.1-2,2.8-6,3V92.8c1.3-0.5,2.2-1.6,2.2-3.2c0-1.9-1.5-3.3-3.3-3.3S49,87.9,49,89.6
			c0,1.4,0.9,2.7,2.2,3.2v12.4c-4.2-0.4-5.6-2.4-6.1-3.4l0.8,0.4c0.5,0.3,1,0,1.1-0.4c0.3-0.5,0-1-0.4-1.1l-3.3-1.5
			c-0.3-0.1-0.5-0.1-0.8,0c-0.3,0.1-0.4,0.3-0.5,0.5l-1.1,3.8c-0.1,0.5,0.1,1,0.6,1.1c0.1,0,0.1,0,0.3,0c0.4,0,0.8-0.3,0.9-0.6
			l0.4-1c0.3,0.5,0.6,1.1,1.1,1.8c1.1,1.4,3.5,3,8.2,3.2c0.1,0,0.4,0,0.5,0c4.3,0,6.6-1.5,7.7-2.9c0.5-0.6,0.9-1.3,1.1-1.8l0.4,1.1
			c0.1,0.4,0.5,0.6,0.9,0.6c0.1,0,0.1,0,0.3,0C63.6,104.7,63.9,104.2,63.7,103.8z M43.5,101l0.1,0.1L43.5,101L43.5,101z M52.3,88.2
			c0.9,0,1.5,0.6,1.5,1.5c0,0.9-0.6,1.5-1.5,1.5s-1.5-0.6-1.5-1.5C50.8,88.9,51.4,88.2,52.3,88.2z"/>
	</g>
</g>
</svg>
