<?xml version="1.0" encoding="utf-8"?>
<!-- Generator: Adobe Illustrator 21.1.0, SVG Export Plug-In . SVG Version: 6.00 Build 0)  -->
<svg version="1.1" id="Capa_1" xmlns="http://www.w3.org/2000/svg" xmlns:xlink="http://www.w3.org/1999/xlink" x="0px" y="0px"
	 viewBox="0 0 182 152" style="enable-background:new 0 0 182 152;" xml:space="preserve">
<style type="text/css">
	.st0{fill:#9BB7D3;}
	.st1{fill:#0A4B98;}
	.st2{fill:#E8F1F9;}
	.st3{fill:#0053A1;}
</style>
<g>
	<g>
		<g>
			<g>
				<path class="st0" d="M97.9,115.7c-4.6,0-8.3-3.7-8.3-8.3V33.3c0-0.8,0.6-1.4,1.4-1.4c0.8,0,1.4,0.6,1.4,1.4v74.2
					c0,3.1,2.5,5.5,5.5,5.5c3.1,0,5.5-2.5,5.5-5.5v-4.2c0-0.8,0.6-1.4,1.4-1.4c0.8,0,1.4,0.6,1.4,1.4v4.2
					C106.3,112,102.5,115.7,97.9,115.7z"/>
				<path class="st1" d="M97.9,116.5c-5,0-9.1-4.1-9.1-9.1V33.3c0-1.2,1-2.1,2.1-2.1c1.2,0,2.1,1,2.1,2.1v74.2
					c0,2.6,2.2,4.8,4.8,4.8s4.8-2.2,4.8-4.8v-4.2c0-1.2,1-2.1,2.1-2.1s2.1,1,2.1,2.1v4.2C107,112.4,102.9,116.5,97.9,116.5z
					 M91,32.6c-0.4,0-0.6,0.3-0.6,0.6v74.2c0,4.2,3.4,7.6,7.6,7.6s7.6-3.4,7.6-7.6v-4.2c0-0.4-0.3-0.6-0.6-0.6s-0.6,0.3-0.6,0.6v4.2
					c0,3.5-2.8,6.3-6.3,6.3s-6.3-2.8-6.3-6.3V33.3C91.6,32.9,91.4,32.6,91,32.6z"/>
			</g>
		</g>
		<g>
			<g>
				<path class="st0" d="M43.4,59.5c-1,2-1.8,3.9-2.4,5.4c-0.3,0.9,0.7,1.6,1.4,1.1c1.5-1.1,3.5-1.8,5.6-1.8c3.4,0,6.3,1.6,7.8,4.1
					c0.4,0.6,1.2,0.6,1.6,0c1.5-2.4,4.4-4.1,7.8-4.1s6.3,1.6,7.8,4.1c0.4,0.6,1.2,0.6,1.6,0c1.5-2.4,4.4-4.1,7.8-4.1
					c3.4,0,6.3,1.6,7.8,4.1c0.4,0.6,1.2,0.6,1.6,0c1.5-2.4,4.4-4.1,7.8-4.1c3.4,0,6.3,1.6,7.8,4.1c0.4,0.6,1.2,0.6,1.6,0
					c1.5-2.4,4.4-4.1,7.8-4.1c3.4,0,6.3,1.6,7.8,4.1c0.4,0.6,1.2,0.6,1.6,0c1.5-2.4,4.4-4.1,7.8-4.1c2.1,0,4.1,0.7,5.6,1.8
					c0.8,0.5,1.8-0.2,1.4-1.1c-0.6-1.6-1.3-3.4-2.4-5.4C119.1,20.6,62.9,20.6,43.4,59.5z"/>
				<path class="st1" d="M125.3,69.5C125.3,69.5,125.3,69.5,125.3,69.5c-0.6,0-1.1-0.3-1.4-0.8c-1.4-2.3-4.2-3.7-7.1-3.7
					c-3,0-5.7,1.4-7.1,3.7c-0.3,0.5-0.9,0.8-1.4,0.8s-1.1-0.3-1.4-0.8c-1.4-2.3-4.2-3.7-7.1-3.7s-5.7,1.4-7.1,3.7
					c-0.3,0.5-0.9,0.8-1.4,0.8s-1.1-0.3-1.4-0.8c-1.4-2.3-4.2-3.7-7.1-3.7c-3,0-5.7,1.4-7.1,3.7c-0.3,0.5-0.9,0.8-1.4,0.8
					s-1.1-0.3-1.4-0.8C71,66.4,68.2,65,65.3,65s-5.7,1.4-7.1,3.7c-0.3,0.5-0.9,0.8-1.4,0.8c-0.6,0-1.1-0.3-1.4-0.8
					c-1.4-2.3-4.2-3.7-7.1-3.7c-1.9,0-3.7,0.6-5.2,1.6c-0.6,0.4-1.4,0.4-2,0c-0.6-0.5-0.8-1.2-0.6-1.9c0.7-1.8,1.5-3.7,2.4-5.5
					C51.9,40.9,70.4,29.6,91,29.6c0,0,0,0,0,0c20.6,0,39.1,11.4,48.2,29.6c0.9,1.8,1.7,3.7,2.4,5.5c0.3,0.7,0,1.5-0.6,1.9
					c-0.6,0.5-1.4,0.5-2,0c-1.4-1-3.3-1.6-5.2-1.6c-3,0-5.7,1.4-7.1,3.7C126.4,69.2,125.9,69.5,125.3,69.5z M116.7,63.5
					c3.5,0,6.7,1.7,8.4,4.4c0.1,0.1,0.1,0.1,0.2,0.1l0,0c0,0,0.1,0,0.2-0.1c1.7-2.7,4.9-4.4,8.4-4.4c2.2,0,4.3,0.7,6,1.9
					c0.1,0.1,0.2,0,0.3,0c0.1-0.1,0.1-0.2,0.1-0.2c-0.7-1.8-1.4-3.6-2.3-5.4C129,42.1,111.1,31.1,91,31.1c-20.1,0-38,11-46.9,28.8
					l0,0c-0.9,1.8-1.7,3.6-2.3,5.4c0,0,0,0.1,0.1,0.2c0.1,0,0.1,0.1,0.3,0c1.7-1.2,3.8-1.9,6-1.9c3.5,0,6.7,1.7,8.4,4.4
					c0.1,0.2,0.2,0.2,0.3,0c1.7-2.7,4.9-4.4,8.4-4.4s6.7,1.7,8.4,4.4c0.1,0.2,0.2,0.2,0.3,0c1.7-2.7,4.9-4.4,8.4-4.4
					c3.5,0,6.7,1.7,8.4,4.4c0.1,0.2,0.2,0.2,0.3,0c1.7-2.7,4.9-4.4,8.4-4.4s6.7,1.7,8.4,4.4c0.1,0.2,0.2,0.2,0.3,0
					C110,65.2,113.2,63.5,116.7,63.5z"/>
			</g>
			<g>
				<path class="st0" d="M91,19L91,19c-0.8,0-1.5,0.6-1.5,1.4l-0.8,10.9H91h2.3l-0.8-10.9C92.5,19.6,91.8,19,91,19z"/>
				<path class="st1" d="M94.1,32.1h-6.2l0.8-11.7c0.1-1.2,1.1-2.1,2.3-2.1c1.2,0,2.2,0.9,2.3,2.1L94.1,32.1z M89.5,30.6h3
					l-0.7-10.1c0-0.4-0.4-0.7-0.8-0.7s-0.8,0.3-0.8,0.7L89.5,30.6z"/>
			</g>
		</g>
	</g>
	<g>
		<path class="st2" d="M65,92.3c4.1,0,7.4-3.3,7.4-7.4s-3.3-7.4-7.4-7.4s-7.4,3.3-7.4,7.4S60.9,92.3,65,92.3z M117,92.3
			c4.1,0,7.4-3.3,7.4-7.4s-3.3-7.4-7.4-7.4s-7.4,3.3-7.4,7.4S112.9,92.3,117,92.3z M120.7,96h-7.4c-2,0-3.9,0.8-5.2,2.2
			c4.7,2.6,8,7.2,8.7,12.7h7.7c2.1,0,3.7-1.7,3.7-3.7v-3.7C128.1,99.3,124.8,96,120.7,96z M91,96c7.2,0,13-5.8,13-13s-5.8-13-13-13
			s-13,5.8-13,13S83.8,96,91,96z M99.9,99.7h-1c-2.4,1.2-5.1,1.9-8,1.9s-5.5-0.7-8-1.9h-1c-7.4,0-13.4,6-13.4,13.4v3.3
			c0,3.1,2.5,5.6,5.6,5.6h33.4c3.1,0,5.6-2.5,5.6-5.6v-3.3C113.3,105.7,107.3,99.7,99.9,99.7z M73.9,98.2c-1.3-1.3-3.2-2.2-5.2-2.2
			h-7.4c-4.1,0-7.4,3.3-7.4,7.4v3.7c0,2.1,1.7,3.7,3.7,3.7h7.6C66,105.4,69.3,100.7,73.9,98.2L73.9,98.2z"/>
		<path class="st3" d="M107.7,122.5H74.3c-3.3,0-6.1-2.7-6.1-6.1v-3.3c0-7.6,6.2-13.9,13.9-13.9l1.2,0c5,2.4,10.5,2.4,15.5,0l0.2,0
			h1c7.6,0,13.9,6.2,13.9,13.9v3.3C113.8,119.8,111.1,122.5,107.7,122.5z M82.1,100.2c-7.1,0-12.9,5.8-12.9,12.9v3.3
			c0,2.8,2.3,5.1,5.1,5.1h33.4c2.8,0,5.1-2.3,5.1-5.1v-3.3c0-7.1-5.8-12.9-12.9-12.9h-0.8c-5.2,2.5-10.9,2.5-16.1,0H82.1z
			 M124.4,111.4h-8.1l-0.1-0.4c-0.7-5.2-3.8-9.8-8.5-12.3l-0.6-0.3l0.5-0.5c1.5-1.5,3.5-2.3,5.6-2.3h7.4c4.4,0,7.9,3.6,7.9,7.9v3.7
			C128.6,109.5,126.8,111.4,124.4,111.4z M117.2,110.4h7.2c1.8,0,3.2-1.4,3.2-3.2v-3.7c0-3.8-3.1-6.9-6.9-6.9h-7.4
			c-1.6,0-3.2,0.6-4.4,1.6C113.3,100.7,116.4,105.3,117.2,110.4z M65.7,111.4h-8.1c-2.3,0-4.2-1.9-4.2-4.2v-3.7
			c0-4.4,3.6-7.9,7.9-7.9h7.4c2.1,0,4.1,0.8,5.6,2.3l0.5,0.5l-0.6,0.3c-4.6,2.5-7.8,7.1-8.5,12.3L65.7,111.4z M61.3,96.5
			c-3.8,0-6.9,3.1-6.9,6.9v3.7c0,1.8,1.4,3.2,3.2,3.2h7.2c0.8-5.1,3.9-9.6,8.3-12.3c-1.2-1-2.8-1.6-4.4-1.6H61.3z M91,96.5
			c-7.4,0-13.5-6.1-13.5-13.5c0-7.4,6.1-13.5,13.5-13.5c7.4,0,13.5,6.1,13.5,13.5C104.5,90.4,98.4,96.5,91,96.5z M91,70.5
			c-6.9,0-12.5,5.6-12.5,12.5S84.1,95.5,91,95.5s12.5-5.6,12.5-12.5S97.9,70.5,91,70.5z M117,92.8c-4.4,0-7.9-3.6-7.9-7.9
			s3.6-7.9,7.9-7.9s7.9,3.6,7.9,7.9S121.4,92.8,117,92.8z M117,77.9c-3.8,0-6.9,3.1-6.9,6.9s3.1,6.9,6.9,6.9s6.9-3.1,6.9-6.9
			S120.8,77.9,117,77.9z M65,92.8c-4.4,0-7.9-3.6-7.9-7.9s3.6-7.9,7.9-7.9s7.9,3.6,7.9,7.9S69.4,92.8,65,92.8z M65,77.9
			c-3.8,0-6.9,3.1-6.9,6.9s3.1,6.9,6.9,6.9s6.9-3.1,6.9-6.9S68.8,77.9,65,77.9z"/>
	</g>
</g>
</svg>
