<?xml version="1.0" encoding="utf-8"?>
<!-- Generator: Adobe Illustrator 21.1.0, SVG Export Plug-In . SVG Version: 6.00 Build 0)  -->
<svg version="1.1" id="Capa_1" xmlns="http://www.w3.org/2000/svg" xmlns:xlink="http://www.w3.org/1999/xlink" x="0px" y="0px"
	 viewBox="0 0 182 152" style="enable-background:new 0 0 182 152;" xml:space="preserve">
<style type="text/css">
	.st0{fill:#E8F1F9;}
	.st1{fill:#0053A1;}
	.st2{fill:#FFFFFF;}
	.st3{fill:#9BB7D3;}
</style>
<g>
	<g>
		<g>
			<path class="st0" d="M152.7,127.2h-2.3v-59c5.1-3.3,8.6-9,8.6-15.6c0-0.3-0.2-0.8-0.3-1.1L143,23.9c-1.1-2-3.2-3.2-5.4-3.2H44.7
				c-2.3,0-4.4,1.2-5.4,3.2L23.4,51.7c-0.2,0.3-0.3,0.6-0.3,1.1c0,6.5,3.5,12.3,8.6,15.6v59h-2.3c-1.1,0-2,0.9-2,2s0.9,2,2,2h123.4
				c1.1,0,2-0.9,2-2C154.7,128.1,153.8,127.2,152.7,127.2z M109.8,127.2H35.7v-57c2,0.6,3.9,1.1,6,1.1c7.2,0,13.4-4.1,16.5-10.2
				c3,6,9.3,10.2,16.5,10.2C81.9,71.2,88,67,91.1,61c3,6,9.3,10.2,16.5,10.2c7.2,0,13.4-4.1,16.5-10.2c3,6,9.3,10.2,16.5,10.2
				c2.1,0,4.1-0.3,6-1.1v57h-1.1L109.8,127.2z"/>
			<path class="st1" d="M152.7,131.8H29.4c-1.5,0-2.7-1.2-2.7-2.7s1.2-2.7,2.7-2.7h1.5V68.5c-5.4-3.6-8.6-9.5-8.6-15.9
				c0-0.5,0.2-0.9,0.3-1.4l15.9-27.6c1.2-2.1,3.6-3.5,6-3.5h92.9c2.6,0,4.8,1.4,6,3.5l15.8,27.6c0.3,0.5,0.3,0.9,0.3,1.4
				c0,6.5-3.2,12.3-8.6,15.9v57.9h1.5c1.5,0,2.7,1.2,2.7,2.7C155.1,130.6,154.2,131.8,152.7,131.8z M29.4,127.9
				c-0.8,0-1.2,0.6-1.2,1.2c0,0.6,0.6,1.2,1.2,1.2h123.4c0.8,0,1.2-0.6,1.2-1.2c0-0.6-0.6-1.2-1.2-1.2h-3V67.7l0.3-0.2
				c5.1-3.3,8.1-8.9,8.1-14.9c0-0.2,0-0.5-0.2-0.6l-15.8-27.6c-0.9-1.7-2.9-2.7-4.8-2.7H44.7c-2,0-3.8,1.1-4.8,2.7L24.1,52
				C24,52.1,24,52.4,24,52.6c0,6,3,11.6,8.1,14.9l0.3,0.2v60.2h-3V127.9z M147.2,127.9H34.9V69.1l1.1,0.3c1.8,0.6,3.8,0.9,5.7,0.9
				c6.8,0,12.8-3.8,15.8-9.8l0.6-1.4l0.6,1.4c3,6,9.2,9.8,15.8,9.8c6.8,0,12.8-3.8,15.8-9.8l0.6-1.4l0.6,1.4c3,6,9.2,9.8,15.8,9.8
				c6.8,0,12.8-3.8,15.8-9.8l0.6-1.4l0.6,1.4c3,6,9.2,9.8,15.8,9.8c2,0,3.9-0.3,5.7-0.9l1.1-0.3v58.8H147.2z M36.4,126.4h109.4V71
				c-1.7,0.5-3.5,0.8-5.3,0.8c-6.8,0-13.1-3.6-16.5-9.3c-3.5,5.9-9.6,9.3-16.5,9.3c-6.8,0-13.1-3.6-16.5-9.3
				c-3.5,5.9-9.6,9.3-16.5,9.3c-6.8,0-13.1-3.6-16.5-9.3c-3.5,5.9-9.6,9.3-16.5,9.3c-1.8,0-3.6-0.3-5.3-0.8v55.4H36.4z"/>
		</g>
	</g>
</g>
<g>
	<path class="st2" d="M100.1,120.4H44.7c-0.8,0-1.4-0.6-1.4-1.4V79.6c0-0.8,0.6-1.4,1.4-1.4h55.4c0.8,0,1.4,0.6,1.4,1.4v39.3
		C101.4,119.7,100.8,120.4,100.1,120.4z"/>
	<path class="st1" d="M100.1,121.2H44.7c-1.2,0-2.1-0.9-2.1-2.1V79.6c0-1.2,0.9-2.1,2.1-2.1h55.4c1.2,0,2.1,0.9,2.1,2.1v39.3
		C102.2,120.1,101.3,121.2,100.1,121.2z M44.7,79c-0.3,0-0.6,0.3-0.6,0.6v39.3c0,0.3,0.3,0.6,0.6,0.6h55.4c0.3,0,0.6-0.3,0.6-0.6
		V79.6c0-0.3-0.3-0.6-0.6-0.6H44.7z"/>
</g>
<g>
	<path class="st3" d="M134.4,126.7h-18.6c-0.8,0-1.5-0.6-1.5-1.5V81.7c0-0.9,0.8-1.5,1.5-1.5h18.6c0.9,0,1.5,0.6,1.5,1.5v43.5
		C135.9,126,135.3,126.7,134.4,126.7z"/>
	<path class="st1" d="M134.4,127.5h-18.6c-1.2,0-2.3-1.1-2.3-2.3V81.7c0-1.2,1.1-2.3,2.3-2.3h18.6c1.2,0,2.3,1.1,2.3,2.3v43.5
		C136.7,126.4,135.8,127.5,134.4,127.5z M115.8,80.8c-0.5,0-0.8,0.3-0.8,0.8v43.5c0,0.5,0.3,0.8,0.8,0.8h18.6c0.5,0,0.8-0.3,0.8-0.8
		V81.6c0-0.5-0.3-0.8-0.8-0.8H115.8z"/>
</g>
<g>
	<path class="st1" d="M61.3,103h-0.2c-0.2-0.2-0.3-0.3-0.2-0.5l7.1-12.3c0.2-0.2,0.3-0.3,0.5-0.2c0.2,0.2,0.3,0.3,0.2,0.5l-7.1,12.3
		C61.6,102.9,61.5,103,61.3,103z"/>
</g>
<g>
	<path class="st1" d="M72.6,109.3h-0.2c-0.2-0.2-0.3-0.3-0.2-0.5l7.1-12.3c0.2-0.2,0.3-0.3,0.5-0.2c0.2,0.2,0.3,0.3,0.2,0.5
		l-7.1,12.3C72.7,109.3,72.7,109.3,72.6,109.3z"/>
</g>
<g>
	<path class="st1" d="M61.5,114.3h-0.2c-0.2-0.2-0.3-0.3-0.2-0.5l16.7-29.3c0.2-0.2,0.3-0.3,0.5-0.2c0.2,0.2,0.3,0.3,0.2,0.5
		l-16.7,29.3C61.8,114.3,61.6,114.3,61.5,114.3z"/>
</g>
</svg>
