<?xml version="1.0" encoding="utf-8"?>
<!-- Generator: Adobe Illustrator 21.1.0, SVG Export Plug-In . SVG Version: 6.00 Build 0)  -->
<svg version="1.1" id="Capa_1" xmlns="http://www.w3.org/2000/svg" xmlns:xlink="http://www.w3.org/1999/xlink" x="0px" y="0px"
	 viewBox="0 0 182 152" style="enable-background:new 0 0 182 152;" xml:space="preserve">
<style type="text/css">
	.st0{fill:#E8F1F9;}
	.st1{fill:#0053A1;}
	.st2{fill:#9BB7D3;}
</style>
<g>
	<g>
		<g>
			<path class="st0" d="M139.4,126.4L136,53.7h-22l-2.4,72.7h-6.4l1.2-38.2H96V71.5L69.3,88V71.5L41.3,88v38.2h-3.8v9h107.1v-9h-5.2
				V126.4z M61.7,113.6h-9v-9h9V113.6z M77,113.6h-9v-9h9V113.6z M92.2,113.6h-9v-9h9V113.6z"/>
			<path class="st1" d="M145.3,135.9H36.7v-10.3h3.9V87.7L70,70.3v16.6l26.8-16.6v17.1h10.3l-1.2,38.2h5l2.4-72.7h23.4v0.7l3.4,72
				h5.2v10.2H145.3z M38,134.5h105.8v-7.6h-5.2v-0.7l-3.4-72h-20.7l-2.4,72.7h-7.8l1.2-38.2H95.2V72.7L68.7,89.2V72.6L42,88.4v38.5
				h-3.8v7.6H38z M92.9,114.2H82.5v-10.3h10.3V114.2z M84,112.9h7.6v-7.6H84V112.9z M77.6,114.2H67.3v-10.3h10.3V114.2z M68.7,112.9
				h7.6v-7.6h-7.6V112.9z M62.4,114.2H52.1v-10.3h10.3V114.2z M53.4,112.9H61v-7.6h-7.6V112.9z"/>
		</g>
	</g>
	<g>
		<path class="st2" d="M123.9,14.9H96.2c-5,0-7.5,6.1-3.9,9.7l7.6,7.6L82.5,49.5L65.3,32.2c-3-3-7.8-3-10.6,0L38.6,48.4
			c-1.5,1.5-1.5,3.8,0,5.3l5.3,5.3c1.5,1.5,3.8,1.5,5.3,0l10.8-10.9l17.3,17.3c3,3,7.8,3,10.6,0l22.6-22.6l7.6,7.6
			c3.5,3.5,9.7,1.1,9.7-3.9V18.7C127.6,16.7,126,14.9,123.9,14.9z"/>
	</g>
</g>
</svg>
