<?xml version="1.0" encoding="utf-8"?>
<!-- Generator: Adobe Illustrator 21.1.0, SVG Export Plug-In . SVG Version: 6.00 Build 0)  -->
<svg version="1.1" id="Capa_1" xmlns="http://www.w3.org/2000/svg" xmlns:xlink="http://www.w3.org/1999/xlink" x="0px" y="0px"
	 viewBox="0 0 182 152" style="enable-background:new 0 0 182 152;" xml:space="preserve">
<style type="text/css">
	.st0{fill:#9BB7D3;}
	.st1{fill:#E8F1F9;}
	.st2{fill:#0053A1;}
</style>
<g>
	<path class="st0" d="M61.1,84.4h-8.9c1.3,1.4,1.4,4.2-0.5,6c1.1,1.9,0.2,4.5-1.3,5.2c0.6,3.8-1,6-4.9,6h-2.1
		c-4.4,0-7.5-3.5-11.7-3.9V80.5c2.5-0.3,4.2-2.1,5.8-3.9c1.1-1.2,2.1-2.5,3-3.9c1.4-2.3,2.6-5.5,3.4-5.5c2.3,0,4.3,0.9,4.3,3.4
		c0,3.4-2.6,5.2-2.6,6.9h15.5c1.8,0,3.4,1.6,3.4,3.4C64.5,82.9,62.9,84.4,61.1,84.4z"/>
	<g>
		<path class="st1" d="M112.3,67.9l-8.5,17c-1,2.1-4,2-4.9-0.1l-9.7-21.6l-5.1,12.3H67.8l31.2,31.9c1.2,1.2,3.2,1.2,4.4,0l31.2-31.9
			H116L112.3,67.9L112.3,67.9z M138.5,38.9l-0.4-0.4c-8.8-9-23.2-9-32.1,0l-4.8,4.9l-4.8-4.9c-8.8-9-23.3-9-32.1,0L64,38.9
			c-8.3,8.5-8.7,22.1-1.2,31.2h17.5l6.1-14.8c0.9-2.2,4-2.3,5-0.1l10,22.1l8.4-16.8c1-2,3.9-2,4.9,0l4.7,9.4h20.3
			C147.2,60.9,146.9,47.4,138.5,38.9L138.5,38.9z"/>
		<path class="st2" d="M101.3,109.6c-1.2,0-2.3-0.5-3.1-1.3L64.8,74.2h18.3L89,60l11,24.3c0.2,0.5,0.7,0.8,1.3,0.9
			c0.6,0,1.1-0.3,1.3-0.8l9.7-19.3l4.6,9.2h20.9l-33.4,34.1C103.6,109.2,102.5,109.6,101.3,109.6z M70.9,76.8l29.1,29.7
			c0.7,0.7,1.9,0.7,2.6,0l29.1-29.7h-16.4l-3-6l-7.4,14.7c-0.7,1.4-2.1,2.3-3.7,2.2c-1.6,0-3-0.9-3.6-2.4l-8.5-18.9l-4.3,10.3H70.9z
			 M101.4,80.3L90.3,55.7c-0.4-0.8-1.1-0.9-1.3-0.9c-0.2,0-1,0.1-1.3,0.9l-6.5,15.5h-19l-0.4-0.5c-7.9-9.6-7.3-24.1,1.3-32.9
			l0.4-0.4c4.5-4.6,10.5-7.1,16.9-7.1c6.4,0,12.4,2.5,17,7.2l3.9,3.9l3.9-4c4.5-4.6,10.5-7.1,17-7.1c0,0,0,0,0,0
			c6.4,0,12.4,2.5,16.9,7.1l0.4,0.4c8.6,8.8,9.2,23.3,1.3,32.9l-0.4,0.5h-21.8l-5.1-10.2c-0.3-0.5-0.7-0.8-1.3-0.8h0
			c-0.6,0-1,0.3-1.3,0.8L101.4,80.3z M89,52.3c1.6,0,3,0.9,3.7,2.4l8.8,19.7l7.2-14.3c0.7-1.4,2.1-2.2,3.6-2.2c0,0,0,0,0,0
			c1.5,0,2.9,0.9,3.6,2.2l4.4,8.7h18.9c6.7-8.6,6-21.2-1.6-29l-0.4-0.4c-4-4.1-9.4-6.4-15.1-6.4c0,0,0,0,0,0
			c-5.7,0-11.1,2.3-15.1,6.4l-5.7,5.8l-5.7-5.8c-4-4.1-9.4-6.4-15.1-6.4c-5.7,0-11.1,2.3-15.1,6.4l-0.4,0.4
			c-7.6,7.7-8.2,20.4-1.5,29h16l5.8-14C85.9,53.3,87.3,52.3,89,52.3C88.9,52.3,89,52.3,89,52.3z"/>
	</g>
</g>
</svg>
