<?xml version="1.0" encoding="utf-8"?>
<!-- Generator: Adobe Illustrator 21.1.0, SVG Export Plug-In . SVG Version: 6.00 Build 0)  -->
<svg version="1.1" id="Capa_1" xmlns="http://www.w3.org/2000/svg" xmlns:xlink="http://www.w3.org/1999/xlink" x="0px" y="0px"
	 viewBox="0 0 182 152" style="enable-background:new 0 0 182 152;" xml:space="preserve">
<style type="text/css">
	.st0{fill:#E8F1F9;}
	.st1{fill:#0A4B98;}
	.st2{fill:#9BB7D3;}
</style>
<g>
	<g>
		<path class="st0" d="M119.8,54.1c-2.6-2.9-6.7-6.7-8.4,2c-0.6,3-2,5.2-3.1,7.1c-1.3-6.4-5.1-13.1-8.7-17.6
			c-1.3-1.7-6.1-8.3-7-19.5c-0.1-1.7-2.1-2.4-3.4-1.3C77.3,35.6,70.9,50.3,70.6,66.9c0,0-4.9-4.1-7.6-11.9c-0.7-2.1-3.5-2.5-4.7-0.6
			c-0.2,0.4-0.4,0.7-0.6,1c-9.1,16.1-13.5,35.7-9.4,53.9c6.8,30.5,51.6,39,75.4,19.9C146.8,110.5,139.4,75.6,119.8,54.1z"/>
		<path class="st1" d="M92.4,140.9c-6.3,0-12.7-1-18.7-3.1c-14.3-5-24.1-15.2-27-28.1c-3.9-17.3-0.4-37.4,9.6-55
			c0.2-0.4,0.4-0.8,0.7-1.1c0.9-1.3,2.4-2,3.9-1.8c1.6,0.2,2.9,1.3,3.4,2.8c1.4,3.9,3.3,6.8,4.8,8.7c1.1-15.5,7.7-29.4,18.9-39.6
			c1-0.9,2.4-1.2,3.6-0.7c1.3,0.5,2.1,1.6,2.2,3c0.9,10.7,5.4,17,6.7,18.7c3.6,4.5,6.4,9.7,8,14.6c0.5-1,0.9-2.2,1.2-3.4
			c0.8-3.8,2.1-5.9,4-6.4c2.8-0.8,5.5,2.1,7,3.7c12.6,13.8,19.7,32.3,18.5,48.5c-0.9,11.7-6,21.7-14.9,28.8
			C116,137.3,104.3,140.9,92.4,140.9z M60.5,54.7c-0.2,0-0.6,0.1-0.9,0.5c-0.2,0.3-0.4,0.6-0.6,1c-9.6,17-13,36.2-9.3,52.9
			c2.6,11.8,11.7,21.3,25,25.9c16.5,5.8,35.7,3,47.9-6.9c8.2-6.6,12.9-15.9,13.8-26.7c1.1-15.3-5.6-33-17.7-46.2h0
			c-2.4-2.6-3.5-3-4-2.9c-0.2,0.1-1.2,0.5-1.9,4.1c-0.6,3.2-2.1,5.6-3.3,7.6l-2,3.1l-0.7-3.7c-1.1-5.4-4.2-11.7-8.4-16.9
			c-1.5-1.9-6.4-8.8-7.4-20.3c0-0.3-0.2-0.4-0.3-0.4s-0.3-0.1-0.5,0.1c-11.6,10.5-17.8,24.7-18.1,41l0,3.2l-2.4-2
			c-0.2-0.2-5.3-4.5-8-12.5c-0.2-0.7-0.8-0.8-1-0.8C60.6,54.8,60.5,54.7,60.5,54.7z"/>
	</g>
	<g>
		<g>
			<path class="st2" d="M73.5,30.7c5.3-4.3,5.3-12.4,0-16.7C68.2,18.3,68.2,26.4,73.5,30.7z"/>
		</g>
		<g>
			<path class="st2" d="M137,65.3c5.3-4.3,5.3-12.4,0-16.7C134.6,50.6,131.7,61,137,65.3z"/>
		</g>
		<g>
			<path class="st2" d="M43.2,68.5c3.8-3.1,3.8-8.9,0-12C41.4,57.9,39.4,65.4,43.2,68.5z"/>
		</g>
		<g>
			<path class="st2" d="M109.3,42.7c3.8-3.1,3.8-8.9,0-12C105.5,33.8,105.5,39.6,109.3,42.7z"/>
		</g>
	</g>
</g>
<g>
	<path class="st2" d="M110.1,72.8c-1.8-2-4.7-4.7-5.9,1.4c-0.4,2.1-1.4,3.7-2.2,5c-0.9-4.5-3.6-9.2-6.1-12.4
		c-0.9-1.2-4.3-5.9-5-13.7c-0.1-1.2-1.5-1.7-2.4-0.9c-8.3,7.6-12.9,18-13.1,29.7c0,0-3.5-2.9-5.4-8.4c-0.5-1.5-2.5-1.7-3.3-0.4
		c-0.2,0.2-0.3,0.5-0.5,0.7c-6.4,11.4-9.5,25.2-6.7,38c4.8,21.5,36.4,27.5,53.1,14C129.2,112.6,124,88,110.1,72.8z"/>
</g>
</svg>
