<?xml version="1.0" encoding="utf-8"?>
<!-- Generator: Adobe Illustrator 21.1.0, SVG Export Plug-In . SVG Version: 6.00 Build 0)  -->
<svg version="1.1" id="Capa_1" xmlns="http://www.w3.org/2000/svg" xmlns:xlink="http://www.w3.org/1999/xlink" x="0px" y="0px"
	 viewBox="0 0 182 152" style="enable-background:new 0 0 182 152;" xml:space="preserve">
<style type="text/css">
	.st0{fill:#E8F1F9;stroke:#0053A1;stroke-width:2;stroke-miterlimit:10;}
</style>
<g>
	<path class="st0" d="M32.1,42.2h15.8l18.4,58.5H52.1l-3.6-14H30.8l-3.6,14H13.7L32.1,42.2z M33.5,76.5H46l-1.4-5.3
		c-1.6-5.8-3.3-12.7-4.7-18.8h-0.3c-1.4,6.1-3,13-4.6,18.8L33.5,76.5z"/>
	<path class="st0" d="M72.5,42.2h21c12.4,0,22.6,4.2,22.6,18.2c0,8.6-4.1,14.1-10.4,16.9l13.3,23.4h-14.7l-11.3-21h-7.2v21H72.5
		V42.2z M92.6,69.2c6.9,0,10.7-3,10.7-8.8s-3.8-7.7-10.7-7.7h-6.7v16.5H92.6z"/>
	<path class="st0" d="M137.5,53.3h-16V42.2H167v11.1h-16v47.4h-13.3V53.3H137.5z"/>
</g>
</svg>
