<?xml version="1.0" encoding="utf-8"?>
<!-- Generator: Adobe Illustrator 21.1.0, SVG Export Plug-In . SVG Version: 6.00 Build 0)  -->
<svg version="1.1" id="Capa_1" xmlns="http://www.w3.org/2000/svg" xmlns:xlink="http://www.w3.org/1999/xlink" x="0px" y="0px"
	 viewBox="0 0 182 152" style="enable-background:new 0 0 182 152;" xml:space="preserve">
<style type="text/css">
	.st0{fill:#9BB7D3;stroke:#0A4B98;stroke-miterlimit:10;}
	.st1{fill:#9BB7D3;}
	.st2{fill:#E8F1F9;}
	.st3{fill:#0A4B98;}
	.st4{fill:#FFFFFF;}
</style>
<g>
	<g>
		<path class="st0" d="M126.2,110.7V105c0-1.5,0-3.8,2.4-3.8h14.8c0.6,0,1.1,0.2,1.5,0.5c0.6,0.6,0.6,1.7,0.6,2.9v6.2
			c0,2.1-1.7,3.8-3.8,3.8H130C127.8,114.6,126.2,112.8,126.2,110.7z"/>
	</g>
	<g>
		<path class="st1" d="M141.5,114.2h-11.4c-2,0-3.7-1.7-3.7-3.7v-6c0-1.2,0-2.2,0.6-2.8c0.3-0.3,0.8-0.5,1.4-0.5h14.4
			c2.3,0,2.3,2.2,2.3,3.7v5.6C145.2,112.6,143.5,114.2,141.5,114.2z"/>
	</g>
	<g>
		<path class="st0" d="M52.6,114.7H40.9c-2.1,0-3.8-1.7-3.8-3.8v-6.2c0-1.2,0-2.3,0.6-2.9c0.3-0.3,0.8-0.5,1.5-0.5H54
			c2.4,0,2.4,2.3,2.4,3.8v5.7C56.3,113,54.6,114.7,52.6,114.7z"/>
	</g>
	<g>
		<path class="st1" d="M37.3,110.7v-5.6c0-1.5,0-3.7,2.3-3.7H54c0.6,0,1.1,0.2,1.4,0.5c0.6,0.6,0.6,1.6,0.6,2.8v6
			c0,2.1-1.7,3.7-3.7,3.7H41C39,114.4,37.3,112.7,37.3,110.7z"/>
	</g>
	<g>
		<path class="st2" d="M143.4,68.4L121,79.5l0,0c-0.1,0-0.1,0.1-0.2,0.1c-0.5,0.5-0.9,1-1.3,1.6c-0.4,0.6-0.8,1.1-1.2,1.7
			s-0.7,1.3-0.9,2.2c0,0.2-0.1,0.5,0,0.8c0,0.3,0.2,0.7,0.3,0.9c0.1,0.1,0.2,0.2,0.3,0.3c0.1,0,0.1,0.1,0.2,0.1l0.1,0.1
			c0.2,0.1,0.4,0.1,0.5,0.1c0.6,0.1,1.2,0.1,1.8,0.1s1.2-0.1,1.7-0.1c1.2-0.1,2.3-0.3,3.5-0.5c2.3-0.4,4.6-0.8,6.8-1.4
			c1.1-0.3,2.3-0.6,3.4-1c0.6-0.2,1.1-0.4,1.7-0.6c0.6-0.2,1.1-0.5,1.6-0.8c-0.5,0.3-1.1,0.5-1.6,0.7c-0.6,0.2-1.1,0.3-1.7,0.5
			c-1.1,0.3-2.3,0.5-3.4,0.7c-2.3,0.4-4.6,0.7-6.9,1c-1.1,0.1-2.3,0.2-3.4,0.2c-0.6,0-1.1,0-1.7,0c-0.6,0-1.1,0-1.6-0.2h-0.2h-0.1
			l0,0h-0.1l0,0c0,0,0,0-0.1-0.1c0,0,0,0,0-0.1s0-0.2,0-0.3c0.1-0.5,0.5-1.1,0.8-1.6c0.4-0.5,0.7-1,1.1-1.5c0.4-0.5,0.8-0.9,1.2-1.3
			l23.4-9.9c0.6,4.2,0.4,18.8-0.4,30.4c-3.8,0.6-7.6-0.4-11.6,0H55.2c-8.3-0.6-14.7,0.2-17.7-0.1C36.7,90,36.4,75.4,37,71.2
			l23.4,9.9c0.4,0.4,0.8,0.9,1.2,1.3c0.4,0.5,0.8,1,1.1,1.5c0.3,0.5,0.7,1.1,0.8,1.6c0,0.1,0,0.2,0,0.3c0,0.1,0,0.1,0,0.1
			s0,0-0.1,0.1l0,0h-0.1l0,0h-0.1H63c-0.5,0.1-1.1,0.1-1.6,0.2c-0.6,0-1.1,0-1.7,0c-1.1,0-2.3-0.1-3.4-0.2c-2.3-0.2-4.6-0.5-6.9-1
			c-1.1-0.2-2.3-0.5-3.4-0.7c-0.6-0.1-1.1-0.3-1.7-0.5s-1.1-0.4-1.6-0.7c0.5,0.3,1.1,0.6,1.6,0.8c0.6,0.2,1.1,0.4,1.7,0.6
			c1.1,0.4,2.2,0.7,3.4,1c2.3,0.6,4.5,1,6.8,1.4c1.1,0.2,2.3,0.3,3.5,0.5c0.6,0.1,1.2,0.1,1.7,0.1c0.6,0,1.2,0,1.8-0.1
			c0.2,0,0.3,0,0.5-0.1l0.1-0.1c0.1,0,0.1-0.1,0.2-0.1c0.1-0.1,0.2-0.2,0.3-0.3c0.2-0.2,0.3-0.6,0.3-0.9s0-0.6,0-0.8
			c-0.2-0.9-0.6-1.6-0.9-2.2c-0.4-0.6-0.8-1.2-1.2-1.7c-0.4-0.6-0.8-1.1-1.3-1.6c0-0.1-0.1-0.1-0.2-0.1l0,0L38.6,68.4
			c2.4-2.7,6.5-6.5,8.2-8c0.1-0.1,0.3-0.3,0.4-0.5c5.8-0.3,29.4-1.3,43.8-1.3c14.4,0,38,1.1,43.8,1.3c0.1,0.2,0.2,0.3,0.4,0.5
			C136.9,61.9,141,65.7,143.4,68.4z"/>
		<path class="st3" d="M147.3,51.2c-0.6-1-1.4-1.6-2.4-1.7c-0.9-0.1-1.9-0.2-3-0.2c-2.9,0-5.6,0.4-5.7,0.4c-0.2,0-0.4,0.2-0.6,0.4
			c-0.1,0.2-0.2,0.5-0.2,0.8c0.3,2.2,0.3,5.5-0.3,7c-1-2.1-3.1-6.4-5.4-10.9c-6.7-12.7-8.3-13.2-9.1-13.5c-2.8-0.8-22.3-2-28.1-2.3
			V31l-1.4,0.1L89.7,31v0.2c-5.8,0.3-25.3,1.4-28.1,2.3c-0.8,0.2-2.5,0.8-9.1,13.5c-2.3,4.4-4.4,8.8-5.4,10.9
			c-0.6-1.5-0.6-4.8-0.3-7c0-0.3,0-0.6-0.2-0.8c-0.1-0.2-0.4-0.4-0.6-0.4c-0.1,0-2.8-0.4-5.7-0.4c-1.1,0-2.1,0.1-3,0.2
			c-1,0.1-1.8,0.7-2.4,1.7c-1.5,2.6-0.9,7.1-0.8,7.6c0.1,0.4,0.3,0.7,0.5,0.8l7.3,3.7c-1.9,1.9-3.9,3.9-4.8,5.3
			c-0.6,0.9-1.6,2.5-1.1,18.1c0.2,7.4,0.7,14.6,0.7,14.6l0.1,1.3l2.7,0.3c7.8-0.9,31.3-0.2,57.8-0.2c15.3,0,30.1,0.7,45.6,0.3
			l2.4,0.3l0.1-1.9c0-0.1,0.5-7.2,0.7-14.6c0.5-15.7-0.5-17.3-1.1-18.1c-0.9-1.4-2.9-3.5-4.8-5.3l7.3-3.7c0.3-0.1,0.5-0.5,0.5-0.8
			C148.2,58.3,148.8,53.8,147.3,51.2z M61.4,35.4c2.3-0.7,18.9-1.8,29.6-2.4c10.7,0.6,27.3,1.7,29.6,2.4c1.7,1,7.6,12.4,12.6,23.3
			c-7.1-0.3-27.8-1.3-41.3-1.3l0,0H91h-0.9l0,0c-13.5,0-34.2,1-41.3,1.3C53.8,47.9,59.7,36.4,61.4,35.4z M34.6,58.8
			c-0.1-1.6-0.4-5.7,0.9-7.5c0.4-0.5,0.7-0.9,1.3-0.9c0.8-0.1,1.8-0.2,2.9-0.2c1.9,0,5,0.2,6.1,0.3c-0.2,2.3-0.5,5.6,0.5,8.2
			c-0.6,0.6-3.1,3.1-4,4.1L34.6,58.8z M143.3,68.5l-22.4,11.1l0,0c-0.1,0-0.1,0.1-0.2,0.1c-0.5,0.5-0.9,1-1.3,1.6
			c-0.4,0.6-0.8,1.1-1.2,1.7s-0.7,1.3-0.9,2.2c0,0.2-0.1,0.5,0,0.8c0,0.3,0.2,0.7,0.3,0.9c0.1,0.1,0.2,0.2,0.3,0.3
			c0.1,0,0.1,0.1,0.2,0.1l0.1,0.1c0.2,0.1,0.4,0.1,0.5,0.1c0.6,0.1,1.2,0.1,1.8,0.1s1.2-0.1,1.7-0.1c1.2-0.1,2.3-0.3,3.5-0.5
			c2.3-0.4,4.6-0.8,6.8-1.4c1.1-0.3,2.3-0.6,3.4-1c0.6-0.2,1.1-0.4,1.7-0.6c0.6-0.2,1.1-0.5,1.6-0.8c-0.5,0.3-1.1,0.5-1.6,0.7
			c-0.6,0.2-1.1,0.3-1.7,0.5c-1.1,0.3-2.3,0.5-3.4,0.7c-2.3,0.4-4.6,0.7-6.9,1c-1.1,0.1-2.3,0.2-3.4,0.2c-0.6,0-1.1,0-1.7,0
			c-0.6,0-1.1,0-1.6-0.2h-0.2h-0.1l0,0h-0.1l0,0c0,0,0,0-0.1-0.1c0,0,0,0,0-0.1s0-0.2,0-0.3c0.1-0.5,0.5-1.1,0.8-1.6
			c0.4-0.5,0.7-1,1.1-1.5c0.4-0.5,0.8-0.9,1.2-1.3l23.4-9.9c0.6,4.2,0.4,18.5-0.4,30c-3.8,0.6-7.6-0.4-11.6,0H55.1
			c-8.3-0.6-14.5,0.3-17.6-0.1c-0.8-11.5-1.2-25.8-0.6-29.9l23.4,9.9c0.4,0.4,0.8,0.9,1.2,1.3c0.4,0.5,0.8,1,1.1,1.5
			c0.3,0.5,0.7,1.1,0.8,1.6c0,0.1,0,0.2,0,0.3c0,0.1,0,0.1,0,0.1s0,0-0.1,0.1l0,0h-0.1l0,0h-0.1h-0.2c-0.5,0.1-1.1,0.1-1.6,0.2
			c-0.6,0-1.1,0-1.7,0c-1.1,0-2.3-0.1-3.4-0.2c-2.3-0.2-4.6-0.5-6.9-1c-1.1-0.2-2.3-0.5-3.4-0.7c-0.6-0.1-1.1-0.3-1.7-0.5
			s-1.1-0.4-1.6-0.7c0.5,0.3,1.1,0.6,1.6,0.8c0.6,0.2,1.1,0.4,1.7,0.6c1.1,0.4,2.2,0.7,3.4,1c2.3,0.6,4.5,1,6.8,1.4
			c1.1,0.2,2.3,0.3,3.5,0.5c0.6,0.1,1.2,0.1,1.7,0.1c0.6,0,1.2,0,1.8-0.1c0.2,0,0.3,0,0.5-0.1l0.1-0.1c0.1,0,0.1-0.1,0.2-0.1
			c0.1-0.1,0.2-0.2,0.3-0.3c0.2-0.2,0.3-0.6,0.3-0.9s0-0.6,0-0.8c-0.2-0.9-0.6-1.6-0.9-2.2c-0.4-0.6-0.8-1.2-1.2-1.7
			c-0.4-0.6-0.8-1.1-1.3-1.6c0-0.1-0.1-0.1-0.2-0.1l0,0L38.5,68.5c2.4-2.7,6.5-6.5,8.2-8c0.1-0.1,0.3-0.3,0.4-0.5
			c5.8-0.3,29.4-1.3,43.8-1.3s38,1.1,43.8,1.3c0.1,0.2,0.2,0.3,0.4,0.5C136.8,62.1,140.9,65.8,143.3,68.5z M139.6,62.7
			c-0.9-1-3.4-3.4-4-4.1c1-2.6,0.7-5.9,0.5-8.2c1.1-0.1,4.2-0.3,6.1-0.3c1.1,0,2.1,0.1,2.9,0.2c0.5,0.1,0.9,0.4,1.3,0.9
			c1.3,1.8,1.1,5.9,0.9,7.5L139.6,62.7z"/>
		<g>
			<path class="st4" d="M144.9,70.9c-0.8-0.4-21.3,8.2-24.1,10.2c0,0-3.7,5.3-2.5,5.5c6.4,0.7,18.8-1.7,20.7-3.2s5.1-6.2,6.1-8.9
				C145.1,74.4,145,71,144.9,70.9z"/>
			<path class="st3" d="M121.1,87c-1,0-1.9,0-2.8-0.1c-0.2,0-0.4-0.1-0.4-0.3c-0.4-0.9,2-4.5,2.7-5.6l0.1-0.1
				c1.5-1.1,7.8-3.9,12.8-6.1c3.3-1.4,10.9-4.5,11.5-4.2l0,0c0.2,0.1,0.2,0.1,0.3,2c0.1,1.8,0.1,1.9,0.1,1.9c-0.9,2.7-4.2,7.4-6.2,9
				C137.5,85,127.8,87,121.1,87z M121,81.3c-1.6,2.3-2.8,4.6-2.6,5c6.2,0.7,18.6-1.6,20.5-3.1s5.1-6.2,6-8.7c0-0.3-0.1-2.6-0.2-3.3
				C142.5,71.6,123.8,79.3,121,81.3z M144.8,71.2L144.8,71.2L144.8,71.2z"/>
		</g>
		<g>
			<path class="st3" d="M91,89.6c-0.2,0-20.8-0.6-22.5-0.7c-1.5-0.1-2.2-1.6-3.1-3.6c-0.4-0.8-0.8-1.6-1.3-2.5
				c-1.6-2.7-4-2.8-4.2-2.8v-0.7c0.1,0,3,0,4.8,3.1c0.5,0.9,1,1.8,1.3,2.6c0.9,1.8,1.5,3.1,2.5,3.1c1.7,0.1,22.3,0.7,22.5,0.7h0.3
				c0.2,0,20.4-0.6,22.1-0.7c1-0.1,1.6-1.4,2.5-3.1c0.4-0.8,0.8-1.7,1.3-2.6c1.8-3.1,4.7-3.1,4.8-3.1V80v-0.4V80
				c-0.1,0-2.5,0-4.2,2.8c-0.5,0.9-0.9,1.7-1.3,2.5c-0.9,1.9-1.7,3.5-3.1,3.6c-1.7,0.1-22,0.7-22.2,0.7H91z"/>
		</g>
		<g>
			<path class="st4" d="M36.9,70.8C37.7,70.4,58.2,79,61,81c0,0,3.7,5.3,2.5,5.5c-6.4,0.7-18.8-1.7-20.7-3.2
				c-1.9-1.5-5.1-6.2-6.1-8.9C36.6,74.4,36.8,70.9,36.9,70.8z"/>
			<path class="st3" d="M60.7,86.9c-6.7,0-16.4-2-18.1-3.4c-2-1.6-5.2-6.3-6.2-9c0,0,0-0.1,0.1-1.9c0.1-1.9,0.1-1.9,0.3-2l0,0
				c0.7-0.3,8.3,2.8,11.5,4.2c5,2.1,11.3,5,12.8,6.1l0.1,0.1c0.7,1.1,3.1,4.6,2.7,5.6c-0.1,0.2-0.2,0.3-0.4,0.3
				C62.6,86.9,61.7,86.9,60.7,86.9z M36.9,74.4c0.9,2.5,4.1,7.2,6,8.7s14.3,3.9,20.5,3.1c0.2-0.4-1-2.6-2.7-5
				c-2.8-2-21.4-9.8-23.7-10.2C37,71.8,36.9,74.1,36.9,74.4z M37,71.1L37,71.1L37,71.1z"/>
		</g>
		<g>
			<circle class="st1" cx="91" cy="85.7" r="3.5"/>
			<path class="st3" d="M91,89.5c-2.1,0-3.7-1.7-3.7-3.7c0-2.1,1.7-3.7,3.7-3.7c2.1,0,3.7,1.7,3.7,3.7S93.1,89.5,91,89.5z M91,82.4
				c-1.8,0-3.4,1.5-3.4,3.3s1.5,3.4,3.4,3.4c1.8,0,3.4-1.5,3.4-3.4S92.8,82.4,91,82.4z"/>
		</g>
	</g>
</g>
</svg>
