<?xml version="1.0" encoding="utf-8"?>
<!-- Generator: Adobe Illustrator 21.1.0, SVG Export Plug-In . SVG Version: 6.00 Build 0)  -->
<svg version="1.1" id="Capa_1" xmlns="http://www.w3.org/2000/svg" xmlns:xlink="http://www.w3.org/1999/xlink" x="0px" y="0px"
	 viewBox="0 0 182 152" style="enable-background:new 0 0 182 152;" xml:space="preserve">
<style type="text/css">
	.st0{fill:#9BB7D3;}
	.st1{fill:#0053A4;}
	.st2{fill:#0086CA;}
	.st3{fill:#E8F1F9;}
	.st4{fill:#0053A1;}
	.st5{clip-path:url(#SVGID_2_);fill:#0086C8;}
	.st6{clip-path:url(#SVGID_2_);fill:#0186C8;}
	.st7{clip-path:url(#SVGID_2_);fill:#0287C8;}
	.st8{clip-path:url(#SVGID_2_);fill:#0387C9;}
	.st9{clip-path:url(#SVGID_2_);fill:#0488C9;}
	.st10{clip-path:url(#SVGID_2_);fill:#0588C9;}
	.st11{clip-path:url(#SVGID_2_);fill:#0688C9;}
	.st12{clip-path:url(#SVGID_2_);fill:#0789C9;}
	.st13{clip-path:url(#SVGID_2_);fill:#0889CA;}
	.st14{clip-path:url(#SVGID_2_);fill:#098ACA;}
	.st15{clip-path:url(#SVGID_2_);fill:#0A8ACA;}
	.st16{clip-path:url(#SVGID_2_);fill:#0B8BCA;}
	.st17{clip-path:url(#SVGID_2_);fill:#0C8BCA;}
	.st18{clip-path:url(#SVGID_2_);fill:#0D8BCB;}
	.st19{clip-path:url(#SVGID_2_);fill:#0E8CCB;}
	.st20{clip-path:url(#SVGID_2_);fill:#0F8CCB;}
	.st21{clip-path:url(#SVGID_2_);fill:#108DCB;}
	.st22{clip-path:url(#SVGID_2_);fill:#118DCB;}
	.st23{clip-path:url(#SVGID_2_);fill:#128DCC;}
	.st24{clip-path:url(#SVGID_2_);fill:#138ECC;}
	.st25{clip-path:url(#SVGID_2_);fill:#148ECC;}
	.st26{clip-path:url(#SVGID_2_);fill:#158FCC;}
	.st27{clip-path:url(#SVGID_2_);fill:#168FCC;}
	.st28{clip-path:url(#SVGID_2_);fill:#178FCD;}
	.st29{clip-path:url(#SVGID_2_);fill:#1890CD;}
	.st30{clip-path:url(#SVGID_2_);fill:#1990CD;}
	.st31{clip-path:url(#SVGID_2_);fill:#1A91CD;}
	.st32{clip-path:url(#SVGID_2_);fill:#1B91CD;}
	.st33{clip-path:url(#SVGID_2_);fill:#1C92CE;}
	.st34{clip-path:url(#SVGID_2_);fill:#1D92CE;}
	.st35{clip-path:url(#SVGID_2_);fill:#1E92CE;}
	.st36{clip-path:url(#SVGID_2_);fill:#1F93CE;}
	.st37{clip-path:url(#SVGID_2_);fill:#2093CE;}
	.st38{clip-path:url(#SVGID_2_);fill:#2194CF;}
	.st39{clip-path:url(#SVGID_2_);fill:#2294CF;}
	.st40{clip-path:url(#SVGID_2_);fill:#2394CF;}
	.st41{clip-path:url(#SVGID_2_);fill:#2495CF;}
	.st42{clip-path:url(#SVGID_2_);fill:#2595CF;}
	.st43{clip-path:url(#SVGID_2_);fill:#2696D0;}
	.st44{clip-path:url(#SVGID_2_);fill:#2796D0;}
	.st45{clip-path:url(#SVGID_2_);fill:#2896D0;}
	.st46{clip-path:url(#SVGID_2_);fill:#2997D0;}
	.st47{clip-path:url(#SVGID_2_);fill:#2A97D0;}
	.st48{clip-path:url(#SVGID_2_);fill:#2B98D1;}
	.st49{clip-path:url(#SVGID_2_);fill:#2C98D1;}
	.st50{clip-path:url(#SVGID_2_);fill:#2D98D1;}
	.st51{clip-path:url(#SVGID_2_);fill:#2E99D1;}
	.st52{clip-path:url(#SVGID_2_);fill:#2F99D1;}
	.st53{clip-path:url(#SVGID_2_);fill:#309AD2;}
	.st54{clip-path:url(#SVGID_2_);fill:#319AD2;}
	.st55{clip-path:url(#SVGID_2_);fill:#329BD2;}
	.st56{clip-path:url(#SVGID_2_);fill:#339BD2;}
	.st57{clip-path:url(#SVGID_2_);fill:#349BD2;}
	.st58{clip-path:url(#SVGID_2_);fill:#359CD3;}
	.st59{clip-path:url(#SVGID_2_);fill:#369CD3;}
	.st60{clip-path:url(#SVGID_2_);fill:#379DD3;}
	.st61{clip-path:url(#SVGID_2_);fill:#389DD3;}
	.st62{clip-path:url(#SVGID_2_);fill:#399DD3;}
	.st63{clip-path:url(#SVGID_2_);fill:#3A9ED4;}
	.st64{clip-path:url(#SVGID_2_);fill:#3B9ED4;}
	.st65{clip-path:url(#SVGID_2_);fill:#3C9FD4;}
	.st66{clip-path:url(#SVGID_2_);fill:#3D9FD4;}
	.st67{clip-path:url(#SVGID_2_);fill:#3E9FD4;}
	.st68{clip-path:url(#SVGID_2_);fill:#3FA0D5;}
	.st69{clip-path:url(#SVGID_2_);fill:#40A0D5;}
	.st70{clip-path:url(#SVGID_2_);fill:#41A1D5;}
	.st71{clip-path:url(#SVGID_2_);fill:#42A1D5;}
	.st72{clip-path:url(#SVGID_2_);fill:#43A2D5;}
	.st73{clip-path:url(#SVGID_2_);fill:#44A2D6;}
	.st74{clip-path:url(#SVGID_2_);fill:#45A2D6;}
	.st75{clip-path:url(#SVGID_2_);fill:#46A3D6;}
	.st76{clip-path:url(#SVGID_2_);fill:#47A3D6;}
	.st77{clip-path:url(#SVGID_2_);fill:#48A4D6;}
	.st78{clip-path:url(#SVGID_2_);fill:#49A4D7;}
	.st79{clip-path:url(#SVGID_2_);fill:#4AA4D7;}
	.st80{clip-path:url(#SVGID_2_);fill:#4BA5D7;}
	.st81{clip-path:url(#SVGID_2_);fill:#4CA5D7;}
	.st82{clip-path:url(#SVGID_2_);fill:#4DA6D7;}
	.st83{clip-path:url(#SVGID_2_);fill:#4EA6D8;}
	.st84{clip-path:url(#SVGID_2_);fill:#4FA6D8;}
	.st85{clip-path:url(#SVGID_2_);fill:#50A7D8;}
	.st86{clip-path:url(#SVGID_2_);fill:#51A7D8;}
	.st87{clip-path:url(#SVGID_2_);fill:#52A8D8;}
	.st88{clip-path:url(#SVGID_2_);fill:#53A8D9;}
	.st89{clip-path:url(#SVGID_2_);fill:#54A9D9;}
	.st90{clip-path:url(#SVGID_2_);fill:#55A9D9;}
	.st91{clip-path:url(#SVGID_2_);fill:#56A9D9;}
	.st92{clip-path:url(#SVGID_2_);fill:#57AAD9;}
	.st93{clip-path:url(#SVGID_2_);fill:#58AADA;}
	.st94{clip-path:url(#SVGID_2_);fill:#59ABDA;}
	.st95{clip-path:url(#SVGID_2_);fill:#5AABDA;}
	.st96{clip-path:url(#SVGID_2_);fill:#5BABDA;}
	.st97{clip-path:url(#SVGID_2_);fill:#5CACDA;}
	.st98{clip-path:url(#SVGID_2_);fill:#5EACDB;}
	.st99{clip-path:url(#SVGID_2_);fill:#5FADDB;}
	.st100{clip-path:url(#SVGID_2_);fill:#60ADDB;}
	.st101{clip-path:url(#SVGID_2_);fill:#61ADDB;}
	.st102{clip-path:url(#SVGID_2_);fill:#62AEDB;}
	.st103{clip-path:url(#SVGID_2_);fill:#63AEDC;}
	.st104{clip-path:url(#SVGID_2_);fill:#64AFDC;}
	.st105{clip-path:url(#SVGID_2_);fill:#65AFDC;}
	.st106{clip-path:url(#SVGID_2_);fill:#66AFDC;}
	.st107{clip-path:url(#SVGID_2_);fill:#67B0DC;}
	.st108{clip-path:url(#SVGID_2_);fill:#68B0DD;}
	.st109{clip-path:url(#SVGID_2_);fill:#69B1DD;}
	.st110{clip-path:url(#SVGID_2_);fill:#6AB1DD;}
	.st111{clip-path:url(#SVGID_2_);fill:#6BB2DD;}
	.st112{clip-path:url(#SVGID_2_);fill:#6CB2DD;}
	.st113{clip-path:url(#SVGID_2_);fill:#6DB2DE;}
	.st114{clip-path:url(#SVGID_2_);fill:#6EB3DE;}
	.st115{clip-path:url(#SVGID_2_);fill:#6FB3DE;}
	.st116{clip-path:url(#SVGID_2_);fill:#70B4DE;}
	.st117{clip-path:url(#SVGID_2_);fill:#71B4DE;}
	.st118{clip-path:url(#SVGID_2_);fill:#72B4DF;}
	.st119{clip-path:url(#SVGID_2_);fill:#73B5DF;}
	.st120{clip-path:url(#SVGID_2_);fill:#74B5DF;}
	.st121{clip-path:url(#SVGID_2_);fill:#75B6DF;}
	.st122{clip-path:url(#SVGID_2_);fill:#76B6DF;}
	.st123{clip-path:url(#SVGID_2_);fill:#77B6E0;}
	.st124{clip-path:url(#SVGID_2_);fill:#78B7E0;}
	.st125{clip-path:url(#SVGID_2_);fill:#79B7E0;}
	.st126{clip-path:url(#SVGID_2_);fill:#7AB8E0;}
	.st127{clip-path:url(#SVGID_2_);fill:#7BB8E0;}
	.st128{clip-path:url(#SVGID_2_);fill:#7CB9E1;}
	.st129{clip-path:url(#SVGID_2_);fill:#7DB9E1;}
	.st130{clip-path:url(#SVGID_2_);fill:#7EB9E1;}
	.st131{clip-path:url(#SVGID_2_);fill:#7FBAE1;}
	.st132{clip-path:url(#SVGID_2_);fill:#80BAE1;}
	.st133{clip-path:url(#SVGID_2_);fill:#81BBE2;}
	.st134{clip-path:url(#SVGID_2_);fill:#82BBE2;}
	.st135{clip-path:url(#SVGID_2_);fill:#83BBE2;}
	.st136{clip-path:url(#SVGID_2_);fill:#84BCE2;}
	.st137{clip-path:url(#SVGID_2_);fill:#85BCE2;}
	.st138{clip-path:url(#SVGID_2_);fill:#86BDE3;}
	.st139{clip-path:url(#SVGID_2_);fill:#87BDE3;}
	.st140{clip-path:url(#SVGID_2_);fill:#88BDE3;}
	.st141{clip-path:url(#SVGID_2_);fill:#89BEE3;}
	.st142{clip-path:url(#SVGID_2_);fill:#8ABEE3;}
	.st143{clip-path:url(#SVGID_2_);fill:#8BBFE4;}
	.st144{clip-path:url(#SVGID_2_);fill:#8CBFE4;}
	.st145{clip-path:url(#SVGID_2_);fill:#8DC0E4;}
	.st146{clip-path:url(#SVGID_2_);fill:#8EC0E4;}
	.st147{clip-path:url(#SVGID_2_);fill:#8FC0E4;}
	.st148{clip-path:url(#SVGID_2_);fill:#90C1E5;}
	.st149{clip-path:url(#SVGID_2_);fill:#91C1E5;}
	.st150{clip-path:url(#SVGID_2_);fill:#92C2E5;}
	.st151{clip-path:url(#SVGID_2_);fill:#93C2E5;}
	.st152{clip-path:url(#SVGID_2_);fill:#94C2E5;}
	.st153{clip-path:url(#SVGID_2_);fill:#95C3E6;}
	.st154{clip-path:url(#SVGID_2_);fill:#96C3E6;}
	.st155{clip-path:url(#SVGID_2_);fill:#97C4E6;}
	.st156{clip-path:url(#SVGID_2_);fill:#98C4E6;}
	.st157{clip-path:url(#SVGID_2_);fill:#99C4E6;}
	.st158{clip-path:url(#SVGID_2_);fill:#9AC5E7;}
	.st159{clip-path:url(#SVGID_2_);fill:#9BC5E7;}
	.st160{clip-path:url(#SVGID_2_);fill:#9CC6E7;}
	.st161{clip-path:url(#SVGID_2_);fill:#9DC6E7;}
	.st162{clip-path:url(#SVGID_2_);fill:#9EC6E7;}
	.st163{clip-path:url(#SVGID_2_);fill:#9FC7E8;}
	.st164{clip-path:url(#SVGID_2_);fill:#A0C7E8;}
	.st165{clip-path:url(#SVGID_2_);fill:#A1C8E8;}
	.st166{clip-path:url(#SVGID_2_);fill:#A2C8E8;}
	.st167{clip-path:url(#SVGID_2_);fill:#A3C9E8;}
	.st168{clip-path:url(#SVGID_2_);fill:#A4C9E9;}
	.st169{clip-path:url(#SVGID_2_);fill:#A5C9E9;}
	.st170{clip-path:url(#SVGID_2_);fill:#A6CAE9;}
	.st171{clip-path:url(#SVGID_2_);fill:#A7CAE9;}
	.st172{clip-path:url(#SVGID_2_);fill:#A8CBE9;}
	.st173{clip-path:url(#SVGID_2_);fill:#A9CBEA;}
	.st174{clip-path:url(#SVGID_2_);fill:#AACBEA;}
	.st175{clip-path:url(#SVGID_2_);fill:#ABCCEA;}
	.st176{clip-path:url(#SVGID_2_);fill:#ACCCEA;}
	.st177{clip-path:url(#SVGID_2_);fill:#ADCDEA;}
	.st178{clip-path:url(#SVGID_2_);fill:#AECDEB;}
	.st179{clip-path:url(#SVGID_2_);fill:#AFCDEB;}
	.st180{clip-path:url(#SVGID_2_);fill:#B0CEEB;}
	.st181{clip-path:url(#SVGID_2_);fill:#B1CEEB;}
	.st182{clip-path:url(#SVGID_2_);fill:#B2CFEB;}
	.st183{clip-path:url(#SVGID_2_);fill:#B3CFEC;}
	.st184{clip-path:url(#SVGID_2_);fill:#B4D0EC;}
	.st185{clip-path:url(#SVGID_2_);fill:#B5D0EC;}
	.st186{clip-path:url(#SVGID_2_);fill:#B6D0EC;}
	.st187{clip-path:url(#SVGID_2_);fill:#B7D1EC;}
	.st188{clip-path:url(#SVGID_2_);fill:#B8D1ED;}
	.st189{clip-path:url(#SVGID_2_);fill:#B9D2ED;}
	.st190{clip-path:url(#SVGID_2_);fill:#BAD2ED;}
	.st191{fill:#F8F5D9;}
	.st192{fill:#FFFFFF;}
</style>
<g>
	<g>
		<g>
			<g>
				<g>
					<path class="st0" d="M30.2,63.3c0,0,2.4,0.1,8.5-2.3c6.2-2.4,7.4-4,7.6-6.7c0.2-2.7-9.9-4.7-15.3-3.6L30.2,63.3z"/>
				</g>
				<g>
					<path class="st1" d="M31.7,50.7c-2.5-0.3-4.9,2.3-5.3,5.8c-0.4,3.5,1.2,6.6,3.7,6.9c2.5,0.3,4.9-2.3,5.3-5.8
						C35.9,54.1,34.2,51,31.7,50.7z M34.4,57.4c-0.3,2.7-2.2,4.7-4.1,4.5c-1.9-0.2-3.2-2.6-2.9-5.4c0.3-2.7,2.2-4.7,4.1-4.5
						C33.5,52.3,34.8,54.7,34.4,57.4z"/>
				</g>
				<g>
					
						<ellipse transform="matrix(0.1256 -0.9921 0.9921 0.1256 -29.4993 80.4967)" class="st0" cx="30.9" cy="57" rx="4.9" ry="3.5"/>
				</g>
				<g>
					<path class="st2" d="M35.5,50.9c-0.2,0.5-0.9,0.6-1.5,0.4c-0.7-0.3-1.1-0.9-0.9-1.3l0.5-1.3c0.2-0.5,0.9-0.6,1.5-0.4
						c0.7,0.3,1.1,0.9,0.9,1.3L35.5,50.9z"/>
				</g>
			</g>
			<g>
				<g>
					<path class="st0" d="M41.7,76.2c0,0,2.4,0.1,8.5-2.3c6.2-2.4,7.4-4,7.7-6.7c0.2-2.7-9.9-4.7-15.3-3.6L41.7,76.2z"/>
				</g>
				<g>
					<path class="st1" d="M43.2,63.6c-2.5-0.3-4.9,2.3-5.3,5.8c-0.4,3.5,1.2,6.6,3.7,6.9c2.5,0.3,4.9-2.3,5.3-5.8
						C47.4,67,45.7,63.9,43.2,63.6z M45.9,70.4c-0.3,2.7-2.2,4.7-4.1,4.5c-1.9-0.2-3.2-2.6-2.9-5.4c0.3-2.7,2.2-4.7,4.1-4.5
						C45,65.3,46.3,67.7,45.9,70.4z"/>
				</g>
				<g>
					
						<ellipse transform="matrix(0.1254 -0.9921 0.9921 0.1254 -32.2849 103.2648)" class="st0" cx="42.4" cy="69.9" rx="4.9" ry="3.5"/>
				</g>
				<g>
					<path class="st2" d="M47,63.9c-0.2,0.5-0.9,0.6-1.5,0.4c-0.7-0.3-1.1-0.9-0.9-1.3l0.5-1.3c0.2-0.5,0.9-0.6,1.5-0.4
						c0.7,0.3,1.1,0.9,0.9,1.3L47,63.9z"/>
				</g>
			</g>
			<g>
				<path class="st3" d="M130.5,51.5c0,0-8.2-3.7-12.1-2.9c-4,0.8,1.7,4.7,1.7,4.7S129.5,53.7,130.5,51.5z"/>
				<path class="st4" d="M121.9,54c-0.8,0-1.4,0-1.9,0l-0.2,0l-0.2-0.1c-0.9-0.6-3.7-2.7-3.4-4.4c0.2-0.7,0.8-1.2,1.9-1.4
					c4.1-0.8,12.2,2.8,12.5,2.9l0.6,0.3l-0.2,0.6C130.2,53.7,125.1,54,121.9,54z M120.3,52.7c3.6,0.1,7.7-0.2,9.1-1
					c-2.2-0.9-7.9-3.1-10.9-2.5c-0.6,0.1-0.9,0.3-0.9,0.4C117.4,50.2,118.9,51.7,120.3,52.7z"/>
			</g>
			<g>
				<g>
					<defs>
						<path id="SVGID_1_" d="M46.7,68.9c0,0-0.3,1.2-1.3,1.5c-1,0.4,0.4,1.4,1.4,0C47.7,69.1,47,67.9,46.7,68.9z"/>
					</defs>
					<clipPath id="SVGID_2_">
						<use xlink:href="#SVGID_1_"  style="overflow:visible;"/>
					</clipPath>
					<rect x="44.4" y="67.9" class="st5" width="3.4" height="4"/>
					<path class="st5" d="M49,66.6h-5.4h-0.5l-5.8-0.2c0,3.4,2.8,6.2,6.2,6.2c3.4,0,6.2-2.8,6.2-6.2L49,66.6z"/>
					<path class="st6" d="M49,66.6h-5.4h-0.5l-5.7-0.2c0,3.4,2.8,6.2,6.2,6.2c3.4,0,6.2-2.8,6.2-6.2L49,66.6z"/>
					<path class="st7" d="M49,66.6h-5.4h-0.5l-5.7-0.2c0,3.4,2.8,6.1,6.1,6.1c3.4,0,6.1-2.8,6.1-6.1L49,66.6z"/>
					<path class="st8" d="M49,66.6h-5.4h-0.5l-5.7-0.2c0,3.4,2.7,6.1,6.1,6.1c3.4,0,6.1-2.7,6.1-6.1L49,66.6z"/>
					<path class="st9" d="M49,66.6h-5.4h-0.5l-5.6-0.2c0,3.4,2.7,6.1,6.1,6.1c3.4,0,6.1-2.7,6.1-6.1L49,66.6z"/>
					<path class="st10" d="M49,66.6h-5.4h-0.5l-5.6-0.2c0,3.3,2.7,6,6,6c3.3,0,6-2.7,6-6L49,66.6z"/>
					<path class="st11" d="M49,66.6h-5.4h-0.5l-5.6-0.2c0,3.3,2.7,6,6,6c3.3,0,6-2.7,6-6L49,66.6z"/>
					<path class="st12" d="M49,66.6h-5.4h-0.5l-5.5-0.2c0,3.3,2.7,6,6,6c3.3,0,6-2.7,6-6L49,66.6z"/>
					<path class="st13" d="M49,66.6h-5.4h-0.5l-5.5-0.2c0,3.3,2.7,5.9,5.9,5.9c3.3,0,5.9-2.7,5.9-5.9L49,66.6z"/>
					<path class="st14" d="M49,66.6h-5.4h-0.5l-5.5-0.2c0,3.3,2.6,5.9,5.9,5.9c3.3,0,5.9-2.6,5.9-5.9L49,66.6z"/>
					<path class="st15" d="M49,66.6h-5.4h-0.5l-5.4-0.2c0,3.2,2.6,5.9,5.9,5.9c3.2,0,5.9-2.6,5.9-5.9L49,66.6z"/>
					<path class="st16" d="M49,66.6h-5.4h-0.5l-5.4-0.2c0,3.2,2.6,5.8,5.8,5.8c3.2,0,5.8-2.6,5.8-5.8L49,66.6z"/>
					<path class="st17" d="M49,66.6h-5.4h-0.5l-5.4-0.2c0,3.2,2.6,5.8,5.8,5.8c3.2,0,5.8-2.6,5.8-5.8L49,66.6z"/>
					<path class="st18" d="M49,66.6h-5.4h-0.5l-5.3-0.2c0,3.2,2.6,5.8,5.8,5.8c3.2,0,5.8-2.6,5.8-5.8L49,66.6z"/>
					<path class="st19" d="M49,66.6h-5.4h-0.5l-5.3-0.2c0,3.2,2.6,5.7,5.7,5.7c3.2,0,5.7-2.6,5.7-5.7L49,66.6z"/>
					<path class="st20" d="M49,66.6h-5.4h-0.5l-5.3-0.2c0,3.2,2.6,5.7,5.7,5.7c3.2,0,5.7-2.6,5.7-5.7L49,66.6z"/>
					<path class="st21" d="M49,66.6h-5.4h-0.5l-5.2-0.2c0,3.1,2.5,5.7,5.7,5.7c3.1,0,5.7-2.5,5.7-5.7L49,66.6z"/>
					<path class="st22" d="M49,66.6h-5.4h-0.5l-5.2-0.2c0,3.1,2.5,5.6,5.6,5.6c3.1,0,5.6-2.5,5.6-5.6L49,66.6z"/>
					<path class="st23" d="M49,66.6h-5.4h-0.5l-5.2-0.2c0,3.1,2.5,5.6,5.6,5.6c3.1,0,5.6-2.5,5.6-5.6L49,66.6z"/>
					<path class="st24" d="M49,66.6h-5.4h-0.5L38,66.4c0,3.1,2.5,5.6,5.6,5.6c3.1,0,5.6-2.5,5.6-5.6L49,66.6z"/>
					<path class="st25" d="M49,66.6h-5.4h-0.5L38,66.4c0,3.1,2.5,5.5,5.5,5.5c3.1,0,5.5-2.5,5.5-5.5L49,66.6z"/>
					<path class="st26" d="M49,66.6h-5.4h-0.5L38,66.4c0,3,2.5,5.5,5.5,5.5c3,0,5.5-2.5,5.5-5.5L49,66.6z"/>
					<path class="st27" d="M49,66.6h-5.4h-0.5l-5-0.2c0,3,2.5,5.5,5.5,5.5c3,0,5.5-2.5,5.5-5.5L49,66.6z"/>
					<path class="st28" d="M49,66.6h-5.4h-0.5l-5-0.2c0,3,2.4,5.4,5.4,5.4c3,0,5.4-2.4,5.4-5.4L49,66.6z"/>
					<path class="st29" d="M49,66.6h-5.4h-0.5l-5-0.2c0,3,2.4,5.4,5.4,5.4c3,0,5.4-2.4,5.4-5.4V66.6z"/>
					<path class="st30" d="M48.9,66.6h-5.4h-0.5l-4.9-0.2c0,3,2.4,5.4,5.4,5.4c3,0,5.4-2.4,5.4-5.4V66.6z"/>
					<path class="st31" d="M48.9,66.6h-5.3h-0.5l-4.9-0.2c0,3,2.4,5.3,5.3,5.3c3,0,5.3-2.4,5.3-5.3V66.6z"/>
					<path class="st32" d="M48.9,66.6h-5.3h-0.5l-4.9-0.2c0,2.9,2.4,5.3,5.3,5.3c2.9,0,5.3-2.4,5.3-5.3V66.6z"/>
					<path class="st33" d="M48.8,66.6h-5.3h-0.5l-4.8-0.2c0,2.9,2.4,5.3,5.3,5.3c2.9,0,5.3-2.4,5.3-5.3V66.6z"/>
					<path class="st34" d="M48.8,66.6h-5.2h-0.5l-4.8-0.2c0,2.9,2.3,5.2,5.2,5.2c2.9,0,5.2-2.3,5.2-5.2V66.6z"/>
					<path class="st35" d="M48.8,66.6h-5.2h-0.5l-4.8-0.2c0,2.9,2.3,5.2,5.2,5.2c2.9,0,5.2-2.3,5.2-5.2V66.6z"/>
					<path class="st36" d="M48.7,66.6h-5.2h-0.5l-4.7-0.2c0,2.9,2.3,5.2,5.2,5.2c2.9,0,5.2-2.3,5.2-5.2V66.6z"/>
					<path class="st37" d="M48.7,66.6h-5.1h-0.5l-4.7-0.2c0,2.8,2.3,5.1,5.1,5.1c2.8,0,5.1-2.3,5.1-5.1V66.6z"/>
					<path class="st38" d="M48.7,66.6h-5.1h-0.5l-4.7-0.2c0,2.8,2.3,5.1,5.1,5.1c2.8,0,5.1-2.3,5.1-5.1V66.6z"/>
					<path class="st39" d="M48.6,66.6h-5.1h-0.5l-4.6-0.2c0,2.8,2.3,5.1,5.1,5.1c2.8,0,5.1-2.3,5.1-5.1V66.6z"/>
					<path class="st40" d="M48.6,66.6h-5h-0.5l-4.6-0.2c0,2.8,2.3,5,5,5c2.8,0,5-2.3,5-5V66.6z"/>
					<path class="st41" d="M48.6,66.6h-5h-0.5l-4.6-0.2c0,2.8,2.2,5,5,5c2.8,0,5-2.2,5-5V66.6z"/>
					<path class="st42" d="M48.5,66.6h-5h-0.5l-4.5-0.2c0,2.7,2.2,5,5,5c2.7,0,5-2.2,5-5V66.6z"/>
					<path class="st43" d="M48.5,66.6h-4.9h-0.5l-4.5-0.2c0,2.7,2.2,4.9,4.9,4.9c2.7,0,4.9-2.2,4.9-4.9V66.6z"/>
					<path class="st44" d="M48.5,66.6h-4.9h-0.5l-4.5-0.2c0,2.7,2.2,4.9,4.9,4.9c2.7,0,4.9-2.2,4.9-4.9V66.6z"/>
					<path class="st45" d="M48.4,66.6h-4.9h-0.5l-4.4-0.2c0,2.7,2.2,4.9,4.9,4.9c2.7,0,4.9-2.2,4.9-4.9V66.6z"/>
					<path class="st46" d="M48.4,66.6h-4.8h-0.5l-4.4-0.2c0,2.7,2.2,4.8,4.8,4.8c2.7,0,4.8-2.2,4.8-4.8V66.6z"/>
					<path class="st47" d="M48.4,66.6h-4.8h-0.5l-4.4-0.2c0,2.7,2.2,4.8,4.8,4.8c2.7,0,4.8-2.2,4.8-4.8V66.6z"/>
					<path class="st48" d="M48.3,66.6h-4.8h-0.5l-4.3-0.2c0,2.6,2.1,4.8,4.8,4.8c2.6,0,4.8-2.1,4.8-4.8V66.6z"/>
					<path class="st49" d="M48.3,66.6h-4.7h-0.5l-4.3-0.2c0,2.6,2.1,4.7,4.7,4.7c2.6,0,4.7-2.1,4.7-4.7V66.6z"/>
					<path class="st50" d="M48.3,66.6h-4.7h-0.5l-4.3-0.2c0,2.6,2.1,4.7,4.7,4.7c2.6,0,4.7-2.1,4.7-4.7V66.6z"/>
					<path class="st51" d="M48.2,66.6h-4.7h-0.5l-4.2-0.2c0,2.6,2.1,4.7,4.7,4.7c2.6,0,4.7-2.1,4.7-4.7V66.6z"/>
					<path class="st52" d="M48.2,66.6h-4.6h-0.5l-4.2-0.2c0,2.6,2.1,4.6,4.6,4.6c2.6,0,4.6-2.1,4.6-4.6V66.6z"/>
					<path class="st53" d="M48.2,66.6h-4.6h-0.5l-4.2-0.2c0,2.5,2.1,4.6,4.6,4.6c2.5,0,4.6-2.1,4.6-4.6V66.6z"/>
					<path class="st54" d="M48.1,66.6h-4.6h-0.5L39,66.4c0,2.5,2,4.6,4.6,4.6c2.5,0,4.6-2,4.6-4.6V66.6z"/>
					<path class="st55" d="M48.1,66.6h-4.5h-0.5L39,66.4c0,2.5,2,4.5,4.5,4.5c2.5,0,4.5-2,4.5-4.5V66.6z"/>
					<path class="st56" d="M48.1,66.6h-4.5h-0.5L39,66.4c0,2.5,2,4.5,4.5,4.5c2.5,0,4.5-2,4.5-4.5V66.6z"/>
					<path class="st57" d="M48,66.6h-4.5h-0.5l-4-0.2c0,2.5,2,4.5,4.5,4.5c2.5,0,4.5-2,4.5-4.5V66.6z"/>
					<path class="st58" d="M48,66.6h-4.4h-0.5l-4-0.2c0,2.5,2,4.4,4.4,4.4c2.5,0,4.4-2,4.4-4.4V66.6z"/>
					<path class="st59" d="M48,66.6h-4.4h-0.5l-4-0.2c0,2.4,2,4.4,4.4,4.4c2.4,0,4.4-2,4.4-4.4V66.6z"/>
					<path class="st60" d="M47.9,66.6h-4.4h-0.5l-3.9-0.2c0,2.4,2,4.4,4.4,4.4c2.4,0,4.4-2,4.4-4.4V66.6z"/>
					<path class="st61" d="M47.9,66.6h-4.3h-0.5l-3.9-0.2c0,2.4,1.9,4.3,4.3,4.3c2.4,0,4.3-1.9,4.3-4.3V66.6z"/>
					<path class="st62" d="M47.9,66.6h-4.3h-0.5l-3.9-0.2c0,2.4,1.9,4.3,4.3,4.3c2.4,0,4.3-1.9,4.3-4.3V66.6z"/>
					<path class="st63" d="M47.8,66.6h-4.3h-0.5l-3.8-0.2c0,2.4,1.9,4.3,4.3,4.3c2.4,0,4.3-1.9,4.3-4.3V66.6z"/>
					<path class="st64" d="M47.8,66.6h-4.2h-0.5l-3.8-0.2c0,2.3,1.9,4.2,4.2,4.2c2.3,0,4.2-1.9,4.2-4.2V66.6z"/>
					<path class="st65" d="M47.8,66.6h-4.2h-0.5l-3.8-0.2c0,2.3,1.9,4.2,4.2,4.2c2.3,0,4.2-1.9,4.2-4.2V66.6z"/>
					<path class="st66" d="M47.7,66.6h-4.2h-0.5l-3.7-0.2c0,2.3,1.9,4.2,4.2,4.2c2.3,0,4.2-1.9,4.2-4.2V66.6z"/>
					<path class="st67" d="M47.7,66.6h-4.1h-0.5l-3.7-0.2c0,2.3,1.9,4.1,4.1,4.1c2.3,0,4.1-1.9,4.1-4.1V66.6z"/>
					<path class="st68" d="M47.7,66.6h-4.1h-0.5l-3.7-0.2c0,2.3,1.8,4.1,4.1,4.1c2.3,0,4.1-1.8,4.1-4.1V66.6z"/>
					<path class="st69" d="M47.6,66.6h-4.1h-0.5l-3.6-0.2c0,2.3,1.8,4.1,4.1,4.1c2.3,0,4.1-1.8,4.1-4.1V66.6z"/>
					<path class="st70" d="M47.6,66.6h-4h-0.5l-3.6-0.2c0,2.2,1.8,4,4,4c2.2,0,4-1.8,4-4V66.6z"/>
					<path class="st71" d="M47.6,66.6h-4h-0.5l-3.6-0.2c0,2.2,1.8,4,4,4c2.2,0,4-1.8,4-4V66.6z"/>
					<path class="st72" d="M47.5,66.6h-4h-0.5l-3.5-0.2c0,2.2,1.8,4,4,4c2.2,0,4-1.8,4-4V66.6z"/>
					<path class="st73" d="M47.5,66.6h-3.9h-0.5l-3.5-0.2c0,2.2,1.8,3.9,3.9,3.9c2.2,0,3.9-1.8,3.9-3.9V66.6z"/>
					<path class="st74" d="M47.5,66.6h-3.9h-0.5l-3.5-0.2c0,2.2,1.7,3.9,3.9,3.9c2.2,0,3.9-1.7,3.9-3.9V66.6z"/>
					<path class="st75" d="M47.4,66.6h-3.9h-0.5l-3.4-0.2c0,2.1,1.7,3.9,3.9,3.9c2.1,0,3.9-1.7,3.9-3.9V66.6z"/>
					<path class="st76" d="M47.4,66.6h-3.8h-0.5l-3.4-0.2c0,2.1,1.7,3.8,3.8,3.8c2.1,0,3.8-1.7,3.8-3.8V66.6z"/>
					<path class="st77" d="M47.4,66.6h-3.8h-0.5l-3.4-0.2c0,2.1,1.7,3.8,3.8,3.8c2.1,0,3.8-1.7,3.8-3.8V66.6z"/>
					<path class="st78" d="M47.3,66.6h-3.8h-0.5l-3.3-0.2c0,2.1,1.7,3.8,3.8,3.8c2.1,0,3.8-1.7,3.8-3.8V66.6z"/>
					<path class="st79" d="M47.3,66.6h-3.7h-0.5l-3.3-0.2c0,2.1,1.7,3.7,3.7,3.7c2.1,0,3.7-1.7,3.7-3.7V66.6z"/>
					<path class="st80" d="M47.3,66.6h-3.7h-0.5l-3.3-0.2c0,2,1.7,3.7,3.7,3.7c2,0,3.7-1.7,3.7-3.7V66.6z"/>
					<path class="st81" d="M47.2,66.6h-3.7h-0.5l-3.2-0.2c0,2,1.6,3.7,3.7,3.7c2,0,3.7-1.6,3.7-3.7V66.6z"/>
					<path class="st82" d="M47.2,66.6h-3.6h-0.5l-3.2-0.2c0,2,1.6,3.6,3.6,3.6c2,0,3.6-1.6,3.6-3.6V66.6z"/>
					<path class="st83" d="M47.2,66.6h-3.6h-0.5l-3.2-0.2c0,2,1.6,3.6,3.6,3.6c2,0,3.6-1.6,3.6-3.6V66.6z"/>
					<path class="st84" d="M47.1,66.6h-3.6h-0.5L40,66.4c0,2,1.6,3.6,3.6,3.6c2,0,3.6-1.6,3.6-3.6V66.6z"/>
					<path class="st85" d="M47.1,66.6h-3.5h-0.5L40,66.4c0,2,1.6,3.5,3.5,3.5c2,0,3.5-1.6,3.5-3.5V66.6z"/>
					<path class="st86" d="M47.1,66.6h-3.5h-0.5L40,66.4c0,1.9,1.6,3.5,3.5,3.5c1.9,0,3.5-1.6,3.5-3.5V66.6z"/>
					<path class="st87" d="M47,66.6h-3.5h-0.5l-3-0.2c0,1.9,1.6,3.5,3.5,3.5c1.9,0,3.5-1.6,3.5-3.5V66.6z"/>
					<path class="st88" d="M47,66.6h-3.4h-0.5l-3-0.2c0,1.9,1.5,3.4,3.4,3.4c1.9,0,3.4-1.5,3.4-3.4V66.6z"/>
					<path class="st89" d="M47,66.6h-3.4h-0.5l-3-0.2c0,1.9,1.5,3.4,3.4,3.4c1.9,0,3.4-1.5,3.4-3.4V66.6z"/>
					<path class="st90" d="M46.9,66.6h-3.4h-0.5l-2.9-0.2c0,1.9,1.5,3.4,3.4,3.4c1.9,0,3.4-1.5,3.4-3.4V66.6z"/>
					<path class="st91" d="M46.9,66.6h-3.3h-0.5l-2.9-0.2c0,1.8,1.5,3.3,3.3,3.3c1.8,0,3.3-1.5,3.3-3.3V66.6z"/>
					<path class="st92" d="M46.9,66.6h-3.3h-0.5l-2.9-0.2c0,1.8,1.5,3.3,3.3,3.3c1.8,0,3.3-1.5,3.3-3.3V66.6z"/>
					<path class="st93" d="M46.8,66.6h-3.3h-0.5l-2.8-0.2c0,1.8,1.5,3.3,3.3,3.3c1.8,0,3.3-1.5,3.3-3.3V66.6z"/>
					<path class="st94" d="M46.8,66.6h-3.2h-0.5l-2.8-0.2c0,1.8,1.5,3.2,3.2,3.2c1.8,0,3.2-1.5,3.2-3.2V66.6z"/>
					<path class="st95" d="M46.8,66.6h-3.2h-0.5l-2.8-0.2c0,1.8,1.4,3.2,3.2,3.2c1.8,0,3.2-1.4,3.2-3.2V66.6z"/>
					<path class="st96" d="M46.7,66.6h-3.2h-0.5l-2.7-0.2c0,1.8,1.4,3.2,3.2,3.2c1.8,0,3.2-1.4,3.2-3.2V66.6z"/>
					<path class="st97" d="M46.7,66.6h-3.1h-0.5l-2.7-0.2c0,1.7,1.4,3.1,3.1,3.1c1.7,0,3.1-1.4,3.1-3.1V66.6z"/>
					<path class="st98" d="M46.7,66.6h-3.1h-0.5l-2.7-0.2c0,1.7,1.4,3.1,3.1,3.1c1.7,0,3.1-1.4,3.1-3.1V66.6z"/>
					<path class="st99" d="M46.6,66.6h-3.1h-0.5l-2.6-0.2c0,1.7,1.4,3.1,3.1,3.1c1.7,0,3.1-1.4,3.1-3.1V66.6z"/>
					<path class="st100" d="M46.6,66.6h-3h-0.5l-2.6-0.2c0,1.7,1.4,3,3,3c1.7,0,3-1.4,3-3V66.6z"/>
					<path class="st101" d="M46.6,66.6h-3h-0.5l-2.6-0.2c0,1.7,1.3,3,3,3c1.7,0,3-1.3,3-3V66.6z"/>
					<path class="st102" d="M46.5,66.6h-3h-0.5l-2.5-0.2c0,1.6,1.3,3,3,3c1.6,0,3-1.3,3-3V66.6z"/>
					<path class="st103" d="M46.5,66.6h-2.9h-0.5l-2.5-0.2c0,1.6,1.3,2.9,2.9,2.9c1.6,0,2.9-1.3,2.9-2.9V66.6z"/>
					<path class="st104" d="M46.5,66.6h-2.9h-0.5l-2.5-0.2c0,1.6,1.3,2.9,2.9,2.9c1.6,0,2.9-1.3,2.9-2.9V66.6z"/>
					<path class="st105" d="M46.4,66.6h-2.9h-0.5l-2.4-0.2c0,1.6,1.3,2.9,2.9,2.9c1.6,0,2.9-1.3,2.9-2.9V66.6z"/>
					<path class="st106" d="M46.4,66.6h-2.8h-0.5l-2.4-0.2c0,1.6,1.3,2.8,2.8,2.8c1.6,0,2.8-1.3,2.8-2.8V66.6z"/>
					<path class="st107" d="M46.4,66.6h-2.8h-0.5l-2.4-0.2c0,1.5,1.3,2.8,2.8,2.8c1.5,0,2.8-1.3,2.8-2.8V66.6z"/>
					<path class="st108" d="M46.3,66.6h-2.8h-0.5l-2.3-0.2c0,1.5,1.2,2.8,2.8,2.8c1.5,0,2.8-1.2,2.8-2.8V66.6z"/>
					<path class="st109" d="M46.3,66.6h-2.7h-0.5l-2.3-0.2c0,1.5,1.2,2.7,2.7,2.7c1.5,0,2.7-1.2,2.7-2.7V66.6z"/>
					<path class="st110" d="M46.3,66.6h-2.7h-0.5l-2.3-0.2c0,1.5,1.2,2.7,2.7,2.7c1.5,0,2.7-1.2,2.7-2.7V66.6z"/>
					<path class="st111" d="M46.2,66.6h-2.7h-0.5l-2.2-0.2c0,1.5,1.2,2.7,2.7,2.7c1.5,0,2.7-1.2,2.7-2.7V66.6z"/>
					<path class="st112" d="M46.2,66.6h-2.6h-0.5l-2.2-0.2c0,1.5,1.2,2.6,2.6,2.6c1.5,0,2.6-1.2,2.6-2.6V66.6z"/>
					<path class="st113" d="M46.2,66.6h-2.6h-0.5l-2.2-0.2c0,1.4,1.2,2.6,2.6,2.6c1.4,0,2.6-1.2,2.6-2.6V66.6z"/>
					<path class="st114" d="M46.1,66.6h-2.6h-0.5L41,66.4c0,1.4,1.2,2.6,2.6,2.6c1.4,0,2.6-1.2,2.6-2.6V66.6z"/>
					<path class="st115" d="M46.1,66.6h-2.5h-0.5L41,66.4c0,1.4,1.1,2.5,2.5,2.5c1.4,0,2.5-1.1,2.5-2.5V66.6z"/>
					<path class="st116" d="M46.1,66.6h-2.5h-0.5L41,66.4c0,1.4,1.1,2.5,2.5,2.5c1.4,0,2.5-1.1,2.5-2.5V66.6z"/>
					<path class="st117" d="M46,66.6h-2.5h-0.5l-2-0.2c0,1.4,1.1,2.5,2.5,2.5c1.4,0,2.5-1.1,2.5-2.5V66.6z"/>
					<path class="st118" d="M46,66.6h-2.4h-0.5l-2-0.2c0,1.3,1.1,2.4,2.4,2.4c1.3,0,2.4-1.1,2.4-2.4V66.6z"/>
					<path class="st119" d="M45.9,66.6h-2.4h-0.5l-2-0.2c0,1.3,1.1,2.4,2.4,2.4c1.3,0,2.4-1.1,2.4-2.4V66.6z"/>
					<path class="st120" d="M45.9,66.6h-2.4h-0.5l-1.9-0.2c0,1.3,1.1,2.4,2.4,2.4c1.3,0,2.4-1.1,2.4-2.4V66.6z"/>
					<path class="st121" d="M45.9,66.6h-2.3h-0.5l-1.9-0.2c0,1.3,1,2.3,2.3,2.3c1.3,0,2.3-1,2.3-2.3V66.6z"/>
					<path class="st122" d="M45.8,66.6h-2.3h-0.5l-1.9-0.2c0,1.3,1,2.3,2.3,2.3c1.3,0,2.3-1,2.3-2.3V66.6z"/>
					<path class="st123" d="M45.8,66.6h-2.3h-0.5l-1.8-0.2c0,1.3,1,2.3,2.3,2.3c1.3,0,2.3-1,2.3-2.3V66.6z"/>
					<path class="st124" d="M45.8,66.6h-2.2h-0.5l-1.8-0.2c0,1.2,1,2.2,2.2,2.2c1.2,0,2.2-1,2.2-2.2V66.6z"/>
					<path class="st125" d="M45.7,66.6h-2.2h-0.5l-1.8-0.2c0,1.2,1,2.2,2.2,2.2c1.2,0,2.2-1,2.2-2.2V66.6z"/>
					<path class="st126" d="M45.7,66.6h-2.2h-0.5l-1.7-0.2c0,1.2,1,2.2,2.2,2.2c1.2,0,2.2-1,2.2-2.2V66.6z"/>
					<path class="st127" d="M45.7,66.6h-2.1h-0.5l-1.7-0.2c0,1.2,1,2.1,2.1,2.1c1.2,0,2.1-1,2.1-2.1V66.6z"/>
					<path class="st128" d="M45.6,66.6h-2.1h-0.5l-1.6-0.2c0,1.2,0.9,2.1,2.1,2.1c1.2,0,2.1-0.9,2.1-2.1V66.6z"/>
					<path class="st129" d="M45.6,66.6h-2.1h-0.5l-1.6-0.2c0,1.1,0.9,2.1,2.1,2.1c1.1,0,2.1-0.9,2.1-2.1V66.6z"/>
					<path class="st130" d="M45.6,66.6h-2h-0.5l-1.6-0.2c0,1.1,0.9,2,2,2c1.1,0,2-0.9,2-2V66.6z"/>
					<path class="st131" d="M45.5,66.6h-2h-0.5l-1.5-0.2c0,1.1,0.9,2,2,2c1.1,0,2-0.9,2-2V66.6z"/>
					<path class="st132" d="M45.5,66.6h-2h-0.5l-1.5-0.2c0,1.1,0.9,2,2,2c1.1,0,2-0.9,2-2V66.6z"/>
					<path class="st133" d="M45.5,66.6h-1.9h-0.5l-1.5-0.2c0,1.1,0.9,1.9,1.9,1.9c1.1,0,1.9-0.9,1.9-1.9V66.6z"/>
					<path class="st134" d="M45.4,66.6h-1.9h-0.5l-1.4-0.2c0,1.1,0.9,1.9,1.9,1.9c1.1,0,1.9-0.9,1.9-1.9V66.6z"/>
					<path class="st135" d="M45.4,66.6h-1.9h-0.5l-1.4-0.2c0,1,0.8,1.9,1.9,1.9c1,0,1.9-0.8,1.9-1.9V66.6z"/>
					<path class="st136" d="M45.4,66.6h-1.8h-0.5l-1.4-0.2c0,1,0.8,1.8,1.8,1.8c1,0,1.8-0.8,1.8-1.8V66.6z"/>
					<path class="st137" d="M45.3,66.6h-1.8h-0.5l-1.3-0.2c0,1,0.8,1.8,1.8,1.8c1,0,1.8-0.8,1.8-1.8V66.6z"/>
					<path class="st138" d="M45.3,66.6h-1.8h-0.5l-1.3-0.2c0,1,0.8,1.8,1.8,1.8c1,0,1.8-0.8,1.8-1.8V66.6z"/>
					<path class="st139" d="M45.3,66.6h-1.7h-0.5l-1.3-0.2c0,1,0.8,1.7,1.7,1.7c1,0,1.7-0.8,1.7-1.7V66.6z"/>
					<path class="st140" d="M45.2,66.6h-1.7h-0.5l-1.2-0.2c0,0.9,0.8,1.7,1.7,1.7c0.9,0,1.7-0.8,1.7-1.7V66.6z"/>
					<path class="st141" d="M45.2,66.6h-1.7h-0.5l-1.2-0.2c0,0.9,0.7,1.7,1.7,1.7c0.9,0,1.7-0.7,1.7-1.7V66.6z"/>
					<path class="st142" d="M45.2,66.6h-1.6h-0.5l-1.2-0.2c0,0.9,0.7,1.6,1.6,1.6c0.9,0,1.6-0.7,1.6-1.6V66.6z"/>
					<path class="st143" d="M45.1,66.6h-1.6h-0.5l-1.1-0.2c0,0.9,0.7,1.6,1.6,1.6c0.9,0,1.6-0.7,1.6-1.6V66.6z"/>
					<path class="st144" d="M45.1,66.6h-1.6h-0.5L42,66.4c0,0.9,0.7,1.6,1.6,1.6c0.9,0,1.6-0.7,1.6-1.6V66.6z"/>
					<path class="st145" d="M45.1,66.6h-1.5h-0.5L42,66.4c0,0.8,0.7,1.5,1.5,1.5c0.8,0,1.5-0.7,1.5-1.5V66.6z"/>
					<path class="st146" d="M45,66.6h-1.5h-0.5l-1-0.2c0,0.8,0.7,1.5,1.5,1.5c0.8,0,1.5-0.7,1.5-1.5V66.6z"/>
					<path class="st147" d="M45,66.6h-1.5h-0.5l-1-0.2c0,0.8,0.7,1.5,1.5,1.5c0.8,0,1.5-0.7,1.5-1.5V66.6z"/>
					<path class="st148" d="M45,66.6h-1.4h-0.5l-1-0.2c0,0.8,0.6,1.4,1.4,1.4c0.8,0,1.4-0.6,1.4-1.4V66.6z"/>
					<path class="st149" d="M44.9,66.6h-1.4h-0.5l-0.9-0.2c0,0.8,0.6,1.4,1.4,1.4c0.8,0,1.4-0.6,1.4-1.4V66.6z"/>
					<path class="st150" d="M44.9,66.6h-1.4h-0.5l-0.9-0.2c0,0.8,0.6,1.4,1.4,1.4c0.8,0,1.4-0.6,1.4-1.4V66.6z"/>
					<path class="st151" d="M44.9,66.6h-1.3h-0.5l-0.9-0.2c0,0.7,0.6,1.3,1.3,1.3c0.7,0,1.3-0.6,1.3-1.3V66.6z"/>
					<path class="st152" d="M44.8,66.6h-1.3h-0.5l-0.8-0.2c0,0.7,0.6,1.3,1.3,1.3c0.7,0,1.3-0.6,1.3-1.3V66.6z"/>
					<path class="st153" d="M44.8,66.6h-1.3h-0.5l-0.8-0.2c0,0.7,0.6,1.3,1.3,1.3c0.7,0,1.3-0.6,1.3-1.3V66.6z"/>
					<path class="st154" d="M44.8,66.6h-1.2h-0.5l-0.8-0.2c0,0.7,0.6,1.2,1.2,1.2c0.7,0,1.2-0.6,1.2-1.2V66.6z"/>
					<path class="st155" d="M44.7,66.6h-1.2h-0.5l-0.7-0.2c0,0.7,0.5,1.2,1.2,1.2c0.7,0,1.2-0.5,1.2-1.2V66.6z"/>
					<path class="st156" d="M44.7,66.6h-1.2h-0.5l-0.7-0.2c0,0.6,0.5,1.2,1.2,1.2c0.6,0,1.2-0.5,1.2-1.2V66.6z"/>
					<path class="st157" d="M44.7,66.6h-1.1h-0.5l-0.7-0.2c0,0.6,0.5,1.1,1.1,1.1c0.6,0,1.1-0.5,1.1-1.1V66.6z"/>
					<path class="st158" d="M44.6,66.6h-1.1h-0.5l-0.6-0.2c0,0.6,0.5,1.1,1.1,1.1c0.6,0,1.1-0.5,1.1-1.1V66.6z"/>
					<path class="st159" d="M44.6,66.6h-1.1h-0.5l-0.6-0.2c0,0.6,0.5,1.1,1.1,1.1c0.6,0,1.1-0.5,1.1-1.1V66.6z"/>
					<path class="st160" d="M44.6,66.6h-1h-0.5l-0.6-0.2c0,0.6,0.5,1,1,1c0.6,0,1-0.5,1-1V66.6z"/>
					<path class="st161" d="M44.5,66.6h-1h-0.5l-0.5-0.2c0,0.6,0.4,1,1,1c0.6,0,1-0.4,1-1V66.6z"/>
					<path class="st162" d="M44.5,66.6h-1h-0.5l-0.5-0.2c0,0.5,0.4,1,1,1c0.5,0,1-0.4,1-1V66.6z"/>
					<path class="st163" d="M44.5,66.6h-0.9h-0.5l-0.5-0.2c0,0.5,0.4,0.9,0.9,0.9c0.5,0,0.9-0.4,0.9-0.9V66.6z"/>
					<path class="st164" d="M44.4,66.6h-0.9h-0.5l-0.4-0.2c0,0.5,0.4,0.9,0.9,0.9c0.5,0,0.9-0.4,0.9-0.9V66.6z"/>
					<path class="st165" d="M44.4,66.6h-0.9h-0.5l-0.4-0.2c0,0.5,0.4,0.9,0.9,0.9c0.5,0,0.9-0.4,0.9-0.9V66.6z"/>
					<path class="st166" d="M44.4,66.6h-0.8h-0.5l-0.4-0.2c0,0.5,0.4,0.8,0.8,0.8c0.5,0,0.8-0.4,0.8-0.8V66.6z"/>
					<path class="st167" d="M44.3,66.6h-0.8h-0.5l-0.3-0.2c0,0.4,0.4,0.8,0.8,0.8s0.8-0.4,0.8-0.8V66.6z"/>
					<path class="st168" d="M44.3,66.6h-0.8h-0.5l-0.3-0.2c0,0.4,0.3,0.8,0.8,0.8c0.4,0,0.8-0.3,0.8-0.8V66.6z"/>
					<path class="st169" d="M44.3,66.6h-0.7h-0.5l-0.3-0.2c0,0.4,0.3,0.7,0.7,0.7s0.7-0.3,0.7-0.7V66.6z"/>
					<path class="st170" d="M44.2,66.6h-0.7h-0.5l-0.2-0.2c0,0.4,0.3,0.7,0.7,0.7c0.4,0,0.7-0.3,0.7-0.7V66.6z"/>
					<path class="st171" d="M44.2,66.6h-0.7h-0.5l-0.2-0.2c0,0.4,0.3,0.7,0.7,0.7s0.7-0.3,0.7-0.7V66.6z"/>
					<path class="st172" d="M44.2,66.6h-0.6h-0.5l-0.2-0.2c0,0.4,0.3,0.6,0.6,0.6c0.4,0,0.6-0.3,0.6-0.6V66.6z"/>
					<path class="st173" d="M44.1,66.6h-0.6h-0.5l-0.1-0.2c0,0.3,0.3,0.6,0.6,0.6s0.6-0.3,0.6-0.6V66.6z"/>
					<path class="st174" d="M44.1,66.6h-0.6h-0.5L43,66.4c0,0.3,0.3,0.6,0.6,0.6c0.3,0,0.6-0.3,0.6-0.6V66.6z"/>
					<path class="st175" d="M44.1,66.6h-0.5h-0.5L43,66.4c0,0.3,0.2,0.5,0.5,0.5s0.5-0.2,0.5-0.5V66.6z"/>
					<path class="st176" d="M44,66.6h-0.5h-0.5l0-0.2c0,0.3,0.2,0.5,0.5,0.5c0.3,0,0.5-0.2,0.5-0.5V66.6z"/>
					<path class="st177" d="M44,66.6h-0.5h-0.5l0-0.2c0,0.3,0.2,0.5,0.5,0.5s0.5-0.2,0.5-0.5V66.6z"/>
					<path class="st178" d="M44,66.6h-0.4h-0.4v-0.2c0,0.2,0.2,0.4,0.4,0.4c0.2,0,0.4-0.2,0.4-0.4V66.6z"/>
					<path class="st179" d="M43.9,66.6h-0.4h-0.4v-0.2c0,0.2,0.2,0.4,0.4,0.4s0.4-0.2,0.4-0.4V66.6z"/>
					<path class="st180" d="M43.9,66.6h-0.4h-0.4v-0.2c0,0.2,0.2,0.4,0.4,0.4c0.2,0,0.4-0.2,0.4-0.4V66.6z"/>
					<path class="st181" d="M43.9,66.6h-0.3h-0.3v-0.2c0,0.2,0.1,0.3,0.3,0.3s0.3-0.1,0.3-0.3V66.6z"/>
					<path class="st182" d="M43.8,66.6h-0.3h-0.3v-0.2c0,0.2,0.1,0.3,0.3,0.3c0.2,0,0.3-0.1,0.3-0.3V66.6z"/>
					<path class="st183" d="M43.8,66.6h-0.3h-0.3v-0.2c0,0.1,0.1,0.3,0.3,0.3s0.3-0.1,0.3-0.3V66.6z"/>
					<path class="st184" d="M43.8,66.6h-0.2h-0.2v-0.2c0,0.1,0.1,0.2,0.2,0.2c0.1,0,0.2-0.1,0.2-0.2V66.6z"/>
					<path class="st185" d="M43.7,66.6h-0.2h-0.2v-0.2c0,0.1,0.1,0.2,0.2,0.2s0.2-0.1,0.2-0.2V66.6z"/>
					<path class="st186" d="M43.7,66.6h-0.2H43.7z"/>
					<path class="st187" d="M43.7,66.6h-0.1H43.7z"/>
					<path class="st188" d="M43.6,66.6h-0.1H43.6z"/>
					<path class="st189" d="M43.6,66.6L43.6,66.6L43.6,66.6z"/>
					<path class="st190" d="M43.6,66.6L43.6,66.6L43.6,66.6z"/>
				</g>
			</g>
			<g>
				<path class="st191" d="M51.2,68.6c0,0,1.5-0.1,3.1-1.3c1.6-1.2,1.8,0.7-0.9,1.8C50.6,70.2,50.2,69,51.2,68.6z"/>
			</g>
			<g>
				<path class="st3" d="M29.7,44.6c-1,0.4-1.7,1-2.1,1.8c-2.2,4.9,20.1,18.5,20.1,18.5l4.2-3.6c-6.9-3.1-14.6-8.1-19.6-12.7
					C30.6,46.9,29.8,45.6,29.7,44.6z"/>
				<path class="st4" d="M47.7,65.6l-0.4-0.2C43.6,63.1,24.7,51.2,27,46.1c0.4-0.9,1.2-1.6,2.4-2.1l0.7-0.3l0.1,0.8
					c0.2,1,1,2.3,2.4,3.6c4.8,4.5,12.4,9.5,19.4,12.6l0.9,0.4L47.7,65.6z M29.3,45.5c-0.5,0.3-0.9,0.7-1.1,1.1
					c-1.4,3.2,11,12.3,19.5,17.5l3.1-2.7c-6.8-3.2-14.2-8-18.9-12.4C30.5,47.7,29.7,46.6,29.3,45.5z"/>
			</g>
			<g>
				<path class="st3" d="M29.7,44.6c0.2,1.1,0.9,2.4,2.6,4c5,4.6,12.7,9.6,19.6,12.7l13.8-11.9C48.7,45.4,34.9,42.5,29.7,44.6z"/>
				<path class="st4" d="M52,62l-0.4-0.2c-7.1-3.2-14.8-8.2-19.8-12.8c-1.7-1.6-2.6-3-2.8-4.3L29,44.2l0.5-0.2
					c5.4-2.1,19.1,0.8,36.4,4.8L67,49L52,62z M30.4,45c0.3,0.9,1.1,2,2.3,3.1c4.7,4.4,12.2,9.3,19,12.4l12.6-10.8
					C48.9,46.1,35.8,43.4,30.4,45z"/>
			</g>
			<g>
				<path class="st3" d="M138.6,61.3c5.9-1.9,9.3-1.4,11.3-0.4c-2.6-1.8-2.8-3.3-2.7-7.8c0.2-6.3,0.2-13.9-3.5-13.8
					c-3.7,0.1-10,7.7-13.9,11.6c-3.9,3.9-15.4-2.3-28.3-6.3c-13-4-25.4-3.1-32.7,0.2c-7.3,3.4-14.7,12.4-17.2,15.3
					c-2.5,2.9-5.5,4.5-9.7,7.3c-2.6,1.7-4.3,4-5,6.7c-0.4,1.5-0.4,3.2-0.1,4.9c1.4,7.4,11.4,11.3,17.8,12.8c8.4,1.9,17,1.8,25.5,0.6
					c32.5-4.7,63.2-19,64.9-21.9C128.4,66.7,132.4,63.3,138.6,61.3z"/>
				<path class="st4" d="M68.1,94c-4.9,0-9.4-0.5-13.7-1.5c-3.9-0.9-16.6-4.5-18.2-13.3c-0.3-1.8-0.3-3.5,0.1-5.2
					c0.7-2.8,2.5-5.3,5.3-7.1c0.9-0.6,1.8-1.2,2.6-1.7c2.9-1.8,5.1-3.3,7-5.5l0.6-0.7c3-3.5,9.9-11.6,16.8-14.7
					c8.3-3.8,21.3-3.9,33.2-0.3c3.5,1.1,6.9,2.3,10.1,3.5c8.1,3,15,5.5,17.6,2.9c0.8-0.8,1.6-1.7,2.6-2.7c4-4.2,8.5-9,11.8-9.1
					c0.8,0,1.6,0.3,2.2,0.9c2.1,2.2,2.2,8.1,2,13.6c-0.2,4.4,0,5.6,2.4,7.2l-0.7,1.1c-1.6-0.9-4.8-1.5-10.8,0.4l0,0
					c-3.2,1-5,2.2-5,3.2c0,0.7,1.2,2.6,11.1,5l0.8,0.2l-0.4,0.7c-2,3.4-33.9,17.6-65.3,22.2C75.8,93.7,71.8,94,68.1,94z M84.1,42.6
					c-5.7,0-11,0.9-15.1,2.8c-6.6,3.1-13.4,11-16.4,14.4L52,60.6c-2,2.3-4.4,3.8-7.3,5.7c-0.8,0.5-1.6,1.1-2.6,1.7
					c-2.5,1.6-4.1,3.8-4.8,6.4c-0.4,1.5-0.4,3-0.1,4.6c1.2,6.4,9.7,10.5,17.3,12.3c7.6,1.7,15.8,1.9,25.2,0.6
					c30.8-4.5,58.8-17.3,63.7-20.9c-9.7-2.4-10.9-4.5-11-5.9c-0.1-1.7,1.8-3.1,5.9-4.4c3.6-1.2,6.7-1.6,9.1-1.2
					c-1-1.5-1-3.3-0.9-6.4c0.1-3.2,0.4-10.6-1.6-12.6c-0.4-0.4-0.8-0.5-1.3-0.5c-2.7,0.1-7.4,5.1-10.9,8.7c-0.9,1-1.8,1.9-2.6,2.7
					c-3.1,3.1-10.1,0.6-18.9-2.6c-3.2-1.2-6.6-2.4-10.1-3.5C95.6,43.5,89.7,42.6,84.1,42.6z"/>
			</g>
			<g>
				<g>
					<path class="st0" d="M93.4,104.7c0,0,2.5,0.1,9.1-2.4c6.6-2.5,7.9-4.2,8.2-7.1c0.2-2.9-10.5-5-16.3-3.9L93.4,104.7z"/>
				</g>
				<g>
					<path class="st1" d="M95.1,91.3c-2.7-0.3-5.2,2.4-5.7,6.1c-0.5,3.7,1.3,7,4,7.4c2.7,0.3,5.2-2.4,5.7-6.1
						C99.5,94.9,97.7,91.6,95.1,91.3z M97.9,98.5c-0.4,2.9-2.3,5-4.4,4.8c-2.1-0.3-3.5-2.8-3.1-5.7c0.4-2.9,2.3-5,4.4-4.8
						C96.9,93,98.3,95.6,97.9,98.5z"/>
				</g>
				<g>
					
						<ellipse transform="matrix(0.1255 -0.9921 0.9921 0.1255 -14.8581 179.1571)" class="st0" cx="94.2" cy="98" rx="5.3" ry="3.8"/>
				</g>
				<g>
					<path class="st2" d="M99.1,91.6c-0.2,0.5-0.9,0.7-1.7,0.4c-0.7-0.3-1.1-0.9-0.9-1.4l0.5-1.4c0.2-0.5,0.9-0.7,1.7-0.4
						c0.7,0.3,1.1,0.9,0.9,1.4L99.1,91.6z"/>
				</g>
			</g>
			<g>
				<g>
					<path class="st0" d="M114.8,118.9c0,0,3.1,0.1,11.1-3c8.1-3.1,9.7-5.2,10-8.7c0.3-3.6-12.9-6.1-20-4.7L114.8,118.9z"/>
				</g>
				<g>
					<path class="st1" d="M116.8,102.5c-3.3-0.4-6.4,3-7,7.5c-0.6,4.6,1.6,8.6,4.9,9c3.3,0.4,6.4-3,7-7.5
						C122.2,106.9,120,102.9,116.8,102.5z M120.3,111.3c-0.4,3.5-2.9,6.2-5.4,5.8c-2.5-0.3-4.2-3.5-3.8-7c0.5-3.5,2.9-6.2,5.4-5.8
						C119.1,104.7,120.8,107.8,120.3,111.3z"/>
				</g>
				<g>
					
						<ellipse transform="matrix(0.1254 -0.9921 0.9921 0.1254 -8.6646 211.6659)" class="st0" cx="115.7" cy="110.7" rx="6.5" ry="4.6"/>
				</g>
				<g>
					<path class="st2" d="M121.7,102.9c-0.2,0.6-1.1,0.8-2,0.5c-0.9-0.3-1.4-1.1-1.2-1.7l0.7-1.7c0.2-0.6,1.1-0.8,2-0.5
						c0.9,0.3,1.4,1.1,1.2,1.7L121.7,102.9z"/>
				</g>
			</g>
			<g>
				<path class="st192" d="M61.8,70.5c11.5,3.2,16.5,1.1,17.1-4.6c0.6-5.7,1.3-9-5.3-10.1c-8.2-1.3-11-4.4-11.9-6.2
					c-4.5,3.9-8.4,8.5-10,10.5c-0.3,0.3-0.6,0.7-0.9,1C51.5,63.9,54.1,68.4,61.8,70.5z"/>
				<path class="st4" d="M70.9,72.7c-2.5,0-5.6-0.5-9.3-1.5l0,0c-8.1-2.3-10.7-7.1-11.5-9.8L50,61l0.3-0.3c0.3-0.3,0.6-0.6,0.9-0.9
					l0.6-0.7c1.9-2.2,5.4-6.3,9.5-9.8l0.6-0.5l0.4,0.7c0.9,1.7,3.5,4.6,11.5,5.8c7,1.2,6.5,5,5.9,10.2l-0.1,0.6
					c-0.3,2.3-1.2,4.1-2.9,5.2C75.2,72.2,73.3,72.7,70.9,72.7z M61.9,69.9c6.8,1.9,11.5,2,14,0.3c1.3-0.9,2.1-2.3,2.3-4.3l0.1-0.6
					c0.6-5.2,0.9-7.9-4.9-8.8c-7.5-1.2-10.7-3.9-12-5.8c-3.8,3.3-7,7.1-8.8,9.2L52,60.6c-0.2,0.2-0.4,0.5-0.7,0.7
					C52.3,63.8,54.8,67.9,61.9,69.9z"/>
			</g>
			<g>
				<g>
					<path class="st3" d="M102.3,89.7C90.1,83.9,86,80.1,84.8,77.7c-0.5,0.5-0.8,1.1-0.8,1.8c-0.5,5.6,13.4,13.5,29.8,21.3
						c16.4,7.8,38,15.4,40.2,11.3c0.7-1.3,0.5-3-0.1-4.8C146.5,108.4,123.7,99.7,102.3,89.7z"/>
					<path class="st4" d="M150.6,113.8c-8.7,0-28.6-8.4-37.1-12.5C92.2,91.2,82.9,84.4,83.3,79.4c0.1-0.7,0.4-1.4,1-2.1l0.6-0.7
						l0.4,0.8c1.1,2.1,4.9,5.9,17.2,11.6l0,0c24.8,11.7,44.9,18.5,51.2,17.5l0.5-0.1l0.2,0.5c0.7,2.1,0.8,3.9,0.1,5.3
						C154,113.4,152.6,113.8,150.6,113.8z M84.8,78.9c-0.1,0.2-0.2,0.4-0.2,0.6c-0.6,6.4,22,17.1,29.5,20.6
						c19.4,9.2,37.7,14.6,39.4,11.6c0.5-1,0.5-2.3,0-3.8c-8.4,0.8-31.9-8.5-51.4-17.7l0,0C92.8,85.9,87,82.1,84.8,78.9z"/>
				</g>
				<g>
					<path class="st3" d="M102.3,89.7c21.4,10,44.2,18.8,51.6,17.6c-2.1-6.2-10.1-14.4-14.8-18.4c-6.2-5.2-12.2-11.1-19.9-14.2
						c-7.7-3.1-21.9-1.6-21.9-1.6s-9.5,1.3-12.4,4.7C86,80.1,90.1,83.9,102.3,89.7z"/>
					<path class="st4" d="M152.3,108c-9.2,0-31.6-8.9-50.3-17.7l0,0C91.9,85.5,85.9,81.4,84.2,78l-0.2-0.4l0.3-0.3
						c3-3.5,12.4-4.9,12.8-4.9c0.6-0.1,14.5-1.5,22.2,1.6c6.6,2.6,11.9,7.3,17.1,11.8c1,0.9,2,1.7,3,2.5c4.2,3.5,12.7,12,15,18.7
						l0.2,0.7l-0.7,0.1C153.5,107.9,152.9,108,152.3,108z M85.6,77.8c1.3,2.2,5.4,5.8,17,11.3l0,0c23.8,11.2,43.3,18,50.4,17.6
						c-2.4-5.9-9.8-13.5-14.4-17.4c-1-0.8-2-1.7-3-2.6c-5.1-4.4-10.4-9-16.7-11.6c-7.5-3-21.5-1.5-21.6-1.5
						C97.2,73.7,88.6,74.9,85.6,77.8z"/>
				</g>
			</g>
			<g>
				<g>
					<path class="st3" d="M139.7,67.1c-4.4-1.5-5.3-3-4.9-4.2c-3.2,2-2.6,4.8,10,7.7c12.6,2.1,16.1,0.6,16.3-0.9
						c0.1-0.3,0.1-0.7,0-1C158,70.7,147.9,69.9,139.7,67.1z"/>
					<path class="st4" d="M155.1,72.3c-2.7,0-6.2-0.4-10.4-1.1c-10.4-2.5-11.9-4.5-12.1-5.9c-0.2-1.1,0.5-2.1,1.9-3l1.5-0.9
						l-0.6,1.7c-0.4,1.1,1.2,2.3,4.5,3.4l0,0c8,2.7,17.9,3.6,20.8,1.7l0.7-0.4l0.2,0.8c0.2,0.5,0.1,1,0.1,1.3
						c-0.1,0.3-0.3,0.9-0.9,1.3C159.8,71.9,157.9,72.3,155.1,72.3z M134.3,64.2c-0.3,0.3-0.5,0.6-0.4,1c0.1,0.7,1.4,2.6,11.1,4.9
						c11.3,1.9,14.4,0.7,15.2,0.1c0.2-0.1,0.3-0.3,0.4-0.4c-4,1.5-13.2,0.6-21-2l0,0C136.5,66.7,134.7,65.5,134.3,64.2z"/>
				</g>
				<g>
					<path class="st3" d="M154.1,63.5c-1.9-1.1-3.2-1.9-4.3-2.6c-2-1.1-5.4-1.6-11.3,0.4c-1.5,0.5-2.8,1-3.8,1.6
						c-0.4,1.2,0.4,2.7,4.9,4.2c8.2,2.8,18.3,3.6,21.4,1.6C160.7,67.6,159.2,66.4,154.1,63.5z"/>
					<path class="st4" d="M155.1,70.5c-4.5,0-10.4-1-15.5-2.7c-4.1-1.4-5.9-3.1-5.3-5l0.1-0.2l0.2-0.1c1-0.6,2.3-1.2,3.9-1.7
						c5.1-1.7,9.1-1.8,11.8-0.3c1,0.7,2.4,1.5,4.3,2.6l-0.3,0.6l0.3-0.5c5.1,2.9,6.8,4.3,7.2,5.6l0.1,0.5l-0.4,0.3
						C160.2,70.1,157.9,70.5,155.1,70.5z M135.4,63.3c-0.1,1,1.5,2.2,4.5,3.2c7.6,2.6,16.9,3.5,20.3,2c-0.7-0.9-2.6-2.3-6.4-4.5
						l0.3-0.5l-0.3,0.5c-1.9-1.1-3.3-1.9-4.3-2.6c-1.5-0.9-4.7-1.5-10.7,0.4C137.4,62.3,136.3,62.8,135.4,63.3z"/>
				</g>
			</g>
		</g>
	</g>
</g>
</svg>
