<?xml version="1.0" encoding="utf-8"?>
<!-- Generator: Adobe Illustrator 21.1.0, SVG Export Plug-In . SVG Version: 6.00 Build 0)  -->
<svg version="1.1" id="Capa_1" xmlns="http://www.w3.org/2000/svg" xmlns:xlink="http://www.w3.org/1999/xlink" x="0px" y="0px"
	 viewBox="0 0 182 152" style="enable-background:new 0 0 182 152;" xml:space="preserve">
<style type="text/css">
	.st0{fill:#E8F1F9;}
	.st1{fill:#0053A1;}
	.st2{fill:#9BB7D3;}
</style>
<g>
	<g>
		<g>
			<path class="st0" d="M144.7,52.9c-0.2-0.4-2.9-3.5-6.1-6.8s-4.7-6.8-3.3-7.7s2.6-2.2,2.7-2.9s-0.4-1.3-1-1.3
				c-0.6,0-2.5,0.9-4.2,2.1c-1.7,1.2-4.7,2.2-6.8,2.2s-4.8-0.6-6.1-1.4c-1.3-0.8-2.7-1.3-3.2-1.2c-0.5,0.1-0.8,0.6-0.8,1.1
				s0.7,1.7,1.5,2.6s1.4,2.1,1.3,2.5c-0.1,0.5-4.7,1.4-10.1,1.9l-15.4,1.7c-5.5,0.6-14.4,0.9-19.9,0.8L56.6,46
				c-5.5-0.2-10.9,0.1-12,0.5c-1.1,0.5-2.6,1.7-3.4,2.7c-0.8,1-1.8,3.8-2.2,6.1c-0.4,2.4-0.8,5.7-0.9,7.4c-0.1,1.7-0.3,4.4-0.6,6
				c-0.2,1.6-0.4,4.2-0.3,5.8c0.1,1.6,0.4,2.9,0.6,3c0.3,0.1,0.8-0.3,1.2-0.7s1-2,1.3-3.5s0.4-4.4,0.1-6.4c-0.3-2.1-0.4-3.8-0.3-3.8
				s0.7,2.5,1.3,5.7s0.8,7.9,0.4,10.7s-0.5,9.4-0.1,14.8c0.4,5.4,0.7,10.4,0.8,11c0,0.6,0.4,1.4,0.8,1.7s2.1,0.6,3.8,0.6
				s3.5-0.1,4.1-0.3c0.5-0.2-0.2-2.3-1.8-4.8c-1.5-2.5-2.1-7-1.4-10.1s1.7-5.7,2.1-5.7c0.4,0,1.8,3.4,3.2,7.5
				c1.4,4.1,3.1,8.4,3.8,9.5c0.7,1.1,1.6,2.1,1.9,2.3c0.3,0.2,2.2,0.4,4,0.4c1.9,0,3.6-0.2,3.8-0.5s-0.9-1.4-2.5-2.3
				c-1.6-1-3.8-4.6-4.9-7.9S57.7,89,58,88.5c0.3-0.5,1-0.9,1.7-0.9c0.6,0.1,1.5,0.9,1.9,1.9c0.4,1,1.2,1,1.8,0s1.5-1,2.1,0
				s1.4,0.9,1.9-0.2c0.5-1,2-2.8,3.4-3.9c1.4-1.1,6.7-2.4,11.7-2.8s9.8,0,10.6,1c0.8,1,2.1,6,2.8,11c0.7,5,1.6,9.7,2,10.4
				s2.1,1.3,3.8,1.3c1.7,0,3.3-0.2,3.4-0.5c0.2-0.3-0.5-1.7-1.5-3.1c-1-1.4-2-4.9-2.1-7.6c-0.1-2.7,0.2-4.7,0.8-4.4
				c0.6,0.3,1.5,2.1,2.1,3.9c0.6,1.8,1.7,5.3,2.4,7.6c0.7,2.4,1.6,4.5,2,4.8c0.3,0.3,1.9,0.5,3.4,0.5c1.5,0,2.9-0.3,3-0.6
				s-0.1-1-0.6-1.4c-0.4-0.4-2-3.1-3.4-5.9c-1.4-2.8-2.3-7.5-2-10.5s1.9-6.3,3.5-7.5s4.9-5.7,7.2-10.1s6.5-8.9,9.2-10.2
				c2.7-1.2,6.9-2.5,9.4-2.8c2.5-0.3,4.7-0.7,4.9-0.9c0.2-0.2,0.7-1.2,1-2.2C144.7,54.5,144.8,53.3,144.7,52.9z"/>
		</g>
		<g>
			<path class="st1" d="M112.1,108.5C112.1,108.5,112.1,108.5,112.1,108.5c-0.5,0-3.2,0-4-0.7c-0.8-0.6-1.9-3.9-2.3-5.3
				c-0.7-2.4-1.8-5.8-2.4-7.6c-0.3-0.9-0.6-1.6-0.9-2.2c0,0.6-0.1,1.4,0,2.4c0.1,2.5,1,5.8,1.9,7.1c2.3,3.2,1.8,3.9,1.6,4.3
				c-0.2,0.2-0.6,0.9-4.3,0.9c0,0,0,0,0,0c-1.8,0-4-0.6-4.7-1.8c-0.6-1.1-1.5-7-2.1-10.8c-0.8-5.5-2-9.8-2.6-10.5
				c-0.5-0.5-4.3-1.2-9.8-0.6c-5.2,0.5-10,1.8-11.1,2.6c-1.4,1.1-2.8,2.7-3.1,3.5c-0.4,0.9-1,1.4-1.8,1.4c-0.7,0-1.4-0.4-1.9-1.2
				c-0.1-0.2-0.2-0.2-0.2-0.2c0,0-0.1,0.1-0.2,0.2c-0.5,0.8-1.2,1.2-1.9,1.2c-0.7-0.1-1.3-0.6-1.6-1.4c-0.3-0.8-0.9-1.2-1.1-1.3
				c-0.2,0-0.5,0.1-0.6,0.3c0,0.7,0.5,3.2,1.5,6.4c1.1,3.4,3.3,6.6,4.5,7.4c1.3,0.8,2.8,1.9,3,2.9c0.1,0.3,0,0.7-0.2,0.9
				c-0.6,0.8-2.8,0.9-4.6,0.9c-0.6,0-3.7,0-4.5-0.5c-0.8-0.5-2.2-2.5-2.2-2.6c-0.8-1.3-2.6-5.9-3.9-9.7c-0.9-2.6-1.7-4.6-2.2-5.9
				c-0.3,0.9-0.7,2.2-1.1,3.9c-0.7,2.9-0.1,7.2,1.3,9.4c0.9,1.5,2.4,4.3,2,5.5c-0.1,0.4-0.4,0.6-0.8,0.7c-0.7,0.2-2.8,0.3-4.3,0.3
				c-0.4,0-3.5,0-4.4-0.8c-0.6-0.5-1.1-1.5-1.1-2.4c0-0.6-0.4-5.5-0.8-11C40.5,88.8,40.5,82,41,79.3c0.2-1.2,0.3-2.9,0.2-4.7
				c-0.3,1.1-0.8,2.3-1.3,2.9c-0.5,0.6-1.4,1.2-2.2,1c-0.4-0.1-1.3-0.3-1.4-3.9c-0.1-1.6,0.1-4.3,0.3-6c0.2-1.6,0.5-4.2,0.6-5.9
				c0.1-1.7,0.5-5.1,0.9-7.5c0.4-2.2,1.4-5.3,2.4-6.6c0.9-1.1,2.6-2.5,3.8-3c1.4-0.6,7.4-0.8,12.4-0.6l16.5,0.5
				c5.5,0.2,14.4-0.2,19.8-0.8l15.4-1.7c4.6-0.5,7.9-1.1,9.1-1.5c-0.2-0.4-0.5-0.8-0.9-1.3c-0.6-0.7-1.8-2.2-1.8-3.2
				c0-1,0.7-1.9,1.6-2.1c1.2-0.2,3.6,1.2,3.9,1.4c1.1,0.7,3.7,1.3,5.6,1.3c0,0,0,0,0,0c1.9,0,4.7-0.9,6.3-2c1.2-0.9,3.7-2.4,4.9-2.3
				c0.6,0,1.1,0.3,1.5,0.7c0.4,0.5,0.6,1.1,0.5,1.7c-0.1,1.2-1.7,2.7-3.1,3.6c0,0,0,0.1-0.1,0.2c-0.1,1,1.1,3.4,3.5,6
				c1,1,6,6.2,6.3,7.1l0,0c0.4,0.9,0,2.4-0.3,3.2c-0.1,0.2-0.7,2-1.2,2.5c-0.2,0.2-0.6,0.7-5.5,1.3c-2.4,0.3-6.5,1.5-9.1,2.7
				c-2.5,1.2-6.5,5.6-8.7,9.8c-2.2,4-5.5,9-7.5,10.4c-1.4,1-2.8,4.2-3.1,6.8c-0.3,2.7,0.6,7.3,1.9,9.9c1.5,3,2.9,5.3,3.2,5.6
				c0.6,0.6,1.1,1.6,0.8,2.4C115.6,108.3,113.7,108.5,112.1,108.5z M109.4,106.2c0.3,0.1,1.4,0.3,2.7,0.3c0,0,0,0,0,0
				c0.8,0,1.4-0.1,1.8-0.2c0,0-0.1-0.1-0.1-0.1c-0.7-0.7-2.7-4.3-3.6-6.1c-1.5-3-2.5-7.9-2.1-11c0.4-3.2,2.1-6.9,3.9-8.2
				c1.3-1,4.4-5.1,6.9-9.8c2.5-4.6,6.7-9.3,9.6-10.6c2.8-1.3,7.2-2.6,9.7-2.9c2.3-0.3,3.8-0.6,4.3-0.7c0.1-0.3,0.5-0.9,0.7-1.7
				c0.3-0.8,0.4-1.5,0.3-1.8c-0.4-0.6-2.6-3.1-5.9-6.5c-2.1-2.2-4.3-5.4-4.1-7.6c0.1-0.9,0.6-1.4,1-1.6c1.3-0.8,2.1-1.9,2.2-2.2
				c0-0.1,0-0.1,0-0.2c0,0,0,0,0,0c-0.4,0-1.9,0.7-3.6,1.9c-1.9,1.3-5.1,2.4-7.4,2.4c0,0,0,0,0,0c-2.3,0-5.2-0.7-6.6-1.6
				c-1.1-0.7-2.1-1-2.4-1.1c0,0,0,0.1,0,0.1c0,0.2,0.5,1.1,1.3,1.9c0.2,0.2,1.8,2.1,1.5,3.4c-0.1,0.5-0.4,1.6-11,2.7l-15.4,1.7
				c-5.5,0.6-14.5,0.9-20.1,0.8L56.6,47c-6.1-0.2-10.8,0.2-11.5,0.5c-0.9,0.4-2.3,1.5-3,2.4c-0.6,0.8-1.6,3.3-2,5.7
				c-0.4,2.3-0.8,5.6-0.9,7.3c-0.1,1.7-0.3,4.5-0.6,6.1c-0.2,1.5-0.4,4.1-0.3,5.6c0,0.7,0.1,1.2,0.2,1.6c0.2-0.3,0.7-1.5,1.1-3
				c0.3-1.4,0.3-4.2,0.1-6.1c-0.5-3.9-0.6-4.7,0.5-4.9c1.1-0.2,1.1-0.2,2.4,6.5c0.7,3.2,0.8,8.2,0.4,11c-0.4,2.7-0.4,9.2-0.1,14.6
				c0.4,5.4,0.7,10.4,0.8,11c0,0.4,0.3,0.9,0.4,1c0.2,0.1,1.5,0.4,3.1,0.4c0,0,0,0,0.1,0c1.2,0,2.4-0.1,3.1-0.1
				c-0.2-0.6-0.7-1.8-1.7-3.4c-1.7-2.7-2.3-7.5-1.5-10.9c1.5-6.3,2.5-6.4,3-6.4c0,0,0,0,0,0c0.6,0,1.4,0,4.1,8.2
				c1.5,4.4,3.1,8.4,3.7,9.2c0.7,1,1.3,1.8,1.6,2c0.4,0.1,1.7,0.3,3.5,0.3c0,0,0,0,0,0c0.8,0,1.6-0.1,2.1-0.1
				c-0.3-0.3-0.8-0.6-1.3-0.9c-2-1.2-4.3-5.3-5.3-8.5c-0.5-1.5-2.1-6.6-1.4-7.9c0.5-0.9,1.6-1.5,2.7-1.4c1.1,0.1,2.2,1.3,2.7,2.5
				c0,0,0,0,0,0c0.5-0.8,1.2-1.2,1.9-1.2c0,0,0,0,0,0c0.7,0,1.4,0.5,1.9,1.2c0,0,0,0.1,0.1,0.1c0,0,0-0.1,0.1-0.1
				c0.5-1.2,2.2-3.1,3.7-4.3c1.7-1.3,7.6-2.6,12.2-3c3.3-0.3,10-0.4,11.5,1.4c1.1,1.4,2.4,6.9,3,11.5c0.8,5.5,1.6,9.6,1.9,10.1
				c0.2,0.2,1.4,0.8,2.9,0.8c0,0,0,0,0,0c1,0,1.7-0.1,2.2-0.1c-0.2-0.5-0.6-1.1-1.2-1.9c-1.2-1.6-2.2-5.2-2.3-8.2
				c-0.1-3,0.2-4.8,1-5.3c0.4-0.2,0.8-0.2,1.2,0c1.1,0.6,2.1,3.1,2.6,4.4c0.6,1.8,1.7,5.3,2.4,7.6
				C108.4,104.1,109.1,105.8,109.4,106.2z M104.5,105.1C104.5,105.1,104.5,105.1,104.5,105.1C104.5,105.1,104.5,105.1,104.5,105.1z
				 M59,88.8L59,88.8z"/>
		</g>
	</g>
	<g>
		<path class="st2" d="M88.6,47.1c0,0,9.7-1.9,9.2,3.4s3.7,4.2,3.7,4.2s6.3,15-6.4,8.2s-15.4-0.5-15.4-0.5s-2.5,3.2-5-5.7
			c-0.5-1.9-2.3-7.1-1.4-8.3c0.2-0.3,0.9-0.9,0.9-0.9S88.6,47.1,88.6,47.1z"/>
	</g>
</g>
</svg>
