<?xml version="1.0" encoding="utf-8"?>
<!-- Generator: Adobe Illustrator 21.1.0, SVG Export Plug-In . SVG Version: 6.00 Build 0)  -->
<svg version="1.1" id="Capa_1" xmlns="http://www.w3.org/2000/svg" xmlns:xlink="http://www.w3.org/1999/xlink" x="0px" y="0px"
	 viewBox="0 0 182 152" style="enable-background:new 0 0 182 152;" xml:space="preserve">
<style type="text/css">
	.st0{fill:#9BB7D3;}
	.st1{fill:#0A4B98;}
	.st2{fill:#FFFFFF;}
	.st3{fill:#E5EEF6;}
	.st4{fill:none;}
	.st5{fill:#E8F1F9;}
</style>
<g>
	<g>
		<g>
			<path class="st0" d="M93.8,96.6c0,0-2.5,5.2-3.6,5.9c-1.1,0.8-1.5-5.1-0.5-7.9c0.9-2.8,2.8-2.3,2.8-2.3L93.8,96.6z"/>
			<path class="st1" d="M90,102.8c-0.1,0-0.3,0-0.3-0.1c-0.9-0.7-1.1-5.6-0.3-8.2c0.9-2.9,2.9-2.4,3.1-2.4h0.1l1.5,4.4v0.1
				c-0.1,0.3-2.5,5.2-3.8,6C90.2,102.8,90.1,102.8,90,102.8z M92,92.5c-0.5,0-1.6,0.3-2.3,2.3c-0.8,2.5-0.5,7.2,0.1,7.6
				c0,0,0,0,0.1,0c0.8-0.5,2.8-4.3,3.5-5.8l-1.3-4C92.1,92.5,92.1,92.5,92,92.5z"/>
		</g>
		<g>
			<path class="st0" d="M63.9,100c0.4-0.9,0.7-2,0.5-3.1c0-0.8-0.1-1.5-0.1-2.3c0.3-5.5-0.1-11,0.4-16.4h23.1
				c0.1,1.2,0.3,2.5,0.4,3.9c-0.5,6.3-0.1,12.6,0.7,18.9H63.8c0-0.1,0.1-0.4,0.1-0.7C63.9,100.3,63.9,100.1,63.9,100z"/>
		</g>
		<g>
			<path class="st2" d="M60.2,81.2c-3.6,2.1-1.5,7,3.2,9.7c2.5,1.5-0.1,6.7-0.1,6.7H63c0,0-11.1-3.5-14.1-13.5s15.3-13.5,15.3-13.5
				l6.7-0.1l5.4,2.1l5.4-2.1c0,0,15.3-0.3,21.2,12.1c3.1,8.2-8.8,15.4-8.8,15.4l-1.9-5.6c0,0,7.6-9.2-3.4-9.8
				c0.7,10.1,1.1,13,0.9,18h-2.9V79.9h-21v20.5h-2.4c0-3.5,0.1-7.1,0.3-10.3c0.3-6.3,0.4-8,0.4-8S62.5,79.9,60.2,81.2z"/>
			<path class="st1" d="M90.1,100.7h-3.6V80.2H66v20.5h-2.8v-0.3c0-0.8,0-1.7,0-2.5H63c-0.1,0-11.3-3.8-14.2-13.7
				c-0.7-2.1-0.4-4,0.7-5.9c3.5-5.8,14.3-7.9,14.7-7.9l6.8-0.1l5.4,2.1l5.4-2.1c0.1,0,15.4-0.1,21.4,12.2c3.2,8.2-8.7,15.5-8.8,15.7
				l-0.3,0.1l-2-6l0.1-0.1c0,0,3.5-4.3,2.3-7c-0.7-1.5-2.4-2.3-5.4-2.4c0.1,1.7,0.3,3.4,0.4,4.8c0.4,6.2,0.7,8.8,0.5,13V100.7z
				 M86.9,100.1h2.8c0.1-4-0.1-6.7-0.5-12.7c-0.1-1.5-0.3-3.1-0.4-5v-0.3H89c3.2,0.1,5.2,1.1,5.9,2.7c1.2,2.8-1.7,6.7-2.3,7.4
				l1.7,5.2c1.6-1.1,11.3-7.8,8.4-15c-5.6-11.7-20.1-11.9-21-11.9l0,0l-5.4,2.1l-5.5-2.1l-6.7,0.1c-0.1,0-11.1,2.1-14.5,7.8
				c-1.1,1.7-1.2,3.5-0.7,5.5c2.8,9.4,13,13.1,13.9,13.4c0-2,0.1-4,0.1-6.3c-3.1-1.9-5.1-4.6-5.1-6.8c0-1.3,0.7-2.4,1.9-3.2l0,0
				c2.3-1.3,4,0.8,4,0.8l0,0v0.1c0,0-0.1,1.7-0.4,8c0,0.3,0,0.5,0,0.8c2.1,1.6,0.1,6-0.1,6.7c0,0.9,0,1.7,0,2.5h2V79.8h21.3v20.4
				H86.9z M63.7,91.4c0,1.7-0.1,3.5-0.1,5.1C64.1,95,64.9,92.6,63.7,91.4z M60.3,81.5c-1.1,0.7-1.7,1.6-1.7,2.8
				c0,2.1,1.9,4.6,4.7,6.3c0-0.1,0-0.4,0-0.5c0.3-5.5,0.4-7.5,0.4-7.9C63.5,81.8,62.2,80.4,60.3,81.5L60.3,81.5z"/>
		</g>
		<g>
			<path class="st3" d="M69.7,69.4c0,3.6,2.8,6.6,6.4,6.6l0,0c3.6,0,6.4-2.9,6.4-6.6v-3.6c0-3.6-2.8-6.6-6.4-6.6l0,0
				c-3.6,0-6.4,2.9-6.4,6.6V69.4z"/>
			<path class="st1" d="M76,76.1c-3.8,0-6.6-2.9-6.6-6.7v-3.6c0-3.8,2.9-6.7,6.6-6.7c3.6,0,6.6,2.9,6.6,6.7v3.6
				C82.7,73.2,79.8,76.1,76,76.1z M76,59.5c-3.5,0-6.2,2.8-6.2,6.3v3.6c0,3.5,2.7,6.3,6.2,6.3c3.5,0,6.2-2.8,6.2-6.3v-3.6
				C82.2,62.3,79.5,59.5,76,59.5z"/>
		</g>
		<g>
			<path class="st2" d="M101.7,44.5C101.5,58.4,88.2,69.6,76,69.4c-12.2-0.3-25.2-11.8-24.9-25.7s11.8-25.2,25.7-24.9
				C90.9,18.9,102,30.6,101.7,44.5z"/>
			<path class="st1" d="M76.3,69.6c-0.1,0-0.3,0-0.4,0c-6-0.1-12.3-2.9-17.3-7.8c-5.2-5.1-7.9-11.5-7.8-18.2
				c0.3-13.9,11.7-25.1,25.6-25.1c0.1,0,0.3,0,0.4,0c14.1,0.3,25.3,11.9,25.1,26l0,0c-0.1,6.7-3.1,13-8.4,18
				C88.5,67,82.3,69.6,76.3,69.6z M76.4,18.9c-13.7,0-24.9,11-25.1,24.7c-0.1,6.6,2.7,12.9,7.6,18c4.8,4.8,11,7.5,17,7.6
				c0.1,0,0.3,0,0.4,0c11.5,0,24.9-10.7,25.2-24.7c0.3-13.8-10.9-25.3-24.7-25.6C76.7,18.9,76.5,18.9,76.4,18.9z"/>
		</g>
		<g>
			<path class="st0" d="M76.1,66.8c6.3,0,12.3-1.7,17.6-4.8c-5,4.7-11.4,7.5-17.7,7.4c-5.5-0.1-11.1-2.5-15.7-6.4
				C65,65.3,70.4,66.8,76.1,66.8z"/>
		</g>
		<g>
			<g>
				
					<ellipse transform="matrix(1.782888e-02 -0.9998 0.9998 1.782888e-02 18.9972 113.3953)" class="st0" cx="67.2" cy="47" rx="1.7" ry="1.7"/>
			</g>
			<g>
				
					<ellipse transform="matrix(1.805273e-02 -0.9998 0.9998 1.805273e-02 36.6204 132.0335)" class="st0" cx="85.5" cy="47.4" rx="1.7" ry="1.7"/>
			</g>
		</g>
		<g>
			<g>
				<path class="st0" d="M76,61.7h-0.1c-3.6,0-7-1.9-8.8-4.8l1.1-0.7c1.6,2.5,4.6,4.2,7.8,4.3c3.2,0,6.2-1.5,7.9-4l1.1,0.8
					C82.8,60.1,79.6,61.7,76,61.7z"/>
			</g>
		</g>
		<g>
			<path class="st3" d="M76,16c11.7,0,28.4,7.1,25.3,30.7l-0.7,0.4c0,0-1.5-11.8-9.2-14.6c-7.9-2.8-8.8,2.1-15.4,2.1
				c-6.6,0-7.6-5-15.4-2.1c-7.9,2.8-9.2,14.6-9.2,14.6l-0.8-0.4C47.6,23.1,64.4,16,76,16z"/>
			<path class="st1" d="M100.5,47.5v-0.4c0-0.1-1.5-11.7-9.1-14.5c-4.6-1.6-6.8-0.5-9.1,0.5c-1.9,0.9-3.6,1.7-6.3,1.7
				c-2.8,0-4.6-0.8-6.2-1.6c-2.4-1.1-4.6-2.1-9.1-0.5c-7.6,2.8-9.1,14.3-9.1,14.5v0.4l-1.1-0.7v-0.1c-1.3-9.7,0.4-17.2,5.2-22.7
				c4.6-5.2,12.2-8.4,20.1-8.4c8,0,15.5,3.1,20.1,8.4c4.8,5.5,6.7,13.1,5.5,22.5v0.1L100.5,47.5z M50.8,46.5l0.3,0.3
				c0.3-2,2.3-11.8,9.4-14.5c4.7-1.7,7.1-0.7,9.5,0.5c1.6,0.8,3.4,1.6,6,1.6c2.7,0,4.4-0.8,6-1.6c2.4-1.2,4.7-2.3,9.5-0.5
				c7.1,2.5,9.1,12.5,9.4,14.5l0.3-0.3c1.2-9.2-0.7-16.8-5.4-22.1c-4.6-5.2-11.9-8.3-19.8-8.3s-15.3,3.1-19.8,8.2
				C51.3,29.8,49.6,37.1,50.8,46.5z"/>
		</g>
		<g>
			<path class="st0" d="M103.8,34.3c0-1.5-1.2-2.5-2.5-2.5H50.9c-1.5,0-2.5,1.2-2.5,2.5l0,0c0,1.5,1.2,2.5,2.5,2.5h50.3
				C102.6,36.9,103.8,35.7,103.8,34.3L103.8,34.3z"/>
			<path class="st1" d="M101.2,37.1H50.9c-1.6,0-2.8-1.3-2.8-2.8c0-1.6,1.3-2.8,2.8-2.8h50.3c1.6,0,2.8,1.3,2.8,2.8
				C104,35.9,102.8,37.1,101.2,37.1z M50.9,32c-1.2,0-2.3,0.9-2.3,2.3c0,1.2,0.9,2.3,2.3,2.3h50.3c1.2,0,2.3-0.9,2.3-2.3
				c0-1.2-0.9-2.3-2.3-2.3H50.9z"/>
		</g>
		<g>
			<polygon class="st0" points="82.4,87.5 85,87.5 85,70.8 82.4,70.2 			"/>
		</g>
		<g>
			<rect x="66.6" y="70.5" class="st0" width="2.9" height="17"/>
		</g>
		<g>
			<rect x="65.3" y="79.8" class="st0" width="21.8" height="18.6"/>
		</g>
		<g>
			<g>
				<path class="st0" d="M75.6,102.4L75.6,102.4h0.3h0.3l0,0l13.8,0.8l-0.7,0.1c-0.3,0.9-3.9,26.8-3.9,26.8H79c0,0,2-14.6-0.3-15.5
					c-0.1,0-1.3,1.6-1.6,1.6c-1.5,0.4-2.7-2.1-2.8-1.9c-1.6,3.4-0.5,15.4-0.5,15.4H67c0,0-3.4-25.5-3.6-26.4L75.6,102.4z"/>
				<path class="st1" d="M85.5,130.4h-7v-0.3c0.7-5.5,1.3-14.2-0.1-15.3c-0.1,0.1-0.3,0.4-0.5,0.5c-0.7,0.8-0.9,0.9-1.1,0.9
					c-1.2,0.4-2.1-0.9-2.7-1.6l-0.1-0.1c-1.5,3.6-0.4,14.9-0.4,15v0.3h-7v-0.1c-1.2-8.8-3.4-25.6-3.6-26.4l-0.1-0.1l12.5-0.9l0,0
					h0.4h0.4l0,0l15,0.8l-1.7,0.4c-0.4,1.6-2.7,18-3.9,26.7V130.4z M79.1,130h6c0.4-2.4,3.5-25.3,3.9-26.7l-13.3-0.7h-0.1l-12.2,0.9
					c0.5,2.7,3.2,23.6,3.6,26h6.3c-0.1-1.7-0.9-12.2,0.5-15.3v-0.1H74c0.1,0,0.3,0.1,0.5,0.4c0.4,0.7,1.3,1.7,2.3,1.5
					c0.1,0,0.5-0.5,0.8-0.8c0.5-0.5,0.7-0.7,0.7-0.7h0.1h0.1C80.8,115.4,79.4,127.6,79.1,130z"/>
			</g>
			<g>
				<path class="st0" d="M63.1,104.3c0-1.9,0-3.9,0-5.9h26.9c0,1.7,0,3.5-0.1,5.9H63.1z"/>
				<path class="st1" d="M90.2,104.6H62.9v-0.3c0-1.9,0-3.8,0-5.9v-0.3h27.3v0.3c0,1.7,0,3.5-0.1,5.9L90.2,104.6z M63.4,104h26.4
					c0.1-2.1,0.1-3.9,0.1-5.4H63.3C63.3,100.5,63.3,102.4,63.4,104z"/>
			</g>
			<g>
				<path class="st3" d="M68.9,109.4V97.5c0-0.7,0.5-1.2,1.2-1.2c0.7,0,1.2,0.5,1.2,1.2v11.9H68.9z"/>
				<path class="st1" d="M71.5,109.6h-2.8V97.5c0-0.8,0.7-1.3,1.3-1.3c0.8,0,1.3,0.7,1.3,1.3v12.2H71.5z M69,109.2h1.9V97.6
					c0-0.5-0.4-0.9-0.9-0.9c-0.5,0-0.9,0.4-0.9,0.9C69,97.6,69,109.2,69,109.2z"/>
			</g>
			<g>
				<path class="st3" d="M70.2,107c1.9,0,3.4,1.5,3.4,3.4c0,1.6-1.1,2.9-2.5,3.2v-2.8h-2.3v2.5c-1.1-0.5-1.7-1.6-1.7-2.9
					C66.9,108.4,68.4,107,70.2,107z"/>
				<path class="st1" d="M70.7,113.8v-2.9h-1.9v2.7l-0.3-0.1c-1.2-0.7-1.9-1.7-1.9-3.1c0-1.9,1.6-3.5,3.5-3.5s3.5,1.6,3.5,3.5
					c0,1.6-1.2,3.1-2.8,3.5H70.7z M68.4,110.5h2.7v2.8c1.2-0.4,2.1-1.6,2.1-2.9c0-1.7-1.3-3.1-3.1-3.1c-1.7,0-3.1,1.3-3.1,3.1
					c0,1.1,0.5,2,1.3,2.5C68.4,112.9,68.4,110.5,68.4,110.5z"/>
			</g>
			<g>
				<g>
					<line class="st4" x1="81.1" y1="130.2" x2="81.1" y2="137"/>
					<rect x="81" y="130.2" class="st1" width="0.4" height="6.8"/>
				</g>
				<g>
					<path class="st3" d="M78.7,138.5c0-0.3,0.1-8.6,0.1-8.6h7.9l-1.3,5.9l0.1,0.1c5.1,2.1,5.8,3.4,4.7,4.2H79
						C78.7,139.5,78.6,139.1,78.7,138.5z"/>
					<path class="st1" d="M90.4,140.2H79v-0.1c-0.4-0.5-0.5-1.1-0.4-1.7c0-0.3,0.1-6.3,0.1-8.6v-0.3H87l-1.3,6l0,0l0,0
						c3.5,1.5,5.1,2.5,5.2,3.5C91,139.5,90.8,139.8,90.4,140.2L90.4,140.2z M79.2,139.8h11c0.3-0.3,0.3-0.4,0.3-0.5
						c-0.1-0.8-1.7-1.9-5-3.2c-0.1,0-0.1-0.1-0.1-0.1l0,0h-0.1l1.2-5.8h-7.4c0,1.5-0.1,8.2-0.1,8.4l0,0
						C78.8,139,79,139.4,79.2,139.8z M78.4,138.3L78.4,138.3L78.4,138.3z"/>
				</g>
				<g>
					<path class="st3" d="M87.1,130.7c0-0.7-0.5-1.3-1.3-1.3H79c-0.7,0-1.3,0.5-1.3,1.3l0,0c0,0.7,0.5,1.3,1.3,1.3h6.8
						C86.6,131.9,87.1,131.4,87.1,130.7L87.1,130.7z"/>
					<path class="st1" d="M85.8,132.2H79c-0.8,0-1.5-0.7-1.5-1.5c0-0.8,0.7-1.5,1.5-1.5h6.8c0.8,0,1.5,0.7,1.5,1.5
						C87.3,131.5,86.7,132.2,85.8,132.2z M79,129.6c-0.5,0-1.1,0.5-1.1,1.1s0.5,1.1,1.1,1.1h6.8c0.5,0,1.1-0.5,1.1-1.1
						s-0.5-1.1-1.1-1.1H79z"/>
				</g>
			</g>
			<g>
				<g>
					<line class="st4" x1="70.9" y1="130.2" x2="70.9" y2="137"/>
					<rect x="70.7" y="130.2" class="st1" width="0.4" height="6.8"/>
				</g>
				<g>
					<path class="st3" d="M73.9,138.5c0-0.3-0.1-8.6-0.1-8.6h-7.9l1.3,5.9l-0.1,0.1c-5.1,2.1-5.8,3.4-4.7,4.2h11.3
						C73.7,139.5,73.9,139.1,73.9,138.5z"/>
					<path class="st1" d="M73.6,140.2H62.2l0,0c-0.4-0.3-0.5-0.7-0.5-1.1c0.1-0.9,1.7-2,5.2-3.5l0,0l0,0l-1.3-6h8.3v0.3
						c0,2.3,0.1,8.4,0.1,8.6C74.1,139.1,74,139.7,73.6,140.2L73.6,140.2z M62.3,139.8h11c0.3-0.4,0.4-0.8,0.3-1.3l0,0
						c0-0.3-0.1-7-0.1-8.4h-7.4l1.2,5.8h-0.1l0,0c0,0.1-0.1,0.1-0.1,0.1c-3.2,1.3-5,2.4-5,3.2C61.9,139.4,61.9,139.5,62.3,139.8z"/>
				</g>
				<g>
					<path class="st3" d="M74.4,130.7c0,0.7-0.5,1.3-1.3,1.3h-6.8c-0.7,0-1.3-0.5-1.3-1.3l0,0c0-0.7,0.5-1.3,1.3-1.3h6.8
						C73.7,129.4,74.4,129.9,74.4,130.7L74.4,130.7z"/>
					<path class="st1" d="M73.1,132.2h-6.8c-0.8,0-1.5-0.7-1.5-1.5c0-0.8,0.7-1.5,1.5-1.5h6.8c0.8,0,1.5,0.7,1.5,1.5
						C74.5,131.5,73.9,132.2,73.1,132.2z M66.2,129.6c-0.5,0-1.1,0.5-1.1,1.1s0.5,1.1,1.1,1.1h6.8c0.5,0,1.1-0.5,1.1-1.1
						s-0.5-1.1-1.1-1.1H66.2z"/>
				</g>
			</g>
		</g>
		<g>
			<path class="st0" d="M50.9,33.7c0.3-13.3,11-24,24.3-24h1.9c13.3,0,24.1,10.7,24.3,24H50.9z"/>
			<path class="st1" d="M101.7,33.9H50.7v-0.3c0.1-6.4,2.7-12.6,7.4-17.2s10.7-7.1,17.3-7.1h1.9c6.6,0,12.6,2.5,17.3,7.1
				c4.7,4.6,7.2,10.7,7.4,17.2L101.7,33.9z M51.2,33.4h49.9c-0.4-12.9-11.1-23.3-24-23.3h-1.9C62.3,10.1,51.6,20.5,51.2,33.4z"/>
		</g>
		<g>
			<path class="st0" d="M61.1,95.4c0,0,2.5,5.2,3.6,5.9c1.1,0.8,1.5-5.1,0.5-7.9c-0.9-2.8-2.8-2.3-2.8-2.3L61.1,95.4z"/>
			<path class="st1" d="M64.9,101.6c-0.1,0-0.3,0-0.3-0.1c-1.1-0.8-3.6-5.8-3.8-6v-0.1l1.5-4.4h0.1c0,0,2-0.5,3.1,2.4
				c0.8,2.5,0.7,7.5-0.3,8.2C65.2,101.6,65,101.6,64.9,101.6z M61.3,95.4c0.7,1.5,2.7,5.2,3.5,5.8c0.1,0,0.1,0,0.1,0
				c0.7-0.5,0.9-5.1,0.1-7.6c-0.8-2.3-2-2.3-2.4-2.1L61.3,95.4z"/>
		</g>
	</g>
	<g>
		<path class="st1" d="M135.4,77.7c0,0-0.1,1.1-8.2,0.5c-8-0.4-13.7-6.2-14.9-6.2c-1.3,0-7,5.6-14.9,6.2c-8,0.4-8.2-0.5-8.2-0.5
			s-2.4,24.4,3.6,35.1c6,10.7,19.4,19.7,19.4,19.7s13.4-8.8,19.4-19.7C137.8,102.1,135.4,77.7,135.4,77.7z"/>
	</g>
	<g>
		<path class="st5" d="M112.3,128.5c-3.8-2.7-12.3-9.7-16.6-17.3c-3.9-6.8-3.9-21.4-3.5-29.6c0.5,0,1.1,0,1.5,0l0,0
			c1.1,0,2.4,0,3.8-0.1c6.4-0.4,11.5-3.6,14.2-5.5c0.1-0.1,0.3-0.3,0.5-0.3c0.1,0.1,0.3,0.3,0.5,0.3c2.7,1.7,7.8,5.1,14.2,5.5
			c1.5,0.1,2.7,0.1,3.8,0.1c0.5,0,0.9,0,1.6,0c0.4,8.2,0.4,22.8-3.5,29.6C124.5,119,116,125.9,112.3,128.5z"/>
		<path class="st1" d="M112.3,129l-0.1-0.1c-3.6-2.7-12.3-9.7-16.8-17.4S91.7,86.6,92,81.5v-0.3h0.3c0.5,0,1.1,0,1.5,0
			c1.1,0,2.4,0,3.8-0.1c6.4-0.4,11.4-3.6,14.1-5.4l0.7-0.4l0.7,0.4c2.7,1.7,7.8,5,14.1,5.4c1.5,0.1,2.7,0.1,3.8,0.1l0,0
			c0.5,0,0.9,0,1.6,0h0.3v0.3c0.3,5,0.9,22-3.5,29.9c-4.4,7.8-13.1,14.7-16.8,17.4V129z M92.5,82c-0.3,5.4-0.8,21.6,3.5,29.2
			c4.3,7.5,12.7,14.3,16.4,17c3.6-2.7,12.1-9.5,16.4-17c4.3-7.5,3.8-23.9,3.5-29.2c-0.4,0-0.9,0-1.3,0c-1.1,0-2.4,0-3.8-0.1
			c-6.6-0.4-11.7-3.8-14.5-5.5l-0.3-0.3l-0.3,0.3c-2.8,1.7-7.9,5.1-14.5,5.5C96.1,82,94.9,82,93.7,82C93.3,82,92.9,82,92.5,82z"/>
	</g>
</g>
</svg>
