<?xml version="1.0" encoding="utf-8"?>
<!-- Generator: Adobe Illustrator 21.1.0, SVG Export Plug-In . SVG Version: 6.00 Build 0)  -->
<svg version="1.1" id="Capa_1" xmlns="http://www.w3.org/2000/svg" xmlns:xlink="http://www.w3.org/1999/xlink" x="0px" y="0px"
	 viewBox="0 0 182 152" style="enable-background:new 0 0 182 152;" xml:space="preserve">
<style type="text/css">
	.st0{fill:#FFFFFF;}
	.st1{fill:#E8F1F9;}
	.st2{fill:#9BB7D3;}
	.st3{fill:#0053A4;}
</style>
<g id="XMLID_2_">
	<g>
		<g id="XMLID_1_">
			<g>
				<path class="st0" d="M84,86H72.1c0,0,1.2-5.4,5.4-5.4s6.6,4.2,6.6,4.7L84,86L84,86z"/>
				<path class="st0" d="M143.3,84.3l0.3,17.8h-33.5l-0.6-17.8C109.5,84.3,136.2,84.3,143.3,84.3z"/>
				<path class="st0" d="M116.6,47.5l0.6,14.2c0,0-15.4,0-16,0c-0.6,0,0-14.2,0-14.2H116.6z"/>
				<path class="st1" d="M123.7,41.6c0,0,24.5,0.6,28.7,0.6c4.2,0,2.4,0.6,2.4,0.6s4.5,31.4,5.1,32L123.7,41.6z"/>
				<path class="st1" d="M109.5,32.7c0.6,0.6,5.9,5.9,5.9,5.9l5.5,5.1l-1.4,1.4c-9.5-0.6-20.7,0-20.7,0l-1.6-1.6l11-10.9
					C108.3,32.7,108.9,32.1,109.5,32.7z"/>
				<path class="st1" d="M107.1,81.9c-0.1-0.2-0.4-0.6,0.6-1.1c1.2-0.6,17.8-16,18.9-16h0.6l18.9,16.6l0.6,0.6h-0.6h-19.6
					L107.1,81.9L107.1,81.9z"/>
				<path class="st2" d="M109.5,84.3l0.6,17.8h33.5l-0.3-17.8C136.2,84.3,109.5,84.3,109.5,84.3z M106.1,82l1-0.1l0,0h19.6h19.6v0.6
					v22.5h-39.7V82.5C106.5,82.5,106.5,82,106.1,82z"/>
				<path class="st1" d="M102.9,81.9c0,0,2.4,0,3,0c0.1,0,0.2,0,0.2,0c0.4,0.1,0.4,0.6,0.4,0.6V105h39.7V82.5h1.2c0,0,3.5,0,4.2,0
					c0.6,0,0.6-0.6,0.6-0.6L129,62.4l-1.8-1.8h-0.6l-5.9,5l-1.2-1.4v-19l1.4-1.4l34.2,31.7c-0.6,0,0,23.7,0,23.7l0.3,17.7h-3
					c0,0-50.1-0.6-52.5,0c0,0,0.4-24.6,0.2-35.1h2c0,0.1,0.1,0.2,0.2,0.2C102.9,81.9,102.9,81.9,102.9,81.9z"/>
				<path class="st2" d="M105.9,81.9c-0.6,0-3,0-3,0s0,0-0.6,0c-0.1,0-0.2-0.1-0.2-0.2c0-0.3,0.7-1,0.7-1l17.8-15.2l5.9-5h0.6
					l1.8,1.8l23.1,19.6c0,0,0,0.6-0.6,0.6c-0.6,0-4.2,0-4.2,0h-1.2v-0.6h0.6l-0.6-0.6l-18.9-16.6h-0.6c-1.2,0-17.8,15.4-18.9,16
					c-1,0.6-0.7,1-0.6,1.1l-1,0.1C106,81.9,105.9,81.9,105.9,81.9z"/>
				<path class="st2" d="M101.1,61.7c0.6,0,16,0,16,0l-0.6-14.2h-15.4C101.1,47.5,100.6,61.7,101.1,61.7z M119.5,64.1H98.8V45.2
					c0,0,11.3-0.6,20.7,0V64.1z"/>
				<path class="st1" d="M101.1,77.2c0.6,0,0.6-0.6,0.6-0.6L82.8,57.7l14.4-14.1l1.6,1.6v18.9h20.7l1.2,1.4l-17.8,15.2
					c0,0-0.7,0.7-0.7,1h-2c0-2.8-0.1-4.6-0.2-4.6C100.5,77.2,100.9,77.2,101.1,77.2z"/>
				<path class="st1" d="M97.8,76.8c0.2,0.2,0.3,0.2,0.4,0.3c0,0,1,0,1.8,0c0.2,0,0.2,1.8,0.2,4.6c0.2,10.5-0.2,35.1-0.2,35.1
					c-2.4,0.6-2.4,1.2-2.4,1.2V77.2L97.8,76.8z"/>
				<path class="st1" d="M82.2,103.9c-0.6,0-1.2,0.6-1.2,1.2c0,0.6,0.6,1.2,1.2,1.2c0.6,0,1.2-0.6,1.2-1.2
					C83.4,104.3,82.8,103.9,82.2,103.9z M84.5,89.6v28.5H72V89.6H84.5z"/>
				<path class="st1" d="M20.2,74.5c0,0,10.7-15.7,12.7-18.1l0,0h5.4c0,0,0.6,0.6,0.6,0c0-0.6,3.5-6.5,3.5-6.5s0-5.9,0.2-7.4
					c0-0.2-0.1-0.4-0.2-0.4h51.6c0,0-13,13.6-13.7,13c-0.6-0.6-2.7-0.9-2.7-0.9S58.4,74.2,57.2,74.8c-1.2,0.6-36.8,0-36.8,0h-0.2
					L20.2,74.5z"/>
				<path class="st1" d="M108.3,28.6h0.6l14.9,13l36.1,33.2c0.6,0.6,2.4,2.4,1.8,2.4c-0.6,0-4.2,0-4.2,0s-1.8-1.8-2.4-1.8
					l-34.2-31.7l-5.5-5.1c0,0-5.4-5.4-5.9-5.9c-0.6-0.6-1.2,0-1.2,0l-11,10.9L82.8,57.7l0,0l-2.4-2.4c0.6,0.6,13.7-13,13.7-13
					s11.8-11.3,13-12.5C108.3,28.6,108.3,28.6,108.3,28.6z"/>
				<polygon class="st2" points="72.1,89.6 72.1,118.1 69.7,118.1 69.7,87.2 86.4,87.2 86.4,118.1 84.5,118.1 84.5,89.6 				"/>
				<path class="st2" d="M72.1,86H84v-0.6c0-0.6-2.4-4.7-6.6-4.7C73.3,80.8,72.1,86,72.1,86z M69.7,87.2c0,0,1.2-9.5,8.3-8.9
					c7.1,0.6,8.9,7.7,8.3,8.9H69.7z"/>
				<path class="st1" d="M33,103.9c0,0,27.3,0.6,27.8,0v12.7l-0.3,0.1c0-0.2-0.1-0.3-0.2-0.3c-0.6,0-1.2,0-1.2,0L24.9,116
					c0,0,1.2-39.1,0.6-39.1v-0.3h34.7c0,0,0.2-0.2,0.4-0.4l0.2,0.1v6.5c0,0-27.3-0.2-27.8-0.2L33,103.9L33,103.9z"/>
				<path class="st1" d="M60.9,116.6v-12.7v-2.2V85.4v-2.6v-6.5l-0.2-0.1c0.2-0.2,0.6-0.5,0.8-0.8c0.6-0.6,17.2-17.2,17.2-17.2
					s0.6,0,1.2,0.6c0.6,0.6,15.2,15.7,18,18.1l-0.2,0.3v40.9H86.4V87.2c0.6-1.2-1.2-8.3-8.3-8.9c-7.1-0.6-8.3,8.9-8.3,8.9v30.9h-9.5
					c0,0,0.3-1,0.2-1.4L60.9,116.6z"/>
				<path class="st2" d="M36,101.5c0,0,23.7,0.3,24.9,0.2v2.2c-0.6,0.6-27.8,0-27.8,0V82.5c0.6,0,27.8,0.2,27.8,0.2v2.6H35.4
					C35.4,85.4,36,100.8,36,101.5z"/>
				<path class="st1" d="M40.7,26.8c0,0.2,0,0.4,0,0.4c-0.6-0.5-1.3-0.9-1.6-1l0,0v-2.4c0.1,0,0.2,0,0.4,0c0.6,0,1.2,0,1.2,0
					S40.7,26.2,40.7,26.8z"/>
				<path class="st1" d="M40.7,27.2c0.9,0.6,1.8,1.4,1.8,1.4v13.6c0.1,0,0.2,0.2,0.2,0.4c-0.2,1.4-0.2,7.4-0.2,7.4S39,55.8,39,56.4
					c0,0.6-0.6,0-0.6,0V26.2c0,0,0,0,0.6,0c0.1,0,0.1,0,0.2,0C39.4,26.3,40.1,26.8,40.7,27.2z"/>
				<path class="st1" d="M35.4,22c0.6,0,2.4,0,2.4,0v3.9c-0.8-0.1-2,0-3,0.1v-3.4C34.8,22.6,34.8,22,35.4,22z"/>
				<path class="st0" d="M36,101.5c0-0.6-0.6-16.1-0.6-16.1h25.5v16.2C59.7,101.8,36,101.5,36,101.5z"/>
				<path class="st1" d="M33.6,26.2c0,0,0.5-0.1,1.2-0.2c1-0.1,2.2-0.2,3-0.1c0.2,0,0.5,0.1,0.6,0.2v30.2H33l0,0
					c0.2-0.2,0.2-0.2,0.3-0.2L33.6,26.2z"/>
				<path class="st1" d="M57.3,74.8c1.2-0.6,20.4-20.5,20.4-20.5s2.2,0.2,2.7,0.9l2.4,2.4l0,0l18.9,18.9c0,0,0,0.6-0.6,0.6
					c-0.2,0-0.7,0-1.2,0c-0.9,0-1.8,0-1.8,0c-0.1,0-0.2-0.2-0.4-0.3c-2.8-2.4-17.4-17.5-18-18.1c-0.6-0.6-1.2-0.6-1.2-0.6
					S62.1,74.8,61.4,75.4c-0.3,0.3-0.6,0.6-0.8,0.8c-0.2,0.2-0.4,0.4-0.4,0.4H25.6v0.3h-5l-0.3-2.1h0.2
					C20.6,74.8,56.1,75.4,57.3,74.8z"/>
			</g>
			<g>
				<g>
					<path class="st3" d="M97.5,118.5H60.1c-0.2,0-0.4-0.1-0.5-0.2c-0.1-0.2-0.2-0.3-0.1-0.6c0.1-0.3,0.2-0.7,0.2-1h-0.9l-34.1-0.3
						c-0.2,0-0.3-0.1-0.4-0.2c-0.1-0.1-0.2-0.2-0.2-0.4c0.4-14.1,1-35.2,0.7-38.4h-4.5c-0.3,0-0.6-0.2-0.6-0.5l-0.3-2.1
						c0-0.2,0-0.2,0.1-0.3l0.1-0.2c0,0,0-0.1,0.1-0.1c0.4-0.6,10.8-15.8,12.8-18.1c0.1-0.1,0.1-0.2,0.2-0.2l0.3-29.7
						c0-0.3,0.2-0.6,0.5-0.6c0,0,0.5-0.1,1.2-0.2c1.4-0.2,2.5-0.2,3.1-0.1c0.3,0,0.7,0.2,1,0.4C39,26,39,26.2,39,26.3v28.6
						c0.5-1,1.4-2.5,2.9-5.1c0-1,0-5.9,0.2-7.3l0,0c-0.1-0.1-0.2-0.2-0.2-0.4c0-0.3,0.2-0.6,0.6-0.6h51.3
						c1.4-1.4,11.8-11.2,12.9-12.3l1.2-1.2c0.1-0.1,0.2-0.2,0.4-0.2h0.6c0.2,0,0.3,0.1,0.4,0.2l14.6,12.9c2.5,0.1,24.5,0.6,28.5,0.6
						c2.8,0,3.3,0.2,3.4,0.8c0,0.2,0,0.4-0.3,0.7c1.7,11.9,4.4,29.7,5,31.3c0.6,0.6,2.2,2.2,2,3c-0.1,0.3-0.4,0.5-0.7,0.5h-4.2
						c-0.2,0-0.3-0.1-0.4-0.2c-0.6-0.6-1.1-1-1.5-1.4c-0.2,3,0,15.1,0.2,22.9l0.3,17.7c0,0.2-0.1,0.3-0.2,0.4
						c-0.1,0.1-0.2,0.2-0.4,0.2h-3c-20.1-0.2-50.7-0.5-52.4,0c-1.5,0.3-1.9,0.7-2,0.8C98,118.3,97.8,118.5,97.5,118.5z M98.1,118.1
						L98.1,118.1L98.1,118.1z M98.2,117.9L98.2,117.9L98.2,117.9z M98.2,117.9L98.2,117.9L98.2,117.9z M98.2,117.9L98.2,117.9
						L98.2,117.9z M60.9,117.3h36.3c0.3-0.4,1.1-0.8,2.6-1.2c2.4-0.6,47.6-0.1,52.7,0h2.3L154.5,99c-0.6-23.4-0.1-24,0.2-24.1
						c0.6-0.6,2.2,0.6,3.1,1.6h3c-0.4-0.5-0.9-1-1.3-1.4c-0.2-0.2-0.8-0.7-5.3-32.3c-0.4,0-1-0.1-1.8-0.1c-4.1,0-28.5-0.6-28.7-0.6
						c-0.2,0-0.2-0.1-0.4-0.2l-14.8-12.9h-0.1l-1,1c-1.2,1.2-12.5,12-13,12.5c-0.1,0.1-0.2,0.2-0.4,0.2H43.2C43,44.3,43,50,43,50.1
						c0,0.1,0,0.2-0.1,0.3c-1.6,2.7-3.4,5.8-3.4,6.2c0,0.5-0.3,0.7-0.5,0.8c-0.5,0.2-0.9-0.2-1.1-0.5c-0.1-0.1-0.2-0.2-0.2-0.4V26.6
						c0,0,0,0-0.1,0c-0.4-0.1-1.2-0.1-2.9,0.1c-0.2,0-0.5,0.1-0.6,0.1l-0.3,29.5c0,0.2-0.2,0.5-0.4,0.6l-0.1,0.1
						c-1.8,2.2-11.8,16.8-12.6,17.9l0.2,1.4h4.5c0.2,0,0.3,0.1,0.5,0.2c0.2,0.2,0.7,0.7-0.5,38.9l34.7,0.3c0.4,0,0.8,0.2,0.8,0.9
						C61,116.7,60.9,117,60.9,117.3z M33.3,56.8L33.3,56.8L33.3,56.8z"/>
				</g>
				<g>
					<path class="st3" d="M46.4,75.6c-9,0-20.9-0.2-25.9-0.2c-0.3,0-0.6-0.2-0.6-0.6c0-0.4,0.2-0.6,0.6-0.6c14,0.2,35.2,0.4,36.5,0
						c1-0.6,12.6-12.5,20.1-20.3c0.2-0.2,0.3-0.2,0.5-0.2c0.5,0.1,2,0.2,2.8,0.8c1.4-1,7.7-7.1,13.1-12.8c0.2-0.2,0.6-0.2,0.9,0
						s0.2,0.6,0,0.9c-13.4,14-14,13.5-14.5,13c0,0,0,0-0.1-0.1c-0.2-0.2-1.2-0.5-2.1-0.6c-3.7,3.8-19.1,19.8-20.4,20.4
						C57.1,75.6,52.4,75.6,46.4,75.6z"/>
				</g>
				<g>
					<path class="st3" d="M82.8,58.3c-0.2,0-0.3-0.1-0.4-0.2L80,55.7c-0.2-0.2-0.2-0.6,0-0.9s0.6-0.2,0.9,0l2.4,2.4
						c0.2,0.2,0.2,0.6,0,0.9C83.2,58.2,83,58.3,82.8,58.3z"/>
				</g>
				<g>
					<path class="st3" d="M101.2,77.7h-3c-0.2,0-0.3-0.1-0.4-0.2h-0.1c-0.1-0.1-0.2-0.2-0.3-0.3c-2.4-2-13.3-13.2-16.9-16.9
						c-0.6-0.6-1-1-1.1-1.1c-0.2-0.2-0.4-0.3-0.6-0.3c-2,2-15.8,15.9-16.9,16.9c-0.2,0.2-0.4,0.4-0.6,0.6c-0.1,0.1-0.2,0.2-0.2,0.2
						l-0.4,0.4c-0.1,0.1-0.2,0.2-0.4,0.2H25.3c-0.3,0-0.6-0.2-0.6-0.6c0-0.4,0.2-0.6,0.6-0.6h34.8l0.2-0.2c0.1-0.1,0.2-0.2,0.2-0.2
						c0.2-0.2,0.3-0.3,0.5-0.5l0.1-0.1c0.5-0.5,12.5-12.5,17.2-17.2c0.1-0.1,0.2-0.2,0.4-0.2c0.1,0,0.8,0,1.6,0.7
						c0.1,0.1,0.6,0.6,1.2,1.2c3.6,3.7,14.5,14.9,16.8,16.9c0.1,0.1,0.2,0.2,0.2,0.2h2.5L82.5,58.1c-0.2-0.2-0.2-0.6,0-0.9
						s0.6-0.2,0.9,0l18.9,18.9c0.1,0.1,0.2,0.2,0.2,0.4C102.4,77.1,102.1,77.7,101.2,77.7z"/>
				</g>
				<g>
					<path class="st3" d="M155.1,76c-0.2,0-0.3-0.1-0.4-0.2L115,39.1c-0.2-0.2-5.4-5.3-6-6c0,0-0.2-0.2-0.3,0L97.6,44L83.2,58.1
						c-0.2,0.2-0.6,0.2-0.9,0c-0.2-0.2-0.2-0.6,0-0.9l14.4-14.1l11-10.9c0.4-0.4,1.2-0.7,2,0c0.5,0.6,4.1,4.2,5.9,5.9l5.5,5.1
						l34.2,31.7c0.2,0.2,0.2,0.6,0,0.9C155.4,76,155.3,76,155.1,76z"/>
				</g>
				<g>
					<path class="st3" d="M159.8,75.3c-0.2,0-0.3-0.1-0.4-0.2L123.3,42c-0.2-0.2-0.2-0.6,0-0.9c0.2-0.2,0.6-0.2,0.9,0l36.1,33.2
						c0.2,0.2,0.2,0.6,0,0.9C160.1,75.3,160,75.3,159.8,75.3z"/>
				</g>
				<g>
					<path class="st3" d="M86.4,87.9H69.7c-0.2,0-0.3-0.1-0.5-0.2c-0.2-0.2-0.2-0.3-0.2-0.5c0-0.1,1.4-10.1,9-9.4
						c4.5,0.3,6.7,3.1,7.7,4.8c1.2,2,1.5,4.2,1.1,5C86.8,87.7,86.6,87.9,86.4,87.9z M70.4,86.7h15.4c0-0.6-0.2-2-1.1-3.5
						c-1-1.8-3-3.8-6.7-4.2C72.5,78.4,70.8,84.5,70.4,86.7z"/>
				</g>
				<g>
					<path class="st3" d="M72.1,86.7C72.1,86.7,72,86.6,72.1,86.7c-0.4,0-0.6-0.3-0.6-0.6V86c0-0.1,0-0.2,0.1-0.3
						c0.3-1.1,1.8-5.6,5.9-5.6c4.6,0,7.1,4.5,7.1,5.4V86c0,0.3-0.2,0.6-0.6,0.6H72.4C72.4,86.6,72.2,86.7,72.1,86.7z M72.9,85.3
						h10.5c-0.2-0.6-2.4-4.1-5.9-4.1C74.8,81.2,73.5,84,72.9,85.3z"/>
				</g>
				<g>
					<path class="st3" d="M69.7,118.6c-0.3,0-0.6-0.2-0.6-0.6V87.1c0-0.3,0.2-0.6,0.6-0.6s0.6,0.2,0.6,0.6V118
						C70.3,118.4,70,118.6,69.7,118.6z"/>
				</g>
				<g>
					<path class="st3" d="M84.5,118.6c-0.3,0-0.6-0.2-0.6-0.6V90.2H72.7V118c0,0.3-0.2,0.6-0.6,0.6c-0.4,0-0.6-0.2-0.6-0.6V89.5
						c0-0.3,0.2-0.6,0.6-0.6h12.4c0.3,0,0.6,0.2,0.6,0.6V118C85.1,118.4,84.8,118.6,84.5,118.6z"/>
				</g>
				<g>
					<path class="st3" d="M86.4,118.6c-0.3,0-0.6-0.2-0.6-0.6V87.1c0-0.3,0.2-0.6,0.6-0.6c0.4,0,0.6,0.2,0.6,0.6V118
						C87,118.4,86.7,118.6,86.4,118.6z"/>
				</g>
				<g>
					<path class="st3" d="M82.2,106.8c-1,0-1.8-0.8-1.8-1.8c0-1,0.9-1.8,1.8-1.8c1,0,1.8,0.8,1.8,1.8c0,0.9-0.9,1.7-1.7,1.8
						C82.3,106.8,82.2,106.8,82.2,106.8z M82.2,104.4c-0.2,0-0.6,0.3-0.6,0.6c0,0.3,0.2,0.6,0.6,0.6c0.3-0.1,0.6-0.4,0.6-0.6
						C82.8,104.7,82.5,104.4,82.2,104.4z"/>
				</g>
				<g>
					<path class="st3" d="M60.9,117.2c-0.3,0-0.6-0.2-0.6-0.6V76.3c0-0.3,0.2-0.6,0.6-0.6s0.6,0.2,0.6,0.6v40.3
						C61.4,116.9,61.2,117.2,60.9,117.2z"/>
				</g>
				<g>
					<path class="st3" d="M52.4,104.7c-4.2,0-10.3-0.1-19.3-0.3c-0.3,0-0.6-0.2-0.6-0.6V82.5c0-0.3,0.2-0.6,0.6-0.6
						c0.6,0,26.7,0.2,27.8,0.2c0.3,0,0.6,0.2,0.6,0.6c0,0.3-0.2,0.6-0.6,0.6l0,0c-0.2,0-23.2-0.2-27.2-0.2v20.2
						c9.9,0.2,25.5,0.4,26.9,0.1c0.2-0.2,0.5-0.1,0.7,0.1c0.2,0.2,0.2,0.6,0.1,0.9C61.2,104.4,60.9,104.7,52.4,104.7z M60.4,103.5
						L60.4,103.5L60.4,103.5z M60.4,103.5L60.4,103.5L60.4,103.5z"/>
				</g>
				<g>
					<path class="st3" d="M57.6,102.3c-6.3,0-19.8-0.2-21.7-0.2c-0.3,0-0.6-0.2-0.6-0.6S35,90.7,34.8,85.3c0-0.2,0.1-0.3,0.2-0.4
						s0.2-0.2,0.4-0.2h25.5c0.3,0,0.6,0.2,0.6,0.6c0,0.4-0.2,0.6-0.6,0.6H36c0.1,2.6,0.5,12.3,0.6,14.9c9.5,0.2,23.3,0.2,24.2,0.2
						c0.3-0.1,0.6,0.2,0.6,0.5c0.1,0.3-0.2,0.6-0.5,0.6C60.6,102.3,59.4,102.3,57.6,102.3z"/>
				</g>
				<g>
					<path class="st3" d="M97.6,118.6c-0.3,0-0.6-0.2-0.6-0.6V77.2c0-0.3,0.2-0.6,0.6-0.6c0.4,0,0.6,0.2,0.6,0.6v40.9
						C98.2,118.4,97.9,118.6,97.6,118.6z"/>
				</g>
				<g>
					<path class="st3" d="M99.9,117.4L99.9,117.4c-0.3,0-0.6-0.2-0.6-0.6c0-0.2,0.4-24.7,0.2-35.1c0-3.2-0.1-4.1-0.2-4.3
						c-0.1-0.1-0.1-0.2-0.1-0.3c0-0.3,0.2-0.6,0.6-0.6c0.6,0,0.8,0,0.8,5.3c0.2,10.4-0.2,34.9-0.2,35.1
						C100.5,117.2,100.3,117.4,99.9,117.4z M99.9,77.7L99.9,77.7L99.9,77.7z M99.9,77.7L99.9,77.7L99.9,77.7z M99.9,77.7L99.9,77.7
						L99.9,77.7z"/>
				</g>
				<g>
					<path class="st3" d="M146.2,105.6h-39.7c-0.3,0-0.6-0.2-0.6-0.6V82.5h-3.5c-0.4,0-0.8-0.3-0.8-0.7s0.3-0.9,0.9-1.4l23.7-20.2
						c0.1-0.1,0.2-0.2,0.4-0.2h0.6c0.2,0,0.3,0.1,0.4,0.2l1.8,1.8l23.3,19.5c0.2,0.1,0.2,0.3,0.2,0.5c0,0.6-0.4,1.2-1.2,1.2h-4.8v22
						C146.8,105.4,146.5,105.6,146.2,105.6z M107.1,104.4h38.5v-22c0-0.3,0.2-0.6,0.6-0.6h5l-22.5-19.1l-1.6-1.6H127l-23.6,20.1
						c-0.1,0.1-0.1,0.1-0.2,0.2h2.9h0.1c0.6,0.2,0.9,0.7,0.9,1.1L107.1,104.4L107.1,104.4z"/>
				</g>
				<g>
					<path class="st3" d="M146.7,82.5h-0.5c-0.1,0-0.2,0-0.3-0.1h-38.8c-0.2,0-0.4-0.2-0.6-0.3c-0.1-0.2-0.2-0.5-0.1-1
						c0.2-0.4,0.5-0.7,1-1c0.4-0.2,3.5-3,6.6-5.7c9.5-8.4,11.9-10.4,12.6-10.4h0.6c0.2,0,0.3,0.1,0.4,0.2l18.9,16.6l0.6,0.6
						c0.2,0.2,0.2,0.4,0.2,0.6C147.2,82.4,146.9,82.5,146.7,82.5z M108,81.2h37.1L127,65.4h-0.2c-1,0.5-7.6,6.2-11.9,10.1
						C110.7,79.1,108.6,81,108,81.2z M126.7,65.3L126.7,65.3L126.7,65.3z"/>
				</g>
				<g>
					<path class="st3" d="M143.6,102.7h-33.5c-0.3,0-0.6-0.2-0.6-0.6l-0.6-17.8c0-0.2,0.1-0.3,0.2-0.4s0.2-0.2,0.4-0.2h33.8
						c0.3,0,0.6,0.2,0.6,0.6l0.2,17.8c0,0.2-0.1,0.3-0.2,0.4C143.9,102.6,143.7,102.7,143.6,102.7z M110.7,101.5h32.3l-0.2-16.6
						h-32.5L110.7,101.5z"/>
				</g>
				<g>
					<path class="st3" d="M38.3,57H33c-0.3,0-0.6-0.2-0.6-0.6s0.2-0.6,0.6-0.6h5.4c0.3,0,0.6,0.2,0.6,0.6S38.6,57,38.3,57z"/>
				</g>
				<g>
					<path class="st3" d="M40.7,27.8c-0.2,0-0.2,0-0.3-0.1c-0.6-0.5-1.1-0.8-1.4-0.9h-0.6c-0.3,0-0.6-0.2-0.6-0.6s0.2-0.6,0.6-0.6
						h0.7c0.1,0,0.1,0,0.2,0c0.5,0.2,1.4,0.7,1.8,1c0.2,0.2,0.3,0.6,0.2,0.8C41.1,27.7,40.9,27.8,40.7,27.8z"/>
				</g>
				<g>
					<path class="st3" d="M42.5,43.4c-0.3,0-0.6-0.2-0.6-0.6V29c-0.3-0.2-0.9-0.7-1.5-1.2c-0.2-0.2-0.3-0.6-0.2-0.8
						c0.2-0.2,0.6-0.3,0.8-0.2c0.9,0.6,1.8,1.4,1.8,1.4c0.2,0.1,0.2,0.3,0.2,0.5v14.1C43,43.1,42.8,43.4,42.5,43.4z"/>
				</g>
				<g>
					<path class="st3" d="M37.8,26.7c-0.3,0-0.6-0.2-0.6-0.6v-3.5h-1.8v3.5c0,0.3-0.2,0.6-0.6,0.6c-0.4,0-0.5-0.2-0.5-0.6v-3.6
						c0-0.6,0.4-1.1,1.1-1.1h2.4c0.3,0,0.6,0.2,0.6,0.6v4.2C38.3,26.5,38.1,26.7,37.8,26.7z"/>
				</g>
				<g>
					<path class="st3" d="M40.7,27.8c-0.1,0-0.2,0-0.2-0.1c-0.1,0-0.2-0.1-0.2-0.2c0-0.1-0.1-0.1-0.2-0.2c0-0.1-0.1-0.2-0.1-0.2
						c0-0.1,0-0.2,0.1-0.2c0-0.1,0.1-0.2,0.2-0.2c0.2-0.2,0.6-0.2,0.9,0c0.1,0.1,0.2,0.2,0.2,0.4c0,0.1,0,0.2-0.1,0.2
						c0,0.1-0.1,0.2-0.2,0.2s-0.1,0.1-0.2,0.2C40.9,27.8,40.8,27.8,40.7,27.8z"/>
				</g>
				<g>
					<path class="st3" d="M40.7,27.8c-0.3,0-0.6-0.2-0.6-0.6v-2.8h-1c-0.3,0-0.6-0.2-0.6-0.6c0-0.4,0.2-0.6,0.6-0.6h1.6
						c0.3,0,0.6,0.2,0.6,0.6v3.4C41.3,27.5,41,27.8,40.7,27.8z"/>
				</g>
				<g>
					<path class="st3" d="M39.1,26.7c-0.3,0-0.6-0.2-0.6-0.6v-2.3c0-0.3,0.2-0.6,0.6-0.6c0.4,0,0.6,0.2,0.6,0.6v2.3
						C39.8,26.5,39.4,26.7,39.1,26.7z"/>
				</g>
				<g>
					<path class="st3" d="M119.5,64.7H98.8c-0.3,0-0.6-0.2-0.6-0.6V45.2c0-0.3,0.2-0.6,0.6-0.6c0.1,0,11.4-0.6,20.8,0
						c0.3,0,0.6,0.3,0.6,0.6v18.9C120.2,64.4,119.8,64.7,119.5,64.7z M99.4,63.5H119V45.7c-8-0.4-17.2-0.1-19.5,0L99.4,63.5
						L99.4,63.5z"/>
				</g>
				<g>
					<path class="st3" d="M117.1,62.3h-16c-0.2,0-0.3-0.1-0.5-0.2c-0.2-0.2-0.7-0.7-0.2-14.6c0-0.3,0.2-0.6,0.6-0.6h15.5
						c0.3,0,0.6,0.2,0.6,0.6l0.6,14.2c0,0.2-0.1,0.3-0.2,0.4C117.4,62.3,117.3,62.3,117.1,62.3z M101.6,61.4L101.6,61.4L101.6,61.4z
						 M101.5,61.1h14.9l-0.5-13h-14.3C101.5,53.7,101.4,59.6,101.5,61.1z"/>
				</g>
			</g>
		</g>
	</g>
</g>
</svg>
