<?xml version="1.0" encoding="utf-8"?>
<!-- Generator: Adobe Illustrator 21.1.0, SVG Export Plug-In . SVG Version: 6.00 Build 0)  -->
<svg version="1.1" id="Capa_1" xmlns="http://www.w3.org/2000/svg" xmlns:xlink="http://www.w3.org/1999/xlink" x="0px" y="0px"
	 viewBox="0 0 182 152" style="enable-background:new 0 0 182 152;" xml:space="preserve">
<style type="text/css">
	.st0{fill:#9BB7D3;}
	.st1{fill:#E8F1F9;}
	.st2{fill:#0053A1;}
</style>
<path class="st0" d="M114.2,103.2c-3.2,0-5.7,2.6-5.7,5.7s2.6,5.7,5.7,5.7s5.7-2.6,5.7-5.7C119.9,105.8,117.4,103.3,114.2,103.2z
	 M54,95.8c-3.2,0-5.7,2.6-5.7,5.7c0,3.2,2.6,5.7,5.7,5.7c3.2,0,5.7-2.6,5.7-5.7C59.7,98.4,57.1,95.8,54,95.8z M73.9,102.1
	c-3.8,0-6.9,3.1-6.9,6.9c0,3.8,3.1,6.9,6.9,6.9c3.8,0,6.9-3.1,6.9-6.9C80.8,105.2,77.7,102.1,73.9,102.1z M115.2,93.1
	c2.5,0,4.5-2,4.5-4.5c0-2.5-2-4.5-4.5-4.5c-2.5,0-4.5,2-4.5,4.5C110.7,91.1,112.7,93.1,115.2,93.1z M65,87l-4.5,5.6
	c-0.3,0.4-0.8,0.6-1.4,0.6c-0.5-0.1-1-0.4-1.2-0.9c-0.2-0.5-0.1-1.1,0.2-1.5l4.5-5.6c0.3-0.4,0.8-0.6,1.4-0.6c0.5,0.1,1,0.4,1.2,0.9
	C65.4,86,65.3,86.6,65,87z M67.6,99.9c-0.6,0-1.1-0.3-1.3-0.8c-0.2-0.5-0.2-1.1,0.2-1.5l6.3-7.9c0.5-0.6,1.4-0.7,2.1-0.2
	c0.6,0.5,0.7,1.4,0.2,2.1l-6.3,7.9C68.4,99.7,68,99.9,67.6,99.9L67.6,99.9z M90.8,88.7l-8.5,10.6c-0.5,0.6-1.4,0.7-2.1,0.2
	c-0.6-0.5-0.7-1.4-0.2-2.1l8.5-10.6c0.5-0.6,1.4-0.7,2.1-0.2C91.2,87.1,91.3,88.1,90.8,88.7L90.8,88.7z M105.8,87L90,106.7
	c-0.5,0.6-1.4,0.7-2.1,0.2c-0.6-0.5-0.7-1.4-0.2-2.1l15.8-19.8c0.5-0.6,1.4-0.7,2.1-0.2C106.2,85.4,106.3,86.3,105.8,87L105.8,87z
	 M111.1,97.4l-15,18.8c-0.5,0.6-1.4,0.7-2.1,0.2c-0.6-0.5-0.7-1.4-0.2-2.1l15-18.8c0.5-0.6,1.4-0.7,2.1-0.2S111.6,96.7,111.1,97.4z
	 M129.1,91.9l-5.9,7.4c-0.5,0.6-1.4,0.7-2.1,0.2c-0.6-0.5-0.7-1.4-0.2-2.1l5.9-7.4c0.5-0.6,1.4-0.7,2.1-0.2
	C129.5,90.3,129.6,91.3,129.1,91.9z"/>
<g>
	<path class="st1" d="M123.1,46.8c-1.9,0-3.8,0.3-5.6,1c-2.8-8.4-10-14.5-18.7-16c-8.7-1.5-17.5,2-22.9,9C71.1,37.7,65,37.4,60,40.2
		c-5,2.7-8.1,8-8.1,13.7c0,0.2,0,0.4,0,0.6c-6.2,1.7-10.1,7.6-9.3,13.9c0.8,6.3,6.2,11,12.6,11h67.9c5.8,0,11.3-3.1,14.2-8.1
		c2.9-5.1,2.9-11.3,0-16.3C134.4,49.9,129,46.8,123.1,46.8z"/>
	<path class="st2" d="M123.2,80.4c0,0-0.1,0-0.1,0H55.2c0,0,0,0,0,0c-6.8,0-12.7-5.1-13.6-11.9c-0.9-6.5,3.1-12.7,9.3-14.8
		c0-6,3.4-11.5,8.7-14.4c5.1-2.8,11.2-2.7,16.1,0.2c5.7-6.8,14.5-10.1,23.3-8.6c8.8,1.5,16,7.5,19.2,15.7c1.6-0.5,3.3-0.7,4.9-0.7
		c0,0,0.1,0,0.1,0c6.1,0,11.9,3.3,14.9,8.6c3.1,5.3,3.1,12,0,17.3C135.1,77.1,129.4,80.4,123.2,80.4z M55.2,78.4h67.9
		c0,0,0.1,0,0.1,0c5.4,0,10.5-2.9,13.2-7.6c2.7-4.7,2.7-10.6,0-15.3c-2.7-4.7-7.8-7.6-13.2-7.6c0,0-0.1,0-0.1,0h0c0,0,0,0,0,0
		c-1.8,0-3.5,0.3-5.2,0.9l-1,0.4l-0.3-1c-2.7-8-9.6-13.9-17.9-15.3c-8.4-1.4-16.8,1.9-22,8.6l-0.6,0.7l-0.8-0.5
		c-4.5-2.9-10.2-3.1-14.9-0.6c-4.7,2.5-7.6,7.4-7.6,12.8c0,0.2,0,0.4,0,0.6l0,0.8l-0.8,0.2c-5.6,1.5-9.3,7-8.6,12.8
		C44.4,74,49.4,78.4,55.2,78.4C55.2,78.4,55.2,78.4,55.2,78.4z"/>
</g>
</svg>
