<?xml version="1.0" encoding="utf-8"?>
<!-- Generator: Adobe Illustrator 21.1.0, SVG Export Plug-In . SVG Version: 6.00 Build 0)  -->
<svg version="1.1" id="Capa_1" xmlns="http://www.w3.org/2000/svg" xmlns:xlink="http://www.w3.org/1999/xlink" x="0px" y="0px"
	 viewBox="0 0 182 152" style="enable-background:new 0 0 182 152;" xml:space="preserve">
<style type="text/css">
	.st0{fill:#E8F1F9;}
	.st1{fill:#0053A1;}
</style>
<g>
	<g>
		<path class="st0" d="M68.3,54.4l-5.7,11.3c-0.7,1.4-2.7,1.3-3.3-0.1l-6.5-14.4l-3.4,8.2H38.6l20.8,21.3c0.8,0.8,2.1,0.8,2.9,0
			l20.8-21.3H70.8L68.3,54.4L68.3,54.4z M85.8,35l-0.3-0.3c-5.9-6-15.5-6-21.4,0L60.9,38l-3.2-3.3c-5.9-6-15.5-6-21.4,0L36.1,35
			c-5.6,5.7-5.8,14.7-0.8,20.8h11.7l4.1-9.8c0.6-1.5,2.7-1.5,3.4,0L61,60.6l5.6-11.2c0.7-1.3,2.6-1.3,3.3,0l3.2,6.3h13.6
			C91.6,49.7,91.4,40.7,85.8,35L85.8,35z"/>
		<path class="st1" d="M60.9,82.2c-0.8,0-1.5-0.3-2.1-0.9L36.6,58.6h12.2l4-9.5l7.3,16.2c0.2,0.4,0.5,0.6,0.9,0.6
			c0.4,0,0.7-0.2,0.9-0.5l6.4-12.9l3.1,6.1h14L63,81.3C62.5,81.9,61.7,82.2,60.9,82.2z M40.7,60.3l19.4,19.8c0.5,0.5,1.2,0.5,1.7,0
			l19.4-19.8H70.3l-2-4l-4.9,9.8c-0.5,0.9-1.4,1.5-2.5,1.5c-1.1,0-2-0.6-2.4-1.6l-5.7-12.6L50,60.3H40.7z M61,62.6l-7.4-16.4
			c-0.2-0.5-0.8-0.6-0.9-0.6c-0.1,0-0.7,0.1-0.9,0.6l-4.3,10.4H34.9l-0.3-0.3c-5.3-6.4-4.9-16,0.9-21.9l0.3-0.3
			c3-3.1,7-4.8,11.3-4.8s8.3,1.7,11.3,4.8l2.6,2.6l2.6-2.6c3-3.1,7-4.8,11.3-4.8c0,0,0,0,0,0c4.3,0,8.3,1.7,11.3,4.8l0.3,0.3
			c5.8,5.9,6.1,15.5,0.9,21.9L87,56.6H72.5l-3.4-6.8c-0.2-0.3-0.5-0.5-0.9-0.5h0c-0.4,0-0.7,0.2-0.9,0.5L61,62.6z M52.7,43.9
			c1.1,0,2,0.6,2.4,1.6l5.9,13.1l4.8-9.6c0.5-0.9,1.4-1.5,2.4-1.5c0,0,0,0,0,0c1,0,1.9,0.6,2.4,1.5l2.9,5.8h12.6
			c4.4-5.7,4-14.2-1-19.3l-0.3-0.3c-2.7-2.7-6.2-4.2-10.1-4.2c0,0,0,0,0,0c-3.8,0-7.4,1.5-10.1,4.2l-3.8,3.9l-3.8-3.9
			c-2.7-2.7-6.3-4.3-10.1-4.3s-7.4,1.5-10.1,4.3l-0.3,0.3c-5.1,5.2-5.5,13.6-1,19.3h10.7l3.9-9.3C50.7,44.6,51.6,44,52.7,43.9
			C52.7,43.9,52.7,43.9,52.7,43.9z"/>
	</g>
	<g>
		<path class="st0" d="M128.4,54.4l-5.7,11.3c-0.7,1.4-2.7,1.3-3.3-0.1l-6.5-14.4l-3.4,8.2H98.7l20.8,21.3c0.8,0.8,2.1,0.8,2.9,0
			l20.8-21.3h-12.5L128.4,54.4L128.4,54.4z M145.9,35l-0.3-0.3c-5.9-6-15.5-6-21.4,0l-3.2,3.3l-3.2-3.3c-5.9-6-15.5-6-21.4,0
			L96.2,35c-5.6,5.7-5.8,14.7-0.8,20.8h11.7l4.1-9.8c0.6-1.5,2.7-1.5,3.4,0l6.6,14.8l5.6-11.2c0.7-1.3,2.6-1.3,3.3,0l3.2,6.3h13.6
			C151.7,49.7,151.5,40.7,145.9,35L145.9,35z"/>
		<path class="st1" d="M121.1,82.2c-0.8,0-1.5-0.3-2.1-0.9L96.7,58.6h12.2l4-9.5l7.3,16.2c0.2,0.4,0.5,0.6,0.9,0.6
			c0.4,0,0.7-0.2,0.9-0.5l6.4-12.9l3.1,6.1h14l-22.3,22.8C122.6,81.9,121.8,82.2,121.1,82.2z M100.8,60.3l19.4,19.8
			c0.5,0.5,1.2,0.5,1.7,0l19.4-19.8h-10.9l-2-4l-4.9,9.8c-0.5,0.9-1.4,1.5-2.5,1.5c-1.1,0-2-0.6-2.4-1.6l-5.7-12.6l-2.9,6.9H100.8z
			 M121.1,62.6l-7.4-16.4c-0.2-0.5-0.8-0.6-0.9-0.6c-0.1,0-0.7,0.1-0.9,0.6l-4.3,10.4H95l-0.3-0.3c-5.3-6.4-4.9-16,0.9-21.9l0.3-0.3
			c3-3.1,7-4.8,11.3-4.8c4.3,0,8.3,1.7,11.3,4.8l2.6,2.6l2.6-2.6c3-3.1,7-4.8,11.3-4.8c0,0,0,0,0,0c4.3,0,8.3,1.7,11.3,4.8l0.3,0.3
			c5.8,5.9,6.1,15.5,0.9,21.9l-0.3,0.3h-14.5l-3.4-6.8c-0.2-0.3-0.5-0.5-0.9-0.5h0c-0.4,0-0.7,0.2-0.9,0.5L121.1,62.6z M112.8,43.9
			c1.1,0,2,0.6,2.4,1.6l5.9,13.1l4.8-9.6c0.5-0.9,1.4-1.5,2.4-1.5c0,0,0,0,0,0c1,0,1.9,0.6,2.4,1.5l2.9,5.8h12.6
			c4.4-5.7,4-14.2-1-19.3l-0.3-0.3c-2.7-2.7-6.2-4.2-10.1-4.2c0,0,0,0,0,0c-3.8,0-7.4,1.5-10.1,4.2l-3.8,3.9l-3.8-3.9
			c-2.7-2.7-6.3-4.3-10.1-4.3c-3.8,0-7.4,1.5-10.1,4.3l-0.3,0.3c-5.1,5.2-5.5,13.6-1,19.3h10.7l3.9-9.3
			C110.8,44.6,111.7,44,112.8,43.9C112.8,43.9,112.8,43.9,112.8,43.9z"/>
	</g>
	<g>
		<path class="st0" d="M98.3,98.3l-5.7,11.3c-0.7,1.4-2.7,1.3-3.3-0.1l-6.5-14.4l-3.4,8.2H68.7l20.8,21.3c0.8,0.8,2.1,0.8,2.9,0
			l20.8-21.3h-12.5L98.3,98.3L98.3,98.3z M115.9,78.9l-0.3-0.3c-5.9-6-15.5-6-21.4,0L91,81.9l-3.2-3.3c-5.9-6-15.5-6-21.4,0
			l-0.3,0.3c-5.6,5.7-5.8,14.7-0.8,20.8H77l4.1-9.8c0.6-1.5,2.7-1.5,3.4,0l6.6,14.8l5.6-11.2c0.7-1.3,2.6-1.3,3.3,0l3.2,6.3h13.6
			C121.7,93.6,121.4,84.6,115.9,78.9L115.9,78.9z"/>
		<path class="st1" d="M91,126.1c-0.8,0-1.5-0.3-2.1-0.9l-22.3-22.8h12.2l4-9.5l7.3,16.2c0.2,0.4,0.5,0.6,0.9,0.6
			c0.4,0,0.7-0.2,0.9-0.5l6.4-12.9l3.1,6.1h14l-22.3,22.8C92.5,125.8,91.8,126.1,91,126.1z M70.7,104.2L90.1,124
			c0.5,0.5,1.2,0.5,1.7,0l19.4-19.8h-10.9l-2-4l-4.9,9.8c-0.5,0.9-1.4,1.5-2.5,1.5c-1.1,0-2-0.6-2.4-1.6l-5.7-12.6l-2.9,6.9H70.7z
			 M91.1,106.6l-7.4-16.4c-0.2-0.5-0.8-0.6-0.9-0.6c-0.1,0-0.7,0.1-0.9,0.6l-4.3,10.4H64.9l-0.3-0.3c-5.3-6.4-4.9-16,0.9-21.9
			l0.3-0.3c3-3.1,7-4.8,11.3-4.8c4.3,0,8.3,1.7,11.3,4.8l2.6,2.6l2.6-2.6c3-3.1,7-4.8,11.3-4.8c0,0,0,0,0,0c4.3,0,8.3,1.7,11.3,4.8
			l0.3,0.3c5.8,5.9,6.1,15.5,0.9,21.9l-0.3,0.3h-14.5l-3.4-6.8c-0.2-0.3-0.5-0.5-0.9-0.5h0c-0.4,0-0.7,0.2-0.9,0.5L91.1,106.6z
			 M82.8,87.9c1.1,0,2,0.6,2.4,1.6l5.9,13.1l4.8-9.6c0.5-0.9,1.4-1.5,2.4-1.5c0,0,0,0,0,0c1,0,1.9,0.6,2.4,1.5l2.9,5.8h12.6
			c4.4-5.7,4-14.2-1-19.3l-0.3-0.3c-2.7-2.7-6.2-4.2-10.1-4.2c0,0,0,0,0,0c-3.8,0-7.4,1.5-10.1,4.2L91,83.1l-3.8-3.9
			c-2.7-2.7-6.3-4.3-10.1-4.3c-3.8,0-7.4,1.5-10.1,4.3l-0.3,0.3c-5.1,5.2-5.5,13.6-1,19.3h10.7l3.9-9.3
			C80.7,88.5,81.7,87.9,82.8,87.9C82.8,87.9,82.8,87.9,82.8,87.9z"/>
	</g>
</g>
</svg>
