<?xml version="1.0" encoding="utf-8"?>
<!-- Generator: Adobe Illustrator 21.1.0, SVG Export Plug-In . SVG Version: 6.00 Build 0)  -->
<svg version="1.1" id="Capa_1" xmlns="http://www.w3.org/2000/svg" xmlns:xlink="http://www.w3.org/1999/xlink" x="0px" y="0px"
	 viewBox="0 0 182 152" style="enable-background:new 0 0 182 152;" xml:space="preserve">
<style type="text/css">
	.st0{fill:#E8F1F9;}
	.st1{fill:#9BB7D3;}
	.st2{fill:#FFFFFF;}
	.st3{fill:#0A4B98;}
	.st4{fill:none;}
	.st5{fill:#0053A4;}
</style>
<g>
	<ellipse class="st0" cx="101.1" cy="137.1" rx="41.4" ry="9.3"/>
	<g>
		<g>
			<g>
				<polygon class="st1" points="97.9,61 93.7,67.9 94.5,53.5 81.7,65.2 87.6,51.8 79.5,54.4 83.7,48.8 67.7,49.4 84.8,42.4 
					69.4,36 86.3,35.3 78.5,30.1 87.8,31.4 78.8,20.4 92.2,25.9 89.8,8.7 102.5,20.6 105,12.2 107.6,20.7 117,10.7 115.2,24.6 
					124.8,19.9 118.9,28.4 136.6,24.3 124.1,33.3 125.6,35.1 136.1,35.6 129.2,38.9 				"/>
			</g>
			<g>
				<path class="st2" d="M142.1,95.1c0,0,1.5,5.1,1.2,6.4c-0.3,1.2-4.2-2.5-5.3-5.1c-1.1-2.5,0.4-3.3,0.4-3.3L142.1,95.1z"/>
				<path class="st3" d="M143.1,102c-1.2,0-4.4-3.4-5.3-5.5c-1.2-2.7,0.6-3.7,0.6-3.7l0.1-0.1l3.9,2.1v0.1c0.2,0.5,1.5,5.3,1.2,6.5
					C143.6,101.8,143.4,101.9,143.1,102L143.1,102z M138.5,93.4c-0.3,0.2-1,1-0.2,2.9c1.1,2.4,4.3,5.3,4.8,5.1
					c0.2-0.9-0.8-4.6-1.2-6.1L138.5,93.4z"/>
			</g>
			<g>
				<path class="st2" d="M86.8,100.9c0,0-6.6-2.1-7.6-2.1c-1.1,0.1,2.5,4.1,4.9,5.5c2.3,1.4,2.9,0.1,2.9,0.1L86.8,100.9z"/>
				<path class="st3" d="M85.9,105.2c-0.6,0-1.2-0.2-2-0.7c-1.8-1.1-5.4-4.6-5.2-5.6c0-0.2,0.2-0.3,0.4-0.3c1.1-0.1,7.1,1.8,7.7,2.1
					l0.2,0.1l0.2,3.8v0.1c0,0-0.2,0.4-0.8,0.6C86.3,105.2,86.1,105.2,85.9,105.2z M79.2,99.1c0.2,0.7,2.8,3.7,4.9,5
					c1.1,0.6,1.7,0.7,2.1,0.6c0.3-0.1,0.4-0.2,0.4-0.3l-0.2-3.3C84,100.3,80.1,99.1,79.2,99.1z"/>
			</g>
			<g>
				<path class="st0" d="M101.3,86.9c1.6-1.7,3.5-0.2,3.5-0.2s1.1,1.4,1.7,7.2c0.5,5.3,1.5,6.2,2.4,9.3l2.2-0.6l0,0l17.7-8.2l0,0
					l2.9-0.8c-1.2-4.5-1.2-4.1-4.4-12.9c10.1-2.2,9.7,10.5,9.7,10.5l4.4,1.7c0,0,3.4-9.2-1.4-15.6c-8.4-9.5-22-5.4-22-5.4l-4.2,3.3
					l-5.4-0.6l-6,1.8c0,0-8.3,3.4-7.1,11.9c0,0,3.8,8.4-2.8,10.5c-5.4,1.8-5.4,1.9-5.4,1.9v3.6c0,0,8.3,0.3,13.3-1.7
					C106,100.1,101.3,86.9,101.3,86.9z"/>
				<path class="st3" d="M88.5,104.5c-0.9,0-1.4,0-1.5,0h-0.3v-4v-0.1c0.1-0.1,0.1-0.2,5.6-2c1.6-0.5,2.6-1.4,3.2-2.7
					c1.4-3.1-0.6-7.4-0.6-7.5v-0.1c-1.2-8.6,7.2-12.2,7.3-12.2l6-1.8l5.3,0.6l4.2-3.2l0,0c0.1,0,13.8-4,22.2,5.5
					c4.9,6.5,1.5,15.8,1.5,15.9l-0.1,0.3l-4.8-1.8v-0.2c0-0.1,0.2-6.4-3.2-9.2c-1.5-1.2-3.4-1.6-5.8-1.1c0.9,2.4,1.5,4.1,2,5.4
					c1.2,3.2,1.5,4,2.3,7.2l0.1,0.3l-3.2,0.9l-17.4,8.1l0,0l-0.3,0.1l-2.4,0.7l-0.1-0.3c-0.3-1-0.5-1.7-0.8-2.5
					c-0.6-1.7-1.2-3.2-1.5-6.9c-0.5-5.3-1.4-6.9-1.6-7.1s-1.7-1.1-3,0.1c0.5,1.6,4.4,13.5-1.2,15.8
					C96.6,104.3,91.1,104.5,88.5,104.5z M87.2,104c1.4,0,8.6,0.1,12.9-1.7c5.4-2.3,0.9-15.2,0.9-15.3l-0.1-0.2l0.1-0.1
					c1.8-1.9,3.8-0.3,3.9-0.3l0,0c0,0.1,1.2,1.5,1.7,7.4c0.3,3.6,0.9,5.1,1.5,6.7c0.3,0.7,0.5,1.4,0.8,2.3l1.9-0.5l18-8.3v0.1
					l2.4-0.7c-0.8-3-1.1-3.8-2.2-6.9c-0.5-1.3-1.2-3.1-2.1-5.7l-0.1-0.3l0.3-0.1c2.7-0.6,4.9-0.2,6.6,1.2c3.3,2.7,3.4,8.3,3.4,9.4
					l3.9,1.5c0.5-1.5,2.7-9.5-1.5-15.1c-7.9-8.9-20.7-5.6-21.6-5.3l-4.3,3.3l-5.4-0.6l-5.9,1.7c-0.1,0-8.1,3.4-6.9,11.6
					c0.2,0.5,2,4.7,0.6,7.9c-0.6,1.4-1.8,2.5-3.5,3c-3.8,1.2-4.9,1.7-5.2,1.8L87.2,104L87.2,104z"/>
			</g>
			<g>
				<path class="st2" d="M107.8,77.1c1.4,3,4.9,4.4,7.9,3l0,0c3-1.4,4.2-4.9,2.8-8l-1.4-3c-1.4-3-4.9-4.4-7.9-3l0,0
					c-3,1.4-4.2,4.9-2.8,8L107.8,77.1z"/>
				<path class="st3" d="M113.2,80.8c-0.7,0-1.4-0.1-2.1-0.4c-1.5-0.6-2.7-1.7-3.5-3.2l-1.4-3c-0.7-1.5-0.8-3.2-0.2-4.7
					c0.5-1.5,1.7-2.8,3.2-3.5c3.1-1.4,6.7-0.1,8.2,3.1l1.4,3c0.7,1.5,0.8,3.2,0.2,4.7c-0.5,1.5-1.7,2.8-3.2,3.5
					C115,80.6,114.1,80.8,113.2,80.8z M111.7,65.7c-0.8,0-1.6,0.2-2.4,0.5c-1.4,0.7-2.5,1.8-3,3.3c-0.5,1.4-0.4,3,0.2,4.5l1.4,3
					c0.7,1.4,1.8,2.5,3.3,3.1c1.4,0.5,3,0.5,4.4-0.2s2.5-1.8,3-3.3c0.5-1.4,0.4-3-0.2-4.5l-1.4-3C116,67,113.9,65.7,111.7,65.7z"/>
			</g>
			<g>
				<path class="st2" d="M134.1,52.3c-0.2,13-12.6,23.3-23.9,23.1c-11.3-0.2-23.3-10.9-23.1-23.9S98,28.2,111,28.4
					S134.3,39.4,134.1,52.3z"/>
				<path class="st3" d="M110.5,75.7c-0.1,0-0.2,0-0.3,0c-5.6-0.1-11.5-2.7-16-7.2c-4.8-4.8-7.4-10.8-7.3-16.9
					C87.1,38.5,98,28,111.1,28.3c13.1,0.2,23.6,11.1,23.3,24.2l0,0c-0.1,6.2-2.9,12.1-7.9,16.7C121.9,73.2,116.1,75.7,110.5,75.7z
					 M110.6,28.7c-12.6,0-23,10.1-23.2,22.8c-0.1,6,2.4,11.9,7.1,16.5c4.5,4.4,10.2,7,15.7,7.1c0.1,0,0.2,0,0.3,0
					c10.7,0,23.1-9.9,23.3-22.8l0,0c0.2-12.8-10-23.4-22.8-23.6C110.9,28.7,110.8,28.7,110.6,28.7z"/>
			</g>
			<g>
				<path class="st0" d="M101.1,27.9c10-4,28.1-0.8,33.6,20.5l-0.4,0.6c0,0,0.4,15.5-14.6-5.3c-4.5-6.3-6.9,4.9-12.5,7.2
					c-5.7,2.3-8.2-1.7-14,3.5s-1.4,11.8-1.4,11.8L91.1,66C80.2,46.8,91.1,32,101.1,27.9z"/>
				<path class="st3" d="M93.4,67.4l-2.9-0.7l-0.2-0.3c-6-10.7-5-19.2-3.1-24.5C90,34,96,29.2,100.8,27.3l0,0
					c4.7-1.9,12.5-2.6,19.9,1.2c5,2.5,11.6,8,14.7,19.9l0.1,0.3l-0.5,0.7c0,1.1-0.2,5.1-2.7,5.9c-2.8,1-7.2-2.6-13.2-11
					c-0.8-1-1.4-1.6-2-1.6l0,0c-1.1,0-2.4,1.7-3.8,3.5c-1.6,2.1-3.4,4.5-5.8,5.5c-2.5,1-4.4,0.9-6.2,0.8c-2.4-0.1-4.5-0.3-7.7,2.6
					c-5.2,4.7-1.5,10.6-1.3,10.8L93.4,67.4z M109.3,27.2c-3.1,0-5.8,0.6-8,1.4l0,0c-4.4,1.8-10.1,6.3-12.7,13.7
					c-1.5,4.2-2.4,10.6,0.8,18.6c0-2.2,0.7-4.8,3.2-7.1c3.7-3.3,6.2-3.1,8.7-2.9c1.6,0.1,3.3,0.2,5.5-0.7c2.1-0.8,3.7-3.1,5.2-5
					c1.7-2.2,3.1-4.1,5-4.1l0,0c1.1,0,2.2,0.7,3.3,2.2c7.5,10.4,10.5,10.8,11.5,10.5c1.5-0.5,1.7-3.6,1.7-4.7v-0.2l0.3-0.5
					c-3-11.1-9.2-16.2-13.8-18.6C116.4,27.9,112.7,27.2,109.3,27.2z"/>
			</g>
			<g>
				<g>
					<path class="st0" d="M120.7,98.5L120.7,98.5l1.6-0.8l2.7-1.3l3.9-1.8l3.1-0.8l-0.7,10.3c-0.1,0.3-0.8,4.4-0.6,8
						c0.3,5.9,6,13.1,6.1,15.6c0,0.4-2.9,1-3.4,1h-4.7c-0.3,0-0.6-0.2-0.7-0.5c-0.5-1.3-1.5-4.2-4-7.9c-0.3-0.4-2.1-1.1-2.4-1.5
						s-0.2-1.1-0.4-2c-0.4-2-0.8-7.1-1.3-7.3c-1,0.4-3.6,2.1-4.9,6c-0.1,0.2-1,2.6-1,2.8c0,0.3,1.5,2.7,1.7,2.9
						c3.2,3.9,6.6,7.8,6.6,7.7l-8-0.3c0,0-2.8-1.2-6.4-7.5c0,0-3.1-1.4-2.8-2.7c0.2-1,0.9-3.2,0.8-3.3c-0.1-0.7,2.5-5.4,2.3-6.2
						c-0.5-3.9,0.4-6.6,0.3-6.9L120.7,98.5z"/>
					<path class="st3" d="M122,129.3C121.9,129.3,121.8,129.3,122,129.3l-7.8-0.3l0,0c-0.1,0-2.9-1.3-6.4-7.5
						c-1.4-0.7-3.1-1.8-2.9-3c0.1-0.5,0.3-1.3,0.5-2c0.1-0.5,0.3-1.1,0.3-1.3c0-0.3,0.3-1.1,1.1-2.9c0.5-1.2,1.3-2.9,1.2-3.2
						c-0.4-2.9,0-5.2,0.2-6.3c0-0.3,0.1-0.5,0.1-0.6l-0.1-0.3l0.3-0.1l11.9-3.6l1.7-0.9l6.6-3.1l3.4-0.9l-0.8,10.8
						c-0.1,0.3-0.8,4.4-0.6,7.9c0.2,3.6,2.3,7.5,4,10.7c1.1,2.1,2,3.8,2.1,4.9c0,0.1,0,0.2-0.1,0.3c-0.5,0.5-3.1,1-3.5,1h-4.7
						c-0.4,0-0.8-0.3-1-0.6c-0.1-0.2-0.1-0.4-0.2-0.6c-0.6-1.5-1.6-4.1-3.7-7.3c-0.1-0.1-0.7-0.5-1.1-0.7c-0.7-0.3-1.1-0.6-1.3-0.8
						c-0.2-0.3-0.3-0.7-0.3-1.2c0-0.3,0-0.6-0.1-0.9c-0.2-0.7-0.3-1.9-0.4-3c-0.2-1.4-0.4-3.5-0.7-4c-1.2,0.5-3.4,2.3-4.6,5.8
						c0,0-0.1,0.1-0.1,0.3c-0.6,1.5-0.9,2.3-0.9,2.5c0.1,0.3,1.4,2.4,1.6,2.7c2.9,3.6,5.8,7.1,6.3,7.7v0.1V129.3L122,129.3z
						 M114.3,128.5l7.3,0.2c-0.3-0.4-0.9-1-1.7-1.9c-1.1-1.3-2.8-3.3-4.5-5.3c-0.1-0.1-1.8-2.6-1.8-3.1c0-0.1,0.2-0.6,0.9-2.6
						l0.1-0.3c1.4-3.8,3.9-5.7,5.1-6.2h0.1h0.1c0.4,0.2,0.6,1.2,1,4.5c0.1,1.2,0.3,2.3,0.4,3c0.1,0.4,0.1,0.7,0.1,1
						c0,0.4,0.1,0.7,0.2,0.9c0.1,0.1,0.7,0.4,1.1,0.6c0.7,0.4,1.2,0.6,1.3,0.8c2.2,3.3,3.2,5.8,3.8,7.4c0.1,0.2,0.2,0.4,0.2,0.6
						c0.1,0.2,0.3,0.3,0.4,0.3h4.7c0.5,0,2.7-0.5,3.1-0.8c-0.1-1-1-2.6-2-4.6c-1.7-3.2-3.9-7.3-4.1-11c-0.2-3.5,0.5-7.5,0.7-8
						l0.7-9.9l-2.7,0.7l-6.5,3.1l-1.4,0.7l0,0l-0.2,0.1l-11.8,3.6c0,0.1,0,0.3-0.1,0.5c-0.2,1.1-0.6,3.3-0.2,6.1
						c0.1,0.5-0.4,1.7-1.3,3.5c-0.5,1-1.1,2.4-1.1,2.7c0,0.1,0,0.3-0.3,1.4c-0.2,0.7-0.4,1.5-0.5,2c-0.1,0.6,0.8,1.6,2.6,2.4
						c0.1,0,0.1,0.1,0.2,0.1C111.4,126.9,114,128.3,114.3,128.5z"/>
				</g>
				<g>
					<g>
						<line class="st4" x1="133.4" y1="128.7" x2="134" y2="134.9"/>
						
							<rect x="133.3" y="128.6" transform="matrix(0.996 -8.931390e-02 8.931390e-02 0.996 -11.2338 12.4524)" class="st3" width="0.5" height="6.3"/>
					</g>
					<g>
						<path class="st0" d="M136.4,136c0-0.2-0.6-5.3-0.8-7.2c0-0.4-0.4-0.7-0.8-0.7l-5.6,0.5c-0.5,0-0.8,0.5-0.7,1l1.4,4.4l-0.1,0.2
							c-3.1,3-4.6,4.8-4.3,5.5c0.1,0.3,1.1,0.5,1.4,0.4l8.8-2.6c0.3,0,0.6-0.2,0.7-0.5C136.5,136.7,136.5,136.4,136.4,136z"/>
						<path class="st3" d="M126.9,140.4c-0.4,0-1.4-0.2-1.6-0.6c-0.4-0.8,0.6-2.2,4.3-5.8l0,0l0,0l-1.3-4.3c-0.1-0.3,0-0.6,0.1-0.9
							c0.2-0.3,0.5-0.4,0.8-0.5l5.6-0.5c0.6-0.1,1.1,0.4,1.1,0.9c0.5,4.3,0.7,7,0.8,7.2c0.1,0.4,0.1,0.8,0,1.1
							c-0.1,0.4-0.5,0.7-0.9,0.7L126.9,140.4C127,140.4,126.9,140.4,126.9,140.4z M130.1,134.3L130.1,134.3c0,0.1-0.1,0.1-0.1,0.2
							c-1.4,1.3-4.6,4.5-4.2,5.2c0.1,0.1,0.8,0.3,1.1,0.3l8.8-2.6c0.2,0,0.4-0.2,0.4-0.3c0.1-0.3,0.1-0.6,0-0.9l0,0
							c0-0.2-0.4-4-0.8-7.2c0-0.3-0.3-0.5-0.5-0.4l-5.6,0.5c-0.1,0-0.3,0.1-0.4,0.2s-0.1,0.3-0.1,0.4L130.1,134.3L130.1,134.3z"/>
					</g>
				</g>
			</g>
			<g>
				<polyline class="st2" points="97.6,56.9 101.9,58 98.1,60.3 				"/>
				<path class="st3" d="M98.1,60.6c-0.1,0-0.2,0-0.2-0.1c-0.1-0.1,0-0.3,0.1-0.4l3.3-2l-3.7-1c-0.1,0-0.2-0.2-0.2-0.3
					s0.2-0.2,0.3-0.2l4.3,1.2c0.1,0,0.2,0.1,0.2,0.2s0,0.2-0.1,0.3l-3.8,2.3C98.2,60.6,98.2,60.6,98.1,60.6z"/>
			</g>
			<g>
				<polyline class="st2" points="114.7,57.3 110.2,56.9 113.6,54 				"/>
				<path class="st3" d="M114.7,57.6L114.7,57.6l-4.5-0.4c-0.1,0-0.2-0.1-0.2-0.2s0-0.2,0.1-0.3l3.4-2.9c0.1-0.1,0.3-0.1,0.4,0
					s0.1,0.3,0,0.4l-2.9,2.5l3.8,0.4c0.1,0,0.3,0.1,0.2,0.3C114.9,57.5,114.8,57.6,114.7,57.6z"/>
			</g>
			<g>
				<polygon class="st3" points="108.1,67.8 105.4,65.9 104,67.8 102.4,66.7 101.4,67.6 101.1,67.2 102.3,66 103.8,67.1 105.3,65.1 
					108,67 110.2,63.5 114.5,65.4 114.2,65.9 110.4,64.2 				"/>
			</g>
			<g>
				<g>
					
						<rect x="47" y="50.7" transform="matrix(0.8293 -0.5588 0.5588 0.8293 -28.6502 42.0459)" class="st0" width="15" height="34.4"/>
					<path class="st3" d="M57.9,86.7l-19.5-29L51.3,49l19.5,29L57.9,86.7z M39.1,57.9L58,86l12-8.1l-18.9-28L39.1,57.9z"/>
				</g>
				<g>
					<circle class="st2" cx="48.4" cy="58.8" r="3.1"/>
					<path class="st5" d="M48.4,62.1c-1.9,0-3.4-1.5-3.4-3.4s1.5-3.4,3.4-3.4s3.4,1.5,3.4,3.4S50.3,62.1,48.4,62.1z M48.4,55.9
						c-1.6,0-2.8,1.3-2.8,2.8c0,1.6,1.3,2.8,2.8,2.8c1.6,0,2.8-1.3,2.8-2.8C51.3,57.2,50,55.9,48.4,55.9z"/>
				</g>
				<g>
					<circle class="st2" cx="54" cy="67.1" r="3.1"/>
					<path class="st5" d="M54,70.5c-1.9,0-3.4-1.5-3.4-3.4s1.5-3.4,3.4-3.4s3.4,1.5,3.4,3.4S55.9,70.5,54,70.5z M54,64.2
						c-1.6,0-2.8,1.3-2.8,2.8s1.3,2.8,2.8,2.8c1.6,0,2.8-1.3,2.8-2.8S55.6,64.2,54,64.2z"/>
				</g>
				<g>
					<circle class="st2" cx="59.6" cy="75.4" r="3.1"/>
					<path class="st5" d="M59.6,78.8c-1.9,0-3.4-1.5-3.4-3.4s1.5-3.4,3.4-3.4s3.4,1.5,3.4,3.4C63,77.2,61.5,78.8,59.6,78.8z
						 M59.6,72.5c-1.6,0-2.8,1.3-2.8,2.8c0,1.6,1.3,2.8,2.8,2.8c1.6,0,2.8-1.3,2.8-2.8S61.2,72.5,59.6,72.5z"/>
				</g>
			</g>
			<g>
				<g>
					<path class="st0" d="M121.2,137.2c0-0.2,0.3-5.3,0.4-7.2c0-0.4-0.3-0.8-0.7-0.8l-5.6-0.4c-0.5,0-0.9,0.4-0.8,0.9l0.7,4.6
						c0,0-0.1,0.1-0.1,0.2c-3.5,2.5-5.3,4-5.1,4.8c0.1,0.3,1.5,1,1.8,1l8.6-1.6c0.3,0,0.6-0.1,0.7-0.4
						C121.1,137.9,121.2,137.6,121.2,137.2z"/>
					<path class="st3" d="M111.7,140.5L111.7,140.5c-0.4,0-1.9-0.8-2-1.2c-0.3-0.9,1-2.1,5.1-5.1l0,0l0,0l-0.7-4.5
						c0-0.3,0-0.6,0.3-0.8c0.2-0.2,0.5-0.4,0.8-0.3l5.6,0.4c0.6,0,1,0.5,1,1.1c-0.2,4.4-0.4,7.1-0.4,7.2c0,0.4-0.1,0.8-0.2,1.1
						c-0.2,0.4-0.5,0.6-1,0.6L111.7,140.5z M115.2,134.5L115.2,134.5c0,0.1-0.1,0.1-0.1,0.2c-1.6,1.1-5.2,3.7-5,4.5
						c0.1,0.2,1.2,0.8,1.5,0.8l8.6-1.6l0,0c0.2,0,0.4-0.1,0.5-0.3c0.1-0.3,0.2-0.5,0.2-0.9l0,0c0-0.2,0.2-4,0.4-7.3
						c0-0.3-0.2-0.5-0.5-0.5l-5.6-0.4c-0.1,0-0.3,0-0.4,0.2c-0.1,0.1-0.1,0.3-0.1,0.4l0.7,4.8L115.2,134.5z"/>
				</g>
			</g>
			<g>
				<path class="st3" d="M45.6,3.9c0,0,20.3,6.5,34.5,22.6s-5.8-3.9-7.5-5.5c-5.7-5.3-12.4-10.6-26-15.5S45.6,3.9,45.6,3.9z"/>
			</g>
			<g>
				<path class="st3" d="M78.8,33.3c0,0-14,2-19.7,12.8c-5.8,10.8,3.3-2.2,4.1-3.2c2.8-3.4,6.3-6.6,15.3-8.5
					C87.6,32.6,78.8,33.3,78.8,33.3z"/>
			</g>
			<g>
				<path class="st3" d="M79.5,34.6c0,0-15.5,5.8-18,19.3s3-3.3,3.6-4.7c1.9-4.5,4.7-9,14.6-13.3S79.5,34.6,79.5,34.6z"/>
			</g>
			<g>
				<path class="st3" d="M59.6,7.2c0,0,14,6.5,25.2,18.1s-4.3-3.1-5.6-4.3c-4.4-3.9-9.4-8-18.8-12.7S59.6,7.2,59.6,7.2z"/>
			</g>
		</g>
	</g>
</g>
</svg>
