<?xml version="1.0" encoding="utf-8"?>
<!-- Generator: Adobe Illustrator 21.1.0, SVG Export Plug-In . SVG Version: 6.00 Build 0)  -->
<svg version="1.1" id="Capa_1" xmlns="http://www.w3.org/2000/svg" xmlns:xlink="http://www.w3.org/1999/xlink" x="0px" y="0px"
	 viewBox="0 0 182 152" style="enable-background:new 0 0 182 152;" xml:space="preserve">
<style type="text/css">
	.st0{fill:#9BB7D3;stroke:#0053A1;stroke-width:2;stroke-miterlimit:10;}
	.st1{fill:#E8F1F9;stroke:#0053A1;stroke-width:2;stroke-miterlimit:10;}
	.st2{fill:#9BB7D3;}
</style>
<g>
	<polygon class="st0" points="88.1,85.4 77.3,85.4 77.8,60.6 87.7,56.1 	"/>
	<path class="st1" d="M144.1,67.8c-2.2,0-4.3,0.4-6.4,1l-5.3-9.8h2.8c2.4,0,4.5-1.9,4.5-4.5V37c0-3.1-3.3-5.3-6.1-4l-12.2,5.3
		l-4.2-7.8c-0.7-1.4-2.3-2.3-3.9-2.3H95.7c-1.2,0-2.3,0.5-3.1,1.3l-8.8,8.8c-1.7,1.7-1.7,4.5,0,6.3c1.7,1.7,4.5,1.7,6.3,0l7.5-7.5
		h13.1l2.6,4.9v8.4c-11.2,0.6-19.6,3.4-26.4,6.3v28.8h13.2c2.9,0,5.7-0.6,8.2-1.6c-3.6,6.1-9.1,10.4-17,10.4H64.9
		c-2.4,0-4.5,1.9-4.5,4.5c0,2.5,1.9,4.5,4.5,4.5h26.4c20.1,0,30.8-19.3,30.8-39.6v-4.5h0.4l7.5,14c-4.8,4.1-7.9,10.1-7.9,16.9
		c0,12.2,9.9,22,22,22c12.2,0,22-9.9,22-22S156.1,67.8,144.1,67.8L144.1,67.8z M144.1,103c-7.2,0-13.2-5.9-13.2-13.2
		c0-3.4,1.3-6.5,3.4-8.9l5.9,11c1.2,2.2,3.9,2.9,5.9,1.8c2.2-1.2,2.9-3.9,1.8-5.9l-5.9-11c8.1-1.2,15.2,4.9,15.2,13
		C157.2,97.1,151.3,103,144.1,103z"/>
	<path class="st1" d="M78.1,85.4V60.5c-7.8,3.6-12.5,4.8-19.7-0.5c-1.8-1.7-11.6-9.8-29.1-9.8c-2.4,0-4.5,1.9-4.5,4.5
		s1.9,4.5,4.5,4.5c11.9,0,19.1,4.3,22,6.5v6.7c-3.7-2.8-8.2-4.5-13.2-4.5c-12.2,0-22,9.9-22,22s9.9,22,22,22s22-9.9,22-22
		c0-1.6-0.1-3-0.5-4.5h18.5V85.4z M37.9,103c-7.2,0-13.2-5.9-13.2-13.2c0-7.2,5.9-13.2,13.2-13.2s13.2,5.9,13.2,13.2
		S45.3,103,37.9,103z"/>
	<circle class="st2" cx="37.9" cy="89.7" r="4.5"/>
</g>
</svg>
