<?xml version="1.0" encoding="utf-8"?>
<!-- Generator: Adobe Illustrator 21.1.0, SVG Export Plug-In . SVG Version: 6.00 Build 0)  -->
<svg version="1.1" id="Capa_1" xmlns="http://www.w3.org/2000/svg" xmlns:xlink="http://www.w3.org/1999/xlink" x="0px" y="0px"
	 viewBox="0 0 182 152" style="enable-background:new 0 0 182 152;" xml:space="preserve">
<style type="text/css">
	.st0{fill:#E8F1F9;}
	.st1{fill:#0053A1;}
</style>
<g>
	<path class="st0" d="M135.4,99l-21.2-21.2c-4.2-4.2-10.4-5-15.5-2.5L79.4,55.9V44.7L56.2,27.3L44.6,38.9L62,62.1h11.3l19.3,19.3
		c-2.5,5-1.7,11.3,2.5,15.5l21.2,21.2c2.6,2.6,6.9,2.6,9.6,0l9.6-9.6C138.1,105.9,138.1,101.6,135.4,99L135.4,99z M104.7,68.1
		c5.1,0,10,2,13.6,5.6l3.5,3.5c2.9-1.3,5.6-3,7.9-5.3c6.7-6.7,9-16.2,6.9-24.8c-0.4-1.6-2.4-2.2-3.6-1l-13.5,13.5l-12.3-2l-2-12.3
		l13.5-13.5c1.2-1.2,0.6-3.2-1-3.7c-8.6-2.1-18.1,0.2-24.8,6.9c-5.2,5.2-7.6,12-7.5,18.8l14.9,14.9
		C101.7,68.2,103.2,68.1,104.7,68.1L104.7,68.1z M85.9,82.9L75.6,72.6L48,100.3c-4.5,4.5-4.5,11.9,0,16.4s11.9,4.5,16.4,0l22.4-22.4
		C85.4,90.7,85,86.8,85.9,82.9L85.9,82.9z M56.2,112.8c-2.4,0-4.3-2-4.3-4.3c0-2.4,1.9-4.3,4.3-4.3s4.3,1.9,4.3,4.3
		C60.6,110.9,58.6,112.8,56.2,112.8z"/>
	<path class="st1" d="M56.2,121.1c-3.4,0-6.5-1.3-8.9-3.7c-4.9-4.9-4.9-12.9,0-17.8l28.3-28.3L87,82.6l-0.1,0.5
		c-0.8,3.5-0.5,7.2,0.9,10.8l0.2,0.6l-22.8,22.8C62.7,119.8,59.6,121.1,56.2,121.1z M75.6,74l-26.9,27c-4.1,4.1-4.1,10.9,0,15
		c2,2,4.7,3.1,7.5,3.1c2.8,0,5.5-1.1,7.5-3.1l22-22c-1.3-3.6-1.5-7.3-0.8-10.8L75.6,74z M121.1,121.1c-2.1,0-4-0.8-5.5-2.3
		L94.4,97.6c-4.2-4.2-5.3-10.5-3-16L72.9,63.1H61.5L43.3,38.8L56.1,26l24.3,18.2v11.3l18.6,18.6c5.4-2.4,11.8-1.2,16,3l21.2,21.2
		c3,3,3,7.9,0,10.9l-9.6,9.6C125.1,120.3,123.2,121.1,121.1,121.1C121.1,121.1,121.1,121.1,121.1,121.1z M62.5,61.1h11.2l20.1,20.1
		l-0.3,0.6c-2.4,4.8-1.4,10.6,2.3,14.4l21.2,21.2c1.1,1.1,2.6,1.7,4.1,1.7c0,0,0,0,0,0c1.5,0,3-0.6,4.1-1.7l9.6-9.6
		c2.2-2.3,2.2-5.9,0-8.2l-21.2-21.2c-3.8-3.8-9.5-4.7-14.4-2.3l-0.6,0.3L78.4,56.3V45.2L56.3,28.6L45.9,39L62.5,61.1z M56.2,113.8
		c-2.9,0-5.3-2.4-5.3-5.3s2.4-5.3,5.3-5.3c2.9,0,5.3,2.4,5.3,5.3S59.1,113.8,56.2,113.8z M56.2,105.1c-1.9,0-3.4,1.5-3.4,3.4
		c0,1.9,1.5,3.4,3.4,3.4c1.9,0,3.4-1.5,3.4-3.4C59.6,106.6,58.1,105.1,56.2,105.1z M121.6,78.4l-4-4c-3.4-3.4-8-5.3-12.9-5.3
		c-1.4,0-2.8,0.2-4.3,0.5l-0.5,0.1L84.4,54.1l0-0.4c-0.1-7.4,2.6-14.3,7.8-19.5c6.8-6.8,16.4-9.4,25.7-7.1c1.1,0.3,2,1.1,2.3,2.2
		c0.3,1.1,0,2.2-0.8,3.1l-13.1,13.1l1.9,11.1l11.1,1.9l13.1-13.1c0.8-0.8,2-1.1,3.1-0.8c1.1,0.3,1.9,1.2,2.2,2.3
		c2.3,9.3-0.3,18.9-7.1,25.7c-2.3,2.3-5.1,4.2-8.2,5.5L121.6,78.4z M104.7,67.1c5.4,0,10.5,2.1,14.3,5.9l3,3c2.7-1.3,5.1-2.9,7-4.9
		c6.3-6.3,8.8-15.2,6.6-23.9c-0.1-0.6-0.6-0.8-0.8-0.9c-0.4-0.1-0.9,0-1.2,0.3l-13.8,13.8l-13.5-2.2l-2.2-13.5L117.9,31
		c0.4-0.4,0.4-1,0.3-1.2c-0.1-0.4-0.5-0.8-0.9-0.9c-8.6-2.1-17.6,0.3-23.8,6.6c-4.7,4.7-7.2,10.9-7.2,17.7l14.2,14.2
		C101.9,67.2,103.3,67.1,104.7,67.1z"/>
</g>
</svg>
