<?xml version="1.0" encoding="utf-8"?>
<!-- Generator: Adobe Illustrator 21.1.0, SVG Export Plug-In . SVG Version: 6.00 Build 0)  -->
<svg version="1.1" id="Capa_1" xmlns="http://www.w3.org/2000/svg" xmlns:xlink="http://www.w3.org/1999/xlink" x="0px" y="0px"
	 viewBox="0 0 182 152" style="enable-background:new 0 0 182 152;" xml:space="preserve">
<style type="text/css">
	.st0{fill:#E8F1F9;}
	.st1{fill:#0A4B98;}
	.st2{fill:#9BB7D3;}
	.st3{fill:#FFFFFF;}
	.st4{fill:#0053A1;}
</style>
<g>
	<g>
		<g>
			<g>
				<g>
					<g>
						<g>
							<path class="st0" d="M60.4,100.8L60.4,100.8c0,0-1.4-6.7-2.4-10.2c-2.4,1.7-4.8,1.8-5.4,1.8c0.6,0,3-0.1,5.4-1.8
								c0-0.1,0-0.2-0.1-0.2c-1-3.5-2.5-5-2.5-5s-0.1,0-0.1,0.1c-0.2,0.2-0.8,0.6-1.6,0.8c-0.1,0-0.1,0-0.2,0.1h-0.1
								c-0.7,0.2-1.4,0.2-1.8,0.2c-0.1,0-0.2,0-0.2,0s-0.2,2.2,1,5.5c0,0.1,0.1,0.2,0.1,0.2l0,0c1.3,3.5,4.2,9.6,4.2,9.6s0,0,0.1,0
								c-0.1,0-0.1,0-0.1,0s-0.2,4.2,0.7,4.3c1,0.2,1.9,0,2.7-0.2c0.8-0.2,1.7-0.6,2.3-1.4C63,104,60.4,100.8,60.4,100.8z"/>
							<path class="st1" d="M58.1,106.8c-0.2,0-0.6,0-0.8-0.1c-1.1-0.2-1.1-3.2-1.1-4.5c-0.4-0.7-2.7-6.1-4.1-9.3l0,0L52,92.5
								c0-0.1-0.1-0.2-0.1-0.2c-1.3-3.3-1.1-5.6-1.1-5.7v-0.4h0.4c0,0,0.1,0,0.2,0c0.2,0,1.1,0,1.7-0.2h0.1c0.1,0,0.1,0,0.1-0.1
								c0.5-0.1,1-0.5,1.4-0.8l0.4-0.4l0.2,0.2c0.1,0.1,1.6,1.7,2.5,5l0,0l0,0V90v0.1v0.1l0,0c1,3.2,2.3,9.3,2.4,10.2
								c0.4,0.5,2.7,3.3,1.9,4.3c-0.7,0.8-1.6,1.2-2.5,1.4C59.5,106.6,58.8,106.8,58.1,106.8z M56.8,102.1h0.1
								c-0.1,2.2,0.2,3.9,0.5,3.9c0.8,0.2,1.8,0,2.5-0.2c0.8-0.2,1.6-0.6,2.2-1.3c0.2-0.2-0.7-2-2-3.5l-0.2-0.2l0.1-0.1
								c-0.2-1.1-1.4-6.3-2.3-9.6c-2,1.3-3.9,1.6-4.9,1.7c1.3,3.5,3.9,9.1,3.9,9.1L56.8,102.1L56.8,102.1z M52.7,92.2L52.7,92.2
								c0.7,0,2.7-0.1,4.9-1.7v-0.1c-0.7-2.6-1.8-4.1-2.3-4.7c-0.5,0.4-1.1,0.7-1.6,0.8c0,0-0.1,0-0.2,0.1c-0.1,0-0.1,0-0.2,0.1
								C52.7,86.9,52,87,51.6,87C51.6,87.7,51.6,89.5,52.7,92.2C52.6,92.1,52.6,92.2,52.7,92.2z"/>
						</g>
						<g>
							<path class="st0" d="M53.7,61.3c0.5-2,1.1-4.4,1.4-7.1c0.2-2,0.5-4.2,0.4-6.5c-0.2-6.7-3.2-16-9.4-20.3
								c-3.7-2.6-8-3.1-12.7-1.6c-4.7,1.6-7.8,4.5-9.2,8.8c-2.4,7.2,0.7,16.5,4.7,22c1.6,2.3,3.2,4.1,4.9,5.6
								c1.7,1.6,3.2,2.9,4.7,4.2c1,0.8,8.7,9.7,13.3,20.2c0.4,0,1.1,0,1.8-0.2c-0.4-0.8-0.7-1.8-1.2-2.6c-2.6-5.4-5.9-10.2-8.5-13.6
								c-0.6-0.7-1.1-1.3-1.6-1.9c0.6,0.2,1.2,0.4,1.9,0.4c1.2,0.1,2.4,0,3.5-0.4c1.1-0.4,2.2-1.1,3.1-1.9c0.4-0.4,0.8-0.8,1.2-1.4
								c0,0.7,0,1.4,0,2.3c0,4.3,0.2,10.2,1.4,16.1c0.2,1,0.4,1.9,0.6,2.9c0.7-0.2,1.3-0.7,1.6-0.8C52.5,74.1,53.4,62.4,53.7,61.3z
								 M47,66.8c-3.3,1.1-7.8-1-12.3-5.6c-1.6-1.6-3-3.3-4.5-5.5c-3.7-5.1-6.6-13.7-4.4-20.4c1.2-3.8,3.9-6.5,8.1-7.8
								c4.2-1.3,7.9-1,11.1,1.4c5.7,4.1,8.6,12.7,8.7,19c0.1,2.3,0,4.3-0.2,6.2C52.8,61,50.4,65.6,47,66.8z"/>
							<path class="st1" d="M51.6,87C51.5,87,51.5,87,51.6,87h-0.2l-0.1-0.2c-4.7-10.9-12.4-19.5-13.1-20.1l-0.4-0.2
								c-1.3-1.1-2.9-2.4-4.3-3.8c-1.9-1.8-3.5-3.7-4.9-5.7c-3.9-5.6-7.1-14.9-4.7-22.2c1.4-4.4,4.7-7.5,9.4-9.1
								c4.7-1.6,9.2-1,12.9,1.7c6.3,4.4,9.4,13.7,9.6,20.6c0,2.2-0.1,4.3-0.4,6.6c-0.4,2.5-0.8,4.8-1.3,6.7L54,61.4
								c-0.2,0.8-1.2,12.6,1.6,24v0.2l-0.1,0.1c-0.6,0.4-1.1,0.7-1.7,1l0,0l0,0l-0.4,0.1l0,0l0,0C52.7,87,52,87,51.6,87z M38.4,25.3
								c-1.6,0-3.2,0.2-4.9,0.8c-4.5,1.6-7.7,4.5-9,8.6C22.1,42,25.2,51,29,56.4c1.4,1.9,3,3.8,4.8,5.6c1.6,1.4,3,2.7,4.3,3.8
								l0.4,0.2c1.2,1.1,8.8,9.9,13.3,20.2c0.2,0,0.7,0,1.2-0.1c-0.4-0.7-0.7-1.4-1.1-2.3c-2.6-5.5-6.1-10.4-8.5-13.5
								c-0.6-0.7-1.1-1.4-1.6-1.9l-0.7-0.8l1.1,0.4c0.6,0.2,1.2,0.4,1.8,0.4c1.2,0.1,2.3,0,3.3-0.2c1.1-0.4,2-1,3-1.8
								c0.4-0.4,0.8-0.8,1.2-1.3l0.6-0.8v1.1c0,0.7,0,1.4,0,2.2c0,3.9,0.1,10,1.4,16.1c0.1,0.8,0.4,1.7,0.5,2.4
								c0.4-0.1,0.6-0.4,1-0.6c-2.7-11.5-1.7-23.2-1.4-24.1l0,0l0.1-0.4c0.5-1.9,1-4.2,1.3-6.7c0.4-2.3,0.5-4.3,0.4-6.5
								C55.1,41,52.1,31.9,46,27.6C43.5,26.1,41,25.3,38.4,25.3z M43,68.9c0.2,0.4,0.6,0.7,1,1.2c2.4,3.1,5.9,8.1,8.5,13.6
								c0.2,0.4,0.4,0.8,0.6,1.2c-0.1-0.5-0.2-0.8-0.2-1.3c-1.2-6.2-1.4-12.2-1.4-16.3c0-0.5,0-0.8,0-1.2c-0.2,0.2-0.4,0.5-0.6,0.6
								c-1,1-2,1.6-3.2,2c-1.2,0.4-2.4,0.5-3.6,0.4C43.6,69,43.4,69,43,68.9z M45.1,67.4c-3.1,0-6.8-2-10.6-6.1
								c-1.6-1.6-3.1-3.5-4.5-5.5c-3.7-5.3-6.7-14-4.4-20.7c1.3-3.9,4.1-6.6,8.2-8c4.2-1.4,8.1-1,11.5,1.4
								c5.9,4.1,8.7,12.8,8.8,19.2c0.1,2.3,0,4.3-0.2,6.3c-0.7,7.1-3.2,11.8-6.8,13l0,0C46.5,67.3,45.8,67.4,45.1,67.4z M38.4,27
								c-1.4,0-2.9,0.2-4.3,0.7c-4.1,1.3-6.7,3.9-7.9,7.5c-2.2,6.6,0.7,15.1,4.3,20.1c1.4,2,3,3.8,4.4,5.4c4.4,4.5,8.8,6.6,12,5.6
								c3.3-1.1,5.6-5.6,6.3-12.4c0.2-1.9,0.2-4.1,0.2-6.2c-0.1-6.2-3-14.8-8.6-18.8C42.8,27.7,40.6,27,38.4,27z"/>
						</g>
					</g>
					<g>
						<g>
							<g>
								<path class="st2" d="M33.9,27.5c1.2,3.2,2.4,6.5,3.5,9.8c0.5,1.7,1,3.3,1.6,4.9c0.5,1.7,1.1,3.2,1.7,4.9
									c1.2,3.2,2.3,6.6,3.3,9.8c1.1,3.2,2.2,6.6,3.1,9.9l0,0c-1.2-3.2-2.4-6.5-3.5-9.8c-1.1-3.2-2.2-6.6-3.2-9.9
									c-0.5-1.7-1.1-3.3-1.6-4.9c-0.6-1.7-1.2-3.2-1.8-4.9C35.9,34.1,34.8,30.8,33.9,27.5L33.9,27.5z"/>
							</g>
						</g>
						<g>
							<g>
								<path class="st2" d="M37.3,26.8c1.2,3.1,2.3,6.2,3.3,9.4c0.5,1.6,1,3.2,1.4,4.8c0.5,1.6,1.1,3.1,1.7,4.8
									c1.1,3.1,2.3,6.3,3.2,9.4c1.1,3.1,2,6.3,3,9.6l0,0c-1.2-3.1-2.3-6.2-3.3-9.4c-1.1-3.1-2-6.3-3.1-9.6c-0.5-1.6-1-3.2-1.6-4.8
									c-0.5-1.6-1.1-3.1-1.7-4.7C39.2,33.1,38.1,30,37.3,26.8L37.3,26.8z"/>
							</g>
						</g>
						<g>
							<g>
								<path class="st2" d="M28,31.3c1.1,2.7,2,5.5,3,8.4c0.5,1.4,0.8,2.9,1.3,4.2c0.5,1.4,1,2.7,1.4,4.2c1,2.7,2,5.6,2.9,8.4
									c1,2.7,1.8,5.6,2.6,8.5l0,0c-1.1-2.7-2-5.5-3-8.4c-1-2.7-1.8-5.6-2.7-8.5c-0.5-1.4-0.8-2.9-1.3-4.2c-0.5-1.4-1-2.7-1.6-4.2
									C29.6,36.9,28.7,34.2,28,31.3L28,31.3z"/>
							</g>
						</g>
						<g>
							<g>
								<path class="st2" d="M30.7,28.9c1.2,3.1,2.3,6.2,3.3,9.4c0.5,1.6,1,3.2,1.4,4.8s1.1,3.1,1.7,4.8c1.1,3.1,2.3,6.3,3.2,9.4
									c1.1,3.1,2,6.3,3,9.6l0,0c-1.2-3.1-2.3-6.2-3.3-9.4c-1.1-3.1-2-6.3-3.1-9.6c-0.5-1.6-1-3.2-1.6-4.8
									c-0.5-1.6-1.1-3.1-1.7-4.7C32.6,35.3,31.7,32.2,30.7,28.9L30.7,28.9z"/>
							</g>
						</g>
						<g>
							<g>
								<path class="st2" d="M25.7,35.5c0.8,2,1.6,4.1,2.3,6.2c0.4,1.1,0.6,2.2,1,3.1c0.4,1.1,0.7,2,1.1,3.1c0.7,2,1.6,4.2,2.2,6.2
									c0.7,2,1.3,4.2,1.9,6.3l0,0c-0.8-2-1.6-4.1-2.3-6.2c-0.7-2-1.3-4.2-2-6.3c-0.4-1.1-0.6-2.2-1-3.1c-0.4-1.1-0.7-2-1.2-3.1
									C26.9,39.7,26.3,37.7,25.7,35.5L25.7,35.5z"/>
							</g>
						</g>
						<g>
							<g>
								<path class="st2" d="M41,27c1.1,2.7,2,5.5,3,8.4c0.5,1.4,0.8,2.9,1.3,4.2c0.5,1.4,1,2.7,1.4,4.2c1,2.7,2,5.6,2.9,8.4
									c1,2.7,1.8,5.6,2.6,8.5l0,0c-1.1-2.7-2-5.5-3-8.4c-1-2.7-1.8-5.6-2.7-8.5c-0.5-1.4-0.8-2.9-1.3-4.2c-0.5-1.4-1-2.7-1.6-4.2
									C42.6,32.6,41.7,29.9,41,27L41,27z"/>
							</g>
						</g>
						<g>
							<g>
								<path class="st2" d="M45.2,28.9c0.8,2,1.6,4.1,2.3,6.2c0.4,1.1,0.6,2.2,1,3.1c0.4,1.1,0.7,2,1.1,3.1c0.7,2,1.6,4.2,2.2,6.2
									c0.7,2,1.3,4.2,1.9,6.3l0,0c-0.8-2-1.6-4.1-2.3-6.2c-0.7-2-1.3-4.2-2-6.3c-0.4-1.1-0.6-2.2-1-3.1c-0.4-1.1-0.7-2-1.2-3.1
									C46.4,33.2,45.8,31.1,45.2,28.9L45.2,28.9z"/>
							</g>
						</g>
						<g>
							<g>
								<path class="st2" d="M53.1,42.3c-2,0.8-4.2,1.6-6.3,2.3c-1.1,0.4-2.2,0.6-3.2,1c-1.1,0.4-2.2,0.7-3.2,1.1
									c-2.2,0.8-4.2,1.6-6.3,2.3c-2.2,0.7-4.3,1.3-6.5,1.9l0,0c2-0.8,4.2-1.6,6.3-2.3s4.3-1.4,6.5-2c1.1-0.4,2.2-0.6,3.2-1.1
									c1.1-0.4,2.2-0.8,3.1-1.2C48.6,43.5,50.8,42.9,53.1,42.3L53.1,42.3z"/>
							</g>
						</g>
						<g>
							<g>
								<path class="st2" d="M51.6,38c-2.2,0.8-4.2,1.6-6.3,2.3c-1.1,0.4-2.2,0.6-3.2,1c-1.1,0.4-2.2,0.7-3.2,1.1
									c-2.2,0.8-4.3,1.6-6.5,2.3c-2.2,0.7-4.3,1.3-6.5,1.9l0,0c2.2-0.8,4.2-1.6,6.3-2.3c2.2-0.7,4.3-1.4,6.5-2
									c1.1-0.4,2.2-0.6,3.2-1.1c1.1-0.4,2.2-0.8,3.2-1.2C47.3,39.2,49.5,38.5,51.6,38L51.6,38z"/>
							</g>
						</g>
						<g>
							<g>
								<path class="st2" d="M53.2,56.8c-1.4,0.6-2.7,1.1-4.2,1.6c-0.7,0.2-1.4,0.4-2.2,0.6s-1.4,0.5-2.2,0.7
									c-2.7,1.1-5.6,2-8.6,2.7l0,0c2.7-1.2,5.6-2.2,8.5-3c0.7-0.2,1.4-0.4,2.2-0.7c0.7-0.2,1.4-0.6,2.2-0.8
									C50.2,57.5,51.6,57,53.2,56.8L53.2,56.8z"/>
							</g>
						</g>
						<g>
							<g>
								<path class="st2" d="M53.7,51.8c-1.7,0.7-3.5,1.3-5.3,1.9c-0.8,0.2-1.8,0.5-2.6,0.8c-0.8,0.2-1.8,0.6-2.6,1
									c-3.5,1.3-7.1,2.5-10.6,3.5l0,0c3.5-1.4,6.9-2.6,10.5-3.6c0.8-0.2,1.8-0.5,2.6-0.8c0.8-0.2,1.8-0.7,2.6-1
									C50.1,52.7,51.9,52.1,53.7,51.8L53.7,51.8z"/>
							</g>
						</g>
						<g>
							<g>
								<path class="st2" d="M53.7,47c-1.9,0.8-3.9,1.6-6,2.2c-1,0.4-2,0.6-3,1c-1,0.4-2,0.7-3,1.1c-3.9,1.4-8,2.9-12.1,3.9l0,0
									c3.9-1.6,7.9-2.9,12-4.1c1-0.4,2-0.6,3-1c1-0.4,2-0.7,3-1.1C49.6,48.1,51.6,47.5,53.7,47L53.7,47z"/>
							</g>
						</g>
						<g>
							<g>
								<path class="st2" d="M51.5,62.2c-0.8,0.5-1.8,0.8-2.7,1.1c-0.5,0.1-1,0.2-1.4,0.4c-0.5,0.1-1,0.4-1.3,0.5
									c-1.8,0.7-3.6,1.4-5.5,1.8l0,0c1.8-0.8,3.6-1.4,5.5-1.9c0.5-0.1,1-0.2,1.4-0.4c0.5-0.1,0.8-0.4,1.3-0.6
									C49.6,62.5,50.6,62.3,51.5,62.2L51.5,62.2z"/>
							</g>
						</g>
						<g>
							<g>
								<path class="st2" d="M49.6,33.8c-2,0.8-4.1,1.6-6.1,2.2c-1.1,0.4-2,0.6-3.1,1c-1.1,0.4-2,0.7-3,1.1c-2,0.7-4.1,1.4-6.1,2.2
									c-2,0.7-4.1,1.3-6.2,1.8l0,0c2-0.8,4.1-1.6,6.1-2.3c2-0.7,4.1-1.3,6.2-1.9c1.1-0.4,2-0.6,3.1-1s2-0.7,3-1.1
									C45.4,35,47.5,34.3,49.6,33.8L49.6,33.8z"/>
							</g>
						</g>
						<g>
							<g>
								<path class="st2" d="M46.5,30.1c-1.7,0.7-3.5,1.3-5.3,1.9c-0.8,0.2-1.8,0.5-2.6,0.8c-0.8,0.2-1.8,0.6-2.6,1
									c-3.5,1.3-7.1,2.5-10.6,3.5l0,0c3.5-1.4,6.9-2.6,10.5-3.6c0.8-0.2,1.8-0.5,2.6-0.8c0.8-0.4,1.8-0.7,2.6-1
									C42.9,31.1,44.7,30.5,46.5,30.1L46.5,30.1z"/>
							</g>
						</g>
						<g>
							<g>
								<path class="st2" d="M41.1,27c-1.1,0.5-2.2,1-3.2,1.3c-0.6,0.1-1.2,0.2-1.7,0.5c-0.6,0.1-1.1,0.4-1.7,0.6
									c-2.2,0.8-4.4,1.7-6.7,2.2l0,0c2.2-1,4.3-1.7,6.6-2.3c0.6-0.1,1.1-0.4,1.7-0.5c0.6-0.2,1.1-0.5,1.7-0.6
									C38.8,27.6,39.9,27.3,41.1,27L41.1,27z"/>
							</g>
						</g>
					</g>
				</g>
			</g>
		</g>
		<g>
			<g>
				<path class="st0" d="M67.4,90.1c0,0-22.1,1.8-7.2-38c0,0,3.1-3.3,0.2,5.9c-3,9.3-3.6,17.6-2.9,20.8c0.7,3.2,1.2,7.9,8.5,9.7
					S67.4,90.1,67.4,90.1z"/>
				<path class="st1" d="M68,90.5c-0.2,0-0.4,0-0.6,0c-0.4,0-6.1,0.2-9.7-4.5c-4.7-6.2-3.8-17.6,2.3-33.8l0,0l0,0
					c0.1-0.1,1-1,1.6-0.6c0.5,0.2,0.8,1.3-0.8,6.7c-2.9,9-3.6,17.3-2.9,20.7c0,0.2,0.1,0.5,0.1,0.7c0.7,3.1,1.6,7.1,8.1,8.7
					c3.6,0.8,3.8,1.3,3.8,1.6C70,90.1,70,90.5,68,90.5z M60.6,52.4c-7.5,20-5.5,29.2-2.4,33.2c3.5,4.7,9.2,4.3,9.2,4.3l0,0l0,0
					c0.7,0,1.6,0,1.9-0.1c-0.4-0.1-1.1-0.5-3.2-1c-6.9-1.7-7.9-6-8.5-9.1c0-0.2-0.1-0.5-0.1-0.7c-0.7-3.3,0-11.8,2.9-20.9
					c1.8-5.5,1.2-6.1,1.1-6.1C61.2,51.8,60.8,52.1,60.6,52.4z"/>
			</g>
			<g>
				<g>
					<path class="st0" d="M71.6,10.9c-3.2-1.7-6.5-0.5-7.1,0.6c-1.3,2.4-3,6.2-3,6.2c-0.6,1.1,1.1,6.5,1.2,6.5c0.1,0,0.2,0,0.4,0
						c1.1,4.7,2.9,12,4.7,19.2h-0.1c-1.6-4.4-3.1-8.4-4.1-11.2c0.1-0.1,0.2-0.1,0.4-0.2c0.1-0.1-1.4-5.1-2.4-5.6c0,0-3.1-2-5.4-3.2
						c-1.1-0.5-4.1,0.2-5.7,3.1c-1,1.7-0.2,3.9,1.3,4.4c1.6,0.5,6.7-0.5,8.5-0.8c0,0,1.1,2.7,1.2,2.7c0,0,0.2,0,0.5,0
						c1,2.9,2.4,6.9,3.8,11.4l-3.3,0.8l0.8,3.6c-1.1,0.5-1.9,1-2.3,1.3c-0.8,0.8-1,6.6-0.2,13.5h-0.1c-1.7,0.4-2.3,3.8-1.4,7.7
						c0.7,3,2.2,5.3,3.6,6c1.3,6.1,3.2,11.5,5.6,13.7c4.8,4.5,20.3,0.2,23-5.6c1.3-3,0.6-8.7-1-14.9c0.8-1.3,1.1-3.9,0.4-6.8
						c-1-3.8-3-6.6-4.8-6.1l0,0c-2.6-6.5-5.4-11.5-6.6-11.8c-0.6-0.2-1.3-0.2-2-0.4l-0.8-3.5L73.8,42c-0.6-4.2-1.2-8.1-1.7-10.8
						c0.1-0.1,0.4-0.1,0.4-0.1c0.1-0.1-0.1-2.6-0.1-2.6c1.6-0.5,5.7-1.7,6.8-2.7c1.1-1,0.7-3-0.7-3.9c-2.4-1.6-5-0.8-5.6-0.1
						c-1.3,1.8-2.9,4.7-2.9,4.7c-0.5,0.7,0.4,5.1,0.5,5.3c0,0,0.1,0,0.4,0c0.4,2.7,0.8,6.6,1.4,10.9l-1.9,0.5
						c-1.9-7.3-3.8-14.8-5-19.4c0.2-0.1,0.4-0.2,0.4-0.2c0.1-0.1-0.6-3.2-0.6-3.2c1.8-0.7,6.9-3,8.1-4.3
						C74.2,14.4,73.5,12,71.6,10.9z"/>
					<path class="st1" d="M74.7,92.8c-2.9,0-5.1-0.7-6.6-2c-2.7-2.6-4.5-9-5.6-13.7c-1.4-0.8-2.9-3.1-3.6-6.1
						c-0.5-1.9-0.6-3.7-0.2-5.1c0.2-1.4,0.8-2.4,1.8-2.7c-0.6-6.1-0.7-12.6,0.4-13.5c0.5-0.5,1.4-1,2.2-1.3l-0.8-3.6l3.3-0.8
						c-1.4-4.2-2.7-8.1-3.7-10.9c-0.2,0-0.4,0-0.4,0c-0.1,0-0.2-0.1-1.3-2.7C55.7,31,53,31.2,51.8,31c-0.7-0.2-1.4-0.8-1.8-1.7
						c-0.4-1-0.4-2.2,0.2-3.1c1.8-3,4.9-3.8,6.1-3.2c2.3,1.2,5.4,3.2,5.5,3.2c1,0.5,2.6,5.5,2.4,6c0,0.1-0.1,0.1-0.2,0.2
						c0.7,2,1.7,4.7,2.7,7.7c-1.4-6-2.7-11.6-3.7-15.5c-0.1,0-0.2,0-0.4-0.1c-0.5-0.2-1.9-5.7-1.3-6.8c0,0,1.7-3.8,3-6.2
						c0.7-1.2,4.1-2.4,7.4-0.7l0,0c1.1,0.5,1.8,1.6,2,2.6c0.2,1,0,1.9-0.6,2.5c-0.8,1-3.6,2.4-8,4.3c0.6,3,0.5,3.1,0.5,3.2
						c0,0.1-0.1,0.1-0.4,0.2c1.2,4.5,3.1,11.8,4.9,18.9l1.4-0.4c-0.5-3.9-1.1-7.8-1.4-10.4c-0.1,0-0.2,0-0.2-0.1
						c-0.4-0.2-1.1-4.8-0.5-5.6c0,0,1.6-2.9,2.9-4.7c0.6-1,3.5-1.7,6,0c0.8,0.5,1.3,1.4,1.4,2.3c0.1,0.8-0.1,1.6-0.7,2
						c-0.7,0.7-3,1.6-6.7,2.7c0.2,2.4,0.1,2.5,0.1,2.6c0,0-0.1,0.1-0.2,0.1c0.4,2.6,1,6.3,1.6,10.3l2.6-0.6l0.8,3.6
						c0.7,0,1.4,0.1,1.9,0.4c1.4,0.5,4.4,6.2,6.7,11.8c1.8-0.2,3.9,2.5,4.8,6.3c0.7,2.9,0.6,5.5-0.4,6.9c1.3,5,2.5,11.6,1,15.1
						c-1.7,3.6-7.7,6.3-12.6,7.2C77.5,92.6,76,92.8,74.7,92.8z M62.8,45.1l0.8,3.5l-0.2,0.1c-1.1,0.5-1.9,1-2.3,1.3
						c-0.6,0.6-1,5.5-0.2,13.3v0.2l-0.4,0.1c-0.7,0.1-1.2,1.1-1.4,2.3c-0.2,1.4-0.1,3.1,0.2,4.9c0.7,2.7,2,5.1,3.5,5.7h0.1v0.1
						c1.6,6.9,3.5,11.6,5.5,13.6c1.8,1.8,5.7,2.3,10.4,1.4c5.9-1.1,10.8-3.9,12.2-6.9c1.2-2.6,0.8-7.8-1-14.8v-0.1l0.1-0.1
						c0.8-1.2,1-3.9,0.4-6.6c-0.8-3.6-2.9-6.3-4.4-6h-0.2h-0.1c-3-7.3-5.5-11.5-6.5-11.7c-0.6-0.1-1.2-0.2-2-0.2H77l-0.8-3.5
						l-2.7,0.7v-0.2c-0.6-4.2-1.2-8.1-1.7-10.8v-0.2l0.2-0.1c0.1,0,0.1-0.1,0.2-0.1c0-0.4-0.1-1.4-0.2-2.4v-0.2l0.2-0.1
						c4.9-1.4,6.3-2.3,6.7-2.6c0.4-0.4,0.6-1,0.5-1.6c-0.1-0.8-0.5-1.6-1.2-1.9c-2.4-1.6-4.8-0.8-5.3-0.1c-1.2,1.8-2.9,4.5-2.9,4.5
						c-0.4,0.6,0.2,4.2,0.4,4.9c0,0,0,0,0.1,0h0.2v0.2c0.4,2.7,0.8,6.6,1.4,10.9v0.2l-2.4,0.6l-0.1-0.2c-1.9-7.3-3.8-14.8-5-19.4
						v-0.2l0.2-0.1c0.1-0.1,0.2-0.1,0.2-0.1c0-0.4-0.2-1.8-0.6-3.1V20l0.2-0.1c5.7-2.4,7.5-3.6,8-4.2c0.5-0.6,0.6-1.3,0.5-2.2
						c-0.2-1-0.8-1.9-1.8-2.3l0,0c-3.2-1.7-6.2-0.4-6.7,0.5c-1.3,2.4-3,6.1-3,6.1c-0.5,0.8,0.8,5.4,1.2,6.2c0,0,0.1,0,0.2,0h0.2v0.2
						c1.1,4.7,2.9,12,4.7,19.2l0.1,0.2l-0.6,0.1l-0.1-0.2c-1.6-4.4-3.1-8.4-4.1-11.2l-0.1-0.2l0.1-0.1c0.1,0,0.1,0,0.1-0.1
						c-0.1-0.8-1.4-4.9-2.2-5.3c0,0-3.2-2-5.4-3.2c-0.8-0.5-3.7,0.1-5.4,3c-0.5,0.8-0.6,1.8-0.2,2.6c0.2,0.7,0.8,1.2,1.4,1.3
						c0.6,0.1,2.5,0.2,8.4-0.8h0.2l0.1,0.2c0.5,1.1,1,2.3,1.1,2.6c0,0,0.1,0,0.2,0h0.2l0.1,0.2c1,2.9,2.4,6.9,3.8,11.4l0.1,0.2
						L62.8,45.1z"/>
				</g>
				<g>
					<polygon class="st1" points="63,47.9 63.1,48.5 77.2,45.1 77.1,44.5 					"/>
				</g>
			</g>
		</g>
		<g>
			<g>
				<g>
					<path class="st0" d="M81.6,115.8l-30.5,15.1c-2.7,1.3-6.3-0.5-7.5-3.8l-7.5-20.3c-1.1-3-0.1-6,2.3-7.2l26.4-13
						c2.3-1.2,5.3,0,6.9,2.5l11.6,18.4C85.1,110.6,84.4,114.5,81.6,115.8z"/>
				</g>
				<g>
					<path class="st1" d="M49.2,131.6c-0.6,0-1.3-0.1-2-0.4c-1.8-0.7-3.1-2.2-3.8-4.1l-7.5-20.3c-1.1-3-0.1-6.1,2.3-7.3l26.5-13.1
						c2.4-1.2,5.5-0.1,7.2,2.6l11.6,18.3c1.1,1.7,1.4,3.7,0.8,5.5c-0.4,1.4-1.3,2.5-2.5,3.1L51.3,131
						C50.7,131.4,50,131.6,49.2,131.6z M66.7,86.4c-0.6,0-1.3,0.1-1.8,0.5L38.5,99.8c-2.2,1.1-3.1,3.9-2,6.7l7.5,20.3
						c0.6,1.8,1.9,3.1,3.6,3.8c1.2,0.5,2.5,0.5,3.6-0.1l30.5-15.1c1.1-0.6,1.9-1.6,2.3-2.9c0.5-1.7,0.1-3.6-0.8-5.1L71.5,89.1
						C70.3,87.5,68.5,86.4,66.7,86.4z"/>
				</g>
			</g>
			<g>
				<g>
					<path class="st2" d="M46.5,106l-3.5,1.7c-0.8,0.4-1.2,1.3-0.8,2l1.4,2.9c0.4,0.7,1.3,1,2.2,0.5l3.5-1.7c0.8-0.4,1.2-1.3,0.8-2
						l-1.4-2.9C48.3,105.9,47.3,105.7,46.5,106z M48.5,109.1c0.4,0.7,0,1.6-0.8,2l-1.3,0.6c-0.8,0.4-1.8,0.1-2.2-0.5l-0.6-1.1
						c-0.4-0.7,0-1.6,0.8-2l1.3-0.6c0.8-0.4,1.8-0.1,2.2,0.5L48.5,109.1z"/>
				</g>
			</g>
			<g>
				<g>
					<path class="st2" d="M56.3,125.8l-3.6,1.8l-7.3-14.9c-0.4-0.7-0.1-1.7,0.7-2l0.8-0.4c0.7-0.4,1.7-0.1,2,0.7L56.3,125.8z"/>
				</g>
			</g>
			<g>
				<g>
					<path class="st2" d="M68.6,95.4l-3.5,1.7c-0.8,0.4-1.2,1.3-0.8,2l1.4,2.9c0.4,0.7,1.3,1,2.2,0.5l3.5-1.7c0.8-0.4,1.2-1.3,0.8-2
						l-1.4-2.9C70.4,95.2,69.4,95,68.6,95.4z M70.6,98.4c0.4,0.7,0,1.6-0.8,2l-1.3,0.6c-0.8,0.4-1.8,0.1-2.2-0.5l-0.5-1.1
						c-0.4-0.7,0-1.6,0.8-2l1.3-0.6c0.8-0.4,1.8-0.1,2.2,0.5L70.6,98.4z"/>
				</g>
			</g>
			<g>
				<g>
					<path class="st2" d="M78.3,114.9l-3.6,1.8l-7.4-14.9c-0.4-0.7,0-1.6,0.7-1.9l1-0.5c0.7-0.4,1.6,0,1.9,0.7L78.3,114.9z"/>
				</g>
			</g>
			<g>
				<g>
					<path class="st2" d="M68.4,107.4l-15.7,7.8c-0.5,0.2-0.7,0.7-0.6,1c0.1,0.4,0.7,0.4,1.1,0.1l15.8-7.7c0.5-0.2,0.7-0.7,0.6-1
						C69.4,107.2,68.9,107.1,68.4,107.4z"/>
				</g>
			</g>
			<g>
				<g>
					
						<ellipse transform="matrix(0.8973 -0.4415 0.4415 0.8973 -45.2572 35.7268)" class="st3" cx="54.1" cy="115.1" rx="1.2" ry="0.6"/>
				</g>
			</g>
			<g>
				<g>
					<path class="st2" d="M57.6,121l-1,0.5c-0.4,0.1-0.6,0.1-0.7,0l-2.4-6c-0.1-0.1,0.1-0.4,0.5-0.6l0,0c0.4-0.1,0.6-0.1,0.7,0
						l3.3,5.5C58.1,120.6,57.9,120.9,57.6,121z"/>
				</g>
			</g>
			<g>
				<g>
					<path class="st2" d="M41.6,107.4l-1,0.5c-0.4,0.1-0.6,0.1-0.7,0l-2.4-6c-0.1-0.1,0.1-0.4,0.5-0.6l0,0c0.4-0.1,0.6-0.1,0.7,0
						l3.3,5.5C42.1,107,41.8,107.2,41.6,107.4z"/>
				</g>
			</g>
			<g>
				<g>
					<g>
						<path class="st0" d="M46.4,107.8c-0.2-2.6-0.4-5.3-0.6-7.9c-0.2-3.3-0.5-6.7-0.7-10c-0.1-1.7,0.4-3.2,1.8-4.4
							c2.2-1.9,5.4-1.8,7.2,0c1.9,1.9,3.7,3.9,5.6,5.9c2.2,2.3,4.2,4.5,6.5,6.8l0.1,0.1c1.1,1.2,3.2-0.6,2.2-1.8
							c-1.9-2-3.9-4.1-5.9-6.1c-2.2-2.2-4.2-4.4-6.3-6.6c-2-2.2-5.4-2.7-8.6-1.4c-3.5,1.3-5.5,4.7-5.4,7.8c0.1,2.9,0.4,5.6,0.6,8.5
							c0.2,3.2,0.4,6.6,0.7,9.8v0.1c0,0.7,0.8,1.1,1.6,1C46,109.1,46.5,108.5,46.4,107.8L46.4,107.8z"/>
						<path class="st1" d="M44.9,109.6c-0.4,0-0.7-0.1-1-0.4c-0.2-0.2-0.5-0.5-0.5-0.8l0,0v-0.1c-0.2-2.2-0.4-4.4-0.5-6.6
							c-0.1-1.1-0.1-2.2-0.2-3.2c-0.1-1-0.1-1.9-0.2-2.9c-0.1-1.9-0.2-3.8-0.4-5.6c-0.2-3.5,2-6.7,5.5-8c3.2-1.2,6.7-0.6,8.8,1.6
							c1.4,1.4,2.9,3,4.2,4.4c0.7,0.7,1.4,1.4,2.2,2.3l5.9,6.1c0.5,0.6,0.5,1.3-0.1,1.9s-1.6,0.8-2.3,0.1l-0.1-0.1
							c-1.4-1.4-2.9-3-4.3-4.5c-0.7-0.7-1.4-1.6-2.2-2.3c-0.6-0.6-1.2-1.3-1.9-1.9c-1.2-1.3-2.5-2.6-3.7-3.9c-1.7-1.8-4.8-1.7-6.9,0
							c-1.2,1.1-1.9,2.5-1.8,4.3l1.2,17.9c0,0.8-0.5,1.6-1.3,1.8C45.2,109.6,45.1,109.6,44.9,109.6z M51,81.8
							c-1.1,0-2.2,0.2-3.2,0.6c-3.2,1.2-5.4,4.4-5.1,7.7c0.1,1.9,0.2,3.8,0.4,5.6c0.1,1,0.1,1.9,0.2,2.9c0.1,1.1,0.1,2.2,0.2,3.2
							c0.1,2.2,0.2,4.3,0.5,6.5v0.1l0,0c0,0.2,0.1,0.5,0.4,0.5c0.2,0.2,0.6,0.2,1,0.2c0.7-0.1,1.1-0.7,1-1.3l-1.2-17.9
							c-0.1-1.9,0.5-3.5,1.9-4.7c2.3-1.9,5.6-1.9,7.5,0c1.3,1.3,2.5,2.6,3.8,3.9c0.6,0.6,1.2,1.3,1.9,1.9c0.7,0.7,1.4,1.6,2.2,2.3
							c1.4,1.4,2.9,3,4.3,4.5l0.1,0.1c0.5,0.5,1.2,0.4,1.7-0.1c0.4-0.4,0.6-0.8,0.1-1.3l-5.9-6.1c-0.7-0.7-1.4-1.4-2.2-2.3
							c-1.3-1.4-2.7-3-4.2-4.4C54.9,82.5,53.1,81.8,51,81.8z"/>
					</g>
				</g>
			</g>
		</g>
		<g>
			<g>
				<g>
					<g>
						
							<rect x="122.1" y="66.8" transform="matrix(0.6587 -0.7524 0.7524 0.6587 -3.1824 127.0342)" class="st2" width="32.6" height="0.4"/>
					</g>
					<g>
						
							<rect x="120.9" y="65.8" transform="matrix(0.6587 -0.7524 0.7524 0.6587 -2.7763 125.7519)" class="st2" width="32.6" height="0.4"/>
					</g>
				</g>
				<g>
					<g>
						
							<rect x="138.2" y="49.6" transform="matrix(0.6587 -0.7524 0.7524 0.6587 -2.3997 126.629)" class="st2" width="0.4" height="32.6"/>
					</g>
					<g>
						
							<rect x="137.1" y="50.9" transform="matrix(0.6587 -0.7524 0.7524 0.6587 -3.682 126.2231)" class="st2" width="0.4" height="32.6"/>
					</g>
				</g>
				<g>
					<g>
						
							<rect x="138" y="49.5" transform="matrix(0.3207 -0.9472 0.9472 0.3207 31.542 175.5767)" class="st2" width="0.4" height="32.6"/>
					</g>
					<g>
						
							<rect x="137.5" y="51" transform="matrix(0.3207 -0.9472 0.9472 0.3207 29.7911 176.1354)" class="st2" width="0.4" height="32.6"/>
					</g>
				</g>
				<g>
					<g>
						
							<rect x="121.6" y="65.5" transform="matrix(0.9978 -6.619465e-02 6.619465e-02 0.9978 -4.0459 9.2712)" class="st2" width="32.6" height="0.4"/>
					</g>
					<g>
						
							<rect x="121.6" y="67.2" transform="matrix(0.9978 -6.619380e-02 6.619380e-02 0.9978 -4.157 9.275)" class="st2" width="32.6" height="0.4"/>
					</g>
				</g>
				<g>
					<g>
						
							<rect x="121.2" y="65.6" transform="matrix(0.8965 -0.443 0.443 0.8965 -14.922 67.7344)" class="st2" width="32.6" height="0.4"/>
					</g>
					<g>
						
							<rect x="121.9" y="67.1" transform="matrix(0.8965 -0.443 0.443 0.8965 -15.4859 68.1979)" class="st2" width="32.6" height="0.4"/>
					</g>
				</g>
				<g>
					<g>
						
							<rect x="122.3" y="66.6" transform="matrix(0.3207 -0.9472 0.9472 0.3207 30.86 176.6856)" class="st2" width="32.6" height="0.4"/>
					</g>
					<g>
						
							<rect x="120.8" y="66.1" transform="matrix(0.3207 -0.9472 0.9472 0.3207 30.4334 174.8936)" class="st2" width="32.6" height="0.4"/>
					</g>
				</g>
				<g>
					<g>
						
							<rect x="138.5" y="50.2" transform="matrix(0.9978 -6.619915e-02 6.619915e-02 0.9978 -4.0997 9.3294)" class="st2" width="0.4" height="32.6"/>
					</g>
					<g>
						
							<rect x="136.9" y="50.3" transform="matrix(0.9978 -6.620788e-02 6.620788e-02 0.9978 -4.1121 9.2202)" class="st2" width="0.4" height="32.6"/>
					</g>
				</g>
				<g>
					<g>
						
							<rect x="138.4" y="49.9" transform="matrix(0.8965 -0.443 0.443 0.8965 -14.9726 68.2475)" class="st2" width="0.4" height="32.6"/>
					</g>
					<g>
						
							<rect x="137" y="50.6" transform="matrix(0.8965 -0.443 0.443 0.8965 -15.4366 67.685)" class="st2" width="0.4" height="32.6"/>
					</g>
				</g>
			</g>
			<g>
				<g>
					<g>
						
							<rect x="78.6" y="116.5" transform="matrix(0.6587 -0.7524 0.7524 0.6587 -55.4364 111.2406)" class="st2" width="32.6" height="0.4"/>
					</g>
					<g>
						
							<rect x="77.5" y="115.5" transform="matrix(0.6587 -0.7524 0.7524 0.6587 -55.0588 110.0528)" class="st2" width="32.6" height="0.4"/>
					</g>
				</g>
				<g>
					<g>
						
							<rect x="94.7" y="99.3" transform="matrix(0.6587 -0.7524 0.7524 0.6587 -54.6537 110.8354)" class="st2" width="0.4" height="32.6"/>
					</g>
					<g>
						
							<rect x="93.6" y="100.6" transform="matrix(0.6587 -0.7524 0.7524 0.6587 -55.936 110.4294)" class="st2" width="0.4" height="32.6"/>
					</g>
				</g>
				<g>
					<g>
						
							<rect x="94.4" y="99.2" transform="matrix(0.3207 -0.9472 0.9472 0.3207 -45.1219 168.0819)" class="st2" width="0.4" height="32.6"/>
					</g>
					<g>
						
							<rect x="93.9" y="100.8" transform="matrix(0.3207 -0.9472 0.9472 0.3207 -47.0055 168.6812)" class="st2" width="0.4" height="32.6"/>
					</g>
				</g>
				<g>
					<g>
						
							<rect x="77.9" y="115.2" transform="matrix(0.9978 -6.619465e-02 6.619465e-02 0.9978 -7.4336 6.492)" class="st2" width="32.6" height="0.4"/>
					</g>
					<g>
						
							<rect x="78.1" y="116.9" transform="matrix(0.9978 -6.619380e-02 6.619380e-02 0.9978 -7.544 6.5038)" class="st2" width="32.6" height="0.4"/>
					</g>
				</g>
				<g>
					<g>
						
							<rect x="77.7" y="115.3" transform="matrix(0.8965 -0.443 0.443 0.8965 -41.448 53.5976)" class="st2" width="32.6" height="0.4"/>
					</g>
					<g>
						
							<rect x="78.4" y="116.8" transform="matrix(0.8965 -0.443 0.443 0.8965 -42.0119 54.0605)" class="st2" width="32.6" height="0.4"/>
					</g>
				</g>
				<g>
					<g>
						
							<rect x="78.7" y="116.3" transform="matrix(0.3207 -0.9472 0.9472 0.3207 -45.8038 169.1907)" class="st2" width="32.6" height="0.4"/>
					</g>
					<g>
						
							<rect x="77.2" y="115.9" transform="matrix(0.3207 -0.9472 0.9472 0.3207 -46.3636 167.4394)" class="st2" width="32.6" height="0.4"/>
					</g>
				</g>
				<g>
					<g>
						
							<rect x="94.9" y="99.9" transform="matrix(0.9978 -6.619915e-02 6.619915e-02 0.9978 -7.4878 6.5501)" class="st2" width="0.4" height="32.6"/>
					</g>
					<g>
						
							<rect x="93.4" y="100.1" transform="matrix(0.9978 -6.620788e-02 6.620788e-02 0.9978 -7.4998 6.4484)" class="st2" width="0.4" height="32.6"/>
					</g>
				</g>
				<g>
					<g>
						
							<rect x="94.8" y="99.6" transform="matrix(0.8965 -0.443 0.443 0.8965 -41.5332 54.0683)" class="st2" width="0.4" height="32.6"/>
					</g>
					<g>
						
							<rect x="93.4" y="100.3" transform="matrix(0.8965 -0.443 0.443 0.8965 -41.9972 53.5055)" class="st2" width="0.4" height="32.6"/>
					</g>
				</g>
			</g>
			<g>
				<g>
					<path class="st0" d="M122.8,53.2c-1,1.2-1.9,2.4-2.5,3.7l-10.4-6l0.2-0.5l-1.3-0.7l-0.5,0.7l-1.2-0.7c0-0.2,0-0.4-0.1-0.6
						c0.5-1,1.1-2.4,1.1-4.1c0.1-0.1,0.2-0.1,0.2-0.2c0.7-0.8,0.6-2-0.1-2.7c-0.8-0.7-2-0.6-2.7,0.1c-0.7,0.8-0.6,2,0.1,2.7
						c0.1,0.1,0.2,0.1,0.4,0.2c-0.1,1.1-0.4,2.2-0.7,2.9c-0.5-0.2-1.2,0-1.4,0.5l-0.5,0.8c-0.4,0.6-0.1,1.3,0.5,1.7l1.1,0.6
						c0.4,0.2,0.8,0.2,1.2,0l1.2,0.7l-0.4,0.6l1.3,0.7l0.2-0.4l1.4,0.8l-20,29.4l-1.3-0.7l0.2-0.5l-1.4-0.7L87,82.4l-3.9-2.2
						c0.4-1.4,0.5-2.9,1.2-4.1c1.3-2.2,3.5-6,0.7-7.5c-2.6,3.8-4.1,5.5-5.7,7.5c-1.8,2-4.9,4.3-4.9,4.3s0.2,1.7,1.2,2.7
						c0.7,0.8,3,2.7,5.7,0c0.4-0.4,0.7-0.7,1-1.2l3.8,2.2l-0.4,0.7l1.3,0.7l0.2-0.5l1.9,1.1l1.4,9.9c-4.2,1-8,3.1-11.1,6.6
						c-7.4,8.5-6.6,21.5,1.9,28.9c8.5,7.4,21.5,6.6,28.9-1.9c5.5-6.3,6.5-15.1,3.1-22.2l0.1-0.4l-0.5-0.2c-0.5-1-1.1-1.9-1.7-2.7
						l0.4-0.2c0.7,0.5,1.6,0.8,2.4,1.1l-0.1,0.1l0.5,0.2l0.2-0.4c1,0.1,1.9-0.1,2.9-0.6l1.8,2.6l-0.6,0.7c-0.1,0.1-0.1,0.1-0.1,0.2
						c0,0,0,0,0,0.1s0,0.1-0.1,0.2l0,0c0,0.2,0,0.4,0,0.6l0,0l0,0c0.1,0.2,0.1,0.4,0.4,0.5c0.5,0.5,1.2,0.4,1.7-0.1l2.2-2.5
						c0.5-0.5,0.4-1.2-0.1-1.7c-0.4-0.2-0.7-0.4-1.2-0.2l0,0c-0.1,0-0.1,0.1-0.2,0.1c0,0,0,0-0.1,0c-0.1,0-0.1,0.1-0.2,0.2l-0.4,0.5
						l-1.6-2.3c0.1-0.1,0.2-0.2,0.4-0.4c2-2.4,1.8-6-0.5-8c-0.8-0.7-1.8-1.2-2.7-1.3L113.3,56l5.7,3.3c-3,7.8-1.1,17,5.6,22.8
						c8.5,7.4,21.5,6.6,28.9-1.9s6.6-21.5-1.9-28.9C143.2,43.8,130.2,44.7,122.8,53.2z M150,77.1c-5.7,6.6-15.7,7.2-22.2,1.4
						c-4.9-4.3-6.6-11-4.5-16.9l10.2,5.9c0.2,0.1,0.4,0.1,0.6,0.1l2.5,0.1c0.1,0.1,0.2,0.2,0.4,0.4c0.8,0.7,2.2,0.7,3-0.2
						c0.7-0.8,0.7-2.2-0.2-3c-0.8-0.7-2.2-0.7-2.9,0.1l-2.2-0.1l-10.2-5.9c0.6-1.1,1.2-2,2-2.9c5.7-6.6,15.7-7.2,22.2-1.4
						C155.2,60.6,155.8,70.5,150,77.1z M113.7,95.4L113.7,95.4C113.7,95.3,113.7,95.3,113.7,95.4L113.7,95.4z M111.2,95.3l-2.5-1.4
						c0.4,0,0.6-0.1,0.8-0.4l0.4-0.5l1.4,2C111.3,95.2,111.2,95.3,111.2,95.3z M109.7,97.7c-0.2,0.8-0.2,1.7-0.1,2.5l0,0l-1.1,0.7
						l-0.1-0.1c-4.3-3.8-9.8-5.5-15.2-5L92,87.9L109.7,97.7z M105.3,104.2c0.2,0.2,0.6,0.5,0.8,0.8l-8.5,7.1V112l-0.8,0.1l-0.4-0.7
						l-0.7,0.4l-0.2-0.2l-0.1-0.6l0.1-0.1l-0.1-0.2l-1.6-10.3c3.7-0.2,7.5,0.8,10.6,3.3L104,104l0.4,0.5l0.6-0.5
						C105.2,104.1,105.2,104.1,105.3,104.2z M110.2,112l-0.4,0.7l0.5,0.2l0.1-0.1c1,4.7-0.2,9.7-3.6,13.6
						c-5.7,6.6-15.7,7.2-22.2,1.4c-6.6-5.7-7.2-15.7-1.4-22.2c2.3-2.5,5.1-4.2,8.2-4.9l1.7,10.9h-0.2l-0.2,0.7h-0.8l-0.1,0.8
						l-0.7,0.2l0.1,0.8l-0.7,0.4l0.4,0.7l-0.6,0.6l0.5,0.6l-0.4,0.7l0.6,0.5l-0.2,0.7l0.7,0.2v0.8l0.8,0.1l0.2,0.7l0.8-0.1l0.4,0.7
						l0.7-0.4l0.6,0.6l0.4-0.4l0.8,0.4v-0.1l0.5-0.6l0.7,0.2l0.2-0.7h0.8l0.1-0.8l0.7-0.2v-0.1c1,0.5,1.7,0.8,2,1.1
						c0.5,0.5,0.8,0.8,1.2,1.3h-0.2v0.2l-0.2,0.1l0.1,0.2l-0.2,0.2l0.1,0.2l-0.1,0.2l-0.4-0.1l-0.2,0.6l0.8,0.4l0,0h0.1h0.1v0.2h0.2
						l0.1,0.2l0.2-0.1l0.2,0.2l0.2-0.1l0.2,0.1l0.1-0.2l0.2,0.1l0.1-0.2h0.2v-0.2h0.1l0,0l0,0h0.1v-0.1l0.1-0.1l0.1-0.1l-0.1-0.2
						l0,0h0.1l0.7-1.3l-0.5-0.2l-0.4,0.6v-0.1l-0.2-0.1v-0.2h-0.2l-0.1-0.2h-0.2l-0.1-0.2l-0.2,0.1v-0.1c-0.4-0.6-0.8-1.2-1.6-1.9
						c-0.5-0.4-1.4-1-2.5-1.4l-0.1-0.6l0.6-0.6l-0.5-0.6l0.4-0.7l-0.6-0.5l0.1-0.5l8.6-7.1C108.9,108.7,109.7,110.3,110.2,112z
						 M109,101.3l0.7-0.5c0.1,0.4,0.2,0.7,0.4,1.1l-0.4,0.2C109.5,101.7,109.3,101.5,109,101.3z M113.6,93.7
						c-0.2,0.1-0.5,0.1-0.7,0.2l-1.7-2.4l0.6-0.6c0.5-0.5,0.4-1.2-0.1-1.7c-0.4-0.2-0.7-0.4-1.2-0.2l0,0c-0.1,0-0.1,0.1-0.2,0.1
						c0,0,0,0-0.1,0c-0.1,0-0.1,0.1-0.2,0.2l-2.2,2.5c-0.1,0.1-0.1,0.1-0.1,0.2c0,0,0,0,0,0.1c0,0.1,0,0.1-0.1,0.2l0,0
						c0,0.2,0,0.4,0,0.6l0,0l0,0c0,0.1,0,0.1,0.1,0.2l-15.3-8.5l18.5-27.4L113.6,93.7z M120,98.7c0.1,0.6-0.4,1.2-1,1.3
						s-1.2-0.4-1.3-1s0.4-1.2,1-1.3C119.3,97.7,119.9,98,120,98.7z"/>
					<path class="st1" d="M104.7,134.4c-7.4,3.9-16.9,3.2-23.5-2.6c-4.2-3.7-6.7-8.7-7.1-14.2c-0.4-5.5,1.4-10.9,5.1-15.1
						c2.9-3.3,6.7-5.6,11-6.6l-1.4-9.6l-1.4-0.8L87.1,86l-1.8-1l0.4-0.7l-3.3-1.9c-0.2,0.4-0.5,0.7-0.8,1c-1.1,1.1-2.3,1.6-3.3,1.6
						c-1.6-0.1-2.5-1.2-2.9-1.6c-1-1.2-1.2-2.9-1.2-3v-0.1l0.1-0.1c0,0,3.1-2.4,4.9-4.3c1.7-1.9,3.1-3.6,5.7-7.5L85,68l0.2,0.1
						c0.7,0.4,1.2,1,1.3,1.7c0.5,1.8-0.7,4.2-1.9,6.2c-0.5,0.8-0.7,1.7-0.8,2.6c-0.1,0.4-0.1,0.7-0.2,1.2l3.6,1.9l0.4-0.7l1.8,1
						l-0.2,0.5l1,0.5l19.7-29.2l-1-0.6l-0.2,0.4l-1.8-1.1l0.4-0.6l-0.8-0.5c-0.5,0.2-0.8,0.1-1.3-0.1l-1.1-0.6c-0.7-0.4-1-1.3-0.6-2
						l0.5-0.8c0.4-0.6,1-0.8,1.6-0.7c0.4-0.7,0.6-1.6,0.6-2.4c-0.1,0-0.1-0.1-0.2-0.1c-1-0.8-1-2.2-0.2-3.1c0.8-1,2.2-1,3.1-0.2
						c0.5,0.4,0.7,1,0.7,1.4c0,0.6-0.1,1.2-0.5,1.6c-0.1,0.1-0.1,0.1-0.2,0.2c-0.1,1.7-0.6,3.1-1.1,3.9c0.1,0.1,0.1,0.2,0.1,0.5
						l0.8,0.5l0.5-0.7l1.8,1.1l-0.2,0.5l9.9,5.7c0.7-1.2,1.6-2.4,2.5-3.5l0,0c7.5-8.6,20.7-9.4,29.3-1.9c4.2,3.7,6.7,8.7,7.1,14.2
						c0.4,5.5-1.4,10.9-5.1,15.1c-1.7,1.9-3.6,3.5-5.7,4.5c-7.4,3.9-16.9,3.2-23.5-2.6c-6.5-5.6-8.7-14.8-5.7-22.8l-5.1-3l2.9,36.9
						c1,0.2,1.9,0.7,2.6,1.3c1.2,1.1,1.9,2.5,2,4.1c0.1,1.6-0.4,3.1-1.4,4.3c-0.1,0.1-0.1,0.1-0.2,0.2l1.2,1.8l-0.1,0.4
						c0.1-0.1,0.1-0.1,0.2-0.2l0,0c0.1-0.1,0.2-0.1,0.2-0.1l0,0c0.5-0.1,1.1,0,1.4,0.2c0.6,0.5,0.7,1.4,0.1,2l-2.2,2.5
						c-0.2,0.2-0.6,0.5-1,0.5s-0.7-0.1-1.1-0.4c-0.2-0.1-0.4-0.4-0.4-0.6c-0.1-0.2-0.1-0.5,0-0.7l0,0c0-0.1,0-0.2,0.1-0.2
						c0,0,0,0,0-0.1c0.1-0.1,0.1-0.2,0.2-0.4l0.5-0.5l-1.6-2.3c-0.8,0.4-1.7,0.5-2.6,0.5l-0.2,0.5l-1-0.6l0,0
						c-0.7-0.1-1.3-0.5-1.9-0.8l0,0c0.6,0.8,1.1,1.7,1.6,2.5l0.6,0.4l-0.2,0.5c3.5,7.4,2.2,16.3-3.2,22.4
						C108.9,131.7,106.9,133.2,104.7,134.4z M85.3,98.3c-2.2,1.1-4.1,2.6-5.6,4.5c-3.6,4.1-5.4,9.3-5,14.7
						c0.4,5.4,2.7,10.3,6.8,13.9c8.4,7.3,21.2,6.5,28.6-1.9c5.3-6.1,6.5-14.7,3.1-21.9v-0.1l0.1-0.2l-0.4-0.1V107
						c-0.5-1-1.1-1.8-1.7-2.7l-0.1-0.2l0.7-0.6l0.1,0.1c0.7,0.5,1.4,0.8,2.3,1l0.4,0.1l-0.1,0.2h0.1l0.1-0.2h0.1
						c1,0.1,1.9-0.1,2.7-0.5l0.2-0.1l2,3l-0.7,0.8c0,0-0.1,0.1-0.1,0.2l0,0c0,0.1,0,0.1-0.1,0.2h-0.2h0.2c0,0.1,0,0.4,0,0.5
						c0,0.1,0.1,0.4,0.2,0.4c0.2,0.1,0.5,0.2,0.7,0.2c0.2,0,0.5-0.1,0.6-0.4l2.2-2.5c0.4-0.4,0.4-1-0.1-1.3c-0.2-0.2-0.6-0.2-1-0.2
						l-0.1-0.2l0.1,0.2c0,0-0.1,0-0.1,0.1l-0.2-0.2l0.1,0.2c-0.1,0-0.1,0.1-0.1,0.1l-0.6,0.7l-1.9-2.6l0.1-0.1
						c0.1-0.1,0.2-0.2,0.4-0.4c1-1.1,1.4-2.5,1.3-3.9c-0.1-1.4-0.7-2.7-1.8-3.7c-0.7-0.6-1.7-1.1-2.6-1.2h-0.2v-0.2l-3-38.1l6.3,3.7
						l-0.1,0.2c-3,7.9-0.8,17,5.5,22.5c8.4,7.3,21.2,6.5,28.6-1.9c3.6-4.1,5.4-9.3,5-14.7c-0.4-5.4-2.7-10.3-6.8-13.9
						s-9.3-5.4-14.7-5s-10.3,2.7-13.9,6.8l0,0c-1,1.1-1.8,2.3-2.5,3.6l-0.1,0.2l-10.9-6.3l0.2-0.5l-0.8-0.5l-0.5,0.7l-1.6-0.8v-0.1
						c0-0.1,0-0.4-0.1-0.5l-0.1-0.1l0.1-0.1c0.5-0.8,1-2.3,1.1-4.1v-0.1l0.1-0.1c0.1-0.1,0.1-0.1,0.2-0.2c0.6-0.7,0.5-1.7-0.1-2.3
						c-0.7-0.6-1.7-0.5-2.3,0.1c-0.2,0.4-0.5,0.7-0.4,1.2c0,0.5,0.2,0.8,0.6,1.1c0.1,0.1,0.1,0.1,0.2,0.2l0.1,0.1V45
						c-0.1,1-0.4,2-0.7,2.9l-0.1,0.2l-0.2-0.1c-0.5-0.1-1,0-1.1,0.4l-0.5,0.8c-0.2,0.5-0.1,1.1,0.4,1.3L105,51c0.2,0.1,0.6,0.1,1,0
						l0.1-0.1l1.6,0.8l-0.4,0.6l0.8,0.5l0.2-0.4l1.9,1.1L90,83.9l-1.8-1l0.2-0.5L87.6,82l-0.4,0.7l-4.4-2.4v-0.2
						c0.1-0.5,0.2-1,0.4-1.3c0.2-1,0.5-1.9,1-2.7c1.2-1.9,2.3-4.2,1.9-5.7c-0.1-0.5-0.5-1-1-1.3c-2.6,3.7-3.9,5.4-5.6,7.3
						c-1.6,1.8-4.2,3.8-4.8,4.3c0.1,0.4,0.4,1.7,1.1,2.5c0.2,0.4,1.2,1.3,2.5,1.3c1,0,1.9-0.4,3-1.4c0.4-0.4,0.6-0.7,1-1.1l0.1-0.2
						l4.2,2.4l-0.4,0.7l0.8,0.5l0.2-0.5l2.2,1.2L91,96.2h-0.2C88.7,96.7,87,97.4,85.3,98.3z M102.6,130.2c-2,1.1-4.2,1.7-6.6,1.9
						c-4.3,0.2-8.4-1.1-11.6-3.9c-6.7-5.9-7.3-16-1.6-22.6c2.2-2.5,5.1-4.3,8.4-5l0.2-0.1l1.8,11.6l-0.4-0.1l-0.2,0.7h-0.7l-0.1,0.7
						l-0.7,0.1l0.1,0.7l-0.6,0.4l0.4,0.7l-0.5,0.5l0.5,0.6l-0.4,0.6l0.6,0.5l-0.2,0.7l0.7,0.2v0.7l0.7,0.1l0.1,0.7l0.7-0.1l0.4,0.6
						l0.7-0.4l0.5,0.5l0.4-0.2l0.8,0.2l0.5-0.7l0.7,0.2l0.2-0.7h0.7l0.1-0.7l0.7-0.1v-0.4l0.5,0.2c1.1,0.6,1.8,1,2,1.2
						c0.5,0.4,0.8,0.8,1.2,1.3l0.2,0.4l-0.4,0.1v0.2l-0.2,0.1l0.1,0.2l-0.1,0.1l0.1,0.1l-0.4,0.6l-0.2-0.1v0.1l1.1,0.4v0.1h0.2
						l0.1,0.2l0.2-0.1l0.1,0.1l0.1-0.1l0.1,0.1l0.1-0.1h0.2l0.1-0.2l0,0l0.5-1.6l-0.2-0.1v-0.2h-0.2V121h-0.2l-0.1-0.2l-0.2,0.1
						l-0.2-0.2c-0.4-0.7-1-1.3-1.6-1.8c-0.2-0.2-0.8-0.6-2.5-1.4h-0.1l-0.2-0.6l0.5-0.5l-0.5-0.6l0.4-0.6l-0.6-0.5l0.2-0.7l8.8-7.3
						l0.1,0.2c1.1,1.6,1.9,3.2,2.3,5v0.1l-0.4,0.6h0.1l0.2-0.5l0.1,0.7c1.1,5-0.4,10-3.6,13.7C105.7,128.2,104.2,129.3,102.6,130.2z
						 M87.5,102.5c-1.7,0.8-3.1,2-4.3,3.5c-5.6,6.5-5,16.3,1.4,21.9c3.1,2.7,7.1,4.1,11.2,3.8c4.2-0.2,7.9-2.2,10.6-5.3
						c3.1-3.6,4.4-8.4,3.6-13l-0.7-0.5l0.5-0.8c-0.5-1.7-1.1-3.1-2-4.5l-8.2,6.8v0.2l0.7,0.5l-0.5,0.7l0.5,0.7l-0.6,0.6v0.1
						c1.3,0.6,2.2,1.1,2.5,1.4c0.6,0.5,1.1,1.2,1.6,1.8l0.2-0.1l0.1,0.2h0.4l0.1,0.4h0.4l0,0l0.2-0.4l1,0.6l-0.8,1.6l0.1,0.2
						l-0.2,0.1v0.4l-0.2,0.1l-0.1,0.1v0.2h-0.4l-0.1,0.4l-0.4-0.1l-0.2,0.2l-0.2-0.1l-0.2,0.2l-0.2-0.2l-0.2,0.1l-0.1-0.2h-0.4
						l-0.1-0.4h-0.4v-0.1l-1-0.4l0.4-1.1h0.1l0,0l0.2-0.2l-0.1-0.2l0.2-0.1v-0.4h0.1c-0.2-0.4-0.6-0.7-0.8-1c-0.1-0.1-0.6-0.4-1.7-1
						l-0.6,0.1l-0.1,0.8h-0.8l-0.4,0.8l-0.8-0.2l-0.4,0.5l-0.1,0.2l-1-0.4l-0.5,0.4l-0.6-0.6l-0.8,0.4l-0.4-0.7l-0.8,0.1l-0.2-0.8
						l-0.8-0.1v-0.8l-0.8-0.4l0.2-0.8l-0.7-0.5l0.5-0.7l-0.5-0.7l0.6-0.6l-0.4-0.8l0.7-0.4l-0.1-0.8l0.8-0.2l0.1-0.8h0.8l0.4-0.8
						l0,0L91.1,101C89.8,101.4,88.7,101.9,87.5,102.5z M104.2,123.1L104.2,123.1L104.2,123.1L104.2,123.1z M104.5,122.9L104.5,122.9
						L104.5,122.9l0.1-0.2v-0.1L104.5,122.9L104.5,122.9z M104.8,122.1L104.8,122.1l0.5-0.8h-0.1L104.8,122.1L104.8,122.1z
						 M97.5,112.5l-0.1-0.2l-0.7,0.1l-0.4-0.6l-0.7,0.4l-0.4-0.4l-0.1-0.8l0,0l0,0v-0.1l-1.6-10.5h0.2c3.9-0.2,7.8,1,10.9,3.3
						l0.2,0.2l-0.6,0.4v0.1l0.6-0.5l0.2,0.2l0.1,0.1l0,0c0.2,0.2,0.5,0.5,0.8,0.8l0.2,0.2L97.5,112.5z M97.1,111.8l0.7-0.1l8-6.7
						c-0.2-0.2-0.5-0.4-0.6-0.6l0,0l0,0l-0.7,0.5l-0.6-1l0.5-0.4c-2.9-2.2-6.3-3.2-9.9-3l1.4,9.9l0.2,0.4l-0.2,0.1v0.4l0,0l0.8-0.4
						L97.1,111.8z M109.7,102.3l-0.1-0.1c-0.2-0.2-0.5-0.5-0.7-0.7l-0.2-0.2l1-0.7v-0.1l-1,0.7l-0.2-0.2c0,0,0,0-0.1-0.1
						c-4.2-3.6-9.4-5.4-14.9-4.9h-0.2l-1.3-8.6l18.4,10.2v0.2c-0.2,0.8-0.2,1.6-0.1,2.4v0.2l0.1,0.2c0.1,0.4,0.2,0.7,0.4,1l0.1,0.2
						L109.7,102.3z M109.4,101.3c0.1,0.1,0.2,0.2,0.4,0.4l0,0c-0.1-0.1-0.1-0.4-0.2-0.5L109.4,101.3z M93.5,95.4
						c5.6-0.4,10.9,1.4,15.2,5l0.7-0.6c-0.1-0.7,0-1.4,0.1-2.2l-17.1-9.4L93.5,95.4z M145.8,80.8c-5.7,3.1-13,2.5-18.2-2
						c-4.9-4.3-6.7-11-4.7-17.1l0.1-0.4l10.5,6.1c0.1,0.1,0.4,0.1,0.5,0.1l2.6,0.1l0.1,0.1c0.1,0.1,0.1,0.2,0.2,0.2
						c0.7,0.7,1.9,0.6,2.6-0.1c0.4-0.4,0.5-0.8,0.5-1.3s-0.2-1-0.6-1.3c-0.7-0.6-1.9-0.6-2.5,0.1l-0.1,0.1l-2.4-0.1l0,0l-10.4-6
						l0.1-0.2c0.6-1.1,1.3-2,2-3c5.9-6.7,16-7.3,22.6-1.6c3.2,2.9,5.1,6.7,5.4,11c0.2,4.3-1.1,8.4-3.9,11.6l0,0
						C148.9,78.8,147.4,79.9,145.8,80.8z M123.4,62c-1.8,5.9,0,12.2,4.5,16.3c6.5,5.6,16.3,5,21.9-1.4l0,0c5.6-6.5,5-16.3-1.4-21.9
						s-16.3-5-21.9,1.4c-0.7,0.8-1.3,1.7-1.9,2.6l9.9,5.7l2,0.1c0.8-0.8,2.3-0.8,3.2-0.1c0.5,0.4,0.7,1,0.8,1.7
						c0,0.6-0.1,1.2-0.6,1.7c-0.8,1-2.4,1.1-3.3,0.2c-0.1-0.1-0.2-0.1-0.2-0.2L134,68c-0.2,0-0.5-0.1-0.7-0.2L123.4,62z M111.2,95.6
						l-3-1.7l0,0l-16.4-9.1l19-28.2l2.9,37.3l-0.2,0.1c-0.2,0.1-0.5,0.1-0.7,0.2l-0.2,0.1l-1.9-2.7l0.7-0.8c0.4-0.4,0.4-1-0.1-1.3
						c-0.2-0.2-0.6-0.2-1-0.2l-0.1-0.2l0.1,0.2c0,0-0.1,0-0.1,0.1l-0.2-0.2l0.1,0.2c-0.1,0-0.1,0.1-0.1,0.1l-2.2,2.5
						c0,0-0.1,0.1-0.1,0.2l0,0c0,0.1,0,0.1-0.1,0.2h-0.2h0.2c0,0.1,0,0.4,0,0.5c0,0,0,0.1,0.1,0.1l0.2,0.5h0.6
						c0.2,0,0.5-0.1,0.7-0.4l0.6-0.7l1.8,2.5l-0.1,0.1l-0.1,0.1L111.2,95.6z M112.8,93.7c0.1,0,0.2-0.1,0.4-0.1l-2.7-35.4L92.5,84.8
						l14.5,8c0-0.1,0-0.2,0-0.4l0,0c0-0.1,0-0.2,0.1-0.2c0,0,0,0,0-0.1c0-0.1,0.1-0.2,0.2-0.2l2.2-2.5c0.1-0.1,0.1-0.1,0.2-0.2l0,0
						c0.1,0,0.2-0.1,0.2-0.1l0,0c0.5-0.1,1,0,1.4,0.2c0.6,0.5,0.7,1.4,0.1,2l-0.5,0.5L112.8,93.7z M109.3,94l1.6,0.8l-1-1.3
						l-0.2,0.2C109.5,93.8,109.4,93.8,109.3,94z"/>
				</g>
				<g>
					
						<rect x="101.2" y="105.6" transform="matrix(0.8123 -0.5832 0.5832 0.8123 -42.6192 79.3306)" class="st2" width="1.4" height="0.6"/>
				</g>
				<g>
					
						<rect x="98.3" y="107.6" transform="matrix(0.8123 -0.5832 0.5832 0.8123 -44.3499 78.0322)" class="st2" width="1.4" height="0.6"/>
				</g>
				<g>
					
						<rect x="99.8" y="106.7" transform="matrix(0.8123 -0.5832 0.5832 0.8123 -43.5065 78.7108)" class="st2" width="1.4" height="0.6"/>
				</g>
				<g>
					
						<rect x="95.5" y="109.8" transform="matrix(0.8123 -0.5832 0.5832 0.8123 -46.1228 76.7926)" class="st2" width="1.4" height="0.6"/>
				</g>
				<g>
					
						<rect x="97" y="108.7" transform="matrix(0.8125 -0.583 0.583 0.8125 -45.228 77.3773)" class="st2" width="1.4" height="0.6"/>
				</g>
				<g>
					
						<rect x="102.7" y="104.6" transform="matrix(0.8123 -0.5832 0.5832 0.8123 -41.7758 80.0091)" class="st2" width="1.4" height="0.6"/>
				</g>
				<g>
					
						<rect x="96.7" y="120.3" transform="matrix(0.3275 -0.9448 0.9448 0.3275 -49.1954 173.0878)" class="st2" width="0.6" height="1.6"/>
				</g>
				<g>
					
						<rect x="100.1" y="121.6" transform="matrix(0.3277 -0.9448 0.9448 0.3277 -48.0745 177.11)" class="st2" width="0.6" height="1.6"/>
				</g>
				<g>
					
						<rect x="98.4" y="120.9" transform="matrix(0.3277 -0.9448 0.9448 0.3277 -48.634 175.0884)" class="st2" width="0.6" height="1.6"/>
				</g>
				<g>
					
						<rect x="106.1" y="118.2" transform="matrix(0.4889 -0.8724 0.8724 0.4889 -48.7086 153.8209)" class="st2" width="1.6" height="0.6"/>
				</g>
				<g>
					
						<rect x="113.1" y="105.6" transform="matrix(0.4885 -0.8726 0.8726 0.4885 -34.1451 153.5825)" class="st2" width="1.6" height="0.6"/>
				</g>
				<g>
					
						<rect x="105.2" y="119.8" transform="matrix(0.4889 -0.8724 0.8724 0.4889 -50.6028 153.8452)" class="st2" width="1.6" height="0.6"/>
				</g>
				<g>
					
						<rect x="108.8" y="113.5" transform="matrix(0.4889 -0.8724 0.8724 0.4889 -43.2678 153.7522)" class="st2" width="1.6" height="0.6"/>
				</g>
				<g>
					
						<rect x="107.9" y="115.1" transform="matrix(0.4886 -0.8725 0.8725 0.4886 -45.1596 153.8191)" class="st2" width="1.6" height="0.6"/>
				</g>
				<g>
					
						<rect x="107" y="116.7" transform="matrix(0.4889 -0.8724 0.8724 0.4889 -46.9354 153.7988)" class="st2" width="1.6" height="0.6"/>
				</g>
			</g>
		</g>
		<g>
			<g>
				<g>
					<path class="st0" d="M95.3,57.7l-9.7-0.5c-1,0-1.8-1-1.8-1.9l1.1-24c0-1,1-1.8,1.9-1.8l9.7,0.5c1,0,1.8,1,1.8,1.9l-1.1,24
						C97.1,56.9,96.2,57.7,95.3,57.7z"/>
					<path class="st1" d="M95.3,58L95.3,58l-9.8-0.5c-0.6,0-1.1-0.2-1.4-0.7c-0.4-0.4-0.6-1-0.6-1.6l1.1-24c0-1.2,1.1-2,2.2-2
						l9.7,0.5c0.6,0,1.1,0.2,1.4,0.7c0.4,0.4,0.6,1,0.6,1.6l-1,24c0,0.6-0.2,1.1-0.7,1.4C96.3,57.7,95.9,58,95.3,58z M86.7,29.9
						c-0.4,0-0.7,0.1-1.1,0.4c-0.4,0.2-0.5,0.7-0.5,1.1l-1.1,24c0,0.5,0.1,0.8,0.4,1.1c0.2,0.4,0.7,0.5,1.1,0.5l9.7,0.5
						c0.4,0,0.8-0.1,1.1-0.4c0.4-0.2,0.5-0.7,0.5-1.1l1.1-24c0-0.5-0.1-0.8-0.4-1.1c-0.2-0.2-0.7-0.5-1.1-0.5L86.7,29.9
						C86.8,29.9,86.7,29.9,86.7,29.9z"/>
				</g>
				<g>
					<g>
						
							<rect x="80.4" y="37.9" transform="matrix(4.333013e-02 -0.9991 0.9991 4.333013e-02 43.4487 132.5757)" class="st3" width="21.2" height="11.4"/>
						<path class="st1" d="M96.3,54.6l-11.7-0.5l1-21.5l11.7,0.5L96.3,54.6z M85,53.8l11,0.5l1-20.8l-11-0.5L85,53.8z"/>
					</g>
				</g>
			</g>
			<g>
				<g>
					
						<ellipse transform="matrix(4.333013e-02 -0.9991 0.9991 4.333013e-02 30.8952 143.7908)" class="st2" cx="90.5" cy="55.8" rx="1" ry="1"/>
				</g>
				<g>
					<g>
						<g>
							<path class="st2" d="M92.5,31.8l-2.2-0.1c0,0-0.1,0-0.1-0.1l0,0c0,0,0-0.1,0.1-0.1l2.2,0.1C92.6,31.6,92.6,31.6,92.5,31.8
								L92.5,31.8C92.6,31.7,92.6,31.8,92.5,31.8z"/>
						</g>
					</g>
					<g>
						
							<ellipse transform="matrix(4.333013e-02 -0.9991 0.9991 4.333013e-02 54.0688 119.5441)" class="st2" cx="89.5" cy="31.5" rx="0.2" ry="0.2"/>
					</g>
				</g>
			</g>
		</g>
		<g>
			<g>
				<g>
					<path class="st0" d="M79.1,138.6l-24.5-14.8c-1.7-1.1-2.3-3.2-1.2-4.9L64,101.3c1.1-1.7,3.2-2.3,4.9-1.2l24.5,14.8
						c1.7,1.1,2.3,3.2,1.2,4.9L84,137.4C83.1,139,80.8,139.6,79.1,138.6z"/>
					<path class="st1" d="M81,139.4c-0.7,0-1.3-0.2-2-0.6L54.5,124c-1.8-1.1-2.4-3.5-1.3-5.3l10.5-17.6c1.1-1.8,3.5-2.4,5.3-1.3
						l24.5,14.8c0.8,0.5,1.6,1.4,1.8,2.4s0.1,2-0.5,2.9l-10.5,17.6c-0.5,0.8-1.4,1.6-2.4,1.8C81.6,139.3,81.3,139.4,81,139.4z
						 M67.1,99.8c-1.1,0-2.3,0.6-2.9,1.7l-10.5,17.6c-1,1.6-0.5,3.6,1.2,4.5l24.5,14.8c0.7,0.5,1.7,0.6,2.5,0.4
						c0.8-0.2,1.6-0.7,2-1.6l10.5-17.6c1-1.6,0.5-3.6-1.2-4.5l-24.4-14.8C68.3,99.9,67.7,99.8,67.1,99.8z"/>
				</g>
				<g>
					<g>
						
							<rect x="63.5" y="104" transform="matrix(0.5162 -0.8565 0.8565 0.5162 -66.3604 121.182)" class="st3" width="21.2" height="30.6"/>
						<path class="st1" d="M81.8,136.5l-26.4-16l11.1-18.4l26.4,16L81.8,136.5z M55.8,120.4L81.6,136l10.8-17.8l-25.9-15.7
							L55.8,120.4z"/>
					</g>
				</g>
			</g>
			<g>
				<g>
					<g>
						<g>
							<path class="st2" d="M82.7,110.6l-4.9-3c-0.1-0.1-0.2-0.1-0.1-0.2l0,0c0,0,0.1,0,0.2,0l4.9,3c0.1,0.1,0.2,0.1,0.1,0.2l0,0
								C83,110.6,82.8,110.6,82.7,110.6z"/>
						</g>
					</g>
					<g>
						
							<ellipse transform="matrix(0.5162 -0.8565 0.8565 0.5162 -54.3837 115.9084)" class="st2" cx="75.4" cy="106.1" rx="0.2" ry="0.6"/>
					</g>
				</g>
			</g>
			<g>
				<ellipse transform="matrix(0.5162 -0.8565 0.8565 0.5162 -78.1995 119.7555)" class="st2" cx="66.9" cy="129.1" rx="1" ry="1"/>
			</g>
		</g>
	</g>
	<g>
		<g>
			<g>
				<path class="st3" d="M143.1,115.2c-0.4-1-0.6-1.9-1-3.1c-0.6-2.2-1.1-6.5-1.4-10.2c-0.1-1.4-0.2-2.7-0.5-3.8
					c-0.6-5.1-4.3-8.8-7.9-11.4c-0.8-1.4-1.8-2.7-3-3.8c-3.5-3.5-8-5.4-12.9-5.4c-4.8,0-9.4,1.9-12.9,5.4c-1.2,1.2-2.2,2.5-3,3.8
					c-3.6,2.5-7.2,6.2-7.9,11.4c-0.1,1.1-0.2,2.4-0.5,3.8c-0.4,3.7-0.8,7.9-1.4,10.2c-0.4,1.2-0.6,2.2-1,3.1
					c-0.7,2.2-1.3,4.1-1.3,7.2c0,2.9,1.1,5.5,3.1,7.5c2,2,4.7,3.2,7.5,3.2c4.9,0,9.1-3.3,10.3-7.9c0.6,0.1,1.1,0.2,1.7,0.2l0,0
					c2,0,3.8-0.8,5.1-2.2c1.3,1.3,3.2,2.2,5.1,2.2l0,0c0.6,0,1.2-0.1,1.7-0.2c1.2,4.5,5.4,7.9,10.3,7.9c2.9,0,5.5-1.1,7.5-3.2
					c2-2,3.1-4.7,3.1-7.5C144.4,119.2,143.8,117.4,143.1,115.2z"/>
				<path class="st4" d="M133.6,133.4c-4.8,0-9.1-3.2-10.5-7.8c-0.5,0.1-1,0.1-1.4,0.1c-2,0-3.8-0.7-5.1-2c-1.4,1.3-3.2,2-5.1,2
					c-0.5,0-1.1,0-1.6-0.1c-1.4,4.7-5.6,7.8-10.5,7.8c-2.9,0-5.7-1.2-7.8-3.2s-3.2-4.8-3.2-7.8c0-3.2,0.6-5.1,1.3-7.3
					c0.4-1,0.6-1.9,1-3.1c0.6-2.2,1.1-6.3,1.4-10.2c0.1-1.4,0.2-2.7,0.5-3.8c0.5-4.3,3.2-8.2,7.9-11.6c0.8-1.4,1.8-2.7,3-3.8
					c3.6-3.6,8.1-5.5,13.1-5.5c4.9,0,9.6,1.9,13.1,5.5c1.2,1.2,2.2,2.5,3,3.8c4.7,3.3,7.4,7.3,7.9,11.6c0.1,1.1,0.2,2.3,0.4,3.7v0.2
					c0.4,3.7,0.8,7.9,1.4,10.2c0.4,1.2,0.6,2.2,1,3.1l-0.2,0.1l0.2-0.1c0.7,2.2,1.3,4.1,1.3,7.3c0,2.9-1.2,5.6-3.2,7.8
					C139.4,132.2,136.6,133.4,133.6,133.4z M123.6,124.9l0.1,0.2c1.2,4.5,5.4,7.7,10,7.7c2.7,0,5.4-1.1,7.3-3.1c1.9-2,3-4.5,3-7.3
					c0-3.1-0.6-5-1.3-7.1l0.2-0.1l-0.2,0.1c-0.4-1-0.6-1.9-1-3.1c-0.6-2.3-1.1-6.5-1.4-10.2v-0.2c-0.1-1.3-0.2-2.6-0.4-3.6
					c-0.5-4.2-3.1-7.9-7.8-11.2l-0.1-0.1c-0.8-1.4-1.8-2.6-2.9-3.8c-3.5-3.5-7.9-5.4-12.7-5.4s-9.2,1.9-12.7,5.4
					c-1.2,1.2-2.2,2.4-2.9,3.8l-0.1,0.1c-4.7,3.2-7.2,7.1-7.8,11.2c-0.1,1.1-0.2,2.4-0.5,3.8c-0.4,3.7-0.8,8-1.4,10.2
					c-0.4,1.2-0.6,2.2-1,3.1c-0.7,2.2-1.3,4.1-1.3,7.2c0,2.7,1.1,5.4,3,7.3c1.9,2,4.5,3.1,7.3,3.1c4.7,0,8.7-3.1,10-7.7l0.1-0.2
					l0.2,0.1c0.5,0.1,1.1,0.2,1.7,0.2c1.9,0,3.7-0.7,5-2l0.2-0.2l0.2,0.2c1.3,1.3,3.1,2,4.9,2c0.6,0,1.1-0.1,1.7-0.2L123.6,124.9z"
					/>
			</g>
			<g>
				<g>
					<path class="st3" d="M108.3,98.6c-0.5,0-1.2,0-1.7,0c-0.5,0-0.8,0.7-0.8,1.7s0.7,1.7,1.7,1.7s1.7-0.7,1.7-1.7
						C109.1,99.3,108.8,98.6,108.3,98.6z"/>
				</g>
				<g>
					<path class="st4" d="M107.5,102.6c-1.2,0-2.3-1-2.3-2.3s0.6-2.3,1.4-2.3h1.7c0.8,0,1.4,1,1.4,2.3
						C109.7,101.5,108.8,102.6,107.5,102.6z M106.7,99.2c0,0-0.2,0.4-0.2,1.1c0,0.6,0.5,1.1,1.1,1.1s1.1-0.5,1.1-1.1s-0.2-1-0.2-1.1
						H106.7z"/>
				</g>
			</g>
			<g>
				<g>
					<path class="st3" d="M125.5,102c1,0,1.7-0.7,1.7-1.7s-0.4-1.7-0.8-1.7c-0.5,0-1.2,0-1.7,0c-0.5,0-0.8,0.7-0.8,1.7
						C123.8,101.1,124.6,102,125.5,102z"/>
				</g>
				<g>
					<path class="st4" d="M125.5,102.6c-1.2,0-2.3-1-2.3-2.3s0.6-2.3,1.4-2.3h1.7c0.8,0,1.4,1,1.4,2.3
						C127.7,101.5,126.7,102.6,125.5,102.6z M126.2,99.2h-1.6c0,0-0.2,0.4-0.2,1.1c0,0.6,0.5,1.1,1.1,1.1s1.1-0.5,1.1-1.1
						C126.5,99.6,126.4,99.2,126.2,99.2z"/>
				</g>
			</g>
		</g>
		<g>
			<g>
				<path class="st0" d="M99.3,130.3c-1.9,0-3.8-0.8-5.3-2.2c-1.4-1.4-2.2-3.2-2.2-5.3c0-2.6,0.5-4.1,1.2-6.2c0.4-1,0.7-2,1.1-3.3
					c0.6-2.4,1.1-6.8,1.6-10.6c0.1-1.4,0.2-2.7,0.5-3.8c0.2-2,1.2-3.8,2.4-5.4c-0.1,0.8-0.1,2-0.1,2.9l0,0c0,1.9-0.1,5.9,1.9,11
					l3.5,8.5l0.2,3l0,0c0.1,1.9,1,3.6,2.4,4.9c0.1,0.1,0.2,0.2,0.4,0.2C106,127.7,102.9,130.3,99.3,130.3L99.3,130.3z"/>
			</g>
			<g>
				<path class="st4" d="M99.3,130.7c-2,0-3.9-0.8-5.5-2.3c-1.4-1.4-2.3-3.3-2.3-5.4c0-2.6,0.5-4.2,1.2-6.2c0.4-1,0.7-2,1-3.3
					c0.6-2.4,1.1-6.8,1.6-10.6v-0.2c0.1-1.3,0.2-2.5,0.4-3.6c0.2-1.9,1.1-3.8,2.5-5.5l0.7-0.8l-0.1,1.1c-0.1,0.8-0.1,2-0.1,2.9v0.2
					c0,1.7-0.1,5.6,1.9,10.8l3.5,8.6l0.2,3c0.1,1.8,1,3.5,2.3,4.7c0.1,0.1,0.2,0.2,0.4,0.2l0.1,0.1v0.1
					C106.3,127.9,103,130.7,99.3,130.7z M98,94.7c-1,1.4-1.6,2.9-1.7,4.3c-0.1,1.1-0.2,2.3-0.4,3.6v0.2c-0.4,3.8-0.8,8.2-1.6,10.6
					c-0.4,1.3-0.7,2.4-1.1,3.3c-0.7,2-1.2,3.5-1.2,6.1c0,1.9,0.7,3.7,2,5c1.3,1.3,3.1,2.2,5,2.2c3.3,0,6.3-2.4,6.9-5.7
					c-0.1,0-0.1-0.1-0.2-0.2c-1.4-1.3-2.3-3.1-2.5-5l-0.2-3l-3.5-8.5c-2.2-5.5-2-9.6-2-11.1v-0.1C98,95.9,98,95.3,98,94.7z"/>
			</g>
		</g>
		<g>
			<g>
				<path class="st0" d="M138.9,128.2c-1.4,1.4-3.2,2.2-5.3,2.2c-3.6,0-6.7-2.6-7.3-6.1c0.1-0.1,0.2-0.2,0.4-0.2
					c1.3-1.3,2.2-3,2.4-4.9l0.2-3l3.5-8.5l0,0c2-5.3,2-9.6,1.9-11.5l0,0c0-0.8,0-1.7-0.1-2.5c1.2,1.6,2.2,3.3,2.4,5.4
					c0.1,1.1,0.2,2.4,0.5,3.8c0.4,3.8,0.8,8.2,1.6,10.6c0.4,1.3,0.7,2.4,1.1,3.3c0.7,2,1.2,3.6,1.2,6.2
					C141.1,124.8,140.3,126.7,138.9,128.2L138.9,128.2z"/>
			</g>
			<g>
				<path class="st4" d="M133.6,130.7c-3.7,0-6.9-2.6-7.7-6.3v-0.1l0.1-0.1c0.1-0.1,0.2-0.1,0.4-0.2c1.3-1.2,2.2-2.9,2.3-4.7
					l0.2-3.1l3.5-8.5c2-5.1,1.9-9.6,1.9-11.4c0-0.8,0-1.7-0.1-2.4l-0.1-1.1l0.7,0.8c1.4,1.8,2.3,3.6,2.5,5.5
					c0.1,1.1,0.2,2.3,0.4,3.6v0.2c0.4,3.8,0.8,8.1,1.6,10.6c0.4,1.3,0.7,2.4,1,3.3c0.7,2.2,1.2,3.6,1.2,6.3c0,2-0.8,3.9-2.3,5.4l0,0
					C137.7,129.8,135.8,130.7,133.6,130.7z M126.7,124.3c0.7,3.3,3.6,5.7,6.9,5.7c1.9,0,3.7-0.7,5-2.2l0,0c1.3-1.3,2-3.1,2-5
					c0-2.6-0.5-4.1-1.2-6.1c-0.4-1-0.7-2-1.1-3.3c-0.6-2.5-1.1-6.8-1.6-10.6v-0.2c-0.1-1.3-0.2-2.5-0.4-3.6c-0.2-1.4-0.7-3-1.7-4.3
					c0,0.5,0,1,0,1.4c0,1.9,0.1,6.3-1.9,11.6l-3.5,8.5l-0.2,3c-0.1,1.9-1.1,3.7-2.5,5C126.8,124.2,126.8,124.3,126.7,124.3z"/>
			</g>
		</g>
		<g>
			<path class="st3" d="M114.6,117.8c-0.5-0.4-0.8-0.8-0.8-1.4c0-1,0.7-1.7,1.7-1.7h2c1,0,1.7,0.7,1.7,1.7c0,0.6-0.4,1.2-0.8,1.4
				l-1.9,1.1L114.6,117.8z"/>
			<path class="st4" d="M116.5,119.5l-2.2-1.3c-0.7-0.4-1.1-1.2-1.1-1.9c0-1.3,1.1-2.3,2.3-2.3h2c1.3,0,2.3,1.1,2.3,2.3
				c0,0.8-0.5,1.6-1.1,1.9L116.5,119.5z M114.9,117.3l1.6,1l1.6-1c0.4-0.2,0.5-0.6,0.5-1c0-0.6-0.5-1.1-1.1-1.1h-2
				c-0.6,0-1.1,0.5-1.1,1.1C114.4,116.7,114.6,117,114.9,117.3L114.9,117.3z"/>
		</g>
	</g>
</g>
</svg>
